<?xml version="1.0" encoding="UTF-8"?>
<svg width="403px" height="402px" viewBox="0 0 403 402" version="1.1" xmlns="http://www.w3.org/2000/svg" xmlns:xlink="http://www.w3.org/1999/xlink">
    <!-- Generator: Sketch 44.1 (41455) - http://www.bohemiancoding.com/sketch -->
    <title>Group 3</title>
    <desc>Created with Sketch.</desc>
    <defs></defs>
    <g id="Symbols" stroke="none" stroke-width="1" fill="none" fill-rule="evenodd">
        <g id="Group-3">
            <rect id="Rectangle-4" fill="#E40046" x="0" y="0" width="403" height="402"></rect>
            <path d="M216,255 L216,233 C216,230.757813 214.359375,229 212,229 L190,229 C187.640625,229 186,230.757813 186,233 L186,255 C186,257.242188 187.640625,259 190,259 L212,259 C214.359375,259 216,257.242188 216,255 Z M217,210 L219,157 C219,155.8125 218.645833,154.875 218,154 C217.111111,153.703125 216.048611,153 215,153 L189,153 C187.951389,153 186.888889,153.703125 186,154 C185.354167,154.875 185,156.046875 185,157 L187,210 C187.006944,211.828125 188.777778,213 191,213 L213,213 C214.986111,213 216.756944,211.828125 217,210 Z M215,101 L305,267 C307.719069,271.331731 307.60131,276.985577 305,282 C302.184373,286.173077 297.238474,289 292,289 L111,289 C105.761526,289 100.815627,286.173077 98,282 C95.39869,276.985577 95.2809305,271.331731 98,267 L188,101 C190.901645,96.0625 195.965303,93 202,93 C207.034697,93 212.098355,96.0625 215,101 Z" id="ï±" fill="#FFFFFF"></path>
        </g>
    </g>
</svg>