<?xml version="1.0" encoding="UTF-8"?>
<svg width="20px" height="21px" viewBox="0 0 20 21" version="1.1" xmlns="http://www.w3.org/2000/svg" xmlns:xlink="http://www.w3.org/1999/xlink">
    <!-- Generator: Sketch 44.1 (41455) - http://www.bohemiancoding.com/sketch -->
    <title>ic/note</title>
    <desc>Created with Sketch.</desc>
    <defs></defs>
    <g id="Symbols" stroke="none" stroke-width="1" fill="none" fill-rule="evenodd" fill-opacity="0.28">
        <g id="real" transform="translate(-1159.000000, -17.000000)" fill="#000000">
            <g id="Group-2" transform="translate(1148.000000, 18.000000)">
                <path d="M21.1785836,18.7857164 C21.1785836,18.6852699 21.1004585,18.6071448 21.0000119,18.6071448 C20.1183144,18.6071448 19.3928671,17.8816975 19.3928671,17 C19.3928671,16.8995535 19.3147421,16.8214284 19.2142955,16.8214284 C19.113849,16.8214284 19.0357239,16.8995535 19.0357239,17 C19.0357239,18.0825906 19.9174213,18.9642881 21.0000119,18.9642881 C21.1004585,18.9642881 21.1785836,18.886163 21.1785836,18.7857164 Z M30.2857373,15.5714269 C30.2857373,16.3526778 29.6384151,17 28.8571641,17 L23.8571582,17 C23.8571582,18.5736626 22.5736745,19.8571463 21.0000119,19.8571463 C19.4263493,19.8571463 18.1428657,18.5736626 18.1428657,17 L13.1428597,17 C12.3616088,17 11.7142866,16.3526778 11.7142866,15.5714269 C13.3660742,14.1763359 15.2857194,11.6763329 15.2857194,6.28570151 C15.2857194,4.14284182 17.0602751,1.79908902 20.0178679,1.36382065 C19.9620643,1.22989191 19.9285821,1.08480246 19.9285821,0.92855227 C19.9285821,0.337033708 20.4084934,-0.142877579 21.0000119,-0.142877579 C21.5915305,-0.142877579 22.0714418,0.337033708 22.0714418,0.92855227 C22.0714418,1.08480246 22.0379596,1.22989191 21.9821559,1.36382065 C24.9397488,1.79908902 26.7143044,4.14284182 26.7143044,6.28570151 C26.7143044,11.6763329 28.6339496,14.1763359 30.2857373,15.5714269 Z" id="ic/note"></path>
            </g>
        </g>
    </g>
</svg>