<?xml version="1.0" encoding="UTF-8"?>
<svg width="75px" height="73px" viewBox="0 0 75 73" version="1.1" xmlns="http://www.w3.org/2000/svg" xmlns:xlink="http://www.w3.org/1999/xlink">
    <!-- Generator: Sketch 44.1 (41455) - http://www.bohemiancoding.com/sketch -->
    <title>info-icon-1</title>
    <desc>Created with Sketch.</desc>
    <defs></defs>
    <g id="Dashboard:-Engage-Employers" stroke="none" stroke-width="1" fill="none" fill-rule="evenodd">
        <g id="Initial-employers-model-Copy-2" transform="translate(-799.000000, -245.000000)">
            <g id="getting-started" transform="translate(256.000000, 227.000000)">
                <g id="info-icon-1" transform="translate(527.000000, 0.000000)">
                    <rect id="Rectangle" x="0" y="0" width="108" height="108"></rect>
                    <g id="events-duo" transform="translate(16.000000, 17.000000)">
                        <path d="M52,25 L11,25 L11,63 L39,63 L39,51 L65,51 L65,25 L52,25 Z M39,27 L50,27 L50,37 L39,37 L39,27 Z M26,27 L37,27 L37,37 L26,37 L26,27 Z M37,49 L26,49 L26,39 L37,39 L37,49 Z M13,27 L24,27 L24,37 L13,37 L13,27 Z M13,39 L24,39 L24,49 L13,49 L13,39 Z M24,61 L13,61 L13,51 L24,51 L24,61 Z M37,61 L26,61 L26,51 L37,51 L37,61 Z M50,49 L39,49 L39,39 L50,39 L50,49 Z M63,49 L52,49 L52,39 L63,39 L63,49 Z M52,37 L52,27 L63,27 L63,37 L52,37 Z" id="Shape" fill="#47D7AC" fill-rule="nonzero"></path>
                        <path d="M3,70.5368249 C3.0051952,70.6649253 3.06082075,70.7856885 3.15461391,70.8724919 C3.24840707,70.9592953 3.37266684,71.0050118 3.5,70.9995633 L57.94,70.9995633 L57.94,58.4452684 C57.94,57.6119096 58.6115729,56.9363387 59.44,56.9363387 L72,56.9363387 L72,17 L3,17 L3,70.5368249 Z" id="Shape"></path>
                        <polygon id="Shape" points="61 68 70 59 61 59.0201568"></polygon>
                        <path d="M71.5,7.00043576 L60.99,7.00043576 L60.99,8.87951341 C60.99,9.65785285 60.3184271,10.2888216 59.49,10.2888216 C58.6615729,10.2888216 57.99,9.65785285 57.99,8.87951341 L57.99,7.00043576 L46.33,7.00043576 L46.33,8.87951341 C46.33,9.65785285 45.6584271,10.2888216 44.83,10.2888216 C44.0015729,10.2888216 43.33,9.65785285 43.33,8.87951341 L43.33,7.00043576 L31.67,7.00043576 L31.67,8.87951341 C31.67,9.65785285 30.9984271,10.2888216 30.17,10.2888216 C29.3415729,10.2888216 28.67,9.65785285 28.67,8.87951341 L28.67,7.00043576 L17.01,7.00043576 L17.01,8.87951341 C17.01,9.65785285 16.3384271,10.2888216 15.51,10.2888216 C14.6815729,10.2888216 14.01,9.65785285 14.01,8.87951341 L14.01,7.00043576 L3.5,7.00043576 C3.2385221,6.9897236 3.01610944,7.1777924 3,7.42322823 L3,14 L72,14 L72,7.42322823 C71.9838906,7.1777924 71.7614779,6.9897236 71.5,7.00043576 L71.5,7.00043576 Z" id="Shape"></path>
                        <path d="M71.5,4.51540722 L60.99,4.51540722 L60.99,2.50660309 C60.99,1.67452918 60.3184271,1 59.49,1 C58.6615729,1 57.99,1.67452918 57.99,2.50660309 L57.99,4.51540722 L46.33,4.51540722 L46.33,2.50660309 C46.33,1.67452918 45.6584271,1 44.83,1 C44.0015729,1 43.33,1.67452918 43.33,2.50660309 L43.33,4.51540722 L31.67,4.51540722 L31.67,2.50660309 C31.67,1.67452918 30.9984271,1 30.17,1 C29.3415729,1 28.67,1.67452918 28.67,2.50660309 L28.67,4.51540722 L17.01,4.51540722 L17.01,2.50660309 C17.01,1.67452918 16.3384271,1 15.51,1 C14.6815729,1 14.01,1.67452918 14.01,2.50660309 L14.01,4.51540722 L3.5,4.51540722 C1.58191234,4.5042637 0.0165034282,6.05410222 6.99440506e-15,7.98059433 L6.99440506e-15,70.5247107 C0.00528911425,71.4517318 0.377013153,72.3386724 1.0333938,72.990408 C1.68977445,73.6421435 2.57704203,74.0052849 3.5,73.9999419 L59.5,73.9999419 C59.8976907,73.9995902 60.2789653,73.8406286 60.56,73.558005 L74.56,59.4963761 C74.841385,59.2141042 74.9996499,58.8311513 75,58.4317099 L75,7.98059433 C74.9834966,6.05410222 73.4180877,4.5042637 71.5,4.51540722 Z M61,69 L61,60 L70,60 L61,69 Z M71.99,56.9135956 L59.43,56.9135956 C58.6015729,56.9135956 57.93,57.5892923 57.93,58.4228064 L57.93,70.9995632 L3.5,70.9995632 C3.37266684,71.0050128 3.24840707,70.9592877 3.15461391,70.8724681 C3.06082075,70.7856485 3.0051952,70.6648629 3,70.5367386 L3,17 L72,17 L71.99,56.9135956 Z M71.9900014,15 L3,15 L3,8.42322823 C3.0161071,8.1777924 3.23848754,7.9897236 3.49992755,8.00043576 L14.0184031,8.00043576 L14.0184031,9.87951341 C14.0184031,10.6578529 14.6898787,11.2888216 15.5181858,11.2888216 C16.3464929,11.2888216 17.0179684,10.6578529 17.0179684,9.87951341 L17.0179684,8.00043576 L28.6762788,8.00043576 L28.6762788,9.87951341 C28.6762788,10.6578529 29.3477544,11.2888216 30.1760614,11.2888216 C31.0043685,11.2888216 31.6758441,10.6578529 31.6758441,9.87951341 L31.6758441,8.00043576 L43.3341545,8.00043576 L43.3341545,9.87951341 C43.3341545,10.6578529 44.00563,11.2888216 44.8339371,11.2888216 C45.6622442,11.2888216 46.3337198,10.6578529 46.3337198,9.87951341 L46.3337198,8.00043576 L57.9920301,8.00043576 L57.9920301,9.87951341 C57.9920301,10.6578529 58.6635057,11.2888216 59.4918128,11.2888216 C60.3201199,11.2888216 60.9915954,10.6578529 60.9915954,9.87951341 L60.9915954,8.00043576 L71.5000725,8.00043576 C71.7615125,7.9897236 71.9838929,8.1777924 72,8.42322823 L71.9900014,15 Z" id="Shape" fill="#2D2926" fill-rule="nonzero"></path>
                    </g>
                </g>
            </g>
        </g>
    </g>
</svg>