<?xml version="1.0" encoding="UTF-8"?>
<svg width="56px" height="46px" viewBox="0 0 56 46" version="1.1" xmlns="http://www.w3.org/2000/svg" xmlns:xlink="http://www.w3.org/1999/xlink">
    <!-- Generator: Sketch 44.1 (41455) - http://www.bohemiancoding.com/sketch -->
    <title>freelancer/1</title>
    <desc>Created with Sketch.</desc>
    <defs></defs>
    <g id="Dashboard:-Engage-Employers" stroke="none" stroke-width="1" fill="none" fill-rule="evenodd">
        <g id="freelancer/1" transform="translate(-8.000000, -13.000000)">
            <rect id="Rectangle-10-Copy-3" x="0" y="0" width="72" height="72"></rect>
            <g transform="translate(7.800000, 13.200000)" id="Shape" fill-rule="nonzero" fill="#2D2926">
                <path d="M53.4,3.198 C52.0745166,3.198 51,4.2725166 51,5.598 C51.0023906,5.87024216 51.0510854,6.140093 51.144,6.396 L46.62,10.266 C39.9223204,0.15457489 26.4665668,-2.91861116 16.0432322,3.2825118 C5.61989764,9.48363477 1.89992925,22.7751212 7.59,33.486 L4.302,36.486 C4.26,36.486 4.224,36.426 4.182,36.396 C3.15142287,35.7926228 1.83401169,36.0387532 1.09080508,36.9735244 C0.347598478,37.9082956 0.404733103,39.2472833 1.22486669,40.1153468 C2.04500028,40.9834103 3.37858949,41.1164225 4.35402198,40.4274488 C5.32945447,39.7384751 5.64993386,38.4371506 5.106,37.374 L8.202,34.548 C10.8014032,38.8347047 14.7372205,42.1486333 19.404,43.98 C19.4617256,44.0396118 19.5311888,44.0866017 19.608,44.118 C19.6786726,44.1459322 19.754008,44.1601849 19.83,44.16 L19.83,44.16 C28.0617792,47.1784819 37.295833,45.1887465 43.554,39.048 C43.6377943,39.0171193 43.7136385,38.967923 43.776,38.904 C43.8312978,38.8451702 43.8741534,38.775785 43.902,38.7 C51.0864719,31.380055 52.4641591,20.149444 47.262,11.31 L51.822,7.41 C52.624179,8.11741099 53.7976546,8.20863793 54.6995243,7.63370105 C55.6013941,7.05876416 56.0139817,5.95643076 55.7112462,4.93062736 C55.4085107,3.90482396 54.4635206,3.20313942 53.394,3.21 L53.4,3.198 Z M4.026,39.084 C3.7810643,39.5036973 3.3071904,39.7342443 2.82579648,39.6679175 C2.34440256,39.6015907 1.95053135,39.2514852 1.8282197,38.7811883 C1.70590804,38.3108913 1.8793042,37.8132548 2.26738861,37.5207999 C2.65547302,37.2283451 3.18162525,37.198812 3.6,37.446 C4.16842441,37.7818418 4.35878163,38.5137786 4.026,39.084 Z M45.714,11.058 L41.196,14.922 C38.4979689,10.2916341 33.6209987,7.36092575 28.266,7.152 L28.266,1.272 C35.3359131,1.4716169 41.8573525,5.12927432 45.714,11.058 Z M49.2,23.4 C49.0561301,28.7030232 46.9527837,33.7647349 43.296,37.608 L39,33.6 C41.6327031,30.8402317 43.1631391,27.2115829 43.302,23.4 L49.2,23.4 Z M41.532,22.8 C41.5158686,29.3424421 36.926966,34.9826094 30.5245649,36.3291116 C24.1221637,37.6756139 17.6501096,34.3616994 15,28.38 L17.772,25.848 C18.1974325,26.2005622 18.7314848,26.3955337 19.284,26.4 C20.6094834,26.4 21.684,25.3254834 21.684,24 C21.684,23.958 21.684,23.916 21.684,23.874 L33.222,21.126 C33.4507729,22.0078198 34.159093,22.6840867 35.0505545,22.8718084 C35.9420161,23.0595301 36.8629054,22.7263378 37.4278647,22.0116601 C37.9928239,21.2969825 38.1044378,20.3240505 37.716,19.5 L40.38,17.22 C41.1479735,18.9796144 41.540335,20.8801154 41.532,22.8 Z M18.072,24 C18.072,23.3372583 18.6092583,22.8 19.272,22.8 C19.9347417,22.8 20.472,23.3372583 20.472,24 C20.472,24.6627417 19.9347417,25.2 19.272,25.2 C18.9527019,25.2015965 18.6459335,25.0758734 18.4195905,24.8506565 C18.1932475,24.6254396 18.065996,24.3193021 18.066,24 L18.072,24 Z M34.272,20.4 C34.272,19.7372583 34.8092583,19.2 35.472,19.2 C36.1347417,19.2 36.672,19.7372583 36.672,20.4 C36.672,21.0627417 36.1347417,21.6 35.472,21.6 C35.1527019,21.6015965 34.8459335,21.4758734 34.6195905,21.2506565 C34.3932475,21.0254396 34.265996,20.7193021 34.266,20.4 L34.272,20.4 Z M36.972,18.54 C36.5481369,18.1943404 36.018924,18.0038237 35.472,18 C34.3331932,17.9991827 33.3506082,18.7987863 33.12,19.914 L21.3,22.728 C20.626868,21.717154 19.3047146,21.3684542 18.2206165,21.9158549 C17.1365183,22.4632557 16.6321891,23.7342133 17.046,24.876 L14.526,27.18 C12.3002884,20.3937567 15.5957164,13.0272871 22.138367,10.1636156 C28.6810176,7.29994421 36.3285499,9.87675828 39.804,16.116 L36.972,18.54 Z M27.066,1.272 L27.066,7.152 C18.8854341,7.46519379 12.3229731,14.0198143 12,22.2 L6.12,22.2 C6.44956961,10.7741328 15.6398537,1.59174642 27.066,1.272 Z M6.144,23.4 L12,23.4 C12.0642729,25.1432073 12.4212511,26.8631934 13.056,28.488 L8.496,32.652 C7.02503454,29.7845607 6.2210132,26.6218033 6.144,23.4 L6.144,23.4 Z M9.144,33.732 L13.614,29.652 C15.2936529,33.0888868 18.1663034,35.7973249 21.696,37.272 L19.512,42.732 C15.1628339,40.9396745 11.5151341,37.7805811 9.12,33.732 L9.144,33.732 Z M20.634,43.158 L22.8,37.692 C28.1364062,39.4448885 34.0031481,38.1936225 38.16,34.416 L42.45,38.448 C36.628356,43.9648527 28.218072,45.7787902 20.64,43.152 L20.634,43.158 Z M49.2,22.2 L43.32,22.2 C43.2413919,20.0520332 42.7183896,17.9436799 41.784,16.008 L46.356,12.096 C48.1284946,15.1755089 49.1059236,18.6480623 49.2,22.2 L49.2,22.2 Z M53.4,6.798 C52.7372583,6.798 52.2,6.2607417 52.2,5.598 C52.2,4.9352583 52.7372583,4.398 53.4,4.398 C54.0627417,4.398 54.6,4.9352583 54.6,5.598 C54.6,6.2607417 54.0627417,6.798 53.4,6.798 Z"></path>
            </g>
        </g>
    </g>
</svg>