<?xml version="1.0" encoding="UTF-8"?>
<svg width="46px" height="46px" viewBox="0 0 46 46" version="1.1" xmlns="http://www.w3.org/2000/svg" xmlns:xlink="http://www.w3.org/1999/xlink">
    <!-- Generator: Sketch 44.1 (41455) - http://www.bohemiancoding.com/sketch -->
    <title>freelancer/10</title>
    <desc>Created with Sketch.</desc>
    <defs></defs>
    <g id="Dashboard:-Engage-Employers" stroke="none" stroke-width="1" fill="none" fill-rule="evenodd">
        <g id="freelancer/10" transform="translate(-13.000000, -13.000000)">
            <rect id="Rectangle-10-Copy-3" x="0" y="0" width="72" height="72"></rect>
            <g id="freelancer/11" transform="translate(13.200000, 13.200000)" fill-rule="nonzero" fill="#2D2926">
                <path d="M17.4,14.046 C18.7254834,14.046 19.8,12.9714834 19.8,11.646 C19.8,10.3205166 18.7254834,9.246 17.4,9.246 C16.0745166,9.246 15,10.3205166 15,11.646 C15,12.9714834 16.0745166,14.046 17.4,14.046 Z M17.4,10.446 C18.0627417,10.446 18.6,10.9832583 18.6,11.646 C18.6,12.3087417 18.0627417,12.846 17.4,12.846 C16.7372583,12.846 16.2,12.3087417 16.2,11.646 C16.2,10.9832583 16.7372583,10.446 17.4,10.446 Z" id="Shape"></path>
                <path d="M43.2,0.312 L7.2,0.312 C6.01261391,0.341473355 5.07316625,1.32655132 5.1,2.514 L5.1,27.894 L0.3,27.894 L0.3,42 C0.316373661,43.8137609 1.78619153,45.2782339 3.6,45.288 L43.2,45.288 C44.3873861,45.2585266 45.3268337,44.2734487 45.3,43.086 L45.3,2.514 C45.3268337,1.32655132 44.3873861,0.341473355 43.2,0.312 Z M2.076,42 L2.076,29.694 L5.076,29.694 L5.076,34.2 L3.876,34.2 C3.54462915,34.2 3.276,34.4686292 3.276,34.8 C3.276,35.1313708 3.54462915,35.4 3.876,35.4 L5.076,35.4 L5.076,37.8 L3.876,37.8 C3.54462915,37.8 3.276,38.0686292 3.276,38.4 C3.276,38.7313708 3.54462915,39 3.876,39 L5.076,39 L5.076,42 C5.0256457,42.7997466 4.36233021,43.4226113 3.561,43.4226113 C2.75966979,43.4226113 2.0963543,42.7997466 2.046,42 L2.076,42 Z M43.518,43.11 C43.5369662,43.301407 43.4068898,43.4757094 43.218,43.512 L6.54,43.512 C6.78327175,43.0450543 6.91084888,42.526515 6.912,42 L6.912,27.894 L6.912,27.894 L6.912,2.514 C6.89303377,2.32259295 7.02311017,2.14829058 7.212,2.112 L43.2,2.112 C43.3888898,2.14829058 43.5189662,2.32259295 43.5,2.514 L43.518,43.11 Z" id="Shape"></path>
                <path d="M38.4,34.2 L12,34.2 C11.6686292,34.2 11.4,34.4686292 11.4,34.8 C11.4,35.1313708 11.6686292,35.4 12,35.4 L38.4,35.4 C38.7313708,35.4 39,35.1313708 39,34.8 C39,34.4686292 38.7313708,34.2 38.4,34.2 Z" id="Shape"></path>
                <path d="M22.8,37.8 L12.042,37.8 C11.7106292,37.8 11.442,38.0686292 11.442,38.4 C11.442,38.7313708 11.7106292,39 12.042,39 L22.8,39 C23.1313708,39 23.4,38.7313708 23.4,38.4 C23.4,38.0686292 23.1313708,37.8 22.8,37.8 Z" id="Shape"></path>
                <path d="M38.4,37.8 L26.4,37.8 C26.0686292,37.8 25.8,38.0686292 25.8,38.4 C25.8,38.7313708 26.0686292,39 26.4,39 L38.4,39 C38.7313708,39 39,38.7313708 39,38.4 C39,38.0686292 38.7313708,37.8 38.4,37.8 Z" id="Shape"></path>
                <path d="M38.4,30.6 L12,30.6 C11.6686292,30.6 11.4,30.8686292 11.4,31.2 C11.4,31.5313708 11.6686292,31.8 12,31.8 L38.4,31.8 C38.7313708,31.8 39,31.5313708 39,31.2 C39,30.8686292 38.7313708,30.6 38.4,30.6 Z" id="Shape"></path>
                <path d="M38.4,27 L12,27 C11.6686292,27 11.4,27.2686292 11.4,27.6 C11.4,27.9313708 11.6686292,28.2 12,28.2 L38.4,28.2 C38.7313708,28.2 39,27.9313708 39,27.6 C39,27.2686292 38.7313708,27 38.4,27 Z" id="Shape"></path>
                <path d="M38.4,23.4 L12,23.4 C11.6686292,23.4 11.4,23.6686292 11.4,24 C11.4,24.3313708 11.6686292,24.6 12,24.6 L38.4,24.6 C38.7313708,24.6 39,24.3313708 39,24 C39,23.6686292 38.7313708,23.4 38.4,23.4 Z" id="Shape"></path>
                <path d="M26.4,9.6 L38.4,9.6 C38.7313708,9.6 39,9.33137085 39,9 C39,8.66862915 38.7313708,8.4 38.4,8.4 L26.4,8.4 C26.0686292,8.4 25.8,8.66862915 25.8,9 C25.8,9.33137085 26.0686292,9.6 26.4,9.6 Z" id="Shape"></path>
                <path d="M26.4,13.2 L34.8,13.2 C35.1313708,13.2 35.4,12.9313708 35.4,12.6 C35.4,12.2686292 35.1313708,12 34.8,12 L26.4,12 C26.0686292,12 25.8,12.2686292 25.8,12.6 C25.8,12.9313708 26.0686292,13.2 26.4,13.2 Z" id="Shape"></path>
                <path d="M26.4,16.8 L28.8,16.8 C29.1313708,16.8 29.4,16.5313708 29.4,16.2 C29.4,15.8686292 29.1313708,15.6 28.8,15.6 L26.4,15.6 C26.0686292,15.6 25.8,15.8686292 25.8,16.2 C25.8,16.5313708 26.0686292,16.8 26.4,16.8 Z" id="Shape"></path>
                <path d="M13.2,18.6 L21.6,18.6 C22.5941125,18.6 23.4,17.7941125 23.4,16.8 L23.4,8.4 C23.4,7.40588745 22.5941125,6.6 21.6,6.6 L13.2,6.6 C12.2058875,6.6 11.4,7.40588745 11.4,8.4 L11.4,16.8 C11.4,17.7941125 12.2058875,18.6 13.2,18.6 Z M19.8,17.4 L15,17.4 L15,16.5 C15,16.0029437 15.4029437,15.6 15.9,15.6 L18.9,15.6 C19.3970563,15.6 19.8,16.0029437 19.8,16.5 L19.8,17.4 Z M12.6,8.4 C12.6,8.06862915 12.8686292,7.8 13.2,7.8 L21.6,7.8 C21.9313708,7.8 22.2,8.06862915 22.2,8.4 L22.2,16.8 C22.2,17.1313708 21.9313708,17.4 21.6,17.4 L21,17.4 L21,16.5 C21,15.340202 20.059798,14.4 18.9,14.4 L15.9,14.4 C14.740202,14.4 13.8,15.340202 13.8,16.5 L13.8,17.4 L13.2,17.4 C12.8686292,17.4 12.6,17.1313708 12.6,16.8 L12.6,8.4 Z" id="Shape"></path>
            </g>
        </g>
    </g>
</svg>