<?xml version="1.0" encoding="UTF-8"?>
<svg width="48px" height="52px" viewBox="0 0 48 52" version="1.1" xmlns="http://www.w3.org/2000/svg" xmlns:xlink="http://www.w3.org/1999/xlink">
    <!-- Generator: Sketch 44.1 (41455) - http://www.bohemiancoding.com/sketch -->
    <title>freelancer/11</title>
    <desc>Created with Sketch.</desc>
    <defs></defs>
    <g id="Dashboard:-Engage-Employers" stroke="none" stroke-width="1" fill="none" fill-rule="evenodd">
        <g id="freelancer/11" transform="translate(-12.000000, -10.000000)">
            <rect id="Rectangle-10-Copy-3" x="0" y="0" width="72" height="72"></rect>
            <g id="freelancer/12" transform="translate(12.600000, 10.200000)" fill-rule="nonzero" fill="#2D2926">
                <path d="M44.112,28.8 L40.512,28.8 L40.512,28.2 C40.512,26.8745166 39.4374834,25.8 38.112,25.8 L24.312,25.8 L24.312,23.19 L27.912,23.19 C29.2374834,23.19 30.312,22.1154834 30.312,20.79 L30.312,11.79 C30.312,10.4645166 29.2374834,9.39 27.912,9.39 L18.912,9.39 C17.5865166,9.39 16.512,10.4645166 16.512,11.79 L16.512,20.79 C16.512,22.1154834 17.5865166,23.19 18.912,23.19 L22.512,23.19 L22.512,25.8 L8.712,25.8 C7.3865166,25.8 6.312,26.8745166 6.312,28.2 L6.312,28.8 L2.712,28.8 C1.3865166,28.8 0.312,29.8745166 0.312,31.2 L0.312,46.2 C0.312,47.5254834 1.3865166,48.6 2.712,48.6 L6.312,48.6 L6.312,49.2 C6.312,50.5254834 7.3865166,51.6 8.712,51.6 L38.112,51.6 C39.4374834,51.6 40.512,50.5254834 40.512,49.2 L40.512,48.6 L44.112,48.6 C45.4374834,48.6 46.512,47.5254834 46.512,46.2 L46.512,31.2 C46.512,29.8745166 45.4374834,28.8 44.112,28.8 Z M18.312,20.802 L18.312,11.802 C18.312,11.4706292 18.5806292,11.202 18.912,11.202 L27.912,11.202 C28.2433708,11.202 28.512,11.4706292 28.512,11.802 L28.512,20.802 C28.512,21.1333708 28.2433708,21.402 27.912,21.402 L18.912,21.402 C18.7476708,21.4069665 18.588502,21.3442853 18.471685,21.2286024 C18.3548679,21.1129195 18.2906369,20.9543699 18.294,20.79 L18.312,20.802 Z M8.688,27.6 L38.088,27.6 C38.4193708,27.6 38.688,27.8686292 38.688,28.2 L38.688,38.676 L32.688,38.676 C32.5081393,33.6696979 28.397532,29.7041197 23.388,29.7041197 C18.378468,29.7041197 14.2678607,33.6696979 14.088,38.676 L8.088,38.676 L8.088,28.2 C8.088,28.0408701 8.1512141,27.8882578 8.26373593,27.7757359 C8.37625776,27.6632141 8.52887011,27.6 8.688,27.6 Z M30.888,38.7 C30.8904198,41.7380746 29.0612281,44.4780088 26.2544098,45.6406242 C23.4475915,46.8032395 20.2167343,46.1592339 18.0702111,44.0092708 C15.9236879,41.8593076 15.2848567,38.6274234 16.4519651,35.8224704 C17.6190734,33.0175173 20.3619331,31.1927154 23.4,31.2 C27.5384301,31.1999881 30.8960757,34.5495818 30.906,38.688 L30.888,38.7 Z M2.688,46.8 C2.35662915,46.8 2.088,46.5313708 2.088,46.2 L2.088,31.2 C2.088,30.8686292 2.35662915,30.6 2.688,30.6 L6.288,30.6 L6.288,46.8 L2.688,46.8 Z M38.088,49.8 L8.688,49.8 C8.35662915,49.8 8.088,49.5313708 8.088,49.2 L8.088,39.876 L14.178,39.876 C14.7920738,44.4982464 18.7341416,47.9512392 23.397,47.9512392 C28.0598584,47.9512392 32.0019262,44.4982464 32.616,39.876 L38.712,39.876 L38.712,49.17 C38.712,49.3291299 38.6487859,49.4817422 38.5362641,49.5942641 C38.4237422,49.7067859 38.2711299,49.77 38.112,49.77 L38.088,49.8 Z M44.688,46.2 C44.688,46.5313708 44.4193708,46.8 44.088,46.8 L40.488,46.8 L40.488,30.6 L44.088,30.6 C44.4193708,30.6 44.688,30.8686292 44.688,31.2 L44.688,46.2 Z" id="Shape"></path>
                <path d="M24.3,13.29 L22.5,13.29 C21.340202,13.29 20.4,14.230202 20.4,15.39 L20.4,17.19 C20.4,18.349798 21.340202,19.29 22.5,19.29 L24.3,19.29 C25.459798,19.29 26.4,18.349798 26.4,17.19 L26.4,15.39 C26.4,14.230202 25.459798,13.29 24.3,13.29 L24.3,13.29 Z M25.2,17.19 C25.2,17.6870563 24.7970563,18.09 24.3,18.09 L22.5,18.09 C22.0029437,18.09 21.6,17.6870563 21.6,17.19 L21.6,15.39 C21.6,14.8929437 22.0029437,14.49 22.5,14.49 L24.3,14.49 C24.7970563,14.49 25.2,14.8929437 25.2,15.39 L25.2,17.19 Z" id="Shape"></path>
                <path d="M23.4,33.888 C20.7490332,33.888 18.6,36.0370332 18.6,38.688 C18.6,41.3389668 20.7490332,43.488 23.4,43.488 C26.0509668,43.488 28.2,41.3389668 28.2,38.688 C28.2,36.0370332 26.0509668,33.888 23.4,33.888 Z M23.4,42.288 C21.4117749,42.288 19.8,40.6762251 19.8,38.688 C19.8,36.6997749 21.4117749,35.088 23.4,35.088 C25.3882251,35.088 27,36.6997749 27,38.688 C26.9966902,40.6738816 25.3858843,42.2820028 23.4,42.282 L23.4,42.288 Z" id="Shape"></path>
                <path d="M12,33.882 C13.3254834,33.882 14.4,32.8074834 14.4,31.482 C14.4,30.1565166 13.3254834,29.082 12,29.082 C10.6745166,29.082 9.6,30.1565166 9.6,31.482 C9.6,32.8074834 10.6745166,33.882 12,33.882 Z M12,30.282 C12.6627417,30.282 13.2,30.8192583 13.2,31.482 C13.2,32.1447417 12.6627417,32.682 12,32.682 C11.3372583,32.682 10.8,32.1447417 10.8,31.482 C10.8,30.8192583 11.3372583,30.282 12,30.282 Z" id="Shape"></path>
                <path d="M23.4,5.13 C23.7313708,5.13 24,4.86137085 24,4.53 L24,0.93 C24,0.59862915 23.7313708,0.33 23.4,0.33 C23.0686292,0.33 22.8,0.59862915 22.8,0.93 L22.8,4.53 C22.8,4.86137085 23.0686292,5.13 23.4,5.13 Z" id="Shape"></path>
                <path d="M28.836,6.192 C29.1425127,6.31559323 29.4912582,6.16804703 29.616,5.862 L30.978,2.532 C31.1039209,2.22548196 30.957518,1.87492092 30.651,1.749 C30.344482,1.62307908 29.9939209,1.76948196 29.868,2.076 L28.506,5.4 C28.44285,5.54860382 28.4422592,5.71638799 28.5043612,5.86543282 C28.5664632,6.01447764 28.6860159,6.13220206 28.836,6.192 L28.836,6.192 Z" id="Shape"></path>
                <path d="M33.984,9.504 C34.1434818,9.50492206 34.2967687,9.44231191 34.41,9.33 L36.954,6.786 C37.1578661,6.54794383 37.1441594,6.1930835 36.9225379,5.97146207 C36.7009165,5.74984064 36.3460562,5.73613392 36.108,5.94 L33.564,8.484 C33.390924,8.65565427 33.3389029,8.91496007 33.4323774,9.1400889 C33.525852,9.36521773 33.746241,9.51141757 33.99,9.51 L33.984,9.504 Z" id="Shape"></path>
                <path d="M36.822,14.346 C36.8784747,14.4947992 36.9917554,14.6150638 37.1369141,14.680329 C37.2820728,14.7455941 37.4472149,14.7505119 37.596,14.694 L40.962,13.404 C41.162426,13.3268306 41.3064579,13.1485972 41.3398403,12.9364385 C41.3732226,12.7242798 41.2908839,12.5104278 41.1238403,12.3754385 C40.9567966,12.2404492 40.730426,12.2048306 40.53,12.282 L37.164,13.572 C36.8565041,13.692004 36.703689,14.0378487 36.822,14.346 Z" id="Shape"></path>
                <path d="M37.8,19.488 C37.8,19.8193708 38.0686292,20.088 38.4,20.088 L42,20.088 C42.3313708,20.088 42.6,19.8193708 42.6,19.488 C42.6,19.1566292 42.3313708,18.888 42,18.888 L38.4,18.888 C38.0686292,18.888 37.8,19.1566292 37.8,19.488 Z" id="Shape"></path>
                <path d="M4.8,20.088 L8.4,20.088 C8.73137085,20.088 9,19.8193708 9,19.488 C9,19.1566292 8.73137085,18.888 8.4,18.888 L4.8,18.888 C4.46862915,18.888 4.2,19.1566292 4.2,19.488 C4.2,19.8193708 4.46862915,20.088 4.8,20.088 Z" id="Shape"></path>
                <path d="M5.958,13.062 L9.294,14.4 C9.495271,14.4963411 9.73338003,14.4730297 9.91214453,14.3394825 C10.090909,14.2059352 10.1807955,13.9842153 10.1454949,13.7638849 C10.1101943,13.5435545 9.95553865,13.3610142 9.744,13.29 L6.408,11.934 C6.206729,11.8376589 5.96861997,11.8609703 5.78985547,11.9945175 C5.61109097,12.1280648 5.52120449,12.3497847 5.55650508,12.5701151 C5.59180567,12.7904455 5.74646135,12.9729858 5.958,13.044 L5.958,13.062 Z" id="Shape"></path>
                <path d="M12.36,9.36 C12.5994875,9.56229915 12.9543468,9.54612922 13.1744436,9.3228881 C13.3945405,9.09964699 13.4056756,8.7445941 13.2,8.508 L10.65,5.97 C10.4978049,5.81887664 10.2765474,5.76042804 10.0695732,5.81667122 C9.86259893,5.87291441 9.70135223,6.0353047 9.64657315,6.24267124 C9.59179406,6.45003778 9.65180484,6.67087666 9.804,6.822 L12.36,9.36 Z" id="Shape"></path>
                <path d="M17.442,5.748 C17.5191694,5.94842601 17.6974028,6.09245792 17.9095615,6.12584029 C18.1217202,6.15922267 18.3355722,6.07688393 18.4705615,5.90984028 C18.6055508,5.74279664 18.6411694,5.516426 18.564,5.316 L17.268,1.962 C17.1487065,1.65216826 16.8008317,1.49770649 16.491,1.617 C16.1811683,1.73629351 16.0267065,2.08416826 16.146,2.394 L17.442,5.748 Z" id="Shape"></path>
            </g>
        </g>
    </g>
</svg>