<?xml version="1.0" encoding="UTF-8"?>
<svg width="44px" height="56px" viewBox="0 0 44 56" version="1.1" xmlns="http://www.w3.org/2000/svg" xmlns:xlink="http://www.w3.org/1999/xlink">
    <!-- Generator: Sketch 44.1 (41455) - http://www.bohemiancoding.com/sketch -->
    <title>freelancer/12</title>
    <desc>Created with Sketch.</desc>
    <defs></defs>
    <g id="Dashboard:-Engage-Employers" stroke="none" stroke-width="1" fill="none" fill-rule="evenodd">
        <g id="freelancer/12" transform="translate(-14.000000, -8.000000)">
            <rect id="Rectangle-10-Copy-3" x="0" y="0" width="72" height="72"></rect>
            <g id="freelancer/13" transform="translate(13.800000, 7.800000)" fill-rule="nonzero" fill="#2D2926">
                <path d="M43.83,4.02 C43.8313877,3.50890711 43.6283067,3.01848816 43.266,2.658 L41.748,1.14 C40.9944616,0.390997537 39.7775384,0.390997537 39.024,1.14 L36.678,3.486 L36.342,3.15 C35.4711013,2.28269059 34.0628987,2.28269059 33.192,3.15 L14.694,21.6 C13.8273824,22.468843 13.8273824,23.875157 14.694,24.744 L14.928,24.978 L13.86,26.046 C13.4806887,26.4127321 13.2645171,26.916412 13.26,27.444 C13.2436919,27.9602686 13.438721,28.4608433 13.8,28.83 L15.318,30.348 C15.6767716,30.7040792 16.1625278,30.9026995 16.668,30.9 C17.1953065,30.8941466 17.6984932,30.6781867 18.066,30.3 L19.2,29.25 L19.638,29.682 C20.5088987,30.5493094 21.9171013,30.5493094 22.788,29.682 L31.464,21 C32.4206567,21.6753782 33.562963,22.0379818 34.734,22.038 L34.734,22.038 C35.602918,23.8463845 36.0520973,25.8276959 36.048,27.834 C36.0289784,32.566009 33.5358959,36.9432604 29.475602,39.3735451 C25.415308,41.8038299 20.3795249,41.9329733 16.2,39.714 L16.2,38.22 C16.1673151,37.08228 15.2197874,36.1857524 14.082,36.216 L2.682,36.216 C1.54421259,36.1857524 0.596684912,37.08228 0.564,38.22 L0.564,40.2 C0.596684912,41.33772 1.54421259,42.2342476 2.682,42.204 L8.526,42.204 L8.82,42.486 C9.44497394,43.0692994 10.1063004,43.6123887 10.8,44.112 L4.344,50.556 L4.344,50.556 C4.25916351,50.6399058 4.19185842,50.7398437 4.146,50.85 L4.146,50.85 C4.10330761,50.95483 4.08091086,51.0668137 4.08,51.18 L4.08,51.18 L4.08,55.2 C4.08,55.6970563 4.48294373,56.1 4.98,56.1 L38.94,56.1 C39.4370563,56.1 39.84,55.6970563 39.84,55.2 L39.84,51.174 L39.84,51.174 C39.8390891,51.0608137 39.8166924,50.94883 39.774,50.844 L39.774,50.844 C39.7281416,50.7338437 39.6608365,50.6339058 39.576,50.55 L39.576,50.55 L33.6,44.598 C42.3913031,38.8458035 45.2501722,27.2820446 40.152,18.096 C40.7126735,16.3930688 40.4321476,14.5251226 39.396,13.062 L41.256,11.208 C42.1226176,10.339157 42.1226176,8.93284302 41.256,8.064 L40.92,7.728 L43.266,5.4 C43.633366,5.03551989 43.8369246,4.53745103 43.83,4.02 Z M17.25,29.472 C17.1103204,29.6127008 16.9202602,29.6918321 16.722,29.6918321 C16.5237398,29.6918321 16.3336796,29.6127008 16.194,29.472 L14.676,27.954 C14.5445445,27.821691 14.4711445,27.6425086 14.472,27.456 C14.4710918,27.2489073 14.5532128,27.0500881 14.7,26.904 L15.774,25.836 L18.318,28.38 L17.25,29.472 Z M38.64,16.332 C38.6424276,17.9123733 37.692302,19.338483 36.2329236,19.9449485 C34.7735453,20.5514141 33.0925219,20.2187159 31.9741693,19.1020812 C30.8558167,17.9854465 30.5205347,16.3049366 31.1247561,14.8446276 C31.7289774,13.3843187 33.1536249,12.4320019 34.734,12.432 C36.8888833,12.4319975 38.6366899,14.1771193 38.64,16.332 Z M1.77,40.2 L1.77,38.22 C1.80830952,37.7478878 2.21495781,37.3917383 2.688,37.416 L14.088,37.416 C14.5587671,37.395078 14.9617333,37.7503245 15,38.22 L15,40.2 C14.9679235,40.6752224 14.5573036,41.0348503 14.082,41.004 L2.682,41.004 C2.20896824,41.031413 1.8021109,40.6727361 1.77,40.2 Z M5.88,54.306 L5.88,51.78 L38.04,51.78 L38.04,54.306 L5.88,54.306 Z M37.08,50.58 L6.852,50.58 L12.336,45.108 C18.3731564,48.6711348 25.8303131,48.8325549 32.016,45.534 L37.08,50.58 Z M40.884,27.78 C40.880512,34.2506293 37.4580044,40.237736 31.884,43.524 C31.7734701,43.5615744 31.6714992,43.6207175 31.584,43.698 C25.1320986,47.3496168 17.1145073,46.7478236 11.28,42.174 L14.082,42.174 C14.7023689,42.175387 15.2930423,41.9084901 15.702,41.442 C21.4488972,44.3247147 28.3851134,43.3054005 33.0596891,38.8911946 C37.7342647,34.4769887 39.14899,27.6105013 36.6,21.708 C37.5761614,21.3710087 38.4428384,20.7759458 39.108,19.986 C40.2694178,22.4350062 40.8719483,25.1115531 40.872,27.822 L40.884,27.78 Z M39.984,9.936 L38.142,11.772 C35.8780922,10.0670963 32.7044895,10.2888978 30.6997419,12.2921358 C28.6949943,14.2953738 28.4708021,17.4688085 30.174,19.734 L21.486,28.41 C21.3186195,28.5715413 21.0533805,28.5715413 20.886,28.41 L15.966,23.496 C15.8012667,23.3299213 15.8012667,23.0620787 15.966,22.896 L34.47,4.416 C34.6373805,4.25445868 34.9026195,4.25445868 35.07,4.416 L39.984,9.324 C40.1487333,9.49007866 40.1487333,9.75792134 39.984,9.924 L39.984,9.936 Z M42.42,4.536 L40.074,6.882 L37.53,4.338 L39.876,1.998 C40.1594382,1.71495839 40.6185618,1.71495839 40.902,1.998 L42.426,3.516 C42.7090416,3.79943819 42.7090416,4.25856181 42.426,4.542 L42.42,4.536 Z" id="Shape"></path>
                <path d="M34.734,13.932 C33.4085166,13.932 32.334,15.0065166 32.334,16.332 C32.334,17.6574834 33.4085166,18.732 34.734,18.732 C36.0594834,18.732 37.134,17.6574834 37.134,16.332 C37.134,15.0065166 36.0594834,13.932 34.734,13.932 Z M34.734,17.532 C34.0712583,17.532 33.534,16.9947417 33.534,16.332 C33.534,15.6692583 34.0712583,15.132 34.734,15.132 C35.3967417,15.132 35.934,15.6692583 35.934,16.332 C35.930698,16.9923974 35.3944056,17.5260083 34.734,17.526 L34.734,17.532 Z" id="Shape"></path>
            </g>
        </g>
    </g>
</svg>