<?xml version="1.0" encoding="UTF-8"?>
<svg width="40px" height="42px" viewBox="0 0 40 42" version="1.1" xmlns="http://www.w3.org/2000/svg" xmlns:xlink="http://www.w3.org/1999/xlink">
    <!-- Generator: Sketch 44.1 (41455) - http://www.bohemiancoding.com/sketch -->
    <title>freelancer/13</title>
    <desc>Created with Sketch.</desc>
    <defs></defs>
    <g id="Dashboard:-Engage-Employers" stroke="none" stroke-width="1" fill="none" fill-rule="evenodd">
        <g id="freelancer/13" transform="translate(-14.000000, -6.000000)">
            <rect id="Rectangle-10" x="0" y="0" width="72" height="72"></rect>
            <g id="freelancer/14" transform="translate(6.600000, 6.000000)" fill-rule="nonzero">
                <path d="M44.076,18.744 C45.4014834,18.744 46.476,17.6694834 46.476,16.344 C46.476,15.0185166 45.4014834,13.944 44.076,13.944 C42.7505166,13.944 41.676,15.0185166 41.676,16.344 C41.676,17.6694834 42.7505166,18.744 44.076,18.744 Z M44.076,15.144 C44.7387417,15.144 45.276,15.6812583 45.276,16.344 C45.276,17.0067417 44.7387417,17.544 44.076,17.544 C43.4132583,17.544 42.876,17.0067417 42.876,16.344 C42.876,15.6812583 43.4132583,15.144 44.076,15.144 Z" id="Shape" fill="#2D2926"></path>
                <path d="M28.116,16.344 C28.116,15.0185166 27.0414834,13.944 25.716,13.944 C24.3905166,13.944 23.316,15.0185166 23.316,16.344 C23.316,17.6694834 24.3905166,18.744 25.716,18.744 C27.0414834,18.744 28.116,17.6694834 28.116,16.344 Z M24.516,16.344 C24.516,15.6812583 25.0532583,15.144 25.716,15.144 C26.3787417,15.144 26.916,15.6812583 26.916,16.344 C26.916,17.0067417 26.3787417,17.544 25.716,17.544 C25.0532583,17.544 24.516,17.0067417 24.516,16.344 Z" id="Shape" fill="#2D2926"></path>
                <path d="M38.646,36.792 C37.3205166,36.792 36.246,37.8665166 36.246,39.192 C36.246,40.5174834 37.3205166,41.592 38.646,41.592 C39.9714834,41.592 41.046,40.5174834 41.046,39.192 C41.046,37.8665166 39.9714834,36.792 38.646,36.792 Z M38.646,40.392 C37.9832583,40.392 37.446,39.8547417 37.446,39.192 C37.446,38.5292583 37.9832583,37.992 38.646,37.992 C39.3087417,37.992 39.846,38.5292583 39.846,39.192 C39.846,39.8547417 39.3087417,40.392 38.646,40.392 Z" id="Shape" fill="#2D2926"></path>
                <path d="M31.452,36.792 C30.1265166,36.792 29.052,37.8665166 29.052,39.192 C29.052,40.5174834 30.1265166,41.592 31.452,41.592 C32.7774834,41.592 33.852,40.5174834 33.852,39.192 C33.852,37.8665166 32.7774834,36.792 31.452,36.792 Z M31.452,40.392 C30.7892583,40.392 30.252,39.8547417 30.252,39.192 C30.252,38.5292583 30.7892583,37.992 31.452,37.992 C32.1147417,37.992 32.652,38.5292583 32.652,39.192 C32.652,39.8547417 32.1147417,40.392 31.452,40.392 Z" id="Shape" fill="#2D2926"></path>
                <path d="M55.236,28.158 L53.358,28.158 L53.58,26.82 L53.58,26.67 C53.58,25.4406141 52.5833859,24.444 51.354,24.444 L45,24.444 L45,23.178 C48.379151,22.7156349 50.9123187,19.8518587 50.9587712,16.4415383 C51.0052236,13.0312178 48.550997,10.0995076 45.1856932,9.54527541 C41.8203894,8.99104318 38.5556306,10.9808931 37.506,14.226 L32.28,14.226 C31.2338807,10.9693259 27.9597187,8.97065824 24.5849729,9.52867551 C21.2102272,10.0866928 18.7537103,13.0329334 18.8115982,16.4530125 C18.8694861,19.8730916 21.4243029,22.7345108 24.816,23.178 L24.816,24.444 L19.53,24.444 C18.3006141,24.444 17.304,25.4406141 17.304,26.67 L17.304,29.184 L10.614,29.184 L3.282,25.644 C2.63259241,25.3359535 1.87074883,25.3814396 1.26260802,25.7645683 C0.654467218,26.147697 0.284519263,26.8152396 0.282,27.534 L0.282,42.216 C0.281262518,42.9360815 0.650562907,43.6060295 1.25981805,43.9898602 C1.86907319,44.373691 2.63280688,44.4175544 3.282,44.106 L10.578,40.578 L17.304,40.578 L17.304,43.278 C17.304,44.5073859 18.3006141,45.504 19.53,45.504 L28.128,45.504 L28.128,58.944 C28.128,59.4410563 28.5309437,59.844 29.028,59.844 C29.5250563,59.844 29.928,59.4410563 29.928,58.944 L29.928,45.504 L32.646,45.504 L32.646,58.944 C32.646,59.4410563 33.0489437,59.844 33.546,59.844 C34.0430563,59.844 34.446,59.4410563 34.446,58.944 L34.446,45.504 L44.958,45.504 L44.958,40.95 C44.9581876,40.3456564 45.3196236,39.7999589 45.876,39.564 L49.734,38.502 C50.9344397,38.1497476 51.8317178,37.1478645 52.05,35.916 L52.242,34.758 L55.242,34.758 C57.0645397,34.758 58.542,33.2805397 58.542,31.458 C58.542,29.6354603 57.0645397,28.158 55.242,28.158 L55.236,28.158 Z M9.498,39.102 L2.496,42.486 C2.40689249,42.5374462 2.29710751,42.5374462 2.208,42.486 C2.12129291,42.4317272 2.06902823,42.3362874 2.07,42.234 L2.07,27.528 C2.06902823,27.4257126 2.12129291,27.3302728 2.208,27.276 C2.29710751,27.2245538 2.40689249,27.2245538 2.496,27.276 L9.498,30.66 L9.498,39.102 Z M17.298,38.778 L11.298,38.778 L11.298,30.978 L17.298,30.978 L17.298,38.778 Z M34.896,31.938 L50.898,31.938 L50.676,33.252 L34.896,33.252 L34.896,31.938 Z M44.076,11.238 C46.8926522,11.238 49.176,13.5213478 49.176,16.338 C49.176,19.1546522 46.8926522,21.438 44.076,21.438 C41.2593478,21.438 38.976,19.1546522 38.976,16.338 C38.982609,13.5250618 41.263056,11.2472977 44.076,11.244 L44.076,11.238 Z M37.242,15.438 C37.1514507,16.0446397 37.1514507,16.6613603 37.242,17.268 L32.544,17.268 C32.6345493,16.6613603 32.6345493,16.0446397 32.544,15.438 L37.242,15.438 Z M20.616,16.344 C20.616,13.5273478 22.8993478,11.244 25.716,11.244 C28.5326522,11.244 30.816,13.5273478 30.816,16.344 C30.816,19.1606522 28.5326522,21.444 25.716,21.444 C22.9007184,21.4406937 20.6193063,19.1592816 20.616,16.344 L20.616,16.344 Z M26.616,23.178 C29.2545439,22.8276817 31.4575105,20.9934319 32.28,18.462 L37.512,18.462 C38.3381936,21.0005194 40.5523718,22.8363254 43.2,23.178 L43.2,24.444 L26.616,24.444 L26.616,23.178 Z M49.248,36.768 L45.36,37.842 L45.27,37.842 C44.0055945,38.34098 43.1734254,39.5607021 43.17,40.92 L43.17,43.674 L19.53,43.674 C19.2960764,43.670773 19.107227,43.4819236 19.104,43.248 L19.104,26.67 C19.107227,26.4360764 19.2960764,26.247227 19.53,26.244 L51.372,26.244 C51.5844294,26.2478475 51.7625259,26.4055901 51.792,26.616 L51.102,30.744 L24.204,30.744 C23.8726292,30.744 23.604,31.0126292 23.604,31.344 C23.604,31.6753708 23.8726292,31.944 24.204,31.944 L33.696,31.944 L33.696,33.858 C33.696,34.1893708 33.9646292,34.458 34.296,34.458 L50.496,34.458 L50.304,35.604 C50.202325,36.1614082 49.7929066,36.6126989 49.248,36.768 L49.248,36.768 Z M55.248,32.958 L52.566,32.958 L53.07,29.958 L55.248,29.958 C56.0764271,29.958 56.748,30.6295729 56.748,31.458 C56.748,32.2864271 56.0764271,32.958 55.248,32.958 Z" id="Shape"></path>
                <path d="M27.384,5.256 C27.7153708,5.256 27.984,4.98737085 27.984,4.656 L27.984,1.056 C27.984,0.72462915 27.7153708,0.456 27.384,0.456 C27.0526292,0.456 26.784,0.72462915 26.784,1.056 L26.784,4.656 C26.784,4.98737085 27.0526292,5.256 27.384,5.256 Z" id="Shape" fill="#2D2926"></path>
                <path d="M8.814,20.226 L12.414,20.226 C12.7453708,20.226 13.014,19.9573708 13.014,19.626 C13.014,19.2946292 12.7453708,19.026 12.414,19.026 L8.814,19.026 C8.48262915,19.026 8.214,19.2946292 8.214,19.626 C8.214,19.9573708 8.48262915,20.226 8.814,20.226 L8.814,20.226 Z" id="Shape" fill="#2D2926"></path>
                <path d="M9.954,13.2 L13.29,14.556 C13.5906154,14.6569176 13.917856,14.5064901 14.036993,14.2126188 C14.15613,13.9187474 14.0260242,13.5829093 13.74,13.446 L10.404,12.09 C10.202729,11.9936589 9.96461997,12.0169703 9.78585547,12.1505175 C9.60709097,12.2840648 9.51720449,12.5057847 9.55250508,12.7261151 C9.58780567,12.9464455 9.74246135,13.1289858 9.954,13.2 Z" id="Shape" fill="#2D2926"></path>
                <path d="M16.35,9.492 C16.5852733,9.72561643 16.9653835,9.72427328 17.199,9.48899998 C17.4326164,9.25372669 17.4312733,8.87361645 17.196,8.64 L14.646,6.102 C14.4993661,5.9307743 14.269129,5.85619083 14.0499486,5.90891392 C13.8307683,5.961637 13.659637,6.13276827 13.6069139,6.35194862 C13.5541908,6.57112896 13.6287743,6.80136607 13.8,6.948 L16.35,9.492 Z" id="Shape" fill="#2D2926"></path>
                <path d="M21.432,5.88 C21.5091694,6.08042601 21.6874028,6.22445792 21.8995615,6.25784029 C22.1117202,6.29122267 22.3255722,6.20888393 22.4605615,6.04184028 C22.5955508,5.87479664 22.6311694,5.648426 22.554,5.448 L21.258,2.088 C21.1808306,1.887574 21.0025972,1.74354211 20.7904385,1.71015975 C20.5782798,1.67677738 20.3644278,1.75911612 20.2294385,1.92615975 C20.0944492,2.09320338 20.0588306,2.319574 20.136,2.52 L21.432,5.88 Z" id="Shape" fill="#2D2926"></path>
            </g>
        </g>
    </g>
</svg>