<?xml version="1.0" encoding="UTF-8"?>
<svg width="39px" height="60px" viewBox="0 0 39 60" version="1.1" xmlns="http://www.w3.org/2000/svg" xmlns:xlink="http://www.w3.org/1999/xlink">
    <!-- Generator: Sketch 44.1 (41455) - http://www.bohemiancoding.com/sketch -->
    <title>freelancer/14</title>
    <desc>Created with Sketch.</desc>
    <defs></defs>
    <g id="Dashboard:-Engage-Employers" stroke="none" stroke-width="1" fill="none" fill-rule="evenodd">
        <g id="freelancer/14" transform="translate(-17.000000, -6.000000)">
            <rect id="Rectangle-10-Copy" x="0" y="0" width="72" height="72"></rect>
            <g id="freelancer/15" transform="translate(16.800000, 6.600000)" fill-rule="nonzero" fill="#2D2926">
                <path d="M34.8,35.808 C34.2389325,35.80638 33.6862972,35.9445388 33.192,36.21 L33.192,35.922 C33.1949934,34.7216353 32.5651778,33.6085358 31.5346774,32.9929441 C30.5041769,32.3773524 29.2255326,32.3503922 28.17,32.922 C28.0814417,31.7800629 27.4232286,30.7596976 26.4193855,30.2081887 C25.4155425,29.6566797 24.2013266,29.648337 23.19,30.186 L23.19,21 L27.546,21 C28.6737803,20.967319 29.5622514,20.0278481 29.532,18.9 L29.532,15.9 C29.5464927,15.3552822 29.3430952,14.8272867 28.9669012,14.4330714 C28.5907072,14.0388562 28.0727997,13.8109931 27.528,13.8 L12.3,13.8 C11.1722197,13.832681 10.2837486,14.7721519 10.314,15.9 L10.314,18.9 C10.2837486,20.0278481 11.1722197,20.967319 12.3,21 L16.368,21 L16.368,43.2 C16.368004,44.5662219 15.2622179,45.674692 13.896,45.678 C13.2573457,45.685102 12.6413265,45.4417098 12.18,45 L6.348,38.478 C5.0717134,37.1785673 2.99841656,37.1148578 1.6447538,38.3334759 C0.291091047,39.5520939 0.137352517,41.6206642 1.296,43.026 L15.216,58.482 C15.4246075,58.7419931 15.7598314,58.8653938 16.0872212,58.8027089 C16.4146109,58.740024 16.6805417,58.5015211 16.7783547,58.1828582 C16.8761677,57.8641952 16.7898417,57.5175677 16.554,57.282 L2.628,41.826 C2.03650303,41.1632583 2.0942583,40.146497 2.757,39.555 C3.4197417,38.963503 4.43650303,39.0212583 5.028,39.684 L10.872,46.2 C12.0908059,47.4214534 13.9247566,47.7897519 15.5206377,47.1335508 C17.1165188,46.4773497 18.1609392,44.9255105 18.168,43.2 L18.168,19.884 C18.1680001,18.9992399 18.8852399,18.2820001 19.77,18.2820001 C20.6547601,18.2820001 21.3719999,18.9992399 21.372,19.884 L21.372,33.042 C21.372,33.096 21.372,33.156 21.372,33.21 L21.372,38.262 C21.372,38.7590563 21.7749437,39.162 22.272,39.162 L22.272,39.162 C22.7690563,39.162 23.172,38.7590563 23.172,38.262 L23.172,33.126 C23.195196,32.2445535 23.9285535,31.548804 24.81,31.572 C25.6914465,31.595196 26.387196,32.3285535 26.364,33.21 L26.364,40.56 C26.364,41.0570563 26.7669437,41.46 27.264,41.46 L27.264,41.46 C27.5088691,41.4698027 27.747147,41.3793269 27.9237981,41.2094701 C28.1004493,41.0396132 28.2001961,40.8050652 28.2,40.56 L28.2,35.928 C28.2,35.0432398 28.9172398,34.326 29.802,34.326 C30.6867602,34.326 31.404,35.0432398 31.404,35.928 L31.404,41.76 C31.404,42.2570563 31.8069437,42.66 32.304,42.66 L32.304,42.66 C32.8010563,42.66 33.204,42.2570563 33.204,41.76 L33.204,39.21 C33.204,38.3252398 33.9212398,37.608 34.806,37.608 C35.6907602,37.608 36.408,38.3252398 36.408,39.21 L36.408,52.26 C36.408,52.7570563 36.8109437,53.16 37.308,53.16 C37.8050563,53.16 38.208,52.7570563 38.208,52.26 L38.208,39.21 C38.2046904,37.3301571 36.6798458,35.8079971 34.8,35.808 Z M19.8,16.482 C17.9441311,16.4683425 16.4197749,17.9446454 16.374,19.8 L12.3,19.8 C11.8378269,19.7617197 11.4897161,19.3631195 11.514,18.9 L11.514,15.9 C11.4897161,15.4368805 11.8378269,15.0382803 12.3,15 L27.528,15 C27.9901731,15.0382803 28.3382839,15.4368805 28.314,15.9 L28.314,18.9 C28.3382839,19.3631195 27.9901731,19.7617197 27.528,19.8 L23.166,19.8 C23.1208463,17.9679106 21.6325489,16.5008367 19.8,16.482 L19.8,16.482 Z" id="Shape"></path>
                <path d="M19.8,5.118 C20.1313708,5.118 20.4,4.84937085 20.4,4.518 L20.4,0.918 C20.4,0.58662915 20.1313708,0.318 19.8,0.318 C19.4686292,0.318 19.2,0.58662915 19.2,0.918 L19.2,4.518 C19.2,4.84937085 19.4686292,5.118 19.8,5.118 Z" id="Shape"></path>
                <path d="M25.23,6.18 C25.5365127,6.30359323 25.8852582,6.15604703 26.01,5.85 L27.372,2.52 C27.4979209,2.21348196 27.351518,1.86292092 27.045,1.737 C26.738482,1.61107908 26.3879209,1.75748196 26.262,2.064 L24.9,5.4 C24.7764068,5.70651266 24.923953,6.05525822 25.23,6.18 L25.23,6.18 Z" id="Shape"></path>
                <path d="M30.378,9.492 C30.5374818,9.49292206 30.6907687,9.43031191 30.804,9.318 L33.348,6.768 C33.4991234,6.61580486 33.557572,6.3945474 33.5013288,6.18757316 C33.4450856,5.98059893 33.2826953,5.81935223 33.0753288,5.76457315 C32.8679622,5.70979406 32.6471233,5.76980484 32.496,5.922 L29.952,8.472 C29.778924,8.64365427 29.7269029,8.90296007 29.8203774,9.1280889 C29.913852,9.35321773 30.134241,9.49941757 30.378,9.498 L30.378,9.492 Z" id="Shape"></path>
                <path d="M6.678,33.228 C6.83748179,33.2289221 6.9907687,33.1663119 7.104,33.054 L9.648,30.504 C9.79912336,30.3518049 9.85757195,30.1305474 9.80132877,29.9235732 C9.74508558,29.7165989 9.58269529,29.5553522 9.37532876,29.5005732 C9.16796222,29.4457941 8.94712334,29.5058048 8.796,29.658 L6.252,32.208 C6.07892403,32.3796543 6.02690289,32.6389601 6.12037743,32.8640889 C6.21385197,33.0892177 6.43424096,33.2354176 6.678,33.234 L6.678,33.228 Z" id="Shape"></path>
                <path d="M33.216,14.334 C33.2724747,14.4827992 33.3857554,14.6030638 33.5309141,14.668329 C33.6760728,14.7335941 33.8412149,14.7385119 33.99,14.682 L37.35,13.392 C37.550426,13.3148306 37.6944579,13.1365972 37.7278403,12.9244385 C37.7612226,12.7122798 37.6788839,12.4984278 37.5118403,12.3634385 C37.3447966,12.2284492 37.118426,12.1928306 36.918,12.27 L33.558,13.56 C33.2505041,13.680004 33.097689,14.0258487 33.216,14.334 Z" id="Shape"></path>
                <path d="M6.384,24.63 C6.32752532,24.4812008 6.21424462,24.3609362 6.0690859,24.295671 C5.92392718,24.2304059 5.75878509,24.2254881 5.61,24.282 L2.25,25.572 C1.94016826,25.6912935 1.78570649,26.0391683 1.905,26.349 C2.02429351,26.6588317 2.37216826,26.8132935 2.682,26.694 L6.042,25.404 C6.34949588,25.283996 6.50231099,24.9381513 6.384,24.63 L6.384,24.63 Z" id="Shape"></path>
                <path d="M38.37,18.882 L34.77,18.882 C34.4386292,18.882 34.17,19.1506292 34.17,19.482 C34.17,19.8133708 34.4386292,20.082 34.77,20.082 L38.37,20.082 C38.7013708,20.082 38.97,19.8133708 38.97,19.482 C38.97,19.1506292 38.7013708,18.882 38.37,18.882 Z" id="Shape"></path>
                <path d="M1.23,20.088 L4.83,20.088 C5.16137085,20.088 5.43,19.8193708 5.43,19.488 C5.43,19.1566292 5.16137085,18.888 4.83,18.888 L1.23,18.888 C0.89862915,18.888 0.63,19.1566292 0.63,19.488 C0.63,19.8193708 0.89862915,20.088 1.23,20.088 Z" id="Shape"></path>
                <path d="M33.114,24.888 C32.9904068,25.1945127 33.137953,25.5432582 33.444,25.668 L36.78,27 C37.0806154,27.1009176 37.407856,26.9504901 37.526993,26.6566188 C37.64613,26.3627474 37.5160242,26.0269093 37.23,25.89 L33.894,24.534 C33.7437261,24.4759085 33.5764036,24.4806929 33.4296946,24.5472762 C33.2829856,24.6138595 33.1692182,24.7366467 33.114,24.888 L33.114,24.888 Z" id="Shape"></path>
                <path d="M2.37,13.056 L5.706,14.4 C6.00661544,14.5009176 6.33385595,14.3504901 6.45299299,14.0566188 C6.57213002,13.7627474 6.4420242,13.4269093 6.156,13.29 L2.82,11.946 C2.51938456,11.8450824 2.19214405,11.9955099 2.07300701,12.2893812 C1.95386998,12.5832526 2.0839758,12.9190907 2.37,13.056 Z" id="Shape"></path>
                <path d="M8.772,9.348 C8.91560027,9.53360027 9.15422278,9.61844916 9.38276206,9.56517349 C9.61130134,9.51189781 9.78780607,9.330277 9.83453165,9.10030913 C9.88125722,8.87034126 9.78962656,8.63423989 9.6,8.496 L7.05,5.958 C6.89780486,5.80687664 6.6765474,5.74842805 6.46957317,5.80467123 C6.26259894,5.86091442 6.10135224,6.02330471 6.04657316,6.23067124 C5.99179407,6.43803778 6.05180485,6.65887666 6.204,6.81 L8.772,9.348 Z" id="Shape"></path>
                <path d="M13.848,5.736 C13.9672935,6.04583174 14.3151683,6.20029351 14.625,6.081 C14.9348317,5.96170649 15.0892935,5.61383174 14.97,5.304 L13.674,1.944 C13.5968306,1.743574 13.4185972,1.59954211 13.2064385,1.56615975 C12.9942798,1.53277738 12.7804278,1.61511612 12.6454385,1.78215975 C12.5104492,1.94920338 12.4748306,2.175574 12.552,2.376 L13.848,5.736 Z" id="Shape"></path>
            </g>
        </g>
    </g>
</svg>