<?xml version="1.0" encoding="UTF-8"?>
<svg width="58px" height="48px" viewBox="0 0 58 48" version="1.1" xmlns="http://www.w3.org/2000/svg" xmlns:xlink="http://www.w3.org/1999/xlink">
    <!-- Generator: Sketch 44.1 (41455) - http://www.bohemiancoding.com/sketch -->
    <title>freelancer/15</title>
    <desc>Created with Sketch.</desc>
    <defs></defs>
    <g id="Dashboard:-Engage-Employers" stroke="none" stroke-width="1" fill="none" fill-rule="evenodd">
        <g id="freelancer/15" transform="translate(-7.000000, -12.000000)">
            <rect id="Rectangle-10-Copy-3" x="0" y="0" width="72" height="72"></rect>
            <g id="freelancer/16" transform="translate(6.600000, 12.000000)">
                <path d="M32.478,33.096 L23.946,33.096 C23.3647988,33.0223363 22.7933524,33.2910488 22.4793706,33.7856563 C22.1653888,34.2802638 22.1653888,34.9117362 22.4793706,35.4063437 C22.7933524,35.9009512 23.3647988,36.1696637 23.946,36.096 L34.278,36.096 C35.0335039,36.0002445 35.5998842,35.357548 35.5998842,34.596 C35.5998842,33.834452 35.0335039,33.1917555 34.278,33.096 L32.478,33.096 Z" id="Shape"></path>
                <path d="M31.554,42.744 L27.222,42.744 C26.4664961,42.8397555 25.9001158,43.482452 25.9001158,44.244 C25.9001158,45.005548 26.4664961,45.6482445 27.222,45.744 L31.554,45.744 C32.1352012,45.8176637 32.7066476,45.5489512 33.0206294,45.0543437 C33.3346112,44.5597362 33.3346112,43.9282638 33.0206294,43.4336563 C32.7066476,42.9390488 32.1352012,42.6703363 31.554,42.744 L31.554,42.744 Z" id="Shape"></path>
                <path d="M23.034,29.784 C23.034,30.6190545 23.7109455,31.296 24.546,31.296 L32.478,31.296 C33.2335039,31.2002445 33.7998842,30.557548 33.7998842,29.796 C33.7998842,29.034452 33.2335039,28.3917555 32.478,28.296 L24.546,28.296 C23.720229,28.295896 23.0471075,28.958333 23.034,29.784 Z" id="Shape"></path>
                <path d="M33.078,37.92 L22.746,37.92 C22.1647988,37.8463363 21.5933524,38.1150488 21.2793706,38.6096563 C20.9653888,39.1042638 20.9653888,39.7357362 21.2793706,40.2303437 C21.5933524,40.7249512 22.1647988,40.9936637 22.746,40.92 L33.078,40.92 C33.6592012,40.9936637 34.2306476,40.7249512 34.5446294,40.2303437 C34.8586112,39.7357362 34.8586112,39.1042638 34.5446294,38.6096563 C34.2306476,38.1150488 33.6592012,37.8463363 33.078,37.92 L33.078,37.92 Z" id="Shape"></path>
                <path d="M37.59,34.608 C37.5859288,33.1836156 36.6731889,31.9207506 35.322,31.47 C35.9315327,30.4468449 35.9436413,29.1749239 35.3536981,28.1403498 C34.7637549,27.1057757 33.6629509,26.4684688 32.472,26.472 L20.022,26.472 L20.022,17.826 C19.9464252,16.0499923 18.4846149,14.6490638 16.707,14.6490638 C14.9293851,14.6490638 13.4675748,16.0499923 13.392,17.826 L13.392,21.51 C13.4225015,23.7170573 12.5496582,25.8406995 10.9759088,27.3883897 C9.40215938,28.9360799 7.26424041,29.7733458 5.058,29.706 L1.344,29.706 C0.846943725,29.706 0.444,30.1089437 0.444,30.606 C0.444,31.1030563 0.846943725,31.506 1.344,31.506 L5.058,31.506 C7.74357433,31.5815679 10.3435229,30.557096 12.2556823,28.6698582 C14.1678416,26.7826203 15.2263317,24.1963346 15.186,21.51 L15.186,17.826 C15.2363543,17.0262534 15.8996698,16.4033887 16.701,16.4033887 C17.5023302,16.4033887 18.1656457,17.0262534 18.216,17.826 L18.216,27.366 C18.216,27.8630563 18.6189437,28.266 19.116,28.266 L21.6,28.266 C20.9847206,29.4533052 21.1483073,30.8947656 22.014,31.914 C20.5422592,32.9638029 20.189129,35.0023273 21.222,36.486 C19.8678108,37.1884377 19.1685913,38.7250042 19.5285359,40.2074639 C19.8884806,41.6899237 21.2144717,42.7347644 22.74,42.738 L24.276,42.738 C23.7932121,43.679729 23.7932121,44.796271 24.276,45.738 L4.524,45.738 C4.02694373,45.738 3.624,46.1409437 3.624,46.638 C3.624,47.1350563 4.02694373,47.538 4.524,47.538 L31.554,47.538 C32.7622119,47.5407608 33.8757021,46.8842039 34.4581075,45.8256258 C35.0405129,44.7670478 34.9990624,43.475069 34.35,42.456 C35.274607,42.0725838 35.9757185,41.2909092 36.2567015,40.330204 C36.5376845,39.3694987 36.3682803,38.3332194 35.796,37.512 C36.8851887,36.9504303 37.5752875,35.8333473 37.59,34.608 Z M35.79,34.608 C35.79,35.4430545 35.1130545,36.12 34.278,36.12 L23.946,36.12 C23.3647988,36.1936637 22.7933524,35.9249512 22.4793706,35.4303437 C22.1653888,34.9357362 22.1653888,34.3042638 22.4793706,33.8096563 C22.7933524,33.3150488 23.3647988,33.0463363 23.946,33.12 L34.278,33.12 C35.103771,33.119896 35.7768925,33.782333 35.79,34.608 L35.79,34.608 Z M24.546,28.266 L32.478,28.266 C33.2335039,28.3617555 33.7998842,29.004452 33.7998842,29.766 C33.7998842,30.527548 33.2335039,31.1702445 32.478,31.266 L24.546,31.266 C23.9647988,31.3396637 23.3933524,31.0709512 23.0793706,30.5763437 C22.7653888,30.0817362 22.7653888,29.4502638 23.0793706,28.9556563 C23.3933524,28.4610488 23.9647988,28.1923363 24.546,28.266 L24.546,28.266 Z M31.548,45.768 L27.222,45.768 C26.4664961,45.6722445 25.9001158,45.029548 25.9001158,44.268 C25.9001158,43.506452 26.4664961,42.8637555 27.222,42.768 L31.554,42.768 C32.1352012,42.6943363 32.7066476,42.9630488 33.0206294,43.4576563 C33.3346112,43.9522638 33.3346112,44.5837362 33.0206294,45.0783437 C32.7066476,45.5729512 32.1352012,45.8416637 31.554,45.768 L31.548,45.768 Z M33.072,40.968 L22.746,40.968 C22.1647988,41.0416637 21.5933524,40.7729512 21.2793706,40.2783437 C20.9653888,39.7837362 20.9653888,39.1522638 21.2793706,38.6576563 C21.5933524,38.1630488 22.1647988,37.8943363 22.746,37.968 L33.078,37.968 C33.6592012,37.8943363 34.2306476,38.1630488 34.5446294,38.6576563 C34.8586112,39.1522638 34.8586112,39.7837362 34.5446294,40.2783437 C34.2306476,40.7729512 33.6592012,41.0416637 33.078,40.968 L33.072,40.968 Z" id="Shape" fill="#2D2926" fill-rule="nonzero"></path>
                <path d="M26.256,14.904 L34.8,14.904 C35.3812012,14.9776637 35.9526476,14.7089512 36.2666294,14.2143437 C36.5806112,13.7197362 36.5806112,13.0882638 36.2666294,12.5936563 C35.9526476,12.0990488 35.3812012,11.8303363 34.8,11.904 L24.456,11.904 C23.8747988,11.8303363 23.3033524,12.0990488 22.9893706,12.5936563 C22.6753888,13.0882638 22.6753888,13.7197362 22.9893706,14.2143437 C23.3033524,14.7089512 23.8747988,14.9776637 24.456,14.904 L26.256,14.904 Z" id="Shape"></path>
                <path d="M27.18,5.256 L31.512,5.256 C32.0932012,5.32966367 32.6646476,5.06095118 32.9786294,4.5663437 C33.2926112,4.07173621 33.2926112,3.44026379 32.9786294,2.9456563 C32.6646476,2.45104882 32.0932012,2.18233633 31.512,2.256 L27.18,2.256 C26.4244961,2.35175547 25.8581158,2.99445202 25.8581158,3.756 C25.8581158,4.51754798 26.4244961,5.16024453 27.18,5.256 L27.18,5.256 Z" id="Shape"></path>
                <path d="M25.656,10.08 L36,10.08 C36.7555039,9.98424453 37.3218842,9.34154798 37.3218842,8.58 C37.3218842,7.81845202 36.7555039,7.17575547 36,7.08 L25.656,7.08 C25.0747988,7.00633633 24.5033524,7.27504882 24.1893706,7.7696563 C23.8753888,8.26426379 23.8753888,8.89573621 24.1893706,9.3903437 C24.5033524,9.88495118 25.0747988,10.1536637 25.656,10.08 L25.656,10.08 Z" id="Shape"></path>
                <path d="M35.7,18.216 C35.7000262,17.3856094 35.0303645,16.7105904 34.2,16.704 L26.256,16.704 C25.6747988,16.6303363 25.1033524,16.8990488 24.7893706,17.3936563 C24.4753888,17.8882638 24.4753888,18.5197362 24.7893706,19.0143437 C25.1033524,19.5089512 25.6747988,19.7776637 26.256,19.704 L34.2,19.704 C35.0210963,19.6975862 35.6869914,19.0370183 35.7,18.216 L35.7,18.216 Z" id="Shape"></path>
                <path d="M57.45,16.494 L53.67,16.494 C50.9844257,16.4184321 48.3844771,17.442904 46.4723177,19.3301418 C44.5601584,21.2173797 43.5016683,23.8036654 43.542,26.49 L43.542,30.174 C43.4916457,30.9737466 42.8283302,31.5966113 42.027,31.5966113 C41.2256698,31.5966113 40.5623543,30.9737466 40.512,30.174 L40.512,20.634 C40.512,20.1369437 40.1090563,19.734 39.612,19.734 L37.128,19.734 C37.7432794,18.5466948 37.5796927,17.1052344 36.714,16.086 C38.1857408,15.0361971 38.538871,12.9976727 37.506,11.514 C38.8650622,10.8158334 39.5701567,9.27856875 39.2126698,7.79307563 C38.855183,6.3075825 37.5278989,5.25941375 36,5.256 L34.452,5.256 C34.9347879,4.31427103 34.9347879,3.19772897 34.452,2.256 L54.12,2.256 C54.6170563,2.256 55.02,1.85305627 55.02,1.356 C55.02,0.858943725 54.6170563,0.456 54.12,0.456 L27.18,0.456 C25.9717881,0.453239191 24.8582979,1.1097961 24.2758925,2.16837416 C23.6934871,3.22695223 23.7349376,4.51893103 24.384,5.538 C23.459393,5.92141617 22.7582815,6.70309075 22.4772985,7.66379604 C22.1963155,8.62450132 22.3657197,9.66078061 22.938,10.482 C21.7693158,11.0952989 21.0773858,12.3449475 21.1778144,13.6609537 C21.2782431,14.9769599 22.1517855,16.1071423 23.4,16.536 C22.7904673,17.5591551 22.7783587,18.8310761 23.3683019,19.8656502 C23.9582451,20.9002243 25.0590491,21.5375312 26.25,21.534 L38.712,21.534 L38.712,30.174 C38.7875748,31.9500077 40.2493851,33.3509362 42.027,33.3509362 C43.8046149,33.3509362 45.2664252,31.9500077 45.342,30.174 L45.342,26.49 C45.3115627,24.2840161 46.1835914,22.1613368 47.7560178,20.6138336 C49.3284442,19.0663303 51.4647839,18.2283243 53.67,18.294 L57.45,18.294 C57.9470563,18.294 58.35,17.8910563 58.35,17.394 C58.35,16.8969437 57.9470563,16.494 57.45,16.494 L57.45,16.494 Z M27.18,2.226 L31.512,2.226 C32.0932012,2.15233633 32.6646476,2.42104882 32.9786294,2.9156563 C33.2926112,3.41026379 33.2926112,4.04173621 32.9786294,4.5363437 C32.6646476,5.03095118 32.0932012,5.29966367 31.512,5.226 L27.18,5.226 C26.4244961,5.13024453 25.8581158,4.48754798 25.8581158,3.726 C25.8581158,2.96445202 26.4244961,2.32175547 27.18,2.226 L27.18,2.226 Z M25.656,7.026 L36,7.026 C36.7555039,7.12175547 37.3218842,7.76445202 37.3218842,8.526 C37.3218842,9.28754798 36.7555039,9.93024453 36,10.026 L25.656,10.026 C25.0747988,10.0996637 24.5033524,9.83095118 24.1893706,9.3363437 C23.8753888,8.84173621 23.8753888,8.21026379 24.1893706,7.7156563 C24.5033524,7.22104882 25.0747988,6.95233633 25.656,7.026 L25.656,7.026 Z M22.938,13.392 C22.938,12.5569455 23.6149455,11.88 24.45,11.88 L34.8,11.88 C35.3812012,11.8063363 35.9526476,12.0750488 36.2666294,12.5696563 C36.5806112,13.0642638 36.5806112,13.6957362 36.2666294,14.1903437 C35.9526476,14.6849512 35.3812012,14.9536637 34.8,14.88 L24.456,14.88 C23.6278945,14.8833904 22.9511377,14.2200082 22.938,13.392 L22.938,13.392 Z M34.2,19.734 L26.256,19.734 C25.6747988,19.8076637 25.1033524,19.5389512 24.7893706,19.0443437 C24.4753888,18.5497362 24.4753888,17.9182638 24.7893706,17.4236563 C25.1033524,16.9290488 25.6747988,16.6603363 26.256,16.734 L34.2,16.734 C34.9555039,16.8297555 35.5218842,17.472452 35.5218842,18.234 C35.5218842,18.995548 34.9555039,19.6382445 34.2,19.734 L34.2,19.734 Z" id="Shape" fill="#2D2926" fill-rule="nonzero"></path>
            </g>
        </g>
    </g>
</svg>