<?xml version="1.0" encoding="UTF-8"?>
<svg width="39px" height="58px" viewBox="0 0 39 58" version="1.1" xmlns="http://www.w3.org/2000/svg" xmlns:xlink="http://www.w3.org/1999/xlink">
    <!-- Generator: Sketch 44.1 (41455) - http://www.bohemiancoding.com/sketch -->
    <title>freelancer/16</title>
    <desc>Created with Sketch.</desc>
    <defs></defs>
    <g id="Dashboard:-Engage-Employers" stroke="none" stroke-width="1" fill="none" fill-rule="evenodd">
        <g id="freelancer/16" transform="translate(-16.000000, -7.000000)">
            <rect id="Rectangle-10-Copy-3" x="0" y="0" width="72" height="72"></rect>
            <g id="freelancer/17" transform="translate(16.200000, 6.600000)" fill-rule="nonzero" fill="#2D2926">
                <path d="M16.986,14.454 L9.786,14.454 C9.28894373,14.454 8.886,14.8569437 8.886,15.354 L8.886,55.23 C8.886,55.7270563 9.28894373,56.13 9.786,56.13 C10.2830563,56.13 10.686,55.7270563 10.686,55.23 L10.686,19.554 L16.086,19.554 L16.086,57.51 C16.086,58.0070563 16.4889437,58.41 16.986,58.41 C17.4830563,58.41 17.886,58.0070563 17.886,57.51 L17.886,15.354 C17.886,14.8569437 17.4830563,14.454 16.986,14.454 L16.986,14.454 Z M10.68,18.354 L10.68,16.254 L16.08,16.254 L16.08,18.354 L10.68,18.354 Z" id="Shape"></path>
                <path d="M33.42,33.216 C28.812,33.216 28.32,39.714 28.32,42.51 C28.32,49.362 32.52,54.828 32.712,55.056 C32.8826143,55.2733977 33.143647,55.4003598 33.42,55.4003598 C33.696353,55.4003598 33.9573857,55.2733977 34.128,55.056 C34.308,54.828 38.52,49.362 38.52,42.51 C38.52,39.714 38.022,33.216 33.42,33.216 Z M33.42,52.914 C32.268,51.114 30.12,47.088 30.12,42.51 C30.12,37.746 31.32,35.016 33.42,35.016 C35.52,35.016 36.72,37.746 36.72,42.51 C36.72,47.088 34.572,51.09 33.42,52.908 L33.42,52.914 Z" id="Shape"></path>
                <path d="M30.744,30.714 C30.8339904,31.1261327 31.1981597,31.4204613 31.62,31.422 L35.22,31.422 C35.6418403,31.4204613 36.0060096,31.1261327 36.096,30.714 L37.896,22.572 C37.9028006,22.5081807 37.9028006,22.4438193 37.896,22.38 L37.896,4.692 C37.896,4.19494373 37.4930563,3.792 36.996,3.792 C36.4989437,3.792 36.096,4.19494373 36.096,4.692 L36.096,18.33 L30.696,18.33 L30.696,1.476 C30.696,0.978943725 30.2930563,0.576 29.796,0.576 C29.2989437,0.576 28.896,0.978943725 28.896,1.476 L28.896,22.374 C28.8890607,22.4378119 28.8890607,22.5021881 28.896,22.566 L30.744,30.714 Z M34.494,29.622 L32.346,29.622 L30.906,23.136 L35.934,23.136 L34.494,29.622 Z M36.12,19.53 L36.12,21.93 L30.72,21.93 L30.72,19.53 L36.12,19.53 Z" id="Shape"></path>
                <path d="M13.386,10.884 C13.7173708,10.884 13.986,10.6153708 13.986,10.284 L13.986,7.002 C13.986,6.67062915 13.7173708,6.402 13.386,6.402 C13.0546292,6.402 12.786,6.67062915 12.786,7.002 L12.786,10.284 C12.786,10.6153708 13.0546292,10.884 13.386,10.884 Z" id="Shape"></path>
                <path d="M18.36,7.374 C18.0534873,7.25040677 17.7047418,7.39795297 17.58,7.704 L16.338,10.74 C16.2416589,10.941271 16.2649703,11.17938 16.3985175,11.3581445 C16.5320648,11.536909 16.7537847,11.6267955 16.9741151,11.5914949 C17.1944455,11.5561943 17.3769858,11.4015386 17.448,11.19 L18.684,8.148 C18.8043492,7.84482115 18.6604387,7.50103507 18.36,7.374 Z" id="Shape"></path>
                <path d="M19.986,13.62 C20.1454818,13.6209221 20.2987687,13.5583119 20.412,13.446 L22.74,11.13 C22.8921951,10.9788767 22.9522059,10.7580378 22.8974268,10.5506713 C22.8426477,10.3433047 22.681401,10.1809144 22.4744268,10.1246713 C22.2674526,10.0684281 22.0461951,10.1268767 21.894,10.278 L19.566,12.6 C19.392924,12.7716543 19.3409029,13.0309601 19.4343774,13.2560889 C19.527852,13.4812177 19.748241,13.6274176 19.992,13.626 L19.986,13.62 Z" id="Shape"></path>
                <path d="M6.36,25.74 L4.032,28.056 C3.87980485,28.2071233 3.81979407,28.4279622 3.87457316,28.6353288 C3.92935224,28.8426953 4.09059894,29.0050856 4.29757317,29.0613288 C4.5045474,29.117572 4.72580486,29.0591234 4.878,28.908 L7.2,26.592 C7.40567562,26.3554059 7.39454052,26.000353 7.17444365,25.7771119 C6.95434677,25.5538708 6.59948754,25.5377008 6.36,25.74 Z" id="Shape"></path>
                <path d="M21.528,16.476 C21.5844747,16.6247992 21.6977554,16.7450638 21.8429141,16.810329 C21.9880728,16.8755941 22.1532149,16.8805119 22.302,16.824 L25.368,15.624 C25.6778317,15.5047065 25.8322935,15.1568317 25.713,14.847 C25.5937065,14.5371683 25.2458317,14.3827065 24.936,14.502 L21.87,15.702 C21.5625041,15.822004 21.409689,16.1678487 21.528,16.476 Z" id="Shape"></path>
                <path d="M5.244,22.71 C5.18752532,22.5612008 5.07424462,22.4409362 4.9290859,22.375671 C4.78392718,22.3104059 4.61878509,22.3054881 4.47,22.362 L1.404,23.562 C1.15734619,23.5897138 0.953218069,23.766439 0.890478414,24.0065845 C0.827738759,24.2467301 0.919340496,24.5007167 1.12091932,24.6455343 C1.32249814,24.7903519 1.59243706,24.7961021 1.8,24.66 L4.866,23.46 C5.17513668,23.3545596 5.34314317,23.0212134 5.244,22.71 L5.244,22.71 Z" id="Shape"></path>
                <path d="M25.998,19.026 L22.71,19.026 C22.3786292,19.026 22.11,19.2946292 22.11,19.626 C22.11,19.9573708 22.3786292,20.226 22.71,20.226 L25.998,20.226 C26.3293708,20.226 26.598,19.9573708 26.598,19.626 C26.598,19.2946292 26.3293708,19.026 25.998,19.026 Z" id="Shape"></path>
                <path d="M4.062,20.172 C4.39337085,20.172 4.662,19.9033708 4.662,19.572 C4.662,19.2406292 4.39337085,18.972 4.062,18.972 L0.78,18.972 C0.44862915,18.972 0.18,19.2406292 0.18,19.572 C0.18,19.9033708 0.44862915,20.172 0.78,20.172 L4.068,20.172 L4.062,20.172 Z" id="Shape"></path>
                <path d="M25.284,23.808 L22.242,22.566 C22.0437176,22.4845434 21.8170405,22.5150569 21.6473559,22.6460462 C21.4776712,22.7770355 21.3907581,22.9886003 21.4193559,23.2010462 C21.4479536,23.4134921 21.5877176,23.5945435 21.786,23.676 L24.828,24.918 C25.134518,25.0439209 25.4850791,24.897518 25.611,24.591 C25.7369209,24.284482 25.590518,23.9339209 25.284,23.808 L25.284,23.808 Z" id="Shape"></path>
                <path d="M1.488,15.378 L4.53,16.62 C4.7282824,16.7014566 4.95495946,16.6709431 5.12464412,16.5399538 C5.29432877,16.4089645 5.38124188,16.1973997 5.35264412,15.9849538 C5.32404636,15.7725079 5.18428241,15.5914565 4.986,15.51 L1.944,14.268 C1.63748197,14.1420791 1.28692094,14.288482 1.16100002,14.595 C1.03507911,14.901518 1.18148198,15.2520791 1.488,15.378 Z" id="Shape"></path>
                <path d="M20.4,25.758 C20.1663835,25.5227267 19.7862733,25.5213836 19.551,25.755 C19.3157267,25.9886165 19.3143836,26.3687267 19.548,26.604 L21.87,28.926 C22.1036164,29.1612733 22.4837267,29.1626164 22.719,28.929 C22.9542733,28.6953836 22.9556164,28.3152733 22.722,28.08 L20.4,25.758 Z" id="Shape"></path>
                <path d="M4.908,10.254 C4.67438355,10.0187267 4.29427331,10.0173836 4.05900002,10.251 C3.82372672,10.4846165 3.82238357,10.8647267 4.056,11.1 L6.378,13.422 C6.50570614,13.6376358 6.75398442,13.751183 7.00062902,13.7067523 C7.24727362,13.6623217 7.44032165,13.4692736 7.48475235,13.222629 C7.52918304,12.9759844 7.41563578,12.7277061 7.2,12.6 L4.908,10.254 Z" id="Shape"></path>
                <path d="M10.038,11.508 C10.2354817,11.5074173 10.420031,11.4096956 10.5315033,11.2466824 C10.6429755,11.0836692 10.6670946,10.8762415 10.596,10.692 L9.396,7.632 C9.27670649,7.32216826 8.92883174,7.16770649 8.619,7.287 C8.30916826,7.40629351 8.15470649,7.75416826 8.274,8.064 L9.474,11.124 C9.56384002,11.3568419 9.78843339,11.5097565 10.038,11.508 Z" id="Shape"></path>
            </g>
        </g>
    </g>
</svg>