<?xml version="1.0" encoding="UTF-8"?>
<svg width="68px" height="46px" viewBox="0 0 68 46" version="1.1" xmlns="http://www.w3.org/2000/svg" xmlns:xlink="http://www.w3.org/1999/xlink">
    <!-- Generator: Sketch 44.1 (41455) - http://www.bohemiancoding.com/sketch -->
    <title>freelancer/17</title>
    <desc>Created with Sketch.</desc>
    <defs></defs>
    <g id="Dashboard:-Engage-Employers" stroke="none" stroke-width="1" fill="none" fill-rule="evenodd">
        <g id="freelancer/17" transform="translate(-2.000000, -13.000000)">
            <rect id="Rectangle-10-Copy-3" x="0" y="0" width="72" height="72"></rect>
            <g id="freelancer/18" transform="translate(2.400000, 13.200000)" fill-rule="nonzero" fill="#2D2926">
                <path d="M33.378,12.468 C36.8209431,12.468 39.612,9.67694313 39.612,6.234 C39.612,2.79105687 36.8209431,0 33.378,0 C29.9350569,0 27.144,2.79105687 27.144,6.234 C27.1473076,9.67557214 29.9364279,12.4646924 33.378,12.468 L33.378,12.468 Z M33.378,1.8 C35.8268306,1.8 37.812,3.78516942 37.812,6.234 C37.812,8.68283058 35.8268306,10.668 33.378,10.668 C30.9291694,10.668 28.944,8.68283058 28.944,6.234 C28.9473052,3.78653976 30.9305398,1.80330515 33.378,1.8 L33.378,1.8 Z" id="Shape"></path>
                <path d="M33.378,30.726 C31.9340088,30.7293119 30.7657964,31.9019975 30.7680031,33.3459908 C30.7702097,34.7899842 31.9420008,35.9590938 33.3859954,35.9579924 C34.82999,35.9568909 35.9999962,34.785995 36,33.342 C35.9966916,31.8962531 34.8237507,30.7259962 33.378,30.726 Z M33.378,34.758 C32.5967544,34.7546896 31.965801,34.1192664 31.9680056,33.3380169 C31.9702102,32.5567674 32.6047397,31.9249153 33.3859915,31.9260141 C34.1672434,31.9271129 34.799993,32.5607474 34.8,33.342 C34.8000034,33.7185884 34.6499947,34.0796658 34.3831441,34.3453905 C34.1162935,34.6111152 33.7545851,34.7595957 33.378,34.758 Z" id="Shape"></path>
                <path d="M66.054,37.374 L63.096,37.374 L63.096,35.172 C63.096,34.1778875 62.2901125,33.372 61.296,33.372 L59.694,33.372 C58.6998875,33.372 57.894,34.1778875 57.894,35.172 L57.6,35.172 C56.5343533,35.1752941 55.6712941,36.0383533 55.668,37.104 C55.6607672,37.1998638 55.6607672,37.2961362 55.668,37.392 L52.422,37.392 L52.422,23.124 C52.422,21.964202 51.481798,21.024 50.322,21.024 L46.374,21.024 L46.374,19.686 C46.370694,16.9635022 44.1644978,14.757306 41.442,14.754 L25.314,14.754 C22.5985342,14.7671961 20.4032674,16.9705041 20.4,19.686 L20.4,21 L16.434,21 C15.274202,21 14.334,21.940202 14.334,23.1 L14.334,37.374 L9.534,37.374 C9.52740278,36.6837804 8.96424303,36.1286658 8.274,36.132 L7.938,36.132 L7.938,35.46 C7.90763492,34.2693794 8.84174662,33.2763839 10.032,33.234 C10.3612592,33.2115398 10.6105666,32.9273829 10.59,32.598 C10.5807335,32.4387652 10.5084447,32.2897736 10.3891057,32.1839447 C10.2697666,32.0781157 10.1132004,32.0241604 9.954,32.034 C9.22103281,32.0904737 8.52043862,32.3594518 7.938,32.808 L7.938,30.312 C7.938,28.116 10.116,27.258 10.206,27.222 C10.5158317,27.1043633 10.6716366,26.7578317 10.5539999,26.448 C10.4363633,26.1381683 10.0898317,25.9823634 9.78,26.1 C9.08648831,26.387234 8.45948981,26.8140831 7.938,27.354 L7.938,26.586 C7.938,21.612 10.938,20.088 11.064,20.028 C11.3638906,19.8855105 11.4914895,19.5268906 11.349,19.227 C11.2065105,18.9271094 10.8478906,18.7995105 10.548,18.942 C9.48077407,19.5380489 8.60004886,20.4187741 8.004,21.486 C7.68671423,20.9252142 7.26274622,20.4319437 6.756,20.034 C6.48924647,19.8252364 6.10376364,19.8722465 5.895,20.139 C5.68623636,20.4057535 5.73324647,20.7912364 6,21 C6.60355995,21.5020292 7.05801514,22.1598479 7.314,22.902 C7.06653519,23.601116 6.89749859,24.3255586 6.81,25.062 C6.21256481,24.3106048 5.35718812,23.808071 4.41,23.652 C4.25242973,23.6279161 4.09175229,23.6675224 3.96342623,23.7620785 C3.83510017,23.8566345 3.74967411,23.9983676 3.726,24.156 C3.68494026,24.4679413 3.8918182,24.7586179 4.2,24.822 C5.862,25.074 6.564,26.916 6.684,27.282 L6.684,30.558 C5.88698392,29.7252058 4.78271486,29.2565966 3.63,29.262 C3.29862915,29.262 3.03,29.5306292 3.03,29.862 C3.03,30.1933708 3.29862915,30.462 3.63,30.462 C5.604,30.462 6.498,32.214 6.684,32.64 L6.684,36.12 L5.712,36.12 C5.02175697,36.1166658 4.45859722,36.6717804 4.452,37.362 L1.146,37.362 C0.81462915,37.362 0.546,37.6306292 0.546,37.962 C0.546,38.2933708 0.81462915,38.562 1.146,38.562 L4.542,38.562 L5.004,44.124 C5.06275581,44.7770605 5.6083113,45.278452 6.264,45.282 L7.698,45.282 C8.3536887,45.278452 8.89924419,44.7770605 8.958,44.124 L9.42,38.562 L14.334,38.562 L14.334,42.762 C14.334,43.921798 15.274202,44.862 16.434,44.862 L50.322,44.862 C51.481798,44.862 52.422,43.921798 52.422,42.762 L52.422,38.562 L56.274,38.562 C56.3039521,38.5643974 56.3340479,38.5643974 56.364,38.562 C56.7115738,38.8489821 57.1492788,39.0040912 57.6,39 L57.96,39 C58.1712093,39.7844142 58.8816506,40.3301511 59.694,40.332 L61.296,40.332 C62.2901125,40.332 63.096,39.5261125 63.096,38.532 L66.054,38.532 C66.3853708,38.532 66.654,38.2633708 66.654,37.932 C66.654,37.6006292 66.3853708,37.332 66.054,37.332 L66.054,37.374 Z M7.764,44.04 C7.76088839,44.0740892 7.73223067,44.1001417 7.698,44.1 L6.264,44.1 C6.22976933,44.1001417 6.20111161,44.0740892 6.198,44.04 L5.82,39.54 L8.13,39.54 L7.764,44.04 Z M8.238,38.34 L5.724,38.34 L5.646,37.398 L8.316,37.398 L8.238,38.34 Z M22.2,19.686 C22.2033016,17.9576136 23.6036136,16.5573016 25.332,16.554 L41.442,16.554 C43.1703864,16.5573016 44.5706984,17.9576136 44.574,19.686 L44.574,21 L22.2,21 L22.2,19.686 Z M50.64,42.774 C50.6368079,42.9383451 50.5043451,43.0708079 50.34,43.074 L16.434,43.074 C16.2696549,43.0708079 16.1371921,42.9383451 16.134,42.774 L16.134,23.124 C16.1371921,22.9596549 16.2696549,22.8271921 16.434,22.824 L50.322,22.824 C50.4863451,22.8271921 50.6188079,22.9596549 50.622,23.124 L50.64,42.774 Z M57.894,37.8 L57.6,37.8 C57.1940707,37.8 56.865,37.4709293 56.865,37.065 C56.865,36.6590707 57.1940707,36.33 57.6,36.33 L57.888,36.33 L57.894,37.8 Z M61.896,38.532 C61.896,38.8633708 61.6273708,39.132 61.296,39.132 L59.694,39.132 C59.3626292,39.132 59.094,38.8633708 59.094,38.532 L59.094,35.172 C59.094,34.8406292 59.3626292,34.572 59.694,34.572 L61.296,34.572 C61.6273708,34.572 61.896,34.8406292 61.896,35.172 L61.896,38.532 Z" id="Shape"></path>
                <path d="M59.742,31.53 C59.742,31.8613708 60.0106292,32.13 60.342,32.13 C60.6733708,32.13 60.942,31.8613708 60.942,31.53 C60.9425762,31.1689956 61.105645,30.8274326 61.386,30.6 C61.8591272,30.1472576 62.1267098,29.5208473 62.1267098,28.866 C62.1267098,28.2111527 61.8591272,27.5847424 61.386,27.132 C61.105645,26.9045674 60.9425762,26.5630044 60.942,26.202 C60.942,25.8706292 60.6733708,25.602 60.342,25.602 C60.0106292,25.602 59.742,25.8706292 59.742,26.202 C59.7459825,26.8591243 60.0192365,27.4858737 60.498,27.936 C60.7796724,28.1638315 60.9433405,28.5067203 60.9433405,28.869 C60.9433405,29.2312797 60.7796724,29.5741685 60.498,29.802 C60.0207387,30.2506912 59.7476189,30.8749652 59.742,31.53 L59.742,31.53 Z" id="Shape"></path>
            </g>
        </g>
    </g>
</svg>