<?xml version="1.0" encoding="UTF-8"?>
<svg width="50px" height="48px" viewBox="0 0 50 48" version="1.1" xmlns="http://www.w3.org/2000/svg" xmlns:xlink="http://www.w3.org/1999/xlink">
    <!-- Generator: Sketch 44.1 (41455) - http://www.bohemiancoding.com/sketch -->
    <title>freelancer/18</title>
    <desc>Created with Sketch.</desc>
    <defs></defs>
    <g id="Dashboard:-Engage-Employers" stroke="none" stroke-width="1" fill="none" fill-rule="evenodd">
        <g id="freelancer/18" transform="translate(-11.000000, -12.000000)">
            <rect id="Rectangle-10-Copy-3" x="0" y="0" width="72" height="72"></rect>
            <g id="freelancer/6" transform="translate(10.800000, 12.000000)" fill-rule="nonzero" fill="#2D2926">
                <path d="M48,0.312 L2.4,0.312 C1.2448722,0.311981141 0.30660073,1.24489106 0.3,2.4 L0.3,31.2 C0.3,32.359798 1.24020203,33.3 2.4,33.3 L20.1,33.3 L20.1,35.94 C20.1,39.198 18.186,40.656 17.466,41.088 L14.4,41.088 C13.84096,41.0879909 13.3049901,41.3108867 12.910817,41.7073123 C12.5166438,42.1037379 12.2968055,42.6409691 12.3,43.2 L12.3,45.6 C12.3,46.759798 13.240202,47.7 14.4,47.7 L36,47.7 C37.159798,47.7 38.1,46.759798 38.1,45.6 L38.1,43.2 C38.1,42.040202 37.159798,41.1 36,41.1 L32.82,41.1 C32.124,40.662 30.3,39.198 30.3,35.952 L30.3,33.312 L48,33.312 C49.159798,33.312 50.1,32.371798 50.1,31.212 L50.1,2.4 C50.0933993,1.24489106 49.1551278,0.311981141 48,0.312 Z M36.3,43.2 L36.3,45.6 C36.2968079,45.7643451 36.1643451,45.8968079 36,45.9 L14.4,45.9 C14.2356549,45.8968079 14.1031921,45.7643451 14.1,45.6 L14.1,43.2 C14.1031921,43.0356549 14.2356549,42.9031921 14.4,42.9 L36,42.9 C36.1643451,42.9031921 36.2968079,43.0356549 36.3,43.2 Z M30.186,41.1 L20.16,41.1 C21.3383255,39.6480441 21.9558263,37.8210934 21.9,35.952 L21.9,33.312 L28.5,33.312 L28.5,35.94 C28.4440492,37.8001676 29.0404868,39.6213188 30.186,41.088 L30.186,41.1 Z M48.3,31.2 C48.2968079,31.3643451 48.1643451,31.4968079 48,31.5 L2.4,31.5 C2.23565493,31.4968079 2.10319206,31.3643451 2.1,31.2 L2.1,2.4 C2.10319206,2.23565493 2.23565493,2.10319206 2.4,2.1 L48,2.1 C48.1643451,2.10319206 48.2968079,2.23565493 48.3,2.4 L48.3,31.2 Z" id="Shape"></path>
                <path d="M28.626,11.4 C28.4780214,11.3409725 28.3126423,11.3432214 28.1663235,11.4062511 C28.0200048,11.4692807 27.9047611,11.5879154 27.846,11.736 L23.046,23.736 C22.966687,23.9353542 22.999753,24.161878 23.1327424,24.3302422 C23.2657317,24.4986063 23.4784401,24.5832322 23.6907424,24.5522422 C23.9030446,24.5212521 24.082687,24.3793542 24.162,24.18 L28.962,12.18 C29.0210275,12.0320214 29.0187786,11.8666423 28.9557489,11.7203235 C28.8927193,11.5740048 28.7740846,11.4587611 28.626,11.4 L28.626,11.4 Z" id="Shape"></path>
                <path d="M34.362,13.326 C34.2073541,13.1450667 33.9603784,13.0726524 33.7325155,13.1414327 C33.5046527,13.210213 33.3389901,13.4071819 33.3102796,13.6434612 C33.2815692,13.8797406 33.3952398,14.1106514 33.6,14.232 L37.86,18 L33.6,21.726 C33.3683496,21.9485023 33.3530122,22.3139702 33.5652056,22.5550991 C33.777399,22.796228 34.141851,22.8274812 34.392,22.626 L39.192,18.426 C39.3211503,18.3121002 39.3951373,18.1482003 39.3951373,17.976 C39.3951373,17.8037997 39.3211503,17.6398998 39.192,17.526 L34.362,13.326 Z" id="Shape"></path>
                <path d="M17.208,13.386 C16.9891453,13.1377774 16.610638,13.1136173 16.362,13.332 L11.562,17.532 C11.4328497,17.6458998 11.3588627,17.8097997 11.3588627,17.982 C11.3588627,18.1542003 11.4328497,18.3181002 11.562,18.432 L16.362,22.632 C16.5210996,22.7848166 16.7512256,22.8380015 16.961245,22.7704929 C17.1712644,22.7029843 17.3272994,22.5256719 17.367558,22.3087737 C17.4078165,22.0918755 17.3258045,21.8703791 17.154,21.732 L12.87,18 L17.154,14.25 C17.2786928,14.1444282 17.3549411,13.9925722 17.3651326,13.8295083 C17.3753241,13.6664444 17.3185773,13.5062761 17.208,13.386 Z" id="Shape"></path>
            </g>
        </g>
    </g>
</svg>