<?xml version="1.0" encoding="UTF-8"?>
<svg width="58px" height="63px" viewBox="0 0 58 63" version="1.1" xmlns="http://www.w3.org/2000/svg" xmlns:xlink="http://www.w3.org/1999/xlink">
    <!-- Generator: Sketch 44.1 (41455) - http://www.bohemiancoding.com/sketch -->
    <title>freelancer/2</title>
    <desc>Created with Sketch.</desc>
    <defs></defs>
    <g id="Dashboard:-Engage-Employers" stroke="none" stroke-width="1" fill="none" fill-rule="evenodd">
        <g id="freelancer/2" transform="translate(-7.000000, -4.000000)">
            <rect id="Rectangle-10-Copy-3" x="0" y="0" width="72" height="72"></rect>
            <g transform="translate(7.200000, 4.800000)" id="Shape" fill-rule="nonzero" fill="#2D2926">
                <path d="M28.8,13.548 C21.4659419,13.5439237 15.1605732,18.7447128 13.7693092,25.9456023 C12.3780452,33.1464919 16.2922662,40.3217797 23.1,43.05 L23.1,55.248 C23.0997471,56.7251329 24.0794172,58.0231959 25.5,58.428 C25.5,60.2505397 26.9774603,61.728 28.8,61.728 C30.6225397,61.728 32.1,60.2505397 32.1,58.428 C33.5205828,58.0231959 34.5002529,56.7251329 34.5,55.248 L34.5,43.068 C41.3051836,40.3336818 45.2159609,33.1579867 43.8255329,25.9570333 C42.4351049,18.7560799 36.1339623,13.5521986 28.8,13.548 Z M24.9,48.948 L32.7,48.948 L32.7,51.948 L24.9,51.948 L24.9,48.948 Z M28.8,59.652 C28.1282984,59.6497024 27.5400132,59.2011349 27.36,58.554 L30.24,58.554 C30.0599868,59.2011349 29.4717016,59.6497024 28.8,59.652 L28.8,59.652 Z M31.2,56.754 L26.4,56.754 C25.5729389,56.7507114 24.9032886,56.0810611 24.9,55.254 L24.9,53.754 L32.7,53.754 L32.7,55.254 C32.6934348,56.078717 32.0247367,56.7447403 31.2,56.748 L31.2,56.754 Z M33.306,41.598 L32.706,41.808 L32.706,47.154 L29.706,47.154 L29.706,35.154 L33.6,35.154 C34.0970563,35.154 34.5,34.7510563 34.5,34.254 C34.5,33.7569437 34.0970563,33.354 33.6,33.354 L24,33.354 C23.5029437,33.354 23.1,33.7569437 23.1,34.254 C23.1,34.7510563 23.5029437,35.154 24,35.154 L27.9,35.154 L27.9,47.154 L24.9,47.154 L24.9,41.796 L24.3,41.58 C18.1114724,39.3887379 14.4010134,33.0584154 15.5126987,26.5882022 C16.624384,20.117989 22.2349788,15.3891714 28.8,15.3891714 C35.3650212,15.3891714 40.975616,20.117989 42.0873013,26.5882022 C43.1989866,33.0584154 39.4885276,39.3887379 33.3,41.58 L33.306,41.598 Z"></path>
                <path d="M28.8,4.848 C29.1313708,4.848 29.4,4.57937085 29.4,4.248 L29.4,0.648 C29.4,0.31662915 29.1313708,0.048 28.8,0.048 C28.4686292,0.048 28.2,0.31662915 28.2,0.648 L28.2,4.248 C28.2,4.57937085 28.4686292,4.848 28.8,4.848 Z"></path>
                <path d="M37.8,6.6 C38.1065127,6.72359323 38.4552582,6.57604703 38.58,6.27 L39.93,2.934 C40.0263411,2.732729 40.0030297,2.49461997 39.8694825,2.31585547 C39.7359352,2.13709097 39.5142153,2.04720449 39.2938849,2.08250508 C39.0735545,2.11780567 38.8910142,2.27246135 38.82,2.484 L37.47,5.82 C37.3464068,6.12651266 37.493953,6.47525822 37.8,6.6 Z"></path>
                <path d="M4.8,28.848 C4.8,28.5166292 4.53137085,28.248 4.2,28.248 L0.6,28.248 C0.26862915,28.248 0,28.5166292 0,28.848 C0,29.1793708 0.26862915,29.448 0.6,29.448 L4.2,29.448 C4.53137085,29.448 4.8,29.1793708 4.8,28.848 Z"></path>
                <path d="M57,28.248 L53.4,28.248 C53.0686292,28.248 52.8,28.5166292 52.8,28.848 C52.8,29.1793708 53.0686292,29.448 53.4,29.448 L57,29.448 C57.3313708,29.448 57.6,29.1793708 57.6,28.848 C57.6,28.5166292 57.3313708,28.248 57,28.248 Z"></path>
                <path d="M6.24,19.02 L2.904,17.664 C2.702729,17.5676589 2.46461997,17.5909703 2.28585547,17.7245175 C2.10709097,17.8580648 2.01720449,18.0797847 2.05250508,18.3001151 C2.08780567,18.5204455 2.24246135,18.7029858 2.454,18.774 L5.79,20.13 C5.991271,20.2263411 6.22938003,20.2030297 6.40814453,20.0694825 C6.58690903,19.9359352 6.67679551,19.7142153 6.64149492,19.4938849 C6.60619433,19.2735545 6.45153865,19.0910142 6.24,19.02 Z"></path>
                <path d="M55.146,38.928 L51.81,37.572 C51.608729,37.4756589 51.37062,37.4989703 51.1918555,37.6325175 C51.013091,37.7660648 50.9232045,37.9877847 50.9585051,38.2081151 C50.9938057,38.4284455 51.1484614,38.6109858 51.36,38.682 L54.696,40.038 C54.897271,40.1343411 55.13538,40.1110297 55.3141445,39.9774825 C55.492909,39.8439352 55.5827955,39.6222153 55.5474949,39.4018849 C55.5121943,39.1815545 55.3575386,38.9990142 55.146,38.928 Z"></path>
                <path d="M9.282,8.484 C9.04394383,8.28013392 8.6890835,8.29384064 8.46746207,8.51546207 C8.24584064,8.7370835 8.23213392,9.09194383 8.436,9.33 L10.98,11.88 C11.1266339,12.0512257 11.356871,12.1258092 11.5760514,12.0730861 C11.7952317,12.020363 11.966363,11.8492317 12.0190861,11.6300514 C12.0718092,11.410871 11.9972257,11.1806339 11.826,11.034 L9.282,8.484 Z"></path>
                <path d="M46.62,45.822 C46.3819438,45.6181339 46.0270835,45.6318406 45.8054621,45.8534621 C45.5838406,46.0750835 45.5701339,46.4299438 45.774,46.668 L48.318,49.2 C48.5560562,49.4038661 48.9109165,49.3901594 49.1325379,49.1685379 C49.3541594,48.9469165 49.3678661,48.5920562 49.164,48.354 L46.62,45.822 Z"></path>
                <path d="M10.98,45.822 L8.436,48.366 C8.24924054,48.5082179 8.16257171,48.7462869 8.21418992,48.975286 C8.26580813,49.2042851 8.44623161,49.3821494 8.67594471,49.4304911 C8.90565781,49.4788328 9.14246446,49.388772 9.282,49.2 L11.826,46.656 C12.0298661,46.4179438 12.0161594,46.0630835 11.7945379,45.8414621 C11.5729165,45.6198406 11.2180562,45.6061339 10.98,45.81 L10.98,45.822 Z"></path>
                <path d="M48.318,8.484 L45.774,11.028 C45.6218049,11.1791233 45.5617941,11.3999622 45.6165732,11.6073287 C45.6713523,11.8146953 45.832599,11.9770856 46.0395732,12.0333287 C46.2465474,12.0895719 46.4678049,12.0311233 46.62,11.88 L49.164,9.336 C49.3678661,9.09794383 49.3541594,8.7430835 49.1325379,8.52146207 C48.9109165,8.29984064 48.5560562,8.28613392 48.318,8.49 L48.318,8.484 Z"></path>
                <path d="M19.452,6.09 C19.5280976,6.290426 19.7053406,6.43502968 19.9169634,6.46934025 C20.1285862,6.50365082 20.3424382,6.42245568 20.4779634,6.25634025 C20.6134886,6.09022482 20.6500976,5.864426 20.574,5.664 L19.29,2.304 C19.1723633,1.99416826 18.8258317,1.83836335 18.516,1.956 C18.2061683,2.07363665 18.0503633,2.42016826 18.168,2.73 L19.452,6.09 Z"></path>
                <path d="M5.61,37.08 L2.25,38.364 C1.94016826,38.4816367 1.78436335,38.8281683 1.902,39.138 C2.01963665,39.4478317 2.36616826,39.6036367 2.676,39.486 L6.036,38.202 C6.34583174,38.0843633 6.50163665,37.7378317 6.384,37.428 C6.26636335,37.1181683 5.91983174,36.9623633 5.61,37.08 Z"></path>
                <path d="M51.774,20.664 C51.8479735,20.6634353 51.9212048,20.6491959 51.99,20.622 L55.35,19.338 C55.6598317,19.2203633 55.8156366,18.8738317 55.698,18.564 C55.5803633,18.2541683 55.2338317,18.0983634 54.924,18.216 L51.564,19.5 C51.2968501,19.6055608 51.1419946,19.8856574 51.1946663,20.1680363 C51.247338,20.4504152 51.4927588,20.6558489 51.78,20.658 L51.774,20.664 Z"></path>
                <path d="M28.8,18.648 C28.4686292,18.648 28.2,18.9166292 28.2,19.248 C28.2,19.5793708 28.4686292,19.848 28.8,19.848 C33.7705627,19.848 37.8,23.8774373 37.8,28.848 C37.8,29.1793708 38.0686292,29.448 38.4,29.448 C38.7313708,29.448 39,29.1793708 39,28.848 C39,23.2146956 34.4333044,18.648 28.8,18.648 Z"></path>
            </g>
        </g>
    </g>
</svg>