<?xml version="1.0" encoding="UTF-8"?>
<svg width="52px" height="59px" viewBox="0 0 52 59" version="1.1" xmlns="http://www.w3.org/2000/svg" xmlns:xlink="http://www.w3.org/1999/xlink">
    <!-- Generator: Sketch 44.1 (41455) - http://www.bohemiancoding.com/sketch -->
    <title>freelancer/3</title>
    <desc>Created with Sketch.</desc>
    <defs></defs>
    <g id="Dashboard:-Engage-Employers" stroke="none" stroke-width="1" fill="none" fill-rule="evenodd">
        <g id="freelancer/3" transform="translate(-10.000000, -6.000000)">
            <rect id="Rectangle-10-Copy-3" x="0" y="0" width="72" height="72"></rect>
            <g transform="translate(10.200000, 6.000000)" id="Shape" fill-rule="nonzero" fill="#2D2926">
                <path d="M50.856,15.27 C50.7896221,15.1221642 50.6662664,15.0074651 50.514,14.952 L43.914,12.552 L43.914,6.174 C43.914,5.84262915 43.6453708,5.574 43.314,5.574 L25.746,5.574 L23.49,0.678 C23.351421,0.379254105 22.997947,0.248040295 22.698,0.384 L3.66,9 C3.51494161,9.06655453 3.40237645,9.18815931 3.34720265,9.33791677 C3.29202885,9.48767422 3.29879338,9.65324257 3.366,9.798 L6.03,15.6 L1.38,16.71 C1.06210653,16.7871687 0.864613821,17.1047583 0.936,17.424 L2.43,24.024 C1.29483909,24.0718114 0.395759498,24.9998935 0.384,26.136 L0.384,56.64 C0.380767985,57.2148946 0.608127005,57.7670921 1.01520876,58.1730462 C1.42229051,58.5790003 1.97511654,58.8048267 2.55,58.8 L46.8,58.8 C47.9816706,58.8066752 48.9468156,57.8576159 48.96,56.676 L48.96,26.142 C48.9615656,25.5714543 48.7295897,25.0251186 48.318,24.63 C48.1112014,24.4295382 47.866401,24.272458 47.598,24.168 L50.85,15.732 C50.9135922,15.5849754 50.9157526,15.4186265 50.856,15.27 Z M42.69,24 L39.09,24 L39.09,13.272 C39.09,12.9406292 38.8213708,12.672 38.49,12.672 L22.29,12.672 L22.29,6.774 L42.69,6.774 L42.69,24 Z M37.89,13.854 L37.89,24 L17.49,24 L17.49,13.872 L37.89,13.854 Z M22.65,1.722 L24.45,5.574 L21.69,5.574 C21.3586292,5.574 21.09,5.84262915 21.09,6.174 L21.09,12.672 L16.89,12.672 C16.5586292,12.672 16.29,12.9406292 16.29,13.272 L16.29,24 L15.768,24 C15.5129982,23.7365836 15.2764386,23.4559197 15.06,23.16 C14.4,22.308 13.878,21.6 13.08,21.6 L10.08,21.6 L4.68,9.894 L22.65,1.722 Z M6.45,16.722 C6.4748354,16.7117491 6.498898,16.6997178 6.522,16.686 L8.778,21.6 L8.016,21.6 C7.218,21.6 6.666,22.332 6.03,23.184 C5.81458983,23.4714557 5.58005882,23.7440729 5.328,24 L3.66,24 L2.238,17.748 L6.45,16.722 Z M47.178,56.628 C47.165167,56.8154872 47.0057985,56.9589189 46.818,56.952 L2.55,56.952 C2.35991836,56.9622804 2.19685044,56.8179252 2.184,56.628 L2.184,26.142 C2.19685044,25.9520748 2.35991836,25.8077196 2.55,25.818 L5.484,25.818 C6.282,25.818 6.834,25.086 7.47,24.234 C7.68673231,23.9402014 7.92328305,23.6615526 8.178,23.4 L12.918,23.4 C13.1708126,23.6637257 13.4053561,23.9443761 13.62,24.24 C14.256,25.086 14.802,25.8 15.6,25.8 L46.8,25.8 C46.8978883,25.7985301 46.992529,25.8350958 47.064,25.902 C47.1242115,25.9578282 47.1589084,26.0358962 47.16,26.118 L47.178,56.628 Z M46.392,24 L43.89,24 L43.89,13.8 L49.536,15.84 L46.392,24 Z"></path>
                <path d="M26.49,30.324 L7.29,30.324 C6.95862915,30.324 6.69,30.5926292 6.69,30.924 C6.69,31.2553708 6.95862915,31.524 7.29,31.524 L26.49,31.524 C26.8213708,31.524 27.09,31.2553708 27.09,30.924 C27.09,30.5926292 26.8213708,30.324 26.49,30.324 Z"></path>
                <path d="M19.29,33.924 L7.29,33.924 C6.95862915,33.924 6.69,34.1926292 6.69,34.524 C6.69,34.8553708 6.95862915,35.124 7.29,35.124 L19.29,35.124 C19.6213708,35.124 19.89,34.8553708 19.89,34.524 C19.89,34.1926292 19.6213708,33.924 19.29,33.924 Z"></path>
                <path d="M14.49,37.524 L7.29,37.524 C6.95862915,37.524 6.69,37.7926292 6.69,38.124 C6.69,38.4553708 6.95862915,38.724 7.29,38.724 L14.49,38.724 C14.8213708,38.724 15.09,38.4553708 15.09,38.124 C15.09,37.7926292 14.8213708,37.524 14.49,37.524 Z"></path>
                <path d="M36.684,43.116 C35.3585166,43.116 34.284,44.1905166 34.284,45.516 C34.284,46.8414834 35.3585166,47.916 36.684,47.916 C38.0094834,47.916 39.084,46.8414834 39.084,45.516 C39.084,44.1905166 38.0094834,43.116 36.684,43.116 Z M36.684,46.716 C36.0212583,46.716 35.484,46.1787417 35.484,45.516 C35.484,44.8532583 36.0212583,44.316 36.684,44.316 C37.3467417,44.316 37.884,44.8532583 37.884,45.516 C37.884,46.1787417 37.3467417,46.716 36.684,46.716 Z"></path>
                <path d="M40.89,40.482 L32.49,40.482 C31.4958875,40.482 30.69,41.2878875 30.69,42.282 L30.69,50.682 C30.69,51.6761125 31.4958875,52.482 32.49,52.482 L40.89,52.482 C41.8841125,52.482 42.69,51.6761125 42.69,50.682 L42.69,42.282 C42.69,41.2878875 41.8841125,40.482 40.89,40.482 Z M39.09,51.282 L34.29,51.282 L34.29,50.4 C34.29,49.9029437 34.6929437,49.5 35.19,49.5 L38.19,49.5 C38.6870563,49.5 39.09,49.9029437 39.09,50.4 L39.09,51.282 Z M41.49,50.682 C41.49,51.0133708 41.2213708,51.282 40.89,51.282 L40.29,51.282 L40.29,50.4 C40.29,49.240202 39.349798,48.3 38.19,48.3 L35.19,48.3 C34.030202,48.3 33.09,49.240202 33.09,50.4 L33.09,51.3 L32.49,51.3 C32.1586292,51.3 31.89,51.0313708 31.89,50.7 L31.89,42.3 C31.89,41.9686292 32.1586292,41.7 32.49,41.7 L40.89,41.7 C41.2213708,41.7 41.49,41.9686292 41.49,42.3 L41.49,50.682 Z"></path>
            </g>
        </g>
    </g>
</svg>