<?xml version="1.0" encoding="UTF-8"?>
<svg width="46px" height="45px" viewBox="0 0 46 45" version="1.1" xmlns="http://www.w3.org/2000/svg" xmlns:xlink="http://www.w3.org/1999/xlink">
    <!-- Generator: Sketch 44.1 (41455) - http://www.bohemiancoding.com/sketch -->
    <title>freelancer/4</title>
    <desc>Created with Sketch.</desc>
    <defs></defs>
    <g id="Dashboard:-Engage-Employers" stroke="none" stroke-width="1" fill="none" fill-rule="evenodd">
        <g id="freelancer/4" transform="translate(-13.000000, -13.000000)">
            <rect id="Rectangle-10-Copy-3" x="0" y="0" width="72" height="72"></rect>
            <g transform="translate(13.200000, 13.800000)">
                <rect id="Rectangle-path" x="15.6" y="22.908" width="6.6" height="6"></rect>
                <rect id="Rectangle-path" x="15.6" y="15.708" width="6.6" height="6"></rect>
                <rect id="Rectangle-path" x="23.4" y="22.908" width="6.6" height="6"></rect>
                <rect id="Rectangle-path" x="23.4" y="15.708" width="6.6" height="6"></rect>
                <rect id="Rectangle-path" x="31.2" y="15.708" width="6.6" height="6"></rect>
                <rect id="Rectangle-path" x="15.6" y="30.108" width="6.6" height="6"></rect>
                <rect id="Rectangle-path" x="31.2" y="22.908" width="6.6" height="6"></rect>
                <polygon id="Shape" points="36.864 40.572 42.222 35.208 36.864 35.22"></polygon>
                <rect id="Rectangle-path" x="7.8" y="15.708" width="6.6" height="6"></rect>
                <path d="M2.1,41.532 C2.10311712,41.6084054 2.13649245,41.6804345 2.19276834,41.7322083 C2.24904424,41.7839821 2.3236001,41.8112498 2.4,41.808 L35.064,41.808 L35.064,34.326 C35.064,33.8289437 35.4669437,33.426 35.964,33.426 L43.5,33.426 L43.5,9.6 L2.1,9.6 L2.1,41.532 Z M6.6,30.132 L6.6,14.532 L39,14.532 L39,30.132 L23.4,30.132 L23.4,37.332 L6.6,37.332 L6.6,30.132 Z" id="Shape"></path>
                <path d="M43.2,3.9 L36.894,3.9 L36.894,5.1 C36.894,5.59705627 36.4910563,6 35.994,6 C35.4969437,6 35.094,5.59705627 35.094,5.1 L35.094,3.9 L28.098,3.9 L28.098,5.1 C28.098,5.59705627 27.6950563,6 27.198,6 C26.7009437,6 26.298,5.59705627 26.298,5.1 L26.298,3.9 L19.302,3.9 L19.302,5.1 C19.302,5.59705627 18.8990563,6 18.402,6 C17.9049437,6 17.502,5.59705627 17.502,5.1 L17.502,3.9 L10.506,3.9 L10.506,5.1 C10.506,5.59705627 10.1030563,6 9.606,6 C9.10894373,6 8.706,5.59705627 8.706,5.1 L8.706,3.9 L2.4,3.9 C2.24311326,3.89315909 2.10966566,4.01326193 2.1,4.17 L2.1,8.37 L43.5,8.37 L43.5,4.2 C43.5034332,4.11943155 43.4729301,4.04111433 43.4159079,3.98409213 C43.3588857,3.92706994 43.2805684,3.89656682 43.2,3.9 Z" id="Shape"></path>
                <rect id="Rectangle-path" x="7.8" y="22.908" width="6.6" height="6"></rect>
                <rect id="Rectangle-path" x="7.8" y="30.108" width="6.6" height="6"></rect>
                <path d="M43.2,2.1 L36.894,2.1 L36.894,0.9 C36.894,0.402943725 36.4910563,-7.10542736e-15 35.994,-7.10542736e-15 C35.4969437,-7.10542736e-15 35.094,0.402943725 35.094,0.9 L35.094,2.1 L28.098,2.1 L28.098,0.9 C28.098,0.402943725 27.6950563,-7.10542736e-15 27.198,-7.10542736e-15 C26.7009437,-7.10542736e-15 26.298,0.402943725 26.298,0.9 L26.298,2.1 L19.302,2.1 L19.302,0.9 C19.302,0.402943725 18.8990563,-7.10542736e-15 18.402,-7.10542736e-15 C17.9049437,-7.10542736e-15 17.502,0.402943725 17.502,0.9 L17.502,2.1 L10.506,2.1 L10.506,0.9 C10.506,0.402943725 10.1030563,-7.10542736e-15 9.606,-7.10542736e-15 C9.10894373,-7.10542736e-15 8.706,0.402943725 8.706,0.9 L8.706,2.1 L2.4,2.1 C1.84206573,2.09678416 1.30605202,2.3170007 0.911526358,2.71152636 C0.517000701,3.10605202 0.29678416,3.64206573 0.3,4.2 L0.3,41.532 C0.303173469,42.0857749 0.526207892,42.6156069 0.920036281,43.0049344 C1.31386467,43.3942619 1.84622522,43.6111918 2.4,43.608 L36,43.608 C36.2386144,43.6077899 36.4673792,43.512831 36.636,43.344 L45.036,34.944 C45.204831,34.7753792 45.2997899,34.5466144 45.3,34.308 L45.3,4.2 C45.3032158,3.64206573 45.0829993,3.10605202 44.6884736,2.71152636 C44.293948,2.3170007 43.7579343,2.09678416 43.2,2.1 Z M36.864,40.572 L36.864,35.22 L42.222,35.22 L36.864,40.572 Z M43.494,33.408 L35.958,33.408 C35.4609437,33.408 35.058,33.8109437 35.058,34.308 L35.058,41.808 L2.4,41.808 C2.3236001,41.8112498 2.24904424,41.7839821 2.19276834,41.7322083 C2.13649245,41.6804345 2.10311712,41.6084054 2.1,41.532 L2.1,9.6 L43.5,9.6 L43.494,33.408 Z M43.5,8.4 L2.1,8.4 L2.1,4.2 C2.10966566,4.04326193 2.24311326,3.92315909 2.4,3.93 L8.706,3.93 L8.706,5.13 C8.706,5.62705627 9.10894373,6.03 9.606,6.03 C10.1030563,6.03 10.506,5.62705627 10.506,5.13 L10.506,3.93 L17.502,3.93 L17.502,5.13 C17.502,5.62705627 17.9049437,6.03 18.402,6.03 C18.8990563,6.03 19.302,5.62705627 19.302,5.13 L19.302,3.93 L26.298,3.93 L26.298,5.13 C26.298,5.62705627 26.7009437,6.03 27.198,6.03 C27.6950563,6.03 28.098,5.62705627 28.098,5.13 L28.098,3.93 L35.094,3.93 L35.094,5.13 C35.094,5.62705627 35.4969437,6.03 35.994,6.03 C36.4910563,6.03 36.894,5.62705627 36.894,5.13 L36.894,3.93 L43.2,3.93 C43.3568867,3.92315909 43.4903343,4.04326193 43.5,4.2 L43.5,8.4 Z" id="Shape" fill="#2D2926" fill-rule="nonzero"></path>
                <path d="M15.6,37.308 L23.4,37.308 L23.4,30.108 L39,30.108 L39,14.508 L6.6,14.508 L6.6,37.308 L15.6,37.308 Z M31.2,15.708 L37.8,15.708 L37.8,21.708 L31.2,21.708 L31.2,15.708 Z M31.2,22.908 L37.8,22.908 L37.8,28.908 L31.2,28.908 L31.2,22.908 Z M23.4,15.708 L30,15.708 L30,21.708 L23.4,21.708 L23.4,15.708 Z M23.4,22.908 L30,22.908 L30,28.908 L23.4,28.908 L23.4,22.908 Z M15.6,15.708 L22.2,15.708 L22.2,21.708 L15.6,21.708 L15.6,15.708 Z M15.6,22.908 L22.2,22.908 L22.2,28.908 L15.6,28.908 L15.6,22.908 Z M15.6,30.108 L22.2,30.108 L22.2,36.108 L15.6,36.108 L15.6,30.108 Z M7.8,15.708 L14.4,15.708 L14.4,21.708 L7.8,21.708 L7.8,15.708 Z M7.8,22.908 L14.4,22.908 L14.4,28.908 L7.8,28.908 L7.8,22.908 Z M7.8,30.108 L14.4,30.108 L14.4,36.108 L7.8,36.108 L7.8,30.108 Z" id="Shape" fill="#2D2926" fill-rule="nonzero"></path>
            </g>
        </g>
    </g>
</svg>