<?xml version="1.0" encoding="UTF-8"?>
<svg width="38px" height="49px" viewBox="0 0 38 49" version="1.1" xmlns="http://www.w3.org/2000/svg" xmlns:xlink="http://www.w3.org/1999/xlink">
    <!-- Generator: Sketch 44.1 (41455) - http://www.bohemiancoding.com/sketch -->
    <title>freelancer/5</title>
    <desc>Created with Sketch.</desc>
    <defs></defs>
    <g id="Dashboard:-Engage-Employers" stroke="none" stroke-width="1" fill="none" fill-rule="evenodd">
        <g id="freelancer/5" transform="translate(-6.000000, -5.000000)">
            <rect id="Rectangle-10-Copy-3" x="0" y="0" width="72" height="72"></rect>
            <g transform="translate(6.000000, 5.400000)" id="Shape" fill-rule="nonzero">
                <path d="M31.302,28.446 C33.7340858,28.4703221 35.9402508,27.0239908 36.8878712,24.78398 C37.8354916,22.5439692 37.337073,19.9534833 35.6259066,18.2250324 C33.9147403,16.4965815 31.3293943,15.9721538 29.0799731,16.8972142 C26.8305518,17.8222747 25.3621216,20.0137926 25.362,22.446 C25.3524268,24.0298286 25.9732534,25.5524177 27.0875678,26.6779878 C28.2018823,27.803558 29.7181551,28.4396553 31.302,28.446 Z M31.302,18.288 C33.0059903,18.2636548 34.555781,19.2713721 35.2248082,20.8387195 C35.8938354,22.406067 35.5494627,24.2223139 34.3531369,25.4359778 C33.156811,26.6496417 31.3457069,27.0201104 29.7688959,26.3737031 C28.1920848,25.7272957 27.1621739,24.1921642 27.162,22.488 C27.1524158,21.3815618 27.5835948,20.3168051 28.3603452,19.5287974 C29.1370956,18.7407897 30.1955384,18.2943359 31.302,18.288 Z" fill="#2D2926"></path>
                <path d="M31.302,43.308 C30.0369497,43.3113117 29.0137972,44.3389368 29.0160035,45.6039895 C29.0182098,46.8690423 30.0449406,47.8930923 31.3099948,47.8919913 C32.5750489,47.8908903 33.5999957,46.8650546 33.6,45.6 C33.6016079,44.9905911 33.3598213,44.4057658 32.9283397,43.9754107 C32.4968581,43.5450557 31.9114027,43.3047989 31.302,43.308 Z M31.302,46.692 C30.6996972,46.6886906 30.2138041,46.1983298 30.2160073,45.596022 C30.2182106,44.9937141 30.7076781,44.5069212 31.309989,44.5080183 C31.9122999,44.5091154 32.3999909,44.9976881 32.4,45.6 C32.4032469,45.892191 32.288608,46.173362 32.081985,46.379985 C31.875362,46.586608 31.594191,46.7012469 31.302,46.698 L31.302,46.692 Z" fill="#2D2926"></path>
                <path d="M59.652,55.404 L48.318,44.13 C54.4770242,35.3184247 52.8997836,23.2641494 44.6810132,16.3338354 C36.4622429,9.40352141 24.3147442,9.88468434 16.6698833,17.4433574 C9.02502236,25.0020305 8.40616803,37.1432933 15.2428563,45.4401079 C22.0795445,53.7369224 34.1151631,55.4507271 42.996,49.392 L54.396,60.696 C54.7473811,61.0469441 55.3166189,61.0469441 55.668,60.696 L59.676,56.688 C60.0269441,56.3366189 60.0269441,55.7673811 59.676,55.416 L59.652,55.404 Z M31.302,13.248 C38.2236217,13.2438956 44.5978208,17.0107698 47.9327135,23.0760278 C51.2676061,29.1412858 51.0335326,36.5416213 47.322,42.384 L47.322,37.878 C47.322,37.3417323 47.1089685,36.8274286 46.7297699,36.4482301 C46.3505714,36.0690315 45.8362677,35.856 45.3,35.856 L42.3,35.856 L42.3,34.878 C42.3,32.5153258 40.3846742,30.6 38.022,30.6 L24.6,30.6 C22.2420152,30.6099191 20.336672,32.5259967 20.34,34.884 L20.34,35.862 L17.34,35.862 C16.2232802,35.862 15.318,36.7672802 15.318,37.884 L15.318,42.39 C11.6064674,36.5476213 11.3723939,29.1472858 14.7072865,23.0820278 C18.0421792,17.0167698 24.4163783,13.2498956 31.338,13.254 L31.302,13.248 Z M40.482,35.862 L22.122,35.862 L22.122,34.878 C22.122,33.5094384 23.2314384,32.4 24.6,32.4 L38.04,32.4 C39.40387,32.4099032 40.5033384,33.5200981 40.5,34.884 L40.482,35.862 Z M17.082,44.784 L17.082,37.878 C17.082,37.8191219 17.1053892,37.7626554 17.1470223,37.7210223 C17.1886554,37.6793892 17.2451219,37.656 17.304,37.656 L45.3,37.656 C45.4226072,37.656 45.522,37.7553928 45.522,37.878 L45.522,44.778 C41.9258747,48.8644959 36.7454884,51.2063689 31.302,51.2063689 C25.8585116,51.2063689 20.6781253,48.8644959 17.082,44.778 L17.082,44.784 Z M47.214,45.576 L55.95,54.264 L53.208,57 L44.454,48.3 C45.4564572,47.477324 46.3804176,46.5634066 47.214,45.57 L47.214,45.576 Z M55.014,58.776 L54.066,57.834 L56.802,55.098 L57.75,56.04 L55.014,58.776 Z"></path>
                <path d="M32.598,5.52 C32.9293708,5.52 33.198,5.25137085 33.198,4.92 L33.198,0.846 C33.198,0.51462915 32.9293708,0.246 32.598,0.246 C32.2666292,0.246 31.998,0.51462915 31.998,0.846 L31.998,4.92 C31.998,5.25137085 32.2666292,5.52 32.598,5.52 Z" fill="#2D2926"></path>
                <path d="M5.358,32.766 C5.358,32.4346292 5.08937085,32.166 4.758,32.166 L0.678,32.166 C0.34662915,32.166 0.078,32.4346292 0.078,32.766 C0.078,33.0973708 0.34662915,33.366 0.678,33.366 L4.752,33.366 C4.91216693,33.3676017 5.06632522,33.3050955 5.18014808,33.1923996 C5.29397094,33.0797037 5.35800801,32.9261749 5.358,32.766 Z" fill="#2D2926"></path>
                <path d="M7.038,21.714 L3.264,20.178 C2.96338456,20.0770824 2.63614405,20.2275099 2.51700701,20.5213812 C2.39786998,20.8152526 2.5279758,21.1510907 2.814,21.288 L6.6,22.8 C6.90061544,22.9009176 7.22785595,22.7504901 7.34699299,22.4566188 C7.46613002,22.1627474 7.3360242,21.8269093 7.05,21.69 L7.038,21.714 Z" fill="#2D2926"></path>
                <path d="M12.912,13.674 C13.155759,13.6754176 13.376148,13.5292177 13.4696226,13.3040889 C13.5630971,13.0789601 13.511076,12.8196543 13.338,12.648 L10.458,9.768 C10.2227267,9.53106984 9.83993016,9.5297267 9.603,9.765 C9.36606984,10.0002733 9.3647267,10.3830698 9.6,10.62 L12.48,13.5 C12.5946978,13.6138008 12.7504456,13.6765326 12.912,13.674 Z" fill="#2D2926"></path>
                <path d="M22.092,6.972 C22.2096367,7.28183174 22.5561683,7.43763665 22.866,7.32 C23.1758317,7.20236335 23.3316367,6.85583174 23.214,6.546 L21.756,2.742 C21.6383633,2.43216826 21.2918317,2.27636335 20.982,2.394 C20.6721683,2.51163665 20.5163633,2.85816826 20.634,3.168 L22.092,6.972 Z" fill="#2D2926"></path>
                <path d="M6.378,42.15 L2.574,43.608 C2.37357398,43.6840976 2.22897027,43.8613406 2.1946597,44.0729634 C2.16034912,44.2845862 2.24154426,44.4984382 2.40765971,44.6339634 C2.57377515,44.7694887 2.799574,44.8060976 3,44.73 L6.804,43.272 C7.004426,43.1959024 7.14902968,43.0186594 7.18334025,42.8070366 C7.21765082,42.5954138 7.13645568,42.3815618 6.97034025,42.2460366 C6.80422482,42.1105114 6.578426,42.0739024 6.378,42.15 L6.378,42.15 Z" fill="#2D2926"></path>
            </g>
        </g>
    </g>
</svg>