<?xml version="1.0" encoding="UTF-8"?>
<svg width="38px" height="64px" viewBox="0 0 38 64" version="1.1" xmlns="http://www.w3.org/2000/svg" xmlns:xlink="http://www.w3.org/1999/xlink">
    <!-- Generator: Sketch 44.1 (41455) - http://www.bohemiancoding.com/sketch -->
    <title>freelancer/6</title>
    <desc>Created with Sketch.</desc>
    <defs></defs>
    <g id="Dashboard:-Engage-Employers" stroke="none" stroke-width="1" fill="none" fill-rule="evenodd">
        <g id="freelancer/6" transform="translate(-17.000000, -4.000000)">
            <rect id="Rectangle-10-Copy-3" x="0" y="0" width="72" height="72"></rect>
            <g id="freelancer/7" transform="translate(16.800000, 4.200000)" fill-rule="nonzero" fill="#2D2926">
                <path d="M9.372,12.6 C9.21220293,12.3232099 8.91759995,12.1519291 8.598,12.15 L8.598,12.15 C8.26984419,12.1432649 7.96404335,12.315709 7.8,12.6 L0.558,24.972 C0.476087057,25.110044 0.432584047,25.2674835 0.432,25.428 L0.432,55.596 C0.432,56.0930563 0.834943725,56.496 1.332,56.496 C1.82905627,56.496 2.232,56.0930563 2.232,55.596 L2.232,26.04 L7.974,26.04 L7.974,60.21 C7.974,60.5413708 8.24262915,60.81 8.574,60.81 C8.90537085,60.81 9.174,60.5413708 9.174,60.21 L9.174,26.04 L14.832,26.04 L14.832,62.46 C14.832,62.9570563 15.2349437,63.36 15.732,63.36 C16.2290563,63.36 16.632,62.9570563 16.632,62.46 L16.632,25.44 C16.6321755,25.2820694 16.5907898,25.1268732 16.512,24.99 L9.372,12.6 Z M2.724,24.84 L5.772,19.626 L11.352,19.626 L14.352,24.84 L2.724,24.84 Z M8.586,14.826 L10.662,18.426 L6.462,18.426 L8.586,14.826 Z" id="Shape"></path>
                <path d="M37.86,44.646 L34.95,39.054 C34.7955125,38.7557986 34.4878427,38.5684207 34.152,38.568 L27.876,38.568 C27.5353503,38.5684659 27.2241567,38.7612201 27.072,39.066 L24.258,44.652 C24.1193199,44.9148284 24.1193199,45.2291716 24.258,45.492 L30.12,56.1 C30.276232,56.3855799 30.5744968,56.5645388 30.9,56.568 L30.9,56.568 C31.2217452,56.5682063 31.5191274,56.3966396 31.68,56.118 L37.842,45.51 C37.9949218,45.2439071 38.0017067,44.918231 37.86,44.646 Z M31.512,52.8 L31.512,47.568 C31.512,47.2366292 31.2433708,46.968 30.912,46.968 C30.5806292,46.968 30.312,47.2366292 30.312,47.568 L30.312,52.728 L26.082,45.036 L28.434,40.368 L33.6,40.368 L36.03,45.036 L31.512,52.8 Z" id="Shape"></path>
                <path d="M27.432,33.108 L34.632,33.108 C35.1290563,33.108 35.532,32.7050563 35.532,32.208 L35.532,9.24 C35.532,8.74294373 35.1290563,8.34 34.632,8.34 C34.1349437,8.34 33.732,8.74294373 33.732,9.24 L33.732,25.608 L28.332,25.608 L28.332,1.14 C28.332,0.642943725 27.9290563,0.24 27.432,0.24 C26.9349437,0.24 26.532,0.642943725 26.532,1.14 L26.532,32.208 C26.532,32.7050563 26.9349437,33.108 27.432,33.108 Z M33.732,26.808 L33.732,31.308 L28.332,31.308 L28.332,26.808 L33.732,26.808 Z" id="Shape"></path>
                <path d="M27.414,35.208 C27.0826292,35.208 26.814,35.4766292 26.814,35.808 C26.814,36.1393708 27.0826292,36.408 27.414,36.408 L34.614,36.408 C34.9453708,36.408 35.214,36.1393708 35.214,35.808 C35.214,35.4766292 34.9453708,35.208 34.614,35.208 L27.414,35.208 Z" id="Shape"></path>
            </g>
        </g>
    </g>
</svg>