<?xml version="1.0" encoding="UTF-8"?>
<svg width="54px" height="51px" viewBox="0 0 54 51" version="1.1" xmlns="http://www.w3.org/2000/svg" xmlns:xlink="http://www.w3.org/1999/xlink">
    <!-- Generator: Sketch 44.1 (41455) - http://www.bohemiancoding.com/sketch -->
    <title>freelancer/7</title>
    <desc>Created with Sketch.</desc>
    <defs></defs>
    <g id="Dashboard:-Engage-Employers" stroke="none" stroke-width="1" fill="none" fill-rule="evenodd">
        <g id="freelancer/7" transform="translate(-9.000000, -11.000000)">
            <rect id="Rectangle-10-Copy-3" x="0" y="0" width="72" height="72"></rect>
            <g id="freelancer/8" transform="translate(9.000000, 10.800000)" fill-rule="nonzero" fill="#2D2926">
                <path d="M17.658,5.634 L35.658,5.634 C35.9893708,5.634 36.258,5.36537085 36.258,5.034 C36.258,4.70262915 35.9893708,4.434 35.658,4.434 L17.658,4.434 C17.3266292,4.434 17.058,4.70262915 17.058,5.034 C17.058,5.36537085 17.3266292,5.634 17.658,5.634 L17.658,5.634 Z" id="Shape"></path>
                <path d="M17.658,9.234 L41.658,9.234 C41.9893708,9.234 42.258,8.96537085 42.258,8.634 C42.258,8.30262915 41.9893708,8.034 41.658,8.034 L17.658,8.034 C17.3266292,8.034 17.058,8.30262915 17.058,8.634 C17.058,8.96537085 17.3266292,9.234 17.658,9.234 Z" id="Shape"></path>
                <path d="M35.658,40.11 L17.658,40.11 C17.3266292,40.11 17.058,40.3786292 17.058,40.71 C17.058,41.0413708 17.3266292,41.31 17.658,41.31 L35.658,41.31 C35.9893708,41.31 36.258,41.0413708 36.258,40.71 C36.258,40.3786292 35.9893708,40.11 35.658,40.11 Z" id="Shape"></path>
                <path d="M31.458,43.71 L17.658,43.71 C17.3266292,43.71 17.058,43.9786292 17.058,44.31 C17.058,44.6413708 17.3266292,44.91 17.658,44.91 L31.458,44.91 C31.7893708,44.91 32.058,44.6413708 32.058,44.31 C32.058,43.9786292 31.7893708,43.71 31.458,43.71 Z" id="Shape"></path>
                <path d="M24.858,47.31 L17.658,47.31 C17.3266292,47.31 17.058,47.5786292 17.058,47.91 C17.058,48.2413708 17.3266292,48.51 17.658,48.51 L24.858,48.51 C25.1893708,48.51 25.458,48.2413708 25.458,47.91 C25.458,47.5786292 25.1893708,47.31 24.858,47.31 Z" id="Shape"></path>
                <path d="M53.142,24 L36.342,24 C36.0106292,24 35.742,24.2686292 35.742,24.6 C35.742,24.9313708 36.0106292,25.2 36.342,25.2 L53.142,25.2 C53.4733708,25.2 53.742,24.9313708 53.742,24.6 C53.742,24.2686292 53.4733708,24 53.142,24 Z" id="Shape"></path>
                <path d="M49.542,27.6 L36.342,27.6 C36.0106292,27.6 35.742,27.8686292 35.742,28.2 C35.742,28.5313708 36.0106292,28.8 36.342,28.8 L49.542,28.8 C49.8733708,28.8 50.142,28.5313708 50.142,28.2 C50.142,27.8686292 49.8733708,27.6 49.542,27.6 Z" id="Shape"></path>
                <path d="M31.908,19.164 L24.906,26.166 L22.998,24.258 C22.6433883,23.9275694 22.0907883,23.9373193 21.7480538,24.2800538 C21.4053193,24.6227883 21.3955694,25.1753883 21.726,25.53 L24.906,28.71 L33.18,20.436 C33.5104306,20.0813883 33.5006807,19.5287883 33.1579462,19.1860538 C32.8152117,18.8433193 32.2626117,18.8335694 31.908,19.164 L31.908,19.164 Z" id="Shape"></path>
                <path d="M4.308,5.616 C3.95338829,5.28556937 3.40078833,5.29531935 3.05805384,5.63805384 C2.71531935,5.98078833 2.70556937,6.53338829 3.036,6.888 L6.216,10.068 L14.49,1.8 C14.7182927,1.56956369 14.8063076,1.23483906 14.7208902,0.921913615 C14.6354729,0.608988174 14.3896003,0.36540275 14.0758902,0.282913615 C13.7621802,0.200424479 13.4282927,0.291563695 13.2,0.522 L6.222,7.524 L4.308,5.616 Z" id="Shape"></path>
                <path d="M12.186,39.366 L19.986,31.728 C20.2273686,31.8449122 20.4918121,31.9064107 20.76,31.908 L29.16,31.908 C30.1541125,31.908 30.96,31.1021125 30.96,30.108 L30.96,25.872 C30.96,25.5406292 30.6913708,25.272 30.36,25.272 C30.0286292,25.272 29.76,25.5406292 29.76,25.872 L29.76,30.108 C29.76,30.4393708 29.4913708,30.708 29.16,30.708 L20.76,30.708 C20.4286292,30.708 20.16,30.4393708 20.16,30.108 L20.16,21.708 C20.16,21.3766292 20.4286292,21.108 20.76,21.108 L27.72,21.108 C28.0513708,21.108 28.32,20.8393708 28.32,20.508 C28.32,20.1766292 28.0513708,19.908 27.72,19.908 L20.748,19.908 C20.4933092,19.9091797 20.2417684,19.964396 20.01,20.07 L12.108,12.18 C12.2033571,11.9561578 12.2523437,11.7153068 12.252,11.472 L12.252,7.236 C12.252,6.90462915 11.9833708,6.636 11.652,6.636 C11.3206292,6.636 11.052,6.90462915 11.052,7.236 L11.052,11.472 C11.052,11.8033708 10.7833708,12.072 10.452,12.072 L2.052,12.072 C1.72062915,12.072 1.452,11.8033708 1.452,11.472 L1.452,3.072 C1.452,2.74062915 1.72062915,2.472 2.052,2.472 L9,2.472 C9.33137085,2.472 9.6,2.20337085 9.6,1.872 C9.6,1.54062915 9.33137085,1.272 9,1.272 L2.058,1.272 C1.06388745,1.272 0.258,2.07788745 0.258,3.072 L0.258,11.472 C0.258,12.4661125 1.06388745,13.272 2.058,13.272 L10.458,13.272 C10.7514203,13.2695434 11.0397913,13.1953909 11.298,13.056 L19.14,20.91 C19.0124176,21.1589719 18.944624,21.4342548 18.942,21.714 L18.942,30.114 C18.9444788,30.3801598 19.0059548,30.6424573 19.122,30.882 L11.322,38.514 L11.322,38.55 C11.056524,38.3995136 10.757147,38.3189916 10.452,38.316 L2.052,38.316 C1.05788745,38.316 0.252,39.1218875 0.252,40.116 L0.252,48.516 C0.252,49.5101125 1.05788745,50.316 2.052,50.316 L10.452,50.316 C11.4461125,50.316 12.252,49.5101125 12.252,48.516 L12.252,40.116 C12.2515361,39.8747137 12.2025658,39.6359834 12.108,39.414 C12.1352582,39.400141 12.1613442,39.3840881 12.186,39.366 Z M11.052,48.51 C11.052,48.8413708 10.7833708,49.11 10.452,49.11 L2.052,49.11 C1.72062915,49.11 1.452,48.8413708 1.452,48.51 L1.452,40.11 C1.452,39.7786292 1.72062915,39.51 2.052,39.51 L10.452,39.51 C10.7833708,39.51 11.052,39.7786292 11.052,40.11 L11.052,48.51 Z" id="Shape"></path>
            </g>
        </g>
    </g>
</svg>