<?xml version="1.0" encoding="UTF-8"?>
<svg width="36px" height="52px" viewBox="0 0 36 52" version="1.1" xmlns="http://www.w3.org/2000/svg" xmlns:xlink="http://www.w3.org/1999/xlink">
    <!-- Generator: Sketch 44.1 (41455) - http://www.bohemiancoding.com/sketch -->
    <title>freelancer/8</title>
    <desc>Created with Sketch.</desc>
    <defs></defs>
    <g id="Dashboard:-Engage-Employers" stroke="none" stroke-width="1" fill="none" fill-rule="evenodd">
        <g id="freelancer/8" transform="translate(-18.000000, -10.000000)">
            <rect id="Rectangle-10-Copy-2" x="0" y="0" width="72" height="72"></rect>
            <g id="freelancer/9" transform="translate(18.600000, 9.600000)" fill-rule="nonzero" fill="#2D2926">
                <path d="M34.518,47.79 C34.5483109,47.5658999 34.4925677,47.3386393 34.362,47.154 L30,41.034 L32.892,38.532 C33.0892225,38.361805 33.2030249,38.1145035 33.204,37.854 L33.204,19.254 C33.3375026,12.2700376 29.4499133,5.82961353 23.208,2.694 C22.8640539,2.54722954 22.4651835,2.62843669 22.206,2.898 L20.556,4.608 C20.1841778,3.77524625 19.9394517,2.89140096 19.83,1.986 C19.7925925,1.62679682 19.5440913,1.32474186 19.1988311,1.21880974 C18.8535709,1.11287762 18.4784262,1.22358669 18.246,1.5 L16.638,3.396 C15.9424685,1.59694135 14.2167973,0.406823291 12.288,0.396 C11.9717734,0.398792902 11.6802154,0.567349905 11.52,0.84 C11.3639245,1.11756413 11.3639245,1.45643587 11.52,1.734 C11.562,1.812 12.534,3.672 10.698,5.826 C9.186,7.626 3.324,13.746 0.87,16.308 C0.0717441695,17.1184445 0.0717441695,18.4195555 0.87,19.23 L2.76,21.132 C3.52454048,21.907317 4.75570016,21.9673099 5.592,21.27 C6.594,20.442 9.192,18.558 11.496,18.966 C13.360683,19.306582 15.285682,19.01741 16.968,18.144 C15.168,21.822 10.044,26.856 7.824,28.824 C7.6305769,28.9939207 7.51918644,29.2385429 7.518,29.496 L7.518,40.602 L2.874,47.148 C2.74343228,47.3326393 2.68768912,47.5598999 2.718,47.784 C2.71603237,47.8179715 2.71603237,47.8520285 2.718,47.886 L2.718,51.486 C2.718,51.9830563 3.12094373,52.386 3.618,52.386 L33.6,52.386 C34.0970563,52.386 34.5,51.9830563 34.5,51.486 L34.5,47.886 C34.5077686,47.854357 34.5137778,47.8223079 34.518,47.79 Z M9.108,41.49 L28.128,41.49 L32.094,47.076 L5.142,47.076 L9.108,41.49 Z M23.046,4.62 C25.002,5.664 31.446,9.798 31.446,19.248 L31.446,37.44 L29.736,38.922 L29.736,19.248 C29.736,9.738 22.824,6.366 21.816,5.928 L23.046,4.62 Z M19.446,15.942 C19.4438041,15.5711363 19.2143386,15.2395935 18.8680178,15.1069035 C18.521697,14.9742136 18.1294427,15.0675496 17.88,15.342 C16.2911175,16.9254239 14.0258508,17.6274323 11.82,17.22 C8.874,16.698 5.94,18.684 4.458,19.908 C4.34293405,20.0147152 4.16506595,20.0147152 4.05,19.908 L2.16,18 C2.04636666,17.8853923 2.04636666,17.7006077 2.16,17.586 C4.614,15 10.506,8.82 12.048,7.014 C13.1803639,5.80375376 13.7338903,4.16286534 13.566,2.514 C15.048,3.276 15.366,5.262 15.366,5.364 C15.4155041,5.71517679 15.6666273,6.00454008 16.0073358,6.10299577 C16.3480443,6.20145145 16.7148072,6.09064081 16.944,5.82 L18.42,4.08 C18.816,5.43 19.584,7.08 21.036,7.566 C21.318,7.68 27.9,10.488 27.9,19.248 L27.9,33.096 L19.2,33.096 C18.8686292,33.096 18.6,33.3646292 18.6,33.696 C18.6,34.0273708 18.8686292,34.296 19.2,34.296 L27.906,34.296 L27.906,36.696 L22.8,36.696 C22.4686292,36.696 22.2,36.9646292 22.2,37.296 C22.2,37.6273708 22.4686292,37.896 22.8,37.896 L27.906,37.896 L27.906,40.296 L9.306,40.296 L9.306,29.928 C11.256,28.2 19.428,20.532 19.428,15.942 L19.446,15.942 Z M4.512,50.586 L4.512,48.276 L32.712,48.276 L32.712,50.586 L4.512,50.586 Z" id="Shape"></path>
            </g>
        </g>
    </g>
</svg>