<?xml version="1.0" encoding="UTF-8"?>
<svg width="50px" height="55px" viewBox="0 0 50 55" version="1.1" xmlns="http://www.w3.org/2000/svg" xmlns:xlink="http://www.w3.org/1999/xlink">
    <!-- Generator: Sketch 44.1 (41455) - http://www.bohemiancoding.com/sketch -->
    <title>freelancer/9</title>
    <desc>Created with Sketch.</desc>
    <defs></defs>
    <g id="Dashboard:-Engage-Employers" stroke="none" stroke-width="1" fill="none" fill-rule="evenodd">
        <g id="freelancer/9" transform="translate(-11.000000, -8.000000)">
            <rect id="Rectangle-10-Copy-3" x="0" y="0" width="72" height="72"></rect>
            <g id="freelancer/10" transform="translate(10.800000, 8.400000)" fill-rule="nonzero" fill="#2D2926">
                <path d="M44.184,0.456 C41.7918134,0.451843648 39.6521107,1.94335848 38.8283516,4.18924245 C38.0045925,6.43512643 38.6724538,8.95641686 40.5,10.5 L34.644,18.744 C31.4811988,16.1791976 26.902537,16.3748009 23.97,19.2 L10.02,5.25 C10.2378068,4.88714929 10.3557945,4.47315707 10.362,4.05 C10.362,2.7245166 9.2874834,1.65 7.962,1.65 C6.6365166,1.65 5.562,2.7245166 5.562,4.05 C5.562,5.3754834 6.6365166,6.45 7.962,6.45 C8.38515707,6.44379453 8.79914929,6.32580675 9.162,6.108 L23.166,20.094 C21.4727782,22.2730514 21.0194469,25.1698383 21.966,27.762 L10.974,31.596 C9.64128036,29.4858376 7.09076032,28.4880931 4.67995817,29.1338175 C2.26915602,29.779542 0.558802487,31.9185459 0.459235926,34.4123409 C0.359669365,36.9061359 1.89404805,39.174688 4.24569653,40.0105568 C6.597345,40.8464255 9.21929114,40.0551955 10.716,38.058 L36.774,50.622 C36.774,50.694 36.774,50.766 36.774,50.838 C36.77661,52.6856237 38.1774918,54.2313094 40.0159569,54.4150658 C41.8544219,54.5988222 43.5335197,53.3609834 43.9017684,51.5504275 C44.2700171,49.7398715 43.2078461,47.9444866 41.4436649,47.3955013 C39.6794837,46.8465161 37.7861227,47.7221864 37.062,49.422 L11.334,37.02 C11.972843,35.6540818 12.0355473,34.0886382 11.508,32.676 L22.428,28.86 C23.899705,31.6359221 26.8449093,33.3093529 29.982917,33.1526159 C33.1209248,32.995879 35.8847175,31.0372957 37.0724846,28.1285385 C38.2602518,25.2197813 37.6573711,21.8864446 35.526,19.578 L41.49,11.178 C43.5825455,12.3014423 46.1523936,12.0096279 47.9397692,10.4456082 C49.7271448,8.8815885 50.3574022,6.37319247 49.5215803,4.15007055 C48.6857584,1.92694863 46.5590512,0.455081978 44.184,0.456 L44.184,0.456 Z M40.362,48.456 C41.6874834,48.456 42.762,49.5305166 42.762,50.856 C42.762,52.1814834 41.6874834,53.256 40.362,53.256 C39.0365166,53.256 37.962,52.1814834 37.962,50.856 C37.958807,50.2174038 38.2102531,49.6038671 38.660687,49.151181 C39.1111208,48.698495 39.7233958,48.443992 40.362,48.444 L40.362,48.456 Z M6.162,38.556 C4.00808948,38.556 2.262,36.8099105 2.262,34.656 C2.262,32.5020895 4.00808948,30.756 6.162,30.756 C8.31591052,30.756 10.062,32.5020895 10.062,34.656 C10.0521045,36.8038527 8.30987302,38.5407234 6.162,38.544 L6.162,38.556 Z M6.762,4.056 C6.762,3.3932583 7.2992583,2.856 7.962,2.856 C8.6247417,2.856 9.162,3.3932583 9.162,4.056 C9.162,4.7187417 8.6247417,5.256 7.962,5.256 C7.64165013,5.25601602 7.33459269,5.12794188 7.10920088,4.90029616 C6.88380908,4.67265043 6.7587965,4.36433386 6.762,4.044 L6.762,4.056 Z M29.562,31.356 C26.0826061,31.356 23.262,28.5353939 23.262,25.056 C23.262,21.5766061 26.0826061,18.756 29.562,18.756 C33.0413939,18.756 35.862,21.5766061 35.862,25.056 C35.8520871,28.5293357 33.0353483,31.3407093 29.562,31.344 L29.562,31.356 Z M44.184,10.056 C42.0300895,10.056 40.284,8.30991052 40.284,6.156 C40.284,4.00208948 42.0300895,2.256 44.184,2.256 C46.3379105,2.256 48.084,4.00208948 48.084,6.156 C48.080696,8.30854048 46.3365405,10.052696 44.184,10.056 L44.184,10.056 Z" id="Shape"></path>
            </g>
        </g>
    </g>
</svg>