<?xml version="1.0" encoding="UTF-8"?>
<svg width="116px" height="116px" viewBox="0 0 116 116" version="1.1" xmlns="http://www.w3.org/2000/svg" xmlns:xlink="http://www.w3.org/1999/xlink">
    <!-- Generator: Sketch 44.1 (41455) - http://www.bohemiancoding.com/sketch -->
    <title>ic/calendar</title>
    <desc>Created with Sketch.</desc>
    <defs>
        <path d="M20.363625,28.46365 C18.701875,28.46365 17.247125,29.77465 17.247125,31.2639 L17.247125,117.5254 C17.247125,119.0664 18.736375,120.46365 20.363625,120.46365 L97.747125,120.46365 L97.747125,100.33865 C97.747125,98.75165 99.035125,97.46365 100.622125,97.46365 L120.747125,97.46365 L120.747125,31.2639 C120.747125,29.6424 119.643125,28.46365 118.113625,28.46365 L20.363625,28.46365 Z M88.945025,22.71365 L88.945025,14.560725 C88.945025,12.973725 90.233025,11.685725 91.820025,11.685725 C93.407025,11.685725 94.695025,12.973725 94.695025,14.560725 L94.695025,22.71365 L118.113625,22.71365 C122.817125,22.71365 126.497125,26.4684 126.497125,31.2639 L126.497125,100.33865 C126.497125,100.93564 126.315677,101.490319 126.004508,101.950041 C125.869018,102.22653 125.686691,102.485934 125.457525,102.716275 L102.963525,125.250525 C102.640657,125.570098 102.261159,125.799063 101.857477,125.936337 C101.483598,126.114132 101.064857,126.21365 100.622125,126.21365 L20.363625,126.21365 C15.562375,126.21365 11.497125,122.2404 11.497125,117.5254 L11.497125,31.2639 C11.497125,26.6294 15.562375,22.71365 20.363625,22.71365 L43.065775,22.71365 L43.065775,14.375575 C43.065775,12.788575 44.353775,11.500575 45.940775,11.500575 C47.527775,11.500575 48.815775,12.788575 48.815775,14.375575 L48.815775,22.71365 L88.945025,22.71365 Z M103.81625,66.0514 L103.81625,48.7209 C103.81625,47.1339 102.52825,45.8459 100.94125,45.8459 L79.741,45.8459 L58.5465,45.8459 L37.34625,45.8459 C35.7535,45.8459 34.47125,47.1339 34.47125,48.7209 L34.47125,66.0514 L34.47125,83.37615 L34.47125,100.7009 C34.47125,102.2879 35.7535,103.57015 37.34625,103.57015 L58.5465,103.57015 C60.1335,103.57015 61.4215,102.2879 61.4215,100.7009 L61.4215,86.25115 L79.741,86.25115 L100.94125,86.25115 C102.52825,86.25115 103.81625,84.96315 103.81625,83.37615 L103.81625,66.0514 Z M116.835473,103.21365 L103.497125,103.21365 L103.497125,116.569041 L116.835473,103.21365 Z M40.22125,97.8259 L40.22125,86.25115 L55.6715,86.25115 L55.6715,97.8259 L40.22125,97.8259 Z M40.22125,63.1764 L40.22125,51.5959 L55.6715,51.5959 L55.6715,63.1764 L40.22125,63.1764 Z M82.616,63.1764 L82.616,51.5959 L98.06625,51.5959 L98.06625,63.1764 L82.616,63.1764 Z M61.4215,63.1764 L61.4215,51.5959 L76.87175,51.5959 L76.87175,63.1764 L61.4215,63.1764 Z M82.616,80.50115 L82.616,68.9264 L98.06625,68.9264 L98.06625,80.50115 L82.616,80.50115 Z M40.22125,80.50115 L40.22125,68.9264 L55.6715,68.9264 L55.6715,80.50115 L40.22125,80.50115 Z M61.4215,80.50115 L61.4215,68.9264 L76.87175,68.9264 L76.87175,80.50115 L61.4215,80.50115 Z" id="path-1"></path>
        <filter x="-1.7%" y="-1.7%" width="103.5%" height="103.5%" filterUnits="objectBoundingBox" id="filter-2">
            <feGaussianBlur stdDeviation="1.5" in="SourceAlpha" result="shadowBlurInner1"></feGaussianBlur>
            <feOffset dx="0" dy="1" in="shadowBlurInner1" result="shadowOffsetInner1"></feOffset>
            <feComposite in="shadowOffsetInner1" in2="SourceAlpha" operator="arithmetic" k2="-1" k3="1" result="shadowInnerInner1"></feComposite>
            <feColorMatrix values="0 0 0 0 0   0 0 0 0 0   0 0 0 0 0  0 0 0 0.12 0" type="matrix" in="shadowInnerInner1"></feColorMatrix>
        </filter>
    </defs>
    <g id="Dashboard:-Engage-Employers" stroke="none" stroke-width="1" fill="none" fill-rule="evenodd">
        <g id="bookings----empty" transform="translate(-543.000000, -156.000000)">
            <g id="ic/calendar" transform="translate(532.000000, 145.000000)">
                <rect id="bounds" x="0" y="0" width="138" height="138"></rect>
                <g id="icn_calendar">
                    <use fill-opacity="0.08" fill="#2D2926" fill-rule="evenodd" xlink:href="#path-1"></use>
                    <use fill="black" fill-opacity="1" filter="url(#filter-2)" xlink:href="#path-1"></use>
                </g>
            </g>
        </g>
    </g>
</svg>