<?xml version="1.0" encoding="UTF-8"?>
<svg width="41px" height="52px" viewBox="0 0 41 52" version="1.1" xmlns="http://www.w3.org/2000/svg" xmlns:xlink="http://www.w3.org/1999/xlink">
    <!-- Generator: Sketch 45.2 (43514) - http://www.bohemiancoding.com/sketch -->
    <title>ic/empty</title>
    <desc>Created with Sketch.</desc>
    <defs></defs>
    <g id="Enganging-users---Platform" stroke="none" stroke-width="1" fill="none" fill-rule="evenodd">
        <g id="Freelancer-Dashboard---empty-full" transform="translate(-678.000000, -301.000000)" fill="#DEDEDE">
            <g id="Group" transform="translate(450.000000, 301.000000)">
                <g id="ic/empty" transform="translate(228.000000, 0.000000)">
                    <path d="M30.75,41.6 L30.75,50.7 C30.75,51.4179702 30.1763648,52 29.46875,52 L3.84375,52 C1.72163516,52 0,50.2531702 0,48.1 L0,3.9 C0,1.74682983 1.72163516,0 3.84375,0 L37.15625,0 C39.2783648,0 41,1.74682983 41,3.9 L41,40.3 C41,41.0179702 40.4263648,41.6 39.71875,41.6 L30.75,41.6 Z M28.1875,49.4 L28.1875,40.3 C28.1875,39.5820298 28.7611352,39 29.46875,39 L38.4375,39 L38.4375,3.9 C38.4375,3.18277017 37.8631352,2.6 37.15625,2.6 L3.84375,2.6 C3.13686484,2.6 2.5625,3.18277017 2.5625,3.9 L2.5625,48.1 C2.5625,48.8172298 3.13686484,49.4 3.84375,49.4 L28.1875,49.4 Z" id="Stroke-1" fill-rule="nonzero"></path>
                    <path d="M30.4156305,51.5777394 L40.4401305,41.3857394 C40.9399784,40.8775395 40.9391498,40.0544255 40.4382797,39.5472627 C39.9374096,39.0401 39.1261674,39.0409407 38.6263195,39.5491406 L28.6018195,49.7411406 C28.1019716,50.2493405 28.1028002,51.0724545 28.6036703,51.5796173 C29.1045404,52.08678 29.9157826,52.0859393 30.4156305,51.5777394 Z" id="Stroke-3" fill-rule="nonzero"></path>
                    <path d="M16.8820062,20.749168 C16.8820062,21.8266455 16.0201444,22.6972161 14.962055,22.6972161 C13.9001181,22.6972161 13.0382562,21.8266455 13.0382562,20.749168 C13.0382562,19.6716906 13.9001181,18.80112 14.962055,18.80112 C16.0201444,18.80112 16.8820062,19.6716906 16.8820062,20.749168" id="Fill-5"></path>
                    <path d="M27.0305312,20.669348 C27.0305312,21.7468255 26.1686694,22.6173961 25.11058,22.6173961 C24.0486431,22.6173961 23.1867812,21.7468255 23.1867812,20.669348 C23.1867812,19.5918706 24.0486431,18.7213 25.11058,18.7213 C26.1686694,18.7213 27.0305312,19.5918706 27.0305312,20.669348" id="Fill-7"></path>
                    <path d="M16.4351737,32.984733 C16.6453309,31.4014386 18.6437221,30.0023635 20.452834,30.1001782 C22.0555012,30.1869597 23.8506609,31.6130158 23.9676366,32.9280736 C24.0312422,33.6431374 24.6541178,34.170494 25.3588682,34.1059575 C26.0636185,34.0414211 26.583369,33.4094302 26.5197634,32.6943664 C26.277015,29.965353 23.367821,27.6543196 20.5892921,27.5038673 C17.5336699,27.3386565 14.2983133,29.6037321 13.8956013,32.637707 C13.8011548,33.3492532 14.2930935,34.0037598 14.9943771,34.0995884 C15.6956606,34.195417 16.3407272,33.6962793 16.4351737,32.984733 Z" id="Stroke-9" fill-rule="nonzero"></path>
                </g>
            </g>
        </g>
    </g>
</svg>