<?xml version="1.0" encoding="UTF-8"?>
<svg width="24px" height="17px" viewBox="0 0 24 17" version="1.1" xmlns="http://www.w3.org/2000/svg" xmlns:xlink="http://www.w3.org/1999/xlink">
    <!-- Generator: Sketch 45.2 (43514) - http://www.bohemiancoding.com/sketch -->
    <title>ic/menu-open</title>
    <desc>Created with Sketch.</desc>
    <defs></defs>
    <g id="Symbols" stroke="none" stroke-width="1" fill="none" fill-rule="evenodd">
        <g id="header/small" transform="translate(-20.000000, -22.000000)" fill="#47D7AC">
            <g id="ic/menu/open">
                <g transform="translate(16.000000, 14.000000)">
                    <path d="M4,9.84615385 C4,8.82655123 4.82613432,8 5.84338892,8 L26.1566111,8 C27.1746867,8 28,8.81944275 28,9.84615385 C28,10.8657565 27.1738657,11.6923077 26.1566111,11.6923077 L5.84338892,11.6923077 C4.82531333,11.6923077 4,10.8728649 4,9.84615385 Z M4,16.3076923 C4,15.2880897 4.82613432,14.4615385 5.84338892,14.4615385 L26.1566111,14.4615385 C27.1746867,14.4615385 28,15.2809812 28,16.3076923 C28,17.3272949 27.1738657,18.1538462 26.1566111,18.1538462 L5.84338892,18.1538462 C4.82531333,18.1538462 4,17.3344034 4,16.3076923 Z M4,22.7692308 C4,21.7496282 4.82613432,20.9230769 5.84338892,20.9230769 L26.1566111,20.9230769 C27.1746867,20.9230769 28,21.7425197 28,22.7692308 C28,23.7888334 27.1738657,24.6153846 26.1566111,24.6153846 L5.84338892,24.6153846 C4.82531333,24.6153846 4,23.7959419 4,22.7692308 Z" id="Menu"></path>
                </g>
            </g>
        </g>
    </g>
</svg>