<?xml version="1.0" encoding="UTF-8"?>
<svg width="20px" height="20px" viewBox="0 0 20 20" version="1.1" xmlns="http://www.w3.org/2000/svg" xmlns:xlink="http://www.w3.org/1999/xlink">
    <!-- Generator: Sketch 45.2 (43514) - http://www.bohemiancoding.com/sketch -->
    <title>ic/meun-close</title>
    <desc>Created with Sketch.</desc>
    <defs></defs>
    <g id="Symbols" stroke="none" stroke-width="1" fill="none" fill-rule="evenodd">
        <g id="header/small" transform="translate(-22.000000, -20.000000)" fill="#47D7AC">
            <g id="ic/meun/close">
                <g transform="translate(16.000000, 14.000000)">
                    <path d="M16,13.1081953 L9.49127394,6.59946923 C8.69456308,5.80275838 7.40018454,5.8030849 6.60163472,6.60163472 C5.79751756,7.40575188 5.80211538,8.69392008 6.59946923,9.49127394 L13.1081953,16 L6.59946923,22.5087261 C5.80275838,23.3054369 5.8030849,24.5998155 6.60163472,25.3983653 C7.40575188,26.2024824 8.69392008,26.1978846 9.49127394,25.4005308 L16,18.8918047 L22.5087261,25.4005308 C23.3054369,26.1972416 24.5998155,26.1969151 25.3983653,25.3983653 C26.2024824,24.5942481 26.1978846,23.3060799 25.4005308,22.5087261 L18.8918047,16 L25.4005308,9.49127394 C26.1972416,8.69456308 26.1969151,7.40018454 25.3983653,6.60163472 C24.5942481,5.79751756 23.3060799,5.80211538 22.5087261,6.59946923 L16,13.1081953 Z" id="Menu-Close"></path>
                </g>
            </g>
        </g>
    </g>
</svg>