<?xml version="1.0" encoding="UTF-8"?>
<svg width="71px" height="89px" viewBox="0 0 71 89" version="1.1" xmlns="http://www.w3.org/2000/svg" xmlns:xlink="http://www.w3.org/1999/xlink">
    <!-- Generator: Sketch 44.1 (41455) - http://www.bohemiancoding.com/sketch -->
    <title>sad brief</title>
    <desc>Created with Sketch.</desc>
    <defs></defs>
    <g id="Dashboard:-Engage-Employers" stroke="none" stroke-width="1" fill="none" fill-rule="evenodd">
        <g id="Dashboard-Employers-base" transform="translate(-575.000000, -229.000000)" fill="#DEDEDE">
            <g id="sad-brief" transform="translate(575.000000, 229.000000)">
                <path d="M53.25,71.2 L53.25,86.775 C53.25,88.0038336 52.2566318,89 51.03125,89 L6.65625,89 C2.98136821,89 0,86.0102336 0,82.325 L0,6.675 C0,2.98976643 2.98136821,0 6.65625,0 L64.34375,0 C68.0186318,0 71,2.98976643 71,6.675 L71,68.975 C71,70.2038336 70.0066318,71.2 68.78125,71.2 L53.25,71.2 Z M48.8125,84.55 L48.8125,68.975 C48.8125,67.7461664 49.8058682,66.75 51.03125,66.75 L66.5625,66.75 L66.5625,6.675 C66.5625,5.44743357 65.5678682,4.45 64.34375,4.45 L6.65625,4.45 C5.43213179,4.45 4.4375,5.44743357 4.4375,6.675 L4.4375,82.325 C4.4375,83.5525664 5.43213179,84.55 6.65625,84.55 L48.8125,84.55 Z" id="Stroke-1" fill-rule="nonzero"></path>
                <path d="M52.6709699,88.2772847 L70.0304699,70.8332847 C70.8960602,69.9634811 70.8946252,68.5546897 70.0272648,67.6866612 C69.1599044,66.8186326 67.7550704,66.8200716 66.8894801,67.6898753 L49.5299801,85.1338753 C48.6643898,86.0036789 48.6658248,87.4124703 49.5331852,88.2804988 C50.4005456,89.1485274 51.8053796,89.1470884 52.6709699,88.2772847 Z" id="Stroke-3" fill-rule="nonzero"></path>
                <path d="M29.2346937,35.5129992 C29.2346937,37.3571433 27.7422013,38.8471583 25.9099002,38.8471583 C24.0709362,38.8471583 22.5784437,37.3571433 22.5784437,35.5129992 C22.5784437,33.668855 24.0709362,32.17884 25.9099002,32.17884 C27.7422013,32.17884 29.2346937,33.668855 29.2346937,35.5129992" id="Fill-5"></path>
                <path d="M46.8089687,35.3763842 C46.8089687,37.2205283 45.3164763,38.7105433 43.4841752,38.7105433 C41.6452112,38.7105433 40.1527187,37.2205283 40.1527187,35.3763842 C40.1527187,33.53224 41.6452112,32.042225 43.4841752,32.042225 C45.3164763,32.042225 46.8089687,33.53224 46.8089687,35.3763842" id="Fill-7"></path>
                <path d="M28.4609106,56.4546392 C28.8248413,53.74477 32.2854699,51.350199 35.4183223,51.5176126 C38.1936728,51.6661426 41.302364,54.1068925 41.5049316,56.3576644 C41.615078,57.5815235 42.6937162,58.4841147 43.9141376,58.3736581 C45.1345589,58.2632015 46.0346147,57.1815248 45.9244684,55.9576656 C45.5040991,51.2868541 40.4662266,47.3314317 35.6546278,47.0739267 C30.3631845,46.7911621 24.7604937,50.6679262 24.0631144,55.8606908 C23.8995608,57.0785295 24.7514546,58.1987428 25.9658725,58.3627571 C27.1802903,58.5267715 28.2973569,57.672478 28.4609106,56.4546392 Z" id="Stroke-9" fill-rule="nonzero"></path>
            </g>
        </g>
    </g>
</svg>