<?xml version="1.0" encoding="UTF-8"?>
<svg width="40px" height="38px" viewBox="0 0 40 38" version="1.1" xmlns="http://www.w3.org/2000/svg" xmlns:xlink="http://www.w3.org/1999/xlink">
    <!-- Generator: Sketch 45.2 (43514) - http://www.bohemiancoding.com/sketch -->
    <title>alert2</title>
    <desc>Created with Sketch.</desc>
    <defs></defs>
    <g id="Empty-states-|-Platfrom" stroke="none" stroke-width="1" fill="none" fill-rule="evenodd">
        <g id="tasks---alt2" transform="translate(-25.000000, -21.000000)">
            <g id="pr-duo2" transform="translate(25.000000, 21.000000)">
                <g id="Shape">
                    <path d="M14.7155556,15.84 C14.8961178,15.8410501 15.0593689,15.7327539 15.1286093,15.5659918 C15.1978497,15.3992297 15.1593155,15.2071513 15.0311111,15.08 L8.86666667,8.91555556 C8.69032877,8.76454365 8.42746926,8.77469677 8.26330524,8.93886079 C8.09914121,9.10302481 8.08898809,9.36588432 8.24,9.54222222 L14.4044444,15.7111111 C14.487227,15.7932196 14.5989601,15.8395091 14.7155556,15.84 L14.7155556,15.84 Z" fill="#2D2926" fill-rule="nonzero"></path>
                    <path d="M13.08,4.17333333 L26.4133333,4.17333333 C26.6587932,4.17333333 26.8577778,3.97434878 26.8577778,3.72888889 C26.8577778,3.483429 26.6587932,3.28444444 26.4133333,3.28444444 L13.08,3.28444444 C12.8345401,3.28444444 12.6355556,3.483429 12.6355556,3.72888889 C12.6355556,3.97434878 12.8345401,4.17333333 13.08,4.17333333 L13.08,4.17333333 Z" fill="#2D2926" fill-rule="nonzero"></path>
                    <path d="M13.08,6.84 L30.8577778,6.84 C31.1032377,6.84 31.3022222,6.64101544 31.3022222,6.39555556 C31.3022222,6.15009567 31.1032377,5.95111111 30.8577778,5.95111111 L13.08,5.95111111 C12.8345401,5.95111111 12.6355556,6.15009567 12.6355556,6.39555556 C12.6355556,6.64101544 12.8345401,6.84 13.08,6.84 Z" fill="#2D2926" fill-rule="nonzero"></path>
                    <path d="M26.4133333,29.7111111 L13.08,29.7111111 C12.8345401,29.7111111 12.6355556,29.9100957 12.6355556,30.1555556 C12.6355556,30.4010154 12.8345401,30.6 13.08,30.6 L26.4133333,30.6 C26.6587932,30.6 26.8577778,30.4010154 26.8577778,30.1555556 C26.8577778,29.9100957 26.6587932,29.7111111 26.4133333,29.7111111 Z" fill="#2D2926" fill-rule="nonzero"></path>
                    <path d="M23.3022222,32.3777778 L13.08,32.3777778 C12.8345401,32.3777778 12.6355556,32.5767623 12.6355556,32.8222222 C12.6355556,33.0676821 12.8345401,33.2666667 13.08,33.2666667 L23.3022222,33.2666667 C23.5476821,33.2666667 23.7466667,33.0676821 23.7466667,32.8222222 C23.7466667,32.5767623 23.5476821,32.3777778 23.3022222,32.3777778 Z" fill="#2D2926" fill-rule="nonzero"></path>
                    <path d="M18.4133333,35.0444444 L13.08,35.0444444 C12.8345401,35.0444444 12.6355556,35.243429 12.6355556,35.4888889 C12.6355556,35.7343488 12.8345401,35.9333333 13.08,35.9333333 L18.4133333,35.9333333 C18.6587932,35.9333333 18.8577778,35.7343488 18.8577778,35.4888889 C18.8577778,35.243429 18.6587932,35.0444444 18.4133333,35.0444444 Z" fill="#2D2926" fill-rule="nonzero"></path>
                    <path d="M39.3644444,17.7777778 L26.92,17.7777778 C26.6745401,17.7777778 26.4755556,17.9767623 26.4755556,18.2222222 C26.4755556,18.4676821 26.6745401,18.6666667 26.92,18.6666667 L39.3644444,18.6666667 C39.6099043,18.6666667 39.8088889,18.4676821 39.8088889,18.2222222 C39.8088889,17.9767623 39.6099043,17.7777778 39.3644444,17.7777778 Z" fill="#2D2926" fill-rule="nonzero"></path>
                    <path d="M36.6977778,20.4444444 L26.92,20.4444444 C26.6745401,20.4444444 26.4755556,20.643429 26.4755556,20.8888889 C26.4755556,21.1343488 26.6745401,21.3333333 26.92,21.3333333 L36.6977778,21.3333333 C36.9432377,21.3333333 37.1422222,21.1343488 37.1422222,20.8888889 C37.1422222,20.643429 36.9432377,20.4444444 36.6977778,20.4444444 Z" fill="#2D2926" fill-rule="nonzero"></path>
                    <path d="M23.6355556,14.1955556 L18.4488889,19.3822222 L17.0355556,17.9688889 C16.7728802,17.7241255 16.3635469,17.7313477 16.1096695,17.9852251 C15.8557921,18.2391025 15.8485699,18.6484358 16.0933333,18.9111111 L18.4488889,21.2666667 L24.5777778,15.1377778 C24.8225412,14.8751024 24.815319,14.4657691 24.5614416,14.2118917 C24.3075642,13.9580143 23.8982309,13.9507921 23.6355556,14.1955556 L23.6355556,14.1955556 Z" fill="#2D2926" fill-rule="nonzero"></path>
                    <path d="M10.7333333,0.386666667 C10.4730511,0.126708108 10.0513934,0.126708108 9.79111111,0.386666667 L4.60888889,5.57333333 L3.19555556,4.16 C2.93288022,3.91523657 2.52354691,3.92245878 2.26966951,4.17633618 C2.01579211,4.43021358 2.0085699,4.83954688 2.25333333,5.10222222 L4.60888889,7.45777778 L10.7333333,1.33333333 C10.8595418,1.2081556 10.9305322,1.03775836 10.9305322,0.86 C10.9305322,0.682241642 10.8595418,0.5118444 10.7333333,0.386666667 Z" fill="#2D2926" fill-rule="nonzero"></path>
                    <path d="M14.9777778,22.6977778 C14.8044278,22.5254562 14.5244611,22.5254562 14.3511111,22.6977778 L8.40444444,28.5244444 C8.22894062,28.6962664 8.22595586,28.9778295 8.39777778,29.1533333 C8.5695997,29.3288372 8.85116285,29.3318219 9.02666667,29.16 L14.9733333,23.3244444 C15.1468905,23.1523192 15.1488761,22.8723474 14.9777778,22.6977778 L14.9777778,22.6977778 Z" fill="#2D2926" fill-rule="nonzero"></path>
                    <path d="M8.63555556,4.91555556 C8.39009567,4.91555556 8.19111111,5.11454011 8.19111111,5.36 L8.19111111,8.49777778 C8.19111111,8.74323767 7.99212656,8.94222222 7.74666667,8.94222222 L1.52444444,8.94222222 C1.27898456,8.94222222 1.08,8.74323767 1.08,8.49777778 L1.08,2.27555556 C1.08,2.03009567 1.27898456,1.83111111 1.52444444,1.83111111 L6.66666667,1.83111111 C6.91212656,1.83111111 7.11111111,1.63212656 7.11111111,1.38666667 C7.11111111,1.14120678 6.91212656,0.942222222 6.66666667,0.942222222 L1.52444444,0.942222222 C0.788064778,0.942222222 0.191111111,1.53917589 0.191111111,2.27555556 L0.191111111,8.49777778 C0.191111111,9.23415744 0.788064778,9.83111111 1.52444444,9.83111111 L7.74666667,9.83111111 C8.48304633,9.83111111 9.08,9.23415744 9.08,8.49777778 L9.08,5.36 C9.08,5.11454011 8.88101544,4.91555556 8.63555556,4.91555556 Z" fill="#47D7AC" fill-rule="nonzero"></path>
                    <path d="M7.74222222,28.3777778 L1.52,28.3777778 C0.783620334,28.3777778 0.186666667,28.9747314 0.186666667,29.7111111 L0.186666667,35.9333333 C0.186666667,36.669713 0.783620334,37.2666667 1.52,37.2666667 L7.74222222,37.2666667 C8.47860189,37.2666667 9.07555556,36.669713 9.07555556,35.9333333 L9.07555556,29.7111111 C9.07555556,28.9747314 8.47860189,28.3777778 7.74222222,28.3777778 Z M8.18666667,35.9333333 C8.18666667,36.1787932 7.98768211,36.3777778 7.74222222,36.3777778 L1.52,36.3777778 C1.27454011,36.3777778 1.07555556,36.1787932 1.07555556,35.9333333 L1.07555556,29.7111111 C1.07555556,29.4656512 1.27454011,29.2666667 1.52,29.2666667 L7.74222222,29.2666667 C7.98768211,29.2666667 8.18666667,29.4656512 8.18666667,29.7111111 L8.18666667,35.9333333 Z" fill="#47D7AC" fill-rule="nonzero"></path>
                    <path d="M22.4755556,18.72 C22.2300957,18.72 22.0311111,18.9189846 22.0311111,19.1644444 L22.0311111,22.3022222 C22.0311111,22.5476821 21.8321266,22.7466667 21.5866667,22.7466667 L15.3644444,22.7466667 C15.1189846,22.7466667 14.92,22.5476821 14.92,22.3022222 L14.92,16.08 C14.92,15.8345401 15.1189846,15.6355556 15.3644444,15.6355556 L20.52,15.6355556 C20.7654599,15.6355556 20.9644444,15.436571 20.9644444,15.1911111 C20.9644444,14.9456512 20.7654599,14.7466667 20.52,14.7466667 L15.3688889,14.7466667 C14.6325092,14.7466667 14.0355556,15.3436203 14.0355556,16.08 L14.0355556,22.3022222 C14.0355556,23.0386019 14.6325092,23.6355556 15.3688889,23.6355556 L21.5911111,23.6355556 C22.3274908,23.6355556 22.9244444,23.0386019 22.9244444,22.3022222 L22.9244444,19.1644444 C22.9244504,19.0457963 22.8770155,18.9320714 22.7927023,18.8485929 C22.708389,18.7651145 22.5941977,18.7188135 22.4755556,18.72 Z" fill="#47D7AC" fill-rule="nonzero"></path>
                </g>
            </g>
        </g>
    </g>
</svg>