<?xml version="1.0" encoding="UTF-8"?>
<svg width="35px" height="34px" viewBox="0 0 35 34" version="1.1" xmlns="http://www.w3.org/2000/svg" xmlns:xlink="http://www.w3.org/1999/xlink">
    <!-- Generator: Sketch 45.2 (43514) - http://www.bohemiancoding.com/sketch -->
    <title>alert1</title>
    <desc>Created with Sketch.</desc>
    <defs></defs>
    <g id="Empty-states-|-Platfrom" stroke="none" stroke-width="1" fill="none" fill-rule="evenodd">
        <g id="tasks---alt-icon-" transform="translate(-26.000000, -23.000000)">
            <g id="alert1" transform="translate(26.000000, 23.000000)">
                <path d="M23.5556997,11.2523766 L4.98293648,11.2523766 L4.98293648,28.4661571 L17.6667748,28.4661571 L17.6667748,23.0302264 L29.4446246,23.0302264 L29.4446246,11.2523766 L23.5556997,11.2523766 Z M17.6667748,12.158365 L22.6497113,12.158365 L22.6497113,16.6883073 L17.6667748,16.6883073 L17.6667748,12.158365 Z M11.7778499,12.158365 L16.7607863,12.158365 L16.7607863,16.6883073 L11.7778499,16.6883073 L11.7778499,12.158365 Z M16.7607863,22.124238 L11.7778499,22.124238 L11.7778499,17.5942957 L16.7607863,17.5942957 L16.7607863,22.124238 Z M5.88892493,12.158365 L10.8718614,12.158365 L10.8718614,16.6883073 L5.88892493,16.6883073 L5.88892493,12.158365 Z M5.88892493,17.5942957 L10.8718614,17.5942957 L10.8718614,22.124238 L5.88892493,22.124238 L5.88892493,17.5942957 Z M10.8718614,27.5601687 L5.88892493,27.5601687 L5.88892493,23.0302264 L10.8718614,23.0302264 L10.8718614,27.5601687 Z M16.7607863,27.5601687 L11.7778499,27.5601687 L11.7778499,23.0302264 L16.7607863,23.0302264 L16.7607863,27.5601687 Z M22.6497113,22.124238 L17.6667748,22.124238 L17.6667748,17.5942957 L22.6497113,17.5942957 L22.6497113,22.124238 Z M28.5386362,22.124238 L23.5556997,22.124238 L23.5556997,17.5942957 L28.5386362,17.5942957 L28.5386362,22.124238 Z M23.5556997,16.6883073 L23.5556997,12.158365 L28.5386362,12.158365 L28.5386362,16.6883073 L23.5556997,16.6883073 Z" id="Shape" fill="#47D7AC" fill-rule="nonzero"></path>
                <path d="M1.58547979,31.6552365 C1.58783319,31.7129218 1.61303123,31.7673031 1.65551899,31.8063918 C1.69800675,31.8454806 1.75429571,31.8660673 1.8119769,31.8636138 L26.4729825,31.8636138 L26.4729825,26.2102459 C26.4729825,25.8349732 26.7772012,25.5307545 27.1524739,25.5307545 L32.8420813,25.5307545 L32.8420813,7.54688379 L1.58547979,7.54688379 L1.58547979,31.6552365 Z" id="Shape"></path>
                <polygon id="Shape" points="27.8319652 30.9259158 31.8772036 26.8806773 27.8319652 26.8897372"></polygon>
                <path d="M32.6155842,3.24343865 L27.8546149,3.24343865 L27.8546149,4.1494271 C27.8546149,4.52469981 27.5503963,4.82891844 27.1751236,4.82891844 C26.7998509,4.82891844 26.4956322,4.52469981 26.4956322,4.1494271 L26.4956322,3.24343865 L21.2137196,3.24343865 L21.2137196,4.1494271 C21.2137196,4.52469981 20.9095009,4.82891844 20.5342282,4.82891844 C20.1589555,4.82891844 19.8547369,4.52469981 19.8547369,4.1494271 L19.8547369,3.24343865 L14.5728242,3.24343865 L14.5728242,4.1494271 C14.5728242,4.52469981 14.2686056,4.82891844 13.8933329,4.82891844 C13.5180602,4.82891844 13.2138416,4.52469981 13.2138416,4.1494271 L13.2138416,3.24343865 L7.93192888,3.24343865 L7.93192888,4.1494271 C7.93192888,4.52469981 7.62771025,4.82891844 7.25243755,4.82891844 C6.87716484,4.82891844 6.57294621,4.52469981 6.57294621,4.1494271 L6.57294621,3.24343865 L1.8119769,3.24343865 C1.69352892,3.23827384 1.59277727,3.32895032 1.58547979,3.44728605 L1.58547979,6.61824563 L32.8420813,6.61824563 L32.8420813,3.44728605 C32.8347838,3.32895032 32.7340322,3.23827384 32.6155842,3.24343865 L32.6155842,3.24343865 Z" id="Shape"></path>
                <path d="M32.6155842,1.88445598 L27.8546149,1.88445598 L27.8546149,0.978467527 C27.8546149,0.603194823 27.5503963,0.298976189 27.1751236,0.298976189 C26.7998509,0.298976189 26.4956322,0.603194823 26.4956322,0.978467527 L26.4956322,1.88445598 L21.2137196,1.88445598 L21.2137196,0.978467527 C21.2137196,0.603194823 20.9095009,0.298976189 20.5342282,0.298976189 C20.1589555,0.298976189 19.8547369,0.603194823 19.8547369,0.978467527 L19.8547369,1.88445598 L14.5728242,1.88445598 L14.5728242,0.978467527 C14.5728242,0.603194823 14.2686056,0.298976189 13.8933329,0.298976189 C13.5180602,0.298976189 13.2138416,0.603194823 13.2138416,0.978467527 L13.2138416,1.88445598 L7.93192888,1.88445598 L7.93192888,0.978467527 C7.93192888,0.603194823 7.62771025,0.298976189 7.25243755,0.298976189 C6.87716484,0.298976189 6.57294621,0.603194823 6.57294621,0.978467527 L6.57294621,1.88445598 L1.8119769,1.88445598 C0.94309427,1.87943015 0.23397307,2.57842105 0.226497113,3.44728605 L0.226497113,31.6552365 C0.228893051,32.0733312 0.397281894,32.4733492 0.694618537,32.7672878 C0.99195518,33.0612263 1.39388227,33.2250062 1.8119769,33.2225965 L27.1796535,33.2225965 C27.3598051,33.2224379 27.5325203,33.1507448 27.6598274,33.023279 L34.0017465,26.6813599 C34.1292123,26.5540528 34.2009054,26.3813376 34.201064,26.201186 L34.201064,3.44728605 C34.193588,2.57842105 33.4844668,1.87943015 32.6155842,1.88445598 Z M27.8319652,30.9259158 L27.8319652,26.8897372 L31.8772036,26.8897372 L27.8319652,30.9259158 Z M32.8375514,25.5171647 L27.1479439,25.5171647 C26.7726712,25.5171647 26.4684526,25.8213833 26.4684526,26.196656 L26.4684526,31.8590839 L1.8119769,31.8590839 C1.75429571,31.8615374 1.69800675,31.8409506 1.65551899,31.8018619 C1.61303123,31.7627731 1.58783319,31.7083919 1.58547979,31.6507065 L1.58547979,7.54688379 L32.8420813,7.54688379 L32.8375514,25.5171647 Z M32.8375514,6.6363654 L1.58094985,6.6363654 L1.58094985,3.46540582 C1.58824733,3.34707009 1.68899898,3.2563936 1.80744696,3.26155842 L6.57294621,3.26155842 L6.57294621,4.16754687 C6.57294621,4.54281958 6.87716484,4.84703821 7.25243755,4.84703821 C7.62771025,4.84703821 7.93192888,4.54281958 7.93192888,4.16754687 L7.93192888,3.26155842 L13.2138416,3.26155842 L13.2138416,4.16754687 C13.2138416,4.54281958 13.5180602,4.84703821 13.8933329,4.84703821 C14.2686056,4.84703821 14.5728242,4.54281958 14.5728242,4.16754687 L14.5728242,3.26155842 L19.8547369,3.26155842 L19.8547369,4.16754687 C19.8547369,4.54281958 20.1589555,4.84703821 20.5342282,4.84703821 C20.9095009,4.84703821 21.2137196,4.54281958 21.2137196,4.16754687 L21.2137196,3.26155842 L26.4956322,3.26155842 L26.4956322,4.16754687 C26.4956322,4.54281958 26.7998509,4.84703821 27.1751236,4.84703821 C27.5503963,4.84703821 27.8546149,4.54281958 27.8546149,4.16754687 L27.8546149,3.26155842 L32.6155842,3.26155842 C32.7340322,3.2563936 32.8347838,3.34707009 32.8420813,3.46540582 L32.8375514,6.6363654 Z" id="Shape" fill="#2D2926" fill-rule="nonzero"></path>
            </g>
        </g>
    </g>
</svg>