<?xml version="1.0" encoding="UTF-8"?>
<svg width="40px" height="33px" viewBox="0 0 40 33" version="1.1" xmlns="http://www.w3.org/2000/svg" xmlns:xlink="http://www.w3.org/1999/xlink">
    <!-- Generator: Sketch 45.2 (43514) - http://www.bohemiancoding.com/sketch -->
    <title>alert3</title>
    <desc>Created with Sketch.</desc>
    <defs></defs>
    <g id="Empty-states-|-Platfrom" stroke="none" stroke-width="1" fill="none" fill-rule="evenodd">
        <g id="alert3">
            <path d="M22.0938776,22.5142857 L16.2897959,22.5142857 C15.894421,22.4641744 15.5056819,22.646972 15.2920888,22.9834397 C15.0784958,23.3199073 15.0784958,23.7494804 15.2920888,24.0859481 C15.5056819,24.4224158 15.894421,24.6052134 16.2897959,24.555102 L23.3183673,24.555102 C23.8323156,24.4899623 24.2176083,24.0527537 24.2176083,23.5346939 C24.2176083,23.016634 23.8323156,22.5794255 23.3183673,22.5142857 L22.0938776,22.5142857 Z" id="Shape"></path>
            <path d="M21.4653061,29.077551 L18.5183673,29.077551 C18.0044191,29.1426908 17.6191264,29.5798993 17.6191264,30.0979592 C17.6191264,30.616019 18.0044191,31.0532276 18.5183673,31.1183673 L21.4653061,31.1183673 C21.8606811,31.1684787 22.2494201,30.9856811 22.4630132,30.6492134 C22.6766063,30.3127457 22.6766063,29.8831726 22.4630132,29.546705 C22.2494201,29.2102373 21.8606811,29.0274397 21.4653061,29.077551 L21.4653061,29.077551 Z" id="Shape"></path>
            <path d="M15.6693878,20.2612245 C15.6693878,20.8292888 16.1298949,21.2897959 16.6979592,21.2897959 L22.0938776,21.2897959 C22.6078258,21.2246561 22.9931185,20.7874476 22.9931185,20.2693878 C22.9931185,19.7513279 22.6078258,19.3141194 22.0938776,19.2489796 L16.6979592,19.2489796 C16.1362102,19.2489088 15.6783044,19.6995462 15.6693878,20.2612245 Z" id="Shape"></path>
            <path d="M22.5020408,25.7959184 L15.4734694,25.7959184 C15.0780944,25.745807 14.6893554,25.9286046 14.4757623,26.2650723 C14.2621692,26.60154 14.2621692,27.0311131 14.4757623,27.3675807 C14.6893554,27.7040484 15.0780944,27.886846 15.4734694,27.8367347 L22.5020408,27.8367347 C22.8974158,27.886846 23.2861548,27.7040484 23.4997479,27.3675807 C23.713341,27.0311131 23.713341,26.60154 23.4997479,26.2650723 C23.2861548,25.9286046 22.8974158,25.745807 22.5020408,25.7959184 L22.5020408,25.7959184 Z" id="Shape"></path>
            <path d="M25.5714286,23.5428571 C25.5686591,22.5738881 24.9477476,21.7147963 24.0285714,21.4081633 C24.4432195,20.7121394 24.4514567,19.846887 24.0501348,19.1430951 C23.6488129,18.4393032 22.8999666,18.0057611 22.0897959,18.0081633 L13.6204082,18.0081633 L13.6204082,12.1265306 C13.5689967,10.9183621 12.574568,9.96534953 11.3653061,9.96534953 C10.1560443,9.96534953 9.1616155,10.9183621 9.11020408,12.1265306 L9.11020408,14.6326531 C9.13095343,16.1340526 8.53718245,17.5787071 7.46660462,18.6315576 C6.39602679,19.6844081 4.94166014,20.2539767 3.44081633,20.2081633 L0.914285714,20.2081633 C0.576152194,20.2081633 0.302040816,20.4822746 0.302040816,20.8204082 C0.302040816,21.1585417 0.576152194,21.4326531 0.914285714,21.4326531 L3.44081633,21.4326531 C5.26773764,21.4840598 7.03641016,20.7871401 8.33719883,19.5033049 C9.63798749,18.2194696 10.3580488,16.4600915 10.3306122,14.6326531 L10.3306122,12.1265306 C10.3648669,11.5824853 10.8161019,11.1587678 11.3612245,11.1587678 C11.9063471,11.1587678 12.3575821,11.5824853 12.3918367,12.1265306 L12.3918367,18.6163265 C12.3918367,18.9544601 12.6659481,19.2285714 13.0040816,19.2285714 L14.6938776,19.2285714 C14.2753201,20.0362621 14.3866036,21.0168473 14.9755102,21.7102041 C13.974326,22.4243557 13.7341013,23.811107 14.4367347,24.8204082 C13.5155175,25.2982569 13.039858,26.3435402 13.2847183,27.3520163 C13.5295786,28.3604923 14.4316134,29.0712683 15.4693878,29.0734694 L16.5142857,29.0734694 C16.1858586,29.7141013 16.1858586,30.4736538 16.5142857,31.1142857 L3.07755102,31.1142857 C2.7394175,31.1142857 2.46530612,31.3883971 2.46530612,31.7265306 C2.46530612,32.0646641 2.7394175,32.3387755 3.07755102,32.3387755 L21.4653061,32.3387755 C22.287219,32.3406536 23.0446953,31.8940163 23.4408894,31.1738951 C23.8370836,30.453774 23.808886,29.5748769 23.3673469,28.8816327 C23.9963313,28.6208053 24.4732779,28.0890539 24.6644228,27.4355129 C24.8555677,26.7819719 24.7403268,26.07702 24.3510204,25.5183673 C25.0919651,25.1363472 25.5614201,24.3764267 25.5714286,23.5428571 Z M16.6979592,19.2285714 L22.0938776,19.2285714 C22.6078258,19.2937112 22.9931185,19.7309197 22.9931185,20.2489796 C22.9931185,20.7670394 22.6078258,21.204248 22.0938776,21.2693878 L16.6979592,21.2693878 C16.3025842,21.3194991 15.9138452,21.1367015 15.7002521,20.8002338 C15.486659,20.4637661 15.486659,20.0341931 15.7002521,19.6977254 C15.9138452,19.3612577 16.3025842,19.1784601 16.6979592,19.2285714 L16.6979592,19.2285714 Z M21.4653061,31.1346939 L18.5183673,31.1346939 C18.0044191,31.0695541 17.6191264,30.6323456 17.6191264,30.1142857 C17.6191264,29.5962259 18.0044191,29.1590173 18.5183673,29.0938776 L21.4653061,29.0938776 C21.8606811,29.0437662 22.2494201,29.2265638 22.4630132,29.5630315 C22.6766063,29.8994992 22.6766063,30.3290723 22.4630132,30.6655399 C22.2494201,31.0020076 21.8606811,31.1848052 21.4653061,31.1346939 L21.4653061,31.1346939 Z M22.5020408,27.8693878 L15.4734694,27.8693878 C15.0780944,27.9194991 14.6893554,27.7367015 14.4757623,27.4002338 C14.2621692,27.0637661 14.2621692,26.6341931 14.4757623,26.2977254 C14.6893554,25.9612577 15.0780944,25.7784601 15.4734694,25.8285714 L22.5020408,25.8285714 C22.8974158,25.7784601 23.2861548,25.9612577 23.4997479,26.2977254 C23.713341,26.6341931 23.713341,27.0637661 23.4997479,27.4002338 C23.2861548,27.7367015 22.8974158,27.9194991 22.5020408,27.8693878 L22.5020408,27.8693878 Z M23.3183673,24.6040816 L16.2897959,24.6040816 C15.894421,24.654193 15.5056819,24.4713954 15.2920888,24.1349277 C15.0784958,23.79846 15.0784958,23.3688869 15.2920888,23.0324193 C15.5056819,22.6959516 15.894421,22.513154 16.2897959,22.5632653 L23.3183673,22.5632653 C23.8323156,22.6284051 24.2176083,23.0656136 24.2176083,23.5836735 C24.2176083,24.1017333 23.8323156,24.5389419 23.3183673,24.6040816 L23.3183673,24.6040816 Z" id="Shape" fill="#47D7AC" fill-rule="nonzero"></path>
            <path d="M39.0857143,11.2204082 L36.5142857,11.2204082 C34.6866669,11.167867 32.9169205,11.8642841 31.6152324,13.1482464 C30.3135443,14.4322088 29.592929,16.1922408 29.6204082,18.0204082 L29.6204082,20.5265306 C29.5861535,21.0705759 29.1349185,21.4942934 28.5897959,21.4942934 C28.0446733,21.4942934 27.5934383,21.0705759 27.5591837,20.5265306 L27.5591837,14.0367347 C27.5591837,13.6986012 27.2850723,13.4244898 26.9469388,13.4244898 L25.2571429,13.4244898 C25.6757003,12.6167992 25.5644168,11.6362139 24.9755102,10.9428571 C25.9766945,10.2287055 26.2169191,8.84195423 25.5142857,7.83265306 C26.4388178,7.35770979 26.9184739,6.31195153 26.6752856,5.30141199 C26.4320973,4.29087245 25.5291829,3.57783248 24.4897959,3.5755102 L23.4367347,3.5755102 C23.7651618,2.93487825 23.7651618,2.17532583 23.4367347,1.53469388 L36.8163265,1.53469388 C37.1544601,1.53469388 37.4285714,1.2605825 37.4285714,0.92244898 C37.4285714,0.584315459 37.1544601,0.310204082 36.8163265,0.310204082 L18.4897959,0.310204082 C17.6678831,0.30832598 16.9104068,0.754963331 16.5142126,1.47508447 C16.1180184,2.1952056 16.146216,3.07410274 16.5877551,3.76734694 C15.9587707,4.02817427 15.4818241,4.55992568 15.2906792,5.21346669 C15.0995344,5.8670077 15.2147753,6.5719596 15.6040816,7.13061224 C14.8090584,7.54782238 14.3383577,8.39792346 14.4066765,9.29316579 C14.4749953,10.1884081 15.0692419,10.9572397 15.9183673,11.2489796 C15.5037193,11.9450035 15.4954821,12.8102558 15.896804,13.5140477 C16.2981259,14.2178396 17.0469722,14.6513818 17.8571429,14.6489796 L26.3346939,14.6489796 L26.3346939,20.5265306 C26.3861053,21.7346991 27.3805341,22.6877117 28.5897959,22.6877117 C29.7990578,22.6877117 30.7934865,21.7346991 30.844898,20.5265306 L30.844898,18.0204082 C30.8241923,16.5197389 31.4174091,15.0757393 32.4870869,14.0230161 C33.5567648,12.9702928 35.0100571,12.4002206 36.5102041,12.444898 L39.0816327,12.444898 C39.4197662,12.444898 39.6938776,12.1707866 39.6938776,11.8326531 C39.6938776,11.4945195 39.4197662,11.2204082 39.0816327,11.2204082 L39.0857143,11.2204082 Z M18.4897959,1.51428571 L21.4367347,1.51428571 C21.8321096,1.46417438 22.2208487,1.64697199 22.4344418,1.98343966 C22.6480348,2.31990734 22.6480348,2.74948042 22.4344418,3.08594809 C22.2208487,3.42241577 21.8321096,3.60521338 21.4367347,3.55510204 L18.4897959,3.55510204 C17.9758477,3.48996227 17.5905549,3.05275373 17.5905549,2.53469388 C17.5905549,2.01663403 17.9758477,1.57942549 18.4897959,1.51428571 L18.4897959,1.51428571 Z M17.4530612,4.77959184 L24.4897959,4.77959184 C24.8851709,4.7294805 25.2739099,4.91227811 25.487503,5.24874579 C25.7010961,5.58521346 25.7010961,6.01478654 25.487503,6.35125421 C25.2739099,6.68772189 24.8851709,6.8705195 24.4897959,6.82040816 L17.4530612,6.82040816 C17.0576863,6.8705195 16.6689472,6.68772189 16.4553541,6.35125421 C16.2417611,6.01478654 16.2417611,5.58521346 16.4553541,5.24874579 C16.6689472,4.91227811 17.0576863,4.7294805 17.4530612,4.77959184 L17.4530612,4.77959184 Z M23.2653061,13.4244898 L17.8612245,13.4244898 C17.4658495,13.4746011 17.0771105,13.2918035 16.8635174,12.9553358 C16.6499244,12.6188682 16.6499244,12.1892951 16.8635174,11.8528274 C17.0771105,11.5163597 17.4658495,11.3335621 17.8612245,11.3836735 L23.2653061,11.3836735 C23.7792544,11.4488132 24.1645471,11.8860218 24.1645471,12.4040816 C24.1645471,12.9221415 23.7792544,13.35935 23.2653061,13.4244898 L23.2653061,13.4244898 Z M23.6734694,10.1591837 L16.6367347,10.1591837 C16.2413597,10.209295 15.8526207,10.0264974 15.6390276,9.69002973 C15.4254346,9.35356205 15.4254346,8.92398897 15.6390276,8.5875213 C15.8526207,8.25105362 16.2413597,8.06825601 16.6367347,8.11836735 L23.6734694,8.11836735 C24.0688443,8.06825601 24.4575834,8.25105362 24.6711765,8.5875213 C24.8847695,8.92398897 24.8847695,9.35356205 24.6711765,9.69002973 C24.4575834,10.0264974 24.0688443,10.209295 23.6734694,10.1591837 Z" id="Shape" fill="#2D2926" fill-rule="nonzero"></path>
        </g>
    </g>
</svg>