<?xml version="1.0" encoding="UTF-8"?>
<svg width="37px" height="77px" viewBox="0 0 37 77" version="1.1" xmlns="http://www.w3.org/2000/svg" xmlns:xlink="http://www.w3.org/1999/xlink">
    <!-- Generator: Sketch 44.1 (41455) - http://www.bohemiancoding.com/sketch -->
    <title>arrow</title>
    <desc>Created with Sketch.</desc>
    <defs></defs>
    <g id="Dashboard:-Engage-Employers" stroke="none" stroke-width="1" fill="none" fill-rule="evenodd">
        <g id="Employers-post-verification-/-developed-dashboard---info--Copy" transform="translate(-246.000000, -382.000000)" fill="#000000">
            <path d="M283.987318,413.559798 C283.914249,414.67827 283.514384,415.692604 282.81649,416.583815 C281.895361,417.759821 280.758478,418.702238 279.43806,419.377693 C278.2143,420.00482 276.961197,420.607207 275.662642,421.049648 C273.315231,421.849378 270.930423,422.540369 268.550794,423.243441 C266.082561,423.972404 263.607424,424.677202 261.127108,425.364165 C257.994351,426.231211 255.119924,427.706973 252.366895,429.353612 C249.67888,430.962279 247.950541,433.448923 247.043221,436.485597 C246.635301,437.849742 246.953467,439.023447 247.771609,440.112001 C248.501147,441.083185 249.460824,441.798915 250.464227,442.455959 C253.335777,444.335038 256.464507,445.65258 259.740525,446.622613 C261.236999,447.065629 262.764542,447.404508 264.28403,447.768701 C264.429593,447.803798 264.687923,447.727852 264.758115,447.617386 C264.827732,447.507495 264.736252,447.285986 264.695978,447.118561 C264.675265,447.032834 264.617731,446.952286 264.564799,446.877491 C262.589062,444.090517 261.201328,440.968115 259.524771,438.009688 C259.211207,437.456781 258.994877,436.840586 258.802136,436.231294 C258.682464,435.852142 258.885562,435.515564 259.23192,435.315344 C259.58173,435.112247 259.964335,435.135261 260.250857,435.399345 C260.514365,435.641565 260.735298,435.950526 260.907902,436.266966 C261.964236,438.20473 263.014242,440.145371 264.04181,442.099245 C265.248885,444.393148 266.641221,446.545517 268.602575,448.281334 C268.740082,448.402732 268.885645,448.527007 268.983454,448.678323 C269.248113,449.087394 269.316003,449.535013 269.101399,449.985508 C268.723973,450.77891 268.139997,451.401434 267.229225,451.418694 C265.521023,451.450914 264.000385,452.10163 262.47054,452.721277 C259.403948,453.963448 256.252204,455.004249 253.341531,456.611765 C253.185036,456.698642 252.9992,456.733163 252.82487,456.78667 C252.549279,456.87067 252.082674,456.618669 251.913523,456.298201 C251.719631,455.932281 251.765083,455.541622 252.019961,455.274661 C252.330648,454.949591 252.711527,454.653863 253.117146,454.466301 C254.785073,453.697639 256.468534,452.960046 258.157749,452.238562 C259.762388,451.55275 261.383137,450.906637 262.987776,450.223126 C263.08501,450.181126 263.125284,449.959618 263.146572,449.815206 C263.154051,449.764576 263.034379,449.660438 262.955557,449.636849 C261.990702,449.345149 261.032176,449.021804 260.052363,448.787639 C256.622727,447.968922 253.442791,446.552996 250.391733,444.820055 C249.188685,444.135969 248.059282,443.341416 247.05818,442.38174 C244.921922,440.331783 244.241863,437.932592 245.330417,435.105343 C246.66637,431.634282 248.830245,428.840404 252.140209,427.084449 C255.47031,425.318138 258.868876,423.725581 262.575253,422.811932 C266.141821,421.933379 269.658334,420.837921 273.169669,419.751668 C274.745541,419.26435 276.274809,418.611333 277.789119,417.950261 C278.88803,417.470422 279.876473,416.774254 280.69404,415.882468 C281.062261,415.480877 281.398838,415.026354 281.645086,414.542488 C282.005828,413.831361 281.925855,413.118508 281.393085,412.487353 C280.668724,411.629513 279.773487,410.983975 278.790796,410.470767 C275.77656,408.89547 272.772105,407.30464 269.54384,406.177537 C265.63149,404.811091 261.899798,403.013711 258.215284,401.131756 C256.91155,400.466081 255.676859,399.64046 254.485318,398.783195 C251.873248,396.905266 252.027441,394.16547 252.952597,392.146582 C253.4986,390.953891 254.263234,389.915967 255.235568,389.063305 C256.409274,388.034587 257.61002,387.021403 258.892466,386.13537 C261.239876,384.513471 263.691999,383.05612 266.369658,382.025101 C266.707961,381.895073 267.06295,381.782305 267.419664,381.734551 C267.817228,381.681044 268.107777,381.90773 268.312025,382.246609 C268.474848,382.516446 268.389122,383.110203 268.148052,383.257491 C267.680296,383.542287 267.21369,383.842043 266.713715,384.059523 C264.256413,385.126789 261.948127,386.463893 259.768717,388.004669 C258.571998,388.851002 257.466184,389.834843 256.374178,390.816958 C255.545104,391.562031 254.937539,392.496968 254.572195,393.559056 C254.145288,394.802953 254.348385,395.926028 255.352364,396.82817 C255.760859,397.195241 256.198697,397.542174 256.665303,397.830422 C257.75961,398.507029 258.836082,399.234266 259.995979,399.779118 C263.572327,401.458552 267.118183,403.204151 270.86656,404.502706 C274.088496,405.617726 277.09065,407.239625 280.083598,408.856922 C281.137056,409.425939 282.089828,410.153751 282.894737,411.060496 C283.527617,411.773925 283.891236,412.595518 283.987318,413.559798" id="arrow" transform="translate(264.402873, 419.264860) scale(-1, 1) rotate(-15.000000) translate(-264.402873, -419.264860) "></path>
        </g>
    </g>
</svg>