<?xml version="1.0" encoding="UTF-8"?>
<svg width="22px" height="21px" viewBox="0 0 22 21" version="1.1" xmlns="http://www.w3.org/2000/svg" xmlns:xlink="http://www.w3.org/1999/xlink">
    <!-- Generator: Sketch 45.2 (43514) - http://www.bohemiancoding.com/sketch -->
    <title></title>
    <desc>Created with Sketch.</desc>
    <defs></defs>
    <g id="Empty-states-|-Platfrom" stroke="none" stroke-width="1" fill="none" fill-rule="evenodd">
        <g id="tasks" transform="translate(-29.000000, -24.000000)" fill="#FFFFFF">
            <path d="M41.5714436,41.0234351 L41.5714436,38.6908431 C41.5714436,38.4698607 41.3995684,38.2857087 41.1785859,38.2857087 L38.8214403,38.2857087 C38.6004579,38.2857087 38.4285827,38.4698607 38.4285827,38.6908431 L38.4285827,41.0234351 C38.4285827,41.2444176 38.6004579,41.4285696 38.8214403,41.4285696 L41.1785859,41.4285696 C41.3995684,41.4285696 41.5714436,41.2444176 41.5714436,41.0234351 Z M41.54689,36.4319118 L41.7678724,30.7968605 C41.7678724,30.7231997 41.731042,30.6249852 41.6451044,30.5636012 C41.5714436,30.5022172 41.4609524,30.4285564 41.3504612,30.4285564 L38.6495651,30.4285564 C38.5390739,30.4285564 38.4285827,30.5022172 38.3549219,30.5636012 C38.2689843,30.6249852 38.2321539,30.7477533 38.2321539,30.8214141 L38.4408595,36.4319118 C38.4408595,36.5915102 38.6250115,36.7142782 38.8582707,36.7142782 L41.1294787,36.7142782 C41.3504612,36.7142782 41.5346132,36.5915102 41.54689,36.4319118 Z M41.3750148,24.9653803 L50.8035974,42.2511152 C51.073687,42.7299104 51.0614102,43.3191968 50.7790438,43.797992 C50.4966774,44.2767872 49.9810518,44.5714304 49.4285958,44.5714304 L30.5714304,44.5714304 C30.0189744,44.5714304 29.5033488,44.2767872 29.2209824,43.797992 C28.938616,43.3191968 28.9263392,42.7299104 29.1964288,42.2511152 L38.6250115,24.9653803 C38.8951011,24.4620315 39.4230035,24.1428347 40.0000131,24.1428347 C40.5770227,24.1428347 41.1049251,24.4620315 41.3750148,24.9653803 Z" id=""></path>
        </g>
    </g>
</svg>