<?xml version="1.0" encoding="UTF-8"?>
<svg width="1004px" height="190px" viewBox="0 0 1004 190" version="1.1" xmlns="http://www.w3.org/2000/svg" xmlns:xlink="http://www.w3.org/1999/xlink" style="background: #FFFFFF;">
    <!-- Generator: Sketch 45.2 (43514) - http://www.bohemiancoding.com/sketch -->
    <title>foooter</title>
    <desc>Created with Sketch.</desc>
    <defs></defs>
    <g id="Enganging-users---Platform" stroke="none" stroke-width="1" fill="none" fill-rule="evenodd" opacity="0.12">
        <g id="foooter">
            <g id="studio" transform="translate(55.000000, 27.000000)" fill-rule="nonzero" fill="#2D2926">
                <path d="M14.7907345,12.5859695 L8.52126035,12.5859695 C8.08844347,12.5859695 7.73757607,12.9368369 7.73757607,13.3696537 L7.73757607,48.0920917 C7.73757607,48.5249085 8.08844347,48.8757759 8.52126035,48.8757759 C8.95407722,48.8757759 9.30494462,48.5249085 9.30494462,48.0920917 L9.30494462,17.026847 L14.0070503,17.026847 L14.0070503,50.0774252 C14.0070503,50.510242 14.3579177,50.8611094 14.7907345,50.8611094 C15.2235514,50.8611094 15.5744188,50.510242 15.5744188,50.0774252 L15.5744188,13.3696537 C15.5744188,12.9368369 15.2235514,12.5859695 14.7907345,12.5859695 L14.7907345,12.5859695 Z M9.29972006,15.9819346 L9.29972006,14.153338 L14.0018257,14.153338 L14.0018257,15.9819346 L9.29972006,15.9819346 Z" id="Shape"></path>
                <path d="M29.1008094,28.9231743 C25.0883459,28.9231743 24.6599318,34.5813748 24.6599318,37.0160206 C24.6599318,42.9824702 28.3171251,47.742046 28.4843111,47.9405794 C28.6328752,48.1298807 28.8601722,48.2404342 29.1008094,48.2404342 C29.3414466,48.2404342 29.5687436,48.1298807 29.7173077,47.9405794 C29.8740446,47.742046 33.541687,42.9824702 33.541687,37.0160206 C33.541687,34.5813748 33.1080483,28.9231743 29.1008094,28.9231743 Z M29.1008094,46.0754108 C28.0976935,44.5080422 26.2273004,41.0023613 26.2273004,37.0160206 C26.2273004,32.8677185 27.2722128,30.4905428 29.1008094,30.4905428 C30.929406,30.4905428 31.9743184,32.8677185 31.9743184,37.0160206 C31.9743184,41.0023613 30.1039253,44.487144 29.1008094,46.0701862 L29.1008094,46.0754108 Z" id="Shape"></path>
                <path d="M26.7706548,26.744532 C26.8490149,27.1034008 27.166119,27.3596905 27.5334409,27.3610303 L30.668178,27.3610303 C31.0354998,27.3596905 31.3526039,27.1034008 31.430964,26.744532 L32.9983325,19.6548016 C33.0042542,19.5992303 33.0042542,19.543187 32.9983325,19.4876156 L32.9983325,4.08560735 C32.9983325,3.65279048 32.6474651,3.30192308 32.2146483,3.30192308 C31.7818314,3.30192308 31.430964,3.65279048 31.430964,4.08560735 L31.430964,15.9610364 L26.7288583,15.9610364 L26.7288583,1.28524221 C26.7288583,0.852425337 26.3779909,0.501557936 25.9451741,0.501557936 C25.5123572,0.501557936 25.1614898,0.852425337 25.1614898,1.28524221 L25.1614898,19.4823911 C25.1554474,19.5379559 25.1554474,19.5940122 25.1614898,19.649577 L26.7706548,26.744532 Z M30.036006,25.7936618 L28.1656128,25.7936618 L26.911718,20.1459104 L31.2899008,20.1459104 L30.036006,25.7936618 Z M31.4518622,17.0059488 L31.4518622,19.0957735 L26.7497566,19.0957735 L26.7497566,17.0059488 L31.4518622,17.0059488 Z" id="Shape"></path>
                <path d="M11.6559974,9.47735516 C11.944542,9.47735516 12.1784536,9.24344356 12.1784536,8.95489898 L12.1784536,6.09706366 C12.1784536,5.80851908 11.944542,5.57460747 11.6559974,5.57460747 C11.3674529,5.57460747 11.1335413,5.80851908 11.1335413,6.09706366 L11.1335413,8.95489898 C11.1335413,9.24344356 11.3674529,9.47735516 11.6559974,9.47735516 Z" id="Shape"></path>
                <path d="M15.9871592,6.42098649 C15.7202601,6.31336641 15.4165864,6.44184378 15.3079662,6.70833739 L14.2264819,9.35196568 C14.1425919,9.52722448 14.1628905,9.73456037 14.2791781,9.8902214 C14.3954658,10.0458824 14.5885307,10.124152 14.7803857,10.0934137 C14.9722406,10.0626753 15.1311895,9.92800727 15.1930258,9.74380782 L16.2692855,7.09495497 C16.3740808,6.83095886 16.2487693,6.53160359 15.9871592,6.42098649 Z" id="Shape"></path>
                <path d="M17.4030155,11.8597554 C17.5418859,11.8605582 17.675362,11.8060398 17.7739594,11.7082431 L19.8010893,9.6915622 C19.9336148,9.55996999 19.9858698,9.36767227 19.9381704,9.18710572 C19.8904709,9.00653918 19.7500637,8.86513617 19.5698388,8.81616183 C19.3896138,8.7671875 19.1969516,8.81808221 19.0644261,8.94967442 L17.0372961,10.9715798 C16.8865884,11.1210496 16.8412905,11.3468428 16.9226844,11.542876 C17.0040783,11.7389093 17.1959843,11.8662143 17.40824,11.8649799 L17.4030155,11.8597554 Z" id="Shape"></path>
                <path d="M5.53803554,22.4133703 L3.51090555,24.4300511 C3.37838005,24.5616433 3.32612505,24.7539411 3.37382451,24.9345076 C3.42152396,25.1150742 3.56193118,25.2564772 3.74215612,25.3054515 C3.92238107,25.3544258 4.11504328,25.3035311 4.24756877,25.1719389 L6.2694742,23.155258 C6.44856836,22.9492413 6.43887236,22.6400753 6.24722074,22.4456858 C6.05556912,22.2512963 5.74657179,22.2372162 5.53803554,22.4133703 Z" id="Shape"></path>
                <path d="M18.7457279,14.3466468 C18.7949038,14.4762152 18.8935441,14.5809369 19.0199425,14.6377672 C19.146341,14.6945975 19.2901402,14.6988797 19.4196963,14.6496714 L22.0894474,13.604759 C22.3592366,13.500883 22.4937358,13.1979674 22.3898597,12.9281783 C22.2859837,12.6583891 21.9830682,12.5238899 21.713279,12.6277659 L19.0435279,13.6726783 C18.7757727,13.7771731 18.6427073,14.0783209 18.7457279,14.3466468 Z" id="Shape"></path>
                <path d="M4.56626704,19.7749665 C4.51709113,19.6453981 4.4184508,19.5406764 4.29205234,19.4838461 C4.16565389,19.4270158 4.02185472,19.4227336 3.89229856,19.4719419 L1.22254747,20.5168543 C1.00777112,20.5409864 0.830024457,20.6948717 0.775393256,20.9039809 C0.720762055,21.1130901 0.800525211,21.3342516 0.976052047,21.460353 C1.15157888,21.5864544 1.38663098,21.5914614 1.56736855,21.4729491 L4.23711965,20.4280368 C4.50630359,20.3362235 4.65259698,20.0459588 4.56626704,19.7749665 L4.56626704,19.7749665 Z" id="Shape"></path>
                <path d="M22.6380264,16.5670856 L19.7749665,16.5670856 C19.486422,16.5670856 19.2525103,16.8009972 19.2525103,17.0895418 C19.2525103,17.3780863 19.486422,17.6119979 19.7749665,17.6119979 L22.6380264,17.6119979 C22.926571,17.6119979 23.1604826,17.3780863 23.1604826,17.0895418 C23.1604826,16.8009972 22.926571,16.5670856 22.6380264,16.5670856 Z" id="Shape"></path>
                <path d="M3.53702836,17.5649769 C3.82557294,17.5649769 4.05948454,17.3310653 4.05948454,17.0425207 C4.05948454,16.7539761 3.82557294,16.5200645 3.53702836,16.5200645 L0.679193038,16.5200645 C0.390648456,16.5200645 0.156736855,16.7539761 0.156736855,17.0425207 C0.156736855,17.3310653 0.390648456,17.5649769 0.679193038,17.5649769 L3.54225292,17.5649769 L3.53702836,17.5649769 Z" id="Shape"></path>
                <path d="M22.0163036,20.7310613 L19.3674507,19.649577 C19.1947943,19.5786479 18.9974129,19.6052178 18.8496582,19.7192781 C18.7019036,19.8333384 18.6262231,20.0175606 18.6511249,20.2025501 C18.6760267,20.3875395 18.7977276,20.5451919 18.970384,20.616121 L21.6192369,21.6976053 C21.8861406,21.8072522 22.1913952,21.6797704 22.3010422,21.4128667 C22.4106891,21.1459629 22.2832073,20.8407083 22.0163036,20.7310613 L22.0163036,20.7310613 Z" id="Shape"></path>
                <path d="M1.29569133,13.390552 L3.94454418,14.4720363 C4.11720063,14.5429654 4.31458201,14.5163955 4.46233668,14.4023352 C4.61009134,14.2882749 4.68577182,14.1040527 4.66087003,13.9190632 C4.63596824,13.7340738 4.51426734,13.5764215 4.34161088,13.5054923 L1.69275803,12.424008 C1.4258543,12.3143611 1.12059967,12.4418429 1.01095274,12.7087467 C0.901305798,12.9756504 1.02878761,13.280905 1.29569133,13.390552 Z" id="Shape"></path>
                <path d="M17.7635102,22.4290439 C17.5600863,22.2241773 17.2291014,22.2230078 17.0242348,22.4264317 C16.8193681,22.6298556 16.8181985,22.9608405 17.0216224,23.1657072 L19.0435279,25.1876126 C19.2469518,25.3924792 19.5779367,25.3936488 19.7828034,25.1902249 C19.98767,24.9868009 19.9888396,24.655816 19.7854157,24.4509494 L17.7635102,22.4290439 Z" id="Shape"></path>
                <path d="M4.27369158,8.92877617 C4.07026765,8.72390953 3.73928274,8.72273998 3.53441609,8.92616391 C3.32954945,9.12958783 3.32837988,9.46057273 3.5318038,9.66543939 L5.55370923,11.6873448 C5.66491066,11.8751119 5.88110153,11.9739843 6.09586986,11.9352959 C6.31063819,11.8966074 6.47873675,11.7285088 6.51742524,11.5137405 C6.55611372,11.2989722 6.45724127,11.0827813 6.2694742,10.9715798 L4.27369158,8.92877617 Z" id="Shape"></path>
                <path d="M8.74069194,10.0207096 C8.91265117,10.0202022 9.07334941,9.93511001 9.17041502,9.7931646 C9.26748063,9.65121919 9.28848253,9.47059935 9.22657619,9.31016918 L8.18166383,6.64564265 C8.07778778,6.37585347 7.77487226,6.24135429 7.50508307,6.34523034 C7.23529389,6.44910639 7.10079472,6.75202192 7.20467077,7.0218111 L8.24958313,9.68633764 C8.32781226,9.88908712 8.52337925,10.0222391 8.74069194,10.0207096 Z" id="Shape"></path>
            </g>
            <g id="pr" transform="translate(759.414062, 127.000000)" fill-rule="nonzero" fill="#2D2926">
                <path d="M15.1512293,12.2306992 C16.3054076,12.2306992 17.241054,11.2950528 17.241054,10.1408745 C17.241054,8.98669619 16.3054076,8.05104978 15.1512293,8.05104978 C13.997051,8.05104978 13.0614046,8.98669619 13.0614046,10.1408745 C13.0614046,11.2950528 13.997051,12.2306992 15.1512293,12.2306992 Z M15.1512293,9.09596215 C15.7283185,9.09596215 16.1961417,9.56378535 16.1961417,10.1408745 C16.1961417,10.7179637 15.7283185,11.1857869 15.1512293,11.1857869 C14.5741401,11.1857869 14.1063169,10.7179637 14.1063169,10.1408745 C14.1063169,9.56378535 14.5741401,9.09596215 15.1512293,9.09596215 Z" id="Shape"></path>
                <path d="M37.6168452,0.271677215 L6.2694742,0.271677215 C5.23554552,0.297341443 4.4175118,1.15510823 4.44087756,2.18909141 L4.44087756,24.288988 L0.261228092,24.288988 L0.261228092,36.5719328 C0.275485626,38.1512838 1.55534468,39.4264888 3.1347371,39.4349927 L37.6168452,39.4349927 C38.6507739,39.4093285 39.4688076,38.5515617 39.4454418,37.5175785 L39.4454418,2.18909141 C39.4688076,1.15510823 38.6507739,0.297341443 37.6168452,0.271677215 Z M1.80769839,36.5719328 L1.80769839,25.8563565 L4.41997931,25.8563565 L4.41997931,29.7800024 L3.37506694,29.7800024 C3.08652236,29.7800024 2.85261076,30.013914 2.85261076,30.3024586 C2.85261076,30.5910032 3.08652236,30.8249148 3.37506694,30.8249148 L4.41997931,30.8249148 L4.41997931,32.9147395 L3.37506694,32.9147395 C3.08652236,32.9147395 2.85261076,33.1486511 2.85261076,33.4371957 C2.85261076,33.7257403 3.08652236,33.9596519 3.37506694,33.9596519 L4.41997931,33.9596519 L4.41997931,36.5719328 C4.37613278,37.2683204 3.79854399,37.8106863 3.10077745,37.8106863 C2.40301091,37.8106863 1.82542211,37.2683204 1.78157558,36.5719328 L1.80769839,36.5719328 Z M37.893747,37.5384768 C37.910262,37.7051464 37.7969966,37.856922 37.6325189,37.8885224 L5.6947724,37.8885224 C5.90660378,37.4819246 6.01769288,37.0304012 6.01869523,36.5719328 L6.01869523,24.288988 L6.01869523,24.288988 L6.01869523,2.18909141 C6.00218019,2.02242175 6.11544555,1.87064616 6.27992332,1.83904576 L37.6168452,1.83904576 C37.781323,1.87064616 37.8945883,2.02242175 37.8780733,2.18909141 L37.893747,37.5384768 Z" id="Shape"></path>
                <path d="M33.4371957,29.7800024 L10.4491237,29.7800024 C10.1605791,29.7800024 9.92666748,30.013914 9.92666748,30.3024586 C9.92666748,30.5910032 10.1605791,30.8249148 10.4491237,30.8249148 L33.4371957,30.8249148 C33.7257403,30.8249148 33.9596519,30.5910032 33.9596519,30.3024586 C33.9596519,30.013914 33.7257403,29.7800024 33.4371957,29.7800024 Z" id="Shape"></path>
                <path d="M19.853335,32.9147395 L10.4856956,32.9147395 C10.197151,32.9147395 9.96323941,33.1486511 9.96323941,33.4371957 C9.96323941,33.7257403 10.197151,33.9596519 10.4856956,33.9596519 L19.853335,33.9596519 C20.1418795,33.9596519 20.3757911,33.7257403 20.3757911,33.4371957 C20.3757911,33.1486511 20.1418795,32.9147395 19.853335,32.9147395 Z" id="Shape"></path>
                <path d="M33.4371957,32.9147395 L22.9880721,32.9147395 C22.6995275,32.9147395 22.4656159,33.1486511 22.4656159,33.4371957 C22.4656159,33.7257403 22.6995275,33.9596519 22.9880721,33.9596519 L33.4371957,33.9596519 C33.7257403,33.9596519 33.9596519,33.7257403 33.9596519,33.4371957 C33.9596519,33.1486511 33.7257403,32.9147395 33.4371957,32.9147395 Z" id="Shape"></path>
                <path d="M33.4371957,26.6452653 L10.4491237,26.6452653 C10.1605791,26.6452653 9.92666748,26.8791769 9.92666748,27.1677215 C9.92666748,27.4562661 10.1605791,27.6901777 10.4491237,27.6901777 L33.4371957,27.6901777 C33.7257403,27.6901777 33.9596519,27.4562661 33.9596519,27.1677215 C33.9596519,26.8791769 33.7257403,26.6452653 33.4371957,26.6452653 Z" id="Shape"></path>
                <path d="M33.4371957,23.5105282 L10.4491237,23.5105282 C10.1605791,23.5105282 9.92666748,23.7444398 9.92666748,24.0329844 C9.92666748,24.321529 10.1605791,24.5554406 10.4491237,24.5554406 L33.4371957,24.5554406 C33.7257403,24.5554406 33.9596519,24.321529 33.9596519,24.0329844 C33.9596519,23.7444398 33.7257403,23.5105282 33.4371957,23.5105282 Z" id="Shape"></path>
                <path d="M33.4371957,20.3757911 L10.4491237,20.3757911 C10.1605791,20.3757911 9.92666748,20.6097027 9.92666748,20.8982473 C9.92666748,21.1867919 10.1605791,21.4207035 10.4491237,21.4207035 L33.4371957,21.4207035 C33.7257403,21.4207035 33.9596519,21.1867919 33.9596519,20.8982473 C33.9596519,20.6097027 33.7257403,20.3757911 33.4371957,20.3757911 Z" id="Shape"></path>
                <path d="M22.9880721,8.35929893 L33.4371957,8.35929893 C33.7257403,8.35929893 33.9596519,8.12538733 33.9596519,7.83684275 C33.9596519,7.54829817 33.7257403,7.31438656 33.4371957,7.31438656 L22.9880721,7.31438656 C22.6995275,7.31438656 22.4656159,7.54829817 22.4656159,7.83684275 C22.4656159,8.12538733 22.6995275,8.35929893 22.9880721,8.35929893 Z" id="Shape"></path>
                <path d="M22.9880721,11.494036 L30.3024586,11.494036 C30.5910032,11.494036 30.8249148,11.2601244 30.8249148,10.9715798 C30.8249148,10.6830353 30.5910032,10.4491237 30.3024586,10.4491237 L22.9880721,10.4491237 C22.6995275,10.4491237 22.4656159,10.6830353 22.4656159,10.9715798 C22.4656159,11.2601244 22.6995275,11.494036 22.9880721,11.494036 Z" id="Shape"></path>
                <path d="M22.9880721,14.6287731 L25.0778968,14.6287731 C25.3664414,14.6287731 25.600353,14.3948615 25.600353,14.1063169 C25.600353,13.8177724 25.3664414,13.5838608 25.0778968,13.5838608 L22.9880721,13.5838608 C22.6995275,13.5838608 22.4656159,13.8177724 22.4656159,14.1063169 C22.4656159,14.3948615 22.6995275,14.6287731 22.9880721,14.6287731 Z" id="Shape"></path>
                <path d="M11.494036,16.1961417 L18.8084226,16.1961417 C19.6740563,16.1961417 20.3757911,15.4944069 20.3757911,14.6287731 L20.3757911,7.31438656 C20.3757911,6.44875282 19.6740563,5.74701801 18.8084226,5.74701801 L11.494036,5.74701801 C10.6284023,5.74701801 9.92666748,6.44875282 9.92666748,7.31438656 L9.92666748,14.6287731 C9.92666748,15.4944069 10.6284023,16.1961417 11.494036,16.1961417 Z M17.241054,15.1512293 L13.0614046,15.1512293 L13.0614046,14.367545 C13.0614046,13.9347282 13.412272,13.5838608 13.8450889,13.5838608 L16.4573698,13.5838608 C16.8901866,13.5838608 17.241054,13.9347282 17.241054,14.367545 L17.241054,15.1512293 Z M10.9715798,7.31438656 C10.9715798,7.02584198 11.2054914,6.79193038 11.494036,6.79193038 L18.8084226,6.79193038 C19.0969672,6.79193038 19.3308788,7.02584198 19.3308788,7.31438656 L19.3308788,14.6287731 C19.3308788,14.9173177 19.0969672,15.1512293 18.8084226,15.1512293 L18.2859664,15.1512293 L18.2859664,14.367545 C18.2859664,13.357639 17.4672758,12.5389484 16.4573698,12.5389484 L13.8450889,12.5389484 C12.8351828,12.5389484 12.0164922,13.357639 12.0164922,14.367545 L12.0164922,15.1512293 L11.494036,15.1512293 C11.2054914,15.1512293 10.9715798,14.9173177 10.9715798,14.6287731 L10.9715798,7.31438656 Z" id="Shape"></path>
            </g>
            <g id="delivery" transform="translate(932.000000, 21.000000)" fill-rule="nonzero" fill="#2D2926">
                <path d="M15.3758855,4.90586356 L31.049571,4.90586356 C31.3381155,4.90586356 31.5720271,4.67195196 31.5720271,4.38340738 C31.5720271,4.09486279 31.3381155,3.86095119 31.049571,3.86095119 L15.3758855,3.86095119 C15.0873409,3.86095119 14.8534293,4.09486279 14.8534293,4.38340738 C14.8534293,4.67195196 15.0873409,4.90586356 15.3758855,4.90586356 L15.3758855,4.90586356 Z" id="Shape"></path>
                <path d="M15.3758855,8.04060066 L36.2741328,8.04060066 C36.5626774,8.04060066 36.796589,7.80668906 36.796589,7.51814448 C36.796589,7.22959989 36.5626774,6.99568829 36.2741328,6.99568829 L15.3758855,6.99568829 C15.0873409,6.99568829 14.8534293,7.22959989 14.8534293,7.51814448 C14.8534293,7.80668906 15.0873409,8.04060066 15.3758855,8.04060066 Z" id="Shape"></path>
                <path d="M31.049571,34.9261958 L15.3758855,34.9261958 C15.0873409,34.9261958 14.8534293,35.1601074 14.8534293,35.448652 C14.8534293,35.7371966 15.0873409,35.9711082 15.3758855,35.9711082 L31.049571,35.9711082 C31.3381155,35.9711082 31.5720271,35.7371966 31.5720271,35.448652 C31.5720271,35.1601074 31.3381155,34.9261958 31.049571,34.9261958 Z" id="Shape"></path>
                <path d="M27.3923777,38.0609329 L15.3758855,38.0609329 C15.0873409,38.0609329 14.8534293,38.2948445 14.8534293,38.5833891 C14.8534293,38.8719337 15.0873409,39.1058453 15.3758855,39.1058453 L27.3923777,39.1058453 C27.6809223,39.1058453 27.9148339,38.8719337 27.9148339,38.5833891 C27.9148339,38.2948445 27.6809223,38.0609329 27.3923777,38.0609329 Z" id="Shape"></path>
                <path d="M21.6453597,41.19567 L15.3758855,41.19567 C15.0873409,41.19567 14.8534293,41.4295816 14.8534293,41.7181262 C14.8534293,42.0066708 15.0873409,42.2405824 15.3758855,42.2405824 L21.6453597,42.2405824 C21.9339043,42.2405824 22.1678159,42.0066708 22.1678159,41.7181262 C22.1678159,41.4295816 21.9339043,41.19567 21.6453597,41.19567 Z" id="Shape"></path>
                <path d="M46.2739441,20.8982473 L31.645171,20.8982473 C31.3566264,20.8982473 31.1227148,21.1321589 31.1227148,21.4207035 C31.1227148,21.7092481 31.3566264,21.9431597 31.645171,21.9431597 L46.2739441,21.9431597 C46.5624887,21.9431597 46.7964003,21.7092481 46.7964003,21.4207035 C46.7964003,21.1321589 46.5624887,20.8982473 46.2739441,20.8982473 Z" id="Shape"></path>
                <path d="M43.139207,24.0329844 L31.645171,24.0329844 C31.3566264,24.0329844 31.1227148,24.266896 31.1227148,24.5554406 C31.1227148,24.8439852 31.3566264,25.0778968 31.645171,25.0778968 L43.139207,25.0778968 C43.4277516,25.0778968 43.6616632,24.8439852 43.6616632,24.5554406 C43.6616632,24.266896 43.4277516,24.0329844 43.139207,24.0329844 Z" id="Shape"></path>
                <path d="M27.7842198,16.6872505 L21.6871562,22.7843141 L20.0257455,21.1229035 C19.7169637,20.8351776 19.2357816,20.8436675 18.937342,21.1421071 C18.6389024,21.4405467 18.6304125,21.9217288 18.9181384,22.2305106 L21.6871562,24.9995284 L28.8918269,17.7948576 C29.1795528,17.4860758 29.1710629,17.0048937 28.8726233,16.7064541 C28.5741837,16.4080145 28.0930016,16.3995246 27.7842198,16.6872505 L27.7842198,16.6872505 Z" id="Shape"></path>
                <path d="M3.7512354,4.89018987 C3.4424536,4.602464 2.96127149,4.61095389 2.6628319,4.90939348 C2.36439231,5.20783308 2.35590241,5.68901519 2.64362829,5.99779698 L5.41264606,8.76681475 L12.6173168,1.56736855 C12.8161051,1.36671376 12.8927449,1.07524883 12.8183669,0.80276578 C12.7439888,0.530282728 12.5298927,0.31817821 12.2567265,0.246349945 C11.9835602,0.174521681 11.6928243,0.253882092 11.494036,0.454536879 L5.41787062,6.55160054 L3.7512354,4.89018987 Z" id="Shape"></path>
                <path d="M10.6110851,34.2783502 L17.4030155,27.627483 C17.6131897,27.7292854 17.8434566,27.7828359 18.0769839,27.7842198 L25.3913705,27.7842198 C26.2570042,27.7842198 26.9587391,27.082485 26.9587391,26.2168513 L26.9587391,22.5283106 C26.9587391,22.239766 26.7248275,22.0058544 26.4362829,22.0058544 C26.1477383,22.0058544 25.9138267,22.239766 25.9138267,22.5283106 L25.9138267,26.2168513 C25.9138267,26.5053959 25.6799151,26.7393075 25.3913705,26.7393075 L18.0769839,26.7393075 C17.7884394,26.7393075 17.5545278,26.5053959 17.5545278,26.2168513 L17.5545278,18.9024647 C17.5545278,18.6139201 17.7884394,18.3800085 18.0769839,18.3800085 L24.1374757,18.3800085 C24.4260202,18.3800085 24.6599318,18.1460969 24.6599318,17.8575523 C24.6599318,17.5690078 24.4260202,17.3350962 24.1374757,17.3350962 L18.0665348,17.3350962 C17.8447602,17.3361234 17.6257284,17.3842035 17.4239137,17.4761593 L10.5431658,10.6058605 C10.6261989,10.4109476 10.6688545,10.2012241 10.6685553,9.98936222 L10.6685553,6.30082157 C10.6685553,6.01227699 10.4346437,5.77836539 10.1460991,5.77836539 C9.85755449,5.77836539 9.62364289,6.01227699 9.62364289,6.30082157 L9.62364289,9.98936222 C9.62364289,10.2779068 9.38973129,10.5118184 9.10118671,10.5118184 L1.78680015,10.5118184 C1.49825556,10.5118184 1.26434396,10.2779068 1.26434396,9.98936222 L1.26434396,2.67497566 C1.26434396,2.38643108 1.49825556,2.15251947 1.78680015,2.15251947 L7.83684275,2.15251947 C8.12538733,2.15251947 8.35929893,1.91860787 8.35929893,1.63006329 C8.35929893,1.34151871 8.12538733,1.10760711 7.83684275,1.10760711 L1.79202471,1.10760711 C0.926390961,1.10760711 0.224656159,1.80934191 0.224656159,2.67497566 L0.224656159,9.98936222 C0.224656159,10.854996 0.926390961,11.5567308 1.79202471,11.5567308 L9.10641127,11.5567308 C9.36191006,11.5545917 9.61301207,11.4900226 9.83784993,11.3686465 L16.6663522,18.207598 C16.5552586,18.4243928 16.4962266,18.6640983 16.4939417,18.9076893 L16.4939417,26.2220758 C16.4961001,26.4538372 16.549631,26.6822355 16.6506786,26.8908197 L9.85874818,33.5364624 L9.85874818,33.5678098 C9.62758223,33.4367722 9.3668966,33.3666568 9.10118671,33.3640519 L1.78680015,33.3640519 C0.921166399,33.3640519 0.219431597,34.0657867 0.219431597,34.9314204 L0.219431597,42.245807 C0.219431597,43.1114407 0.921166399,43.8131755 1.78680015,43.8131755 L9.10118671,43.8131755 C9.96682046,43.8131755 10.6685553,43.1114407 10.6685553,42.245807 L10.6685553,34.9314204 C10.6681513,34.7213179 10.6255099,34.513441 10.5431658,34.3201467 C10.5669012,34.3080788 10.5896158,34.2941005 10.6110851,34.2783502 Z M9.62364289,42.2405824 C9.62364289,42.529127 9.38973129,42.7630386 9.10118671,42.7630386 L1.78680015,42.7630386 C1.49825556,42.7630386 1.26434396,42.529127 1.26434396,42.2405824 L1.26434396,34.9261958 C1.26434396,34.6376513 1.49825556,34.4037397 1.78680015,34.4037397 L9.10118671,34.4037397 C9.38973129,34.4037397 9.62364289,34.6376513 9.62364289,34.9261958 L9.62364289,42.2405824 Z" id="Shape"></path>
            </g>
            <g id="events" transform="translate(804.000000, 29.000000)">
                <rect id="Rectangle-path" x="13.5838608" y="19.9473771" width="5.74701801" height="5.22456183"></rect>
                <rect id="Rectangle-path" x="13.5838608" y="13.6779029" width="5.74701801" height="5.22456183"></rect>
                <rect id="Rectangle-path" x="20.3757911" y="19.9473771" width="5.74701801" height="5.22456183"></rect>
                <rect id="Rectangle-path" x="20.3757911" y="13.6779029" width="5.74701801" height="5.22456183"></rect>
                <rect id="Rectangle-path" x="27.1677215" y="13.6779029" width="5.74701801" height="5.22456183"></rect>
                <rect id="Rectangle-path" x="13.5838608" y="26.2168513" width="5.74701801" height="5.22456183"></rect>
                <rect id="Rectangle-path" x="27.1677215" y="19.9473771" width="5.74701801" height="5.22456183"></rect>
                <polygon id="Shape" points="32.0997079 35.3284871 36.7652416 30.6577288 32.0997079 30.668178"></polygon>
                <rect id="Rectangle-path" x="6.79193038" y="13.6779029" width="5.74701801" height="5.22456183"></rect>
                <path d="M1.82859664,36.164417 C1.83131091,36.2309478 1.86037282,36.2936679 1.90937563,36.3387505 C1.95837845,36.383833 2.02329873,36.4075766 2.08982473,36.4047468 L30.5323393,36.4047468 L30.5323393,29.8897182 C30.5323393,29.4569014 30.8832067,29.106034 31.3160236,29.106034 L37.8780733,29.106034 L37.8780733,8.35929893 L1.82859664,8.35929893 L1.82859664,36.164417 Z M5.74701801,26.2377495 L5.74701801,12.6538888 L33.9596519,12.6538888 L33.9596519,26.2377495 L20.3757911,26.2377495 L20.3757911,32.5072237 L5.74701801,32.5072237 L5.74701801,26.2377495 Z" id="Shape"></path>
                <path d="M37.6168452,3.39596519 L32.1258307,3.39596519 L32.1258307,4.44087756 C32.1258307,4.87369443 31.7749633,5.22456183 31.3421464,5.22456183 C30.9093296,5.22456183 30.5584622,4.87369443 30.5584622,4.44087756 L30.5584622,3.39596519 L24.4666231,3.39596519 L24.4666231,4.44087756 C24.4666231,4.87369443 24.1157557,5.22456183 23.6829388,5.22456183 C23.2501219,5.22456183 22.8992545,4.87369443 22.8992545,4.44087756 L22.8992545,3.39596519 L16.8074154,3.39596519 L16.8074154,4.44087756 C16.8074154,4.87369443 16.456548,5.22456183 16.0237311,5.22456183 C15.5909143,5.22456183 15.2400469,4.87369443 15.2400469,4.44087756 L15.2400469,3.39596519 L9.14820777,3.39596519 L9.14820777,4.44087756 C9.14820777,4.87369443 8.79734037,5.22456183 8.36452349,5.22456183 C7.93170662,5.22456183 7.58083922,4.87369443 7.58083922,4.44087756 L7.58083922,3.39596519 L2.08982473,3.39596519 C1.95321399,3.3900084 1.83701312,3.49458919 1.82859664,3.63107047 L1.82859664,7.28826376 L37.8780733,7.28826376 L37.8780733,3.65719328 C37.8810628,3.58703748 37.8545019,3.51884194 37.8048492,3.46918928 C37.7551965,3.41953662 37.687001,3.39297571 37.6168452,3.39596519 Z" id="Shape"></path>
                <rect id="Rectangle-path" x="6.79193038" y="19.9473771" width="5.74701801" height="5.22456183"></rect>
                <rect id="Rectangle-path" x="6.79193038" y="26.2168513" width="5.74701801" height="5.22456183"></rect>
                <path d="M37.6168452,1.82859664 L32.1258307,1.82859664 L32.1258307,0.783684275 C32.1258307,0.350867401 31.7749633,-7.10542736e-15 31.3421464,-7.10542736e-15 C30.9093296,-7.10542736e-15 30.5584622,0.350867401 30.5584622,0.783684275 L30.5584622,1.82859664 L24.4666231,1.82859664 L24.4666231,0.783684275 C24.4666231,0.350867401 24.1157557,-7.10542736e-15 23.6829388,-7.10542736e-15 C23.2501219,-7.10542736e-15 22.8992545,0.350867401 22.8992545,0.783684275 L22.8992545,1.82859664 L16.8074154,1.82859664 L16.8074154,0.783684275 C16.8074154,0.350867401 16.456548,-7.10542736e-15 16.0237311,-7.10542736e-15 C15.5909143,-7.10542736e-15 15.2400469,0.350867401 15.2400469,0.783684275 L15.2400469,1.82859664 L9.14820777,1.82859664 L9.14820777,0.783684275 C9.14820777,0.350867401 8.79734037,-7.10542736e-15 8.36452349,-7.10542736e-15 C7.93170662,-7.10542736e-15 7.58083922,0.350867401 7.58083922,0.783684275 L7.58083922,1.82859664 L2.08982473,1.82859664 C1.60399772,1.82579642 1.13725825,2.01755224 0.79372097,2.36108952 C0.450183688,2.7046268 0.258427866,3.17136627 0.261228092,3.65719328 L0.261228092,36.164417 C0.263991422,36.6466222 0.458200945,37.1079789 0.801131072,37.4469898 C1.1440612,37.7860007 1.60761963,37.9748946 2.08982473,37.9721154 L31.347371,37.9721154 C31.555147,37.9719325 31.7543462,37.889246 31.9011745,37.7422347 L39.2155611,30.4278481 C39.3625724,30.2810198 39.4452589,30.0818205 39.4454418,29.8740446 L39.4454418,3.65719328 C39.4482421,3.17136627 39.2564862,2.7046268 38.912949,2.36108952 C38.5694117,2.01755224 38.1026722,1.82579642 37.6168452,1.82859664 Z M32.0997079,35.3284871 L32.0997079,30.668178 L36.7652416,30.668178 L32.0997079,35.3284871 Z M37.8728487,29.0903603 L31.3107991,29.0903603 C30.8779822,29.0903603 30.5271148,29.4412277 30.5271148,29.8740446 L30.5271148,36.4047468 L2.08982473,36.4047468 C2.02329873,36.4075766 1.95837845,36.383833 1.90937563,36.3387505 C1.86037282,36.2936679 1.83131091,36.2309478 1.82859664,36.164417 L1.82859664,8.35929893 L37.8780733,8.35929893 L37.8728487,29.0903603 Z M37.8780733,7.31438656 L1.82859664,7.31438656 L1.82859664,3.65719328 C1.83701312,3.520712 1.95321399,3.41613121 2.08982473,3.422088 L7.58083922,3.422088 L7.58083922,4.46700037 C7.58083922,4.89981724 7.93170662,5.25068464 8.36452349,5.25068464 C8.79734037,5.25068464 9.14820777,4.89981724 9.14820777,4.46700037 L9.14820777,3.422088 L15.2400469,3.422088 L15.2400469,4.46700037 C15.2400469,4.89981724 15.5909143,5.25068464 16.0237311,5.25068464 C16.456548,5.25068464 16.8074154,4.89981724 16.8074154,4.46700037 L16.8074154,3.422088 L22.8992545,3.422088 L22.8992545,4.46700037 C22.8992545,4.89981724 23.2501219,5.25068464 23.6829388,5.25068464 C24.1157557,5.25068464 24.4666231,4.89981724 24.4666231,4.46700037 L24.4666231,3.422088 L30.5584622,3.422088 L30.5584622,4.46700037 C30.5584622,4.89981724 30.9093296,5.25068464 31.3421464,5.25068464 C31.7749633,5.25068464 32.1258307,4.89981724 32.1258307,4.46700037 L32.1258307,3.422088 L37.6168452,3.422088 C37.7534559,3.41613121 37.8696568,3.520712 37.8780733,3.65719328 L37.8780733,7.31438656 Z" id="Shape" fill="#2D2926" fill-rule="nonzero"></path>
                <path d="M13.5838608,32.4863255 L20.3757911,32.4863255 L20.3757911,26.2168513 L33.9596519,26.2168513 L33.9596519,12.6329905 L5.74701801,12.6329905 L5.74701801,32.4863255 L13.5838608,32.4863255 Z M27.1677215,13.6779029 L32.9147395,13.6779029 L32.9147395,18.9024647 L27.1677215,18.9024647 L27.1677215,13.6779029 Z M27.1677215,19.9473771 L32.9147395,19.9473771 L32.9147395,25.1719389 L27.1677215,25.1719389 L27.1677215,19.9473771 Z M20.3757911,13.6779029 L26.1228092,13.6779029 L26.1228092,18.9024647 L20.3757911,18.9024647 L20.3757911,13.6779029 Z M20.3757911,19.9473771 L26.1228092,19.9473771 L26.1228092,25.1719389 L20.3757911,25.1719389 L20.3757911,19.9473771 Z M13.5838608,13.6779029 L19.3308788,13.6779029 L19.3308788,18.9024647 L13.5838608,18.9024647 L13.5838608,13.6779029 Z M13.5838608,19.9473771 L19.3308788,19.9473771 L19.3308788,25.1719389 L13.5838608,25.1719389 L13.5838608,19.9473771 Z M13.5838608,26.2168513 L19.3308788,26.2168513 L19.3308788,31.4414131 L13.5838608,31.4414131 L13.5838608,26.2168513 Z M6.79193038,13.6779029 L12.5389484,13.6779029 L12.5389484,18.9024647 L6.79193038,18.9024647 L6.79193038,13.6779029 Z M6.79193038,19.9473771 L12.5389484,19.9473771 L12.5389484,25.1719389 L6.79193038,25.1719389 L6.79193038,19.9473771 Z M6.79193038,26.2168513 L12.5389484,26.2168513 L12.5389484,31.4414131 L6.79193038,31.4414131 L6.79193038,26.2168513 Z" id="Shape" fill="#2D2926" fill-rule="nonzero"></path>
            </g>
            <g id="freelancer" transform="translate(116.000000, 117.000000)" fill-rule="nonzero" fill="#2D2926">
                <path d="M29.0642375,10.8566395 C32.0622157,10.8566395 34.4925572,8.42629795 34.4925572,5.42831974 C34.4925572,2.43034153 32.0622157,0 29.0642375,0 C26.0662593,0 23.6359177,2.43034153 23.6359177,5.42831974 C23.6387979,8.42510415 26.0674531,10.8537593 29.0642375,10.8566395 L29.0642375,10.8566395 Z M29.0642375,1.56736855 C31.1965819,1.56736855 32.9251887,3.29597528 32.9251887,5.42831974 C32.9251887,7.56066421 31.1965819,9.28927094 29.0642375,9.28927094 C26.931893,9.28927094 25.2032863,7.56066421 25.2032863,5.42831974 C25.2061643,3.29716852 26.9330862,1.57024654 29.0642375,1.56736855 L29.0642375,1.56736855 Z" id="Shape"></path>
                <path d="M29.0642375,26.7549811 C27.8068672,26.757865 26.7896342,27.7789931 26.7915557,29.0363652 C26.7934772,30.2937372 27.8138264,31.3117515 29.0711996,31.3107924 C30.3285727,31.3098333 31.3473677,30.2902636 31.347371,29.0328901 C31.3444902,27.7739911 30.3231398,26.7549778 29.0642375,26.7549811 Z M29.0642375,30.2658867 C28.3839598,30.2630041 27.8345507,29.7097029 27.8364703,29.0294218 C27.83839,28.3491408 28.3909131,27.798949 29.0711962,27.7999058 C29.7514793,27.8008626 30.3024525,28.3526063 30.3024586,29.0328901 C30.3024616,29.3608084 30.17184,29.6752202 29.9394771,29.9066027 C29.7071142,30.1379852 29.3921528,30.2672762 29.0642375,30.2658867 Z" id="Shape"></path>
                <path d="M57.5172012,32.5437956 L54.9414922,32.5437956 L54.9414922,30.6263815 C54.9414922,29.7607477 54.2397574,29.0590129 53.3741237,29.0590129 L51.9791657,29.0590129 C51.1135319,29.0590129 50.4117971,29.7607477 50.4117971,30.6263815 L50.1557936,30.6263815 C49.2278708,30.6292499 48.4763531,31.3807675 48.4734847,32.3086904 C48.4671866,32.3921647 48.4671866,32.475995 48.4734847,32.5594693 L45.6469967,32.5594693 L45.6469967,20.1354613 C45.6469967,19.1255553 44.8283061,18.3068647 43.8184001,18.3068647 L40.3806384,18.3068647 L40.3806384,17.1417874 C40.3777597,14.7711443 38.4566916,12.8500763 36.0860486,12.8471975 L22.0424264,12.8471975 C19.6779066,12.8586882 17.7663554,14.7772414 17.7635102,17.1417874 L17.7635102,18.2859664 L14.3100749,18.2859664 C13.3001688,18.2859664 12.4814782,19.104657 12.4814782,20.1145631 L12.4814782,32.5437956 L8.30182875,32.5437956 C8.29608415,31.9427799 7.805707,31.4594081 7.20467077,31.4623114 L6.9120953,31.4623114 L6.9120953,30.8771604 C6.8856546,29.8404152 7.69904198,28.9757542 8.73546738,28.938848 C9.0221732,28.9192905 9.23926024,28.671858 9.22135163,28.3850444 C9.21328277,28.2463891 9.15033655,28.1166531 9.04642083,28.0245015 C8.94250512,27.9323498 8.80617345,27.8853676 8.66754808,27.8939356 C8.02930934,27.9431107 7.41925973,28.1773262 6.9120953,28.5679041 L6.9120953,26.3944864 C6.9120953,24.4822967 8.80861125,23.7351844 8.88697968,23.703837 C9.15676883,23.6014037 9.29243753,23.2996577 9.19000421,23.0298686 C9.08757089,22.7600794 8.78582496,22.6244107 8.51603579,22.726844 C7.91215333,22.9769559 7.36618793,23.3486392 6.9120953,23.8187774 L6.9120953,23.1500335 C6.9120953,18.8188717 9.52437622,17.491833 9.63409202,17.4395874 C9.89522486,17.3155132 10.0063329,17.0032412 9.8822587,16.7421084 C9.75818453,16.4809755 9.44591255,16.3698675 9.1847797,16.4939417 C8.25548173,17.0129574 7.48858117,17.7798579 6.96956548,18.7091559 C6.69328563,18.2208459 6.32411111,17.7913256 5.88285662,17.444812 C5.65057823,17.2630289 5.31491509,17.3039634 5.133132,17.5362418 C4.95134891,17.7685202 4.99228344,18.1041833 5.22456183,18.2859664 C5.75011788,18.7231135 6.14583942,19.2959159 6.36874087,19.9421525 C6.15325834,20.550915 6.00606798,21.1817308 5.92987768,21.8229948 C5.40965483,21.1687097 4.66482676,20.7311232 3.84005295,20.5952227 C3.70284701,20.5742515 3.56293547,20.608739 3.45119423,20.6910747 C3.33945299,20.7734103 3.26506737,20.8968259 3.2444529,21.0340859 C3.20869971,21.3057121 3.38884081,21.5588217 3.65719328,21.6140123 C5.10439691,21.8334439 5.71567064,23.4373844 5.82016188,23.7560826 L5.82016188,26.6086934 C5.12615191,25.8835293 4.16459825,25.475483 3.16085991,25.4801881 C2.87231533,25.4801881 2.63840372,25.7140997 2.63840372,26.0026442 C2.63840372,26.2911888 2.87231533,26.5251004 3.16085991,26.5251004 C4.87974075,26.5251004 5.65820046,28.0506725 5.82016188,28.4216164 L5.82016188,31.4518622 L4.97378286,31.4518622 C4.37274663,31.448959 3.88236948,31.9323307 3.87662488,32.5333465 L0.99789131,32.5333465 C0.709346727,32.5333465 0.475435127,32.7672581 0.475435127,33.0558027 C0.475435127,33.3443473 0.709346727,33.5782589 0.99789131,33.5782589 L3.95499331,33.5782589 L4.35728457,38.4214277 C4.4084468,38.9900869 4.88349486,39.4266787 5.45444255,39.4297681 L6.70311283,39.4297681 C7.27406052,39.4266787 7.74910858,38.9900869 7.80027081,38.4214277 L8.20256208,33.5782589 L12.4814782,33.5782589 L12.4814782,37.2354522 C12.4814782,38.2453582 13.3001688,39.0640488 14.3100749,39.0640488 L43.8184001,39.0640488 C44.8283061,39.0640488 45.6469967,38.2453582 45.6469967,37.2354522 L45.6469967,33.5782589 L49.0011654,33.5782589 C49.0272465,33.5803465 49.0534527,33.5803465 49.0795338,33.5782589 C49.3821873,33.8281515 49.7633235,33.9632143 50.1557936,33.9596519 L50.4692673,33.9596519 C50.65318,34.6426887 51.271804,35.1178947 51.9791657,35.1195046 L53.3741237,35.1195046 C54.2397574,35.1195046 54.9414922,34.4177698 54.9414922,33.5521361 L57.5172012,33.5521361 C57.8057458,33.5521361 58.0396574,33.3182245 58.0396574,33.0296799 C58.0396574,32.7411353 57.8057458,32.5072237 57.5172012,32.5072237 L57.5172012,32.5437956 Z M6.76058301,38.3482838 C6.75787354,38.3779674 6.73291954,38.4006529 6.70311283,38.4005295 L5.45444255,38.4005295 C5.42463585,38.4006529 5.39968184,38.3779674 5.39697237,38.3482838 L5.06782498,34.4298625 L7.07928128,34.4298625 L6.76058301,38.3482838 Z M7.17332339,33.3849501 L4.98423199,33.3849501 L4.91631268,32.5646939 L7.2412427,32.5646939 L7.17332339,33.3849501 Z M19.3308788,17.1417874 C19.3337537,15.6367771 20.5530898,14.417441 22.0581001,14.4145661 L36.0860486,14.4145661 C37.5910589,14.417441 38.8103949,15.6367771 38.8132698,17.1417874 L38.8132698,18.2859664 L19.3308788,18.2859664 L19.3308788,17.1417874 Z M44.0953019,37.2459013 C44.0925223,37.3890065 43.9771789,37.5043499 43.8340738,37.5071294 L14.3100749,37.5071294 C14.1669697,37.5043499 14.0516263,37.3890065 14.0488468,37.2459013 L14.0488468,20.1354613 C14.0516263,19.9923561 14.1669697,19.8770127 14.3100749,19.8742332 L43.8184001,19.8742332 C43.9615052,19.8770127 44.0768487,19.9923561 44.0796282,20.1354613 L44.0953019,37.2459013 Z M50.4117971,32.9147395 L50.1557936,32.9147395 C49.8023265,32.9147395 49.5157848,32.6281978 49.5157848,32.2747307 C49.5157848,31.9212636 49.8023265,31.6347219 50.1557936,31.6347219 L50.4065726,31.6347219 L50.4117971,32.9147395 Z M53.8965799,33.5521361 C53.8965799,33.8406807 53.6626683,34.0745923 53.3741237,34.0745923 L51.9791657,34.0745923 C51.6906211,34.0745923 51.4567095,33.8406807 51.4567095,33.5521361 L51.4567095,30.6263815 C51.4567095,30.3378369 51.6906211,30.1039253 51.9791657,30.1039253 L53.3741237,30.1039253 C53.6626683,30.1039253 53.8965799,30.3378369 53.8965799,30.6263815 L53.8965799,33.5521361 Z" id="Shape"></path>
                <path d="M52.0209622,27.4550724 C52.0209622,27.743617 52.2548738,27.9775286 52.5434183,27.9775286 C52.8319629,27.9775286 53.0658745,27.743617 53.0658745,27.4550724 C53.0663763,27.1407241 53.2083701,26.8433046 53.4524921,26.6452653 C53.8644725,26.2510352 54.0974728,25.705582 54.0974728,25.135367 C54.0974728,24.5651519 53.8644725,24.0196987 53.4524921,23.6254686 C53.2083701,23.4274293 53.0663763,23.1300098 53.0658745,22.8156615 C53.0658745,22.5271169 52.8319629,22.2932053 52.5434183,22.2932053 C52.2548738,22.2932053 52.0209622,22.5271169 52.0209622,22.8156615 C52.0244299,23.3878593 52.2623687,23.9336077 52.6792569,24.3255599 C52.9245261,24.5239465 53.0670418,24.8225205 53.0670418,25.1379793 C53.0670418,25.453438 52.9245261,25.752012 52.6792569,25.9503986 C52.2636768,26.3411011 52.0258548,26.8846941 52.0209622,27.4550724 L52.0209622,27.4550724 Z" id="Shape"></path>
            </g>
            <g id="client-services" transform="translate(859.000000, 82.000000)" fill-rule="nonzero" fill="#2D2926">
                <path d="M44.2833861,13.2965099 C44.2255868,13.1677803 44.1181736,13.0679049 43.9855861,13.0196081 L38.238568,10.9297834 L38.238568,5.37607412 C38.238568,5.08752954 38.0046564,4.85361794 37.7161119,4.85361794 L22.4185948,4.85361794 L20.4541596,0.590375487 C20.3334904,0.330239421 20.0256994,0.215983643 19.7645174,0.334371957 L3.18698272,7.83684275 C3.06067163,7.89479579 2.96265436,8.00068441 2.9146112,8.13108725 C2.86656805,8.2614901 2.87245833,8.40566045 2.93097919,8.53170947 L5.25068464,13.5838608 L1.20164922,14.5504047 C0.924840205,14.6176001 0.752871394,14.8941445 0.815031646,15.1721276 L2.11594754,20.9191456 C1.12749448,20.9607778 0.344611661,21.7689149 0.334371957,22.7581913 L0.334371957,49.3198637 C0.331557647,49.8204591 0.529532856,50.3012908 0.884003488,50.6547795 C1.23847412,51.0082682 1.71985308,51.2049089 2.22043878,51.200706 L40.7515823,51.200706 C41.7805341,51.2065184 42.6209441,50.3801152 42.6324245,49.3512111 L42.6324245,22.7634159 C42.6337878,22.2666073 42.4317924,21.7908799 42.0733964,21.4468263 C41.8933244,21.2722722 41.680162,21.1354929 41.446449,21.0445351 L44.2781615,13.6988011 C44.3335351,13.570778 44.3354162,13.4259279 44.2833861,13.2965099 Z M37.1727574,20.8982473 L34.0380203,20.8982473 L34.0380203,11.5567308 C34.0380203,11.2681862 33.8041087,11.0342746 33.5155642,11.0342746 L19.4092472,11.0342746 L19.4092472,5.89853031 L37.1727574,5.89853031 L37.1727574,20.8982473 Z M32.993108,12.0635133 L32.993108,20.8982473 L15.2295977,20.8982473 L15.2295977,12.079187 L32.993108,12.0635133 Z M19.7227209,1.49944925 L21.2900895,4.85361794 L18.886791,4.85361794 C18.5982464,4.85361794 18.3643348,5.08752954 18.3643348,5.37607412 L18.3643348,11.0342746 L14.7071416,11.0342746 C14.418597,11.0342746 14.1846854,11.2681862 14.1846854,11.5567308 L14.1846854,20.8982473 L13.7301485,20.8982473 C13.5081031,20.6688747 13.3021164,20.4244838 13.1136502,20.1668087 C12.5389484,19.4249209 12.0844115,18.8084226 11.3895448,18.8084226 L8.77726388,18.8084226 L4.07515823,8.61530246 L19.7227209,1.49944925 Z M5.61640397,14.5608538 C5.63802965,14.5519277 5.65898241,14.5414513 5.67909871,14.5295065 L7.64353396,18.8084226 L6.98001461,18.8084226 C6.28514788,18.8084226 5.80448819,19.4458191 5.25068464,20.1877069 C5.06311402,20.4380119 4.85889372,20.6753962 4.63941091,20.8982473 L3.18698272,20.8982473 L1.94876156,15.4542539 L5.61640397,14.5608538 Z M41.0807297,49.3094146 C41.0695552,49.472671 40.9307835,49.5975656 40.767256,49.5915409 L2.22043878,49.5915409 C2.05492323,49.6004927 1.91293016,49.4747939 1.90174051,49.3094146 L1.90174051,22.7634159 C1.91293016,22.5980366 2.05492323,22.4723378 2.22043878,22.4812896 L4.77524951,22.4812896 C5.47011624,22.4812896 5.95077593,21.843893 6.50457948,21.1020052 C6.69330137,20.8461771 6.89928037,20.6035408 7.12107778,20.3757911 L11.2484816,20.3757911 C11.4686208,20.605433 11.672852,20.8498123 11.8597554,21.1072298 C12.4135589,21.843893 12.888994,22.4656159 13.5838608,22.4656159 L40.7515823,22.4656159 C40.8368195,22.4643359 40.9192289,22.4961759 40.981463,22.5544334 C41.0338928,22.6030464 41.0641055,22.671025 41.065056,22.7425177 L41.0807297,49.3094146 Z M40.3963121,20.8982473 L38.2176698,20.8982473 L38.2176698,12.0164922 L43.1339825,13.7928432 L40.3963121,20.8982473 Z" id="Shape"></path>
                <path d="M23.0664405,26.4049355 L6.34784263,26.4049355 C6.05929804,26.4049355 5.82538644,26.6388471 5.82538644,26.9273917 C5.82538644,27.2159363 6.05929804,27.4498479 6.34784263,27.4498479 L23.0664405,27.4498479 C23.3549851,27.4498479 23.5888967,27.2159363 23.5888967,26.9273917 C23.5888967,26.6388471 23.3549851,26.4049355 23.0664405,26.4049355 Z" id="Shape"></path>
                <path d="M16.7969663,29.5396726 L6.34784263,29.5396726 C6.05929804,29.5396726 5.82538644,29.7735842 5.82538644,30.0621288 C5.82538644,30.3506734 6.05929804,30.584585 6.34784263,30.584585 L16.7969663,30.584585 C17.0855109,30.584585 17.3194225,30.3506734 17.3194225,30.0621288 C17.3194225,29.7735842 17.0855109,29.5396726 16.7969663,29.5396726 Z" id="Shape"></path>
                <path d="M12.6173168,32.6744097 L6.34784263,32.6744097 C6.05929804,32.6744097 5.82538644,32.9083213 5.82538644,33.1968659 C5.82538644,33.4854105 6.05929804,33.7193221 6.34784263,33.7193221 L12.6173168,33.7193221 C12.9058614,33.7193221 13.139773,33.4854105 13.139773,33.1968659 C13.139773,32.9083213 12.9058614,32.6744097 12.6173168,32.6744097 Z" id="Shape"></path>
                <path d="M31.942971,37.5437013 C30.7887927,37.5437013 29.8531463,38.4793477 29.8531463,39.6335261 C29.8531463,40.7877044 30.7887927,41.7233508 31.942971,41.7233508 C33.0971494,41.7233508 34.0327958,40.7877044 34.0327958,39.6335261 C34.0327958,38.4793477 33.0971494,37.5437013 31.942971,37.5437013 Z M31.942971,40.6784384 C31.3658819,40.6784384 30.8980587,40.2106152 30.8980587,39.6335261 C30.8980587,39.0564369 31.3658819,38.5886137 31.942971,38.5886137 C32.5200602,38.5886137 32.9878834,39.0564369 32.9878834,39.6335261 C32.9878834,40.2106152 32.5200602,40.6784384 31.942971,40.6784384 Z" id="Shape"></path>
                <path d="M35.6053889,35.2501187 L28.2910023,35.2501187 C27.4253686,35.2501187 26.7236338,35.9518535 26.7236338,36.8174872 L26.7236338,44.1318738 C26.7236338,44.9975075 27.4253686,45.6992423 28.2910023,45.6992423 L35.6053889,45.6992423 C36.4710226,45.6992423 37.1727574,44.9975075 37.1727574,44.1318738 L37.1727574,36.8174872 C37.1727574,35.9518535 36.4710226,35.2501187 35.6053889,35.2501187 Z M34.0380203,44.65433 L29.8583709,44.65433 L29.8583709,43.8863194 C29.8583709,43.4535025 30.2092383,43.1026351 30.6420551,43.1026351 L33.2543361,43.1026351 C33.6871529,43.1026351 34.0380203,43.4535025 34.0380203,43.8863194 L34.0380203,44.65433 Z M36.1278451,44.1318738 C36.1278451,44.4204184 35.8939335,44.65433 35.6053889,44.65433 L35.0829327,44.65433 L35.0829327,43.8863194 C35.0829327,42.8764133 34.2642421,42.0577227 33.2543361,42.0577227 L30.6420551,42.0577227 C29.6321491,42.0577227 28.8134585,42.8764133 28.8134585,43.8863194 L28.8134585,44.6700037 L28.2910023,44.6700037 C28.0024577,44.6700037 27.7685461,44.4360921 27.7685461,44.1475475 L27.7685461,36.8331609 C27.7685461,36.5446163 28.0024577,36.3107047 28.2910023,36.3107047 L35.6053889,36.3107047 C35.8939335,36.3107047 36.1278451,36.5446163 36.1278451,36.8331609 L36.1278451,44.1318738 Z" id="Shape"></path>
            </g>
            <g id="video-motion" transform="translate(932.000000, 117.000000)" fill-rule="nonzero" fill="#2D2926">
                <path d="M38.3796312,16.3215312 C39.5338095,16.3215312 40.4694559,15.3858848 40.4694559,14.2317064 C40.4694559,13.0775281 39.5338095,12.1418817 38.3796312,12.1418817 C37.2254529,12.1418817 36.2898065,13.0775281 36.2898065,14.2317064 C36.2898065,15.3858848 37.2254529,16.3215312 38.3796312,16.3215312 Z M38.3796312,13.1867941 C38.9567204,13.1867941 39.4245436,13.6546173 39.4245436,14.2317064 C39.4245436,14.8087956 38.9567204,15.2766188 38.3796312,15.2766188 C37.8025421,15.2766188 37.3347188,14.8087956 37.3347188,14.2317064 C37.3347188,13.6546173 37.8025421,13.1867941 38.3796312,13.1867941 Z" id="Shape"></path>
                <path d="M24.4822967,14.2317064 C24.4822967,13.0775281 23.5466503,12.1418817 22.392472,12.1418817 C21.2382937,12.1418817 20.3026473,13.0775281 20.3026473,14.2317064 C20.3026473,15.3858848 21.2382937,16.3215312 22.392472,16.3215312 C23.5466503,16.3215312 24.4822967,15.3858848 24.4822967,14.2317064 Z M21.3475596,14.2317064 C21.3475596,13.6546173 21.8153828,13.1867941 22.392472,13.1867941 C22.9695612,13.1867941 23.4373844,13.6546173 23.4373844,14.2317064 C23.4373844,14.8087956 22.9695612,15.2766188 22.392472,15.2766188 C21.8153828,15.2766188 21.3475596,14.8087956 21.3475596,14.2317064 Z" id="Shape"></path>
                <path d="M33.6514028,32.0370132 C32.4972244,32.0370132 31.561578,32.9726596 31.561578,34.1268379 C31.561578,35.2810162 32.4972244,36.2166626 33.6514028,36.2166626 C34.8055811,36.2166626 35.7412275,35.2810162 35.7412275,34.1268379 C35.7412275,32.9726596 34.8055811,32.0370132 33.6514028,32.0370132 Z M33.6514028,35.1717503 C33.0743136,35.1717503 32.6064904,34.703927 32.6064904,34.1268379 C32.6064904,33.5497487 33.0743136,33.0819255 33.6514028,33.0819255 C34.2284919,33.0819255 34.6963151,33.5497487 34.6963151,34.1268379 C34.6963151,34.703927 34.2284919,35.1717503 33.6514028,35.1717503 Z" id="Shape"></path>
                <path d="M27.3871531,32.0370132 C26.2329748,32.0370132 25.2973284,32.9726596 25.2973284,34.1268379 C25.2973284,35.2810162 26.2329748,36.2166626 27.3871531,36.2166626 C28.5413315,36.2166626 29.4769779,35.2810162 29.4769779,34.1268379 C29.4769779,32.9726596 28.5413315,32.0370132 27.3871531,32.0370132 Z M27.3871531,35.1717503 C26.810064,35.1717503 26.3422408,34.703927 26.3422408,34.1268379 C26.3422408,33.5497487 26.810064,33.0819255 27.3871531,33.0819255 C27.9642423,33.0819255 28.4320655,33.5497487 28.4320655,34.1268379 C28.4320655,34.703927 27.9642423,35.1717503 27.3871531,35.1717503 Z" id="Shape"></path>
                <path d="M48.0973162,24.5188687 L46.4620284,24.5188687 L46.6553372,23.3537914 L46.6553372,23.2231773 C46.6553372,22.1526769 45.7875251,21.2848649 44.7170247,21.2848649 L39.1842137,21.2848649 L39.1842137,20.1824824 C42.1266443,19.7798732 44.3324262,17.2862105 44.3728751,14.3166389 C44.4133241,11.3470672 42.276281,8.79425036 39.345908,8.31164693 C36.415535,7.8290435 33.5727126,9.56172581 32.658736,12.3874361 L28.1081427,12.3874361 C27.1972235,9.55165353 24.3462132,7.8112931 21.4076185,8.29719239 C18.4690239,8.78309168 16.3299865,11.348561 16.380393,14.3266302 C16.4307994,17.3046993 18.6554325,19.7963096 21.6087877,20.1824824 L21.6087877,21.2848649 L17.0059488,21.2848649 C15.9354484,21.2848649 15.0676363,22.1526769 15.0676363,23.2231773 L15.0676363,25.4122687 L9.24224988,25.4122687 L2.85783532,22.3297773 C2.29235697,22.0615426 1.62897382,22.1011501 1.09942895,22.4347633 C0.569884075,22.7683766 0.24774808,23.3496462 0.245554406,23.9755142 L0.245554406,36.760017 C0.244912236,37.3870354 0.566484356,37.9703996 1.09699955,38.3046241 C1.62751474,38.6388487 2.29254372,38.6770432 2.85783532,38.405754 L9.21090251,35.3337117 L15.0676363,35.3337117 L15.0676363,37.6847645 C15.0676363,38.7552649 15.9354484,39.6230769 17.0059488,39.6230769 L24.4927459,39.6230769 L24.4927459,51.3260954 C24.4927459,51.7589123 24.8436133,52.1097797 25.2764301,52.1097797 C25.709247,52.1097797 26.0601144,51.7589123 26.0601144,51.3260954 L26.0601144,39.6230769 L28.4268409,39.6230769 L28.4268409,51.3260954 C28.4268409,51.7589123 28.7777083,52.1097797 29.2105252,52.1097797 C29.6433421,52.1097797 29.9942095,51.7589123 29.9942095,51.3260954 L29.9942095,39.6230769 L39.1476418,39.6230769 L39.1476418,35.6576345 C39.1478052,35.131396 39.4625293,34.6562243 39.9469998,34.4507607 L43.306393,33.5260133 C44.3516883,33.2192858 45.1330024,32.3468859 45.3230739,31.2742271 L45.4902599,30.2658867 L48.1025408,30.2658867 C49.689536,30.2658867 50.9760498,28.9793729 50.9760498,27.3923777 C50.9760498,25.8053825 49.689536,24.5188687 48.1025408,24.5188687 L48.0973162,24.5188687 Z M8.27048138,34.0484695 L2.17341772,36.9951223 C2.09582644,37.0399197 2.00023004,37.0399197 1.92263875,36.9951223 C1.84713767,36.9478638 1.80162766,36.8647585 1.80247383,36.7756907 L1.80247383,23.9702897 C1.80162766,23.8812219 1.84713767,23.7981167 1.92263875,23.7508581 C2.00023004,23.7060607 2.09582644,23.7060607 2.17341772,23.7508581 L8.27048138,26.697511 L8.27048138,34.0484695 Z M15.0624118,33.7663431 L9.83784993,33.7663431 L9.83784993,26.9744127 L15.0624118,26.9744127 L15.0624118,33.7663431 Z M30.3860516,27.8103426 L44.319958,27.8103426 L44.1266492,28.9545217 L30.3860516,28.9545217 L30.3860516,27.8103426 Z M38.3796312,9.78560431 C40.8322602,9.78560431 42.8205088,11.7738529 42.8205088,14.2264819 C42.8205088,16.6791108 40.8322602,18.6673594 38.3796312,18.6673594 C35.9270023,18.6673594 33.9387537,16.6791108 33.9387537,14.2264819 C33.9445085,11.777087 35.9302312,9.79370037 38.3796312,9.79082887 L38.3796312,9.78560431 Z M32.4288553,13.4427976 C32.3500085,13.9710353 32.3500085,14.5080512 32.4288553,15.036289 L28.3380234,15.036289 C28.4168701,14.5080512 28.4168701,13.9710353 28.3380234,13.4427976 L32.4288553,13.4427976 Z M17.9515945,14.2317064 C17.9515945,11.7790775 19.9398431,9.79082887 22.392472,9.79082887 C24.845101,9.79082887 26.8333496,11.7790775 26.8333496,14.2317064 C26.8333496,16.6843354 24.845101,18.672584 22.392472,18.672584 C19.9410366,18.669705 17.9544734,16.6831419 17.9515945,14.2317064 L17.9515945,14.2317064 Z M23.1761563,20.1824824 C25.4736955,19.8774391 27.3919515,18.2802472 28.1081427,16.0759768 L32.6639606,16.0759768 C33.3833771,18.2864187 35.3113956,19.8849657 37.6168452,20.1824824 L37.6168452,21.2848649 L23.1761563,21.2848649 L23.1761563,20.1824824 Z M42.8832035,32.0161149 L39.4976874,32.9513115 L39.419319,32.9513115 C38.3183249,33.3858035 37.5937051,34.4478891 37.5907224,35.6315117 L37.5907224,38.0295856 L17.0059488,38.0295856 C16.8022574,38.0267756 16.6378148,37.8623331 16.6350049,37.6586417 L16.6350049,23.2231773 C16.6378148,23.019486 16.8022574,22.8550434 17.0059488,22.8522335 L44.7326984,22.8522335 C44.9176735,22.8555837 45.0727529,22.9929397 45.0984177,23.1761563 L44.4975931,26.7706548 L21.0758824,26.7706548 C20.7873378,26.7706548 20.5534262,27.0045664 20.5534262,27.293111 C20.5534262,27.5816556 20.7873378,27.8155672 21.0758824,27.8155672 L29.3411392,27.8155672 L29.3411392,29.4822024 C29.3411392,29.770747 29.5750508,30.0046586 29.8635954,30.0046586 L43.9699124,30.0046586 L43.8027264,31.0025499 C43.7141918,31.4879188 43.3576866,31.8808849 42.8832035,32.0161149 L42.8832035,32.0161149 Z M48.1077653,28.6985181 L45.7723862,28.6985181 L46.2112494,26.0862372 L48.1077653,26.0862372 C48.8291268,26.0862372 49.4139058,26.6710162 49.4139058,27.3923777 C49.4139058,28.1137391 48.8291268,28.6985181 48.1077653,28.6985181 Z" id="Shape"></path>
                <path d="M23.8449002,4.57671616 C24.1334448,4.57671616 24.3673564,4.34280456 24.3673564,4.05425998 L24.3673564,0.919522882 C24.3673564,0.6309783 24.1334448,0.397066699 23.8449002,0.397066699 C23.5563556,0.397066699 23.322444,0.6309783 23.322444,0.919522882 L23.322444,4.05425998 C23.322444,4.34280456 23.5563556,4.57671616 23.8449002,4.57671616 Z" id="Shape"></path>
                <path d="M7.67488133,17.6119979 L10.8096184,17.6119979 C11.098163,17.6119979 11.3320746,17.3780863 11.3320746,17.0895418 C11.3320746,16.8009972 11.098163,16.5670856 10.8096184,16.5670856 L7.67488133,16.5670856 C7.38633675,16.5670856 7.15242515,16.8009972 7.15242515,17.0895418 C7.15242515,17.3780863 7.38633675,17.6119979 7.67488133,17.6119979 L7.67488133,17.6119979 Z" id="Shape"></path>
                <path d="M8.66754808,11.494036 L11.5724045,12.674787 C11.8341685,12.762662 12.1191165,12.6316758 12.2228563,12.3757843 C12.3265961,12.1198928 12.2133051,11.8274583 11.9642466,11.7082431 L9.05939022,10.5274921 C8.88413142,10.4436021 8.67679553,10.4639007 8.5211345,10.5801883 C8.36547346,10.696476 8.28720389,10.8895409 8.31794224,11.0813959 C8.34868059,11.2732509 8.48334862,11.4321997 8.66754808,11.494036 Z" id="Shape"></path>
                <path d="M14.236931,8.26525682 C14.4417976,8.46868073 14.7727826,8.46751117 14.9762065,8.26264452 C15.1796304,8.05777787 15.1784608,7.72679297 14.9735942,7.52336904 L12.7531554,5.31337938 C12.6254724,5.16428284 12.4249911,5.09933852 12.2341375,5.14524769 C12.043284,5.19115686 11.8942697,5.34017117 11.8483605,5.53102472 C11.8024513,5.72187826 11.8673957,5.9223596 12.0164922,6.0500426 L14.236931,8.26525682 Z" id="Shape"></path>
                <path d="M18.6621349,5.1200706 C18.7293309,5.29459361 18.8845295,5.42001088 19.0692688,5.44907892 C19.2540082,5.47814697 19.4402221,5.40644966 19.5577654,5.26099469 C19.6753087,5.11553972 19.706324,4.91842515 19.6391279,4.74390214 L18.5106226,1.81814752 C18.4434265,1.64362452 18.2882279,1.51820726 18.1034886,1.48913922 C17.9187492,1.46007119 17.7325354,1.53176849 17.6149921,1.67722345 C17.4974487,1.82267841 17.4664335,2.01979297 17.5336295,2.19431597 L18.6621349,5.1200706 Z" id="Shape"></path>
            </g>
            <g id="ux" transform="translate(32.000000, 110.000000)" fill-rule="nonzero" fill="#2D2926">
                <path d="M30.3024586,31.180185 C29.8139033,31.1787744 29.3326904,31.2990776 28.9022761,31.5302307 L28.9022761,31.2794517 C28.9048826,30.2342217 28.3564642,29.2649789 27.4591453,28.7289461 C26.5618264,28.1929133 25.4484337,28.1694374 24.5293178,28.6671708 C24.4522047,27.6728172 23.8790589,26.7843237 23.0049522,26.3040916 C22.1308455,25.8238595 21.0735545,25.816595 20.1929315,26.2847706 L20.1929315,18.2859664 L23.9859634,18.2859664 C24.9679897,18.2575091 25.741635,17.4394551 25.7152933,16.4573698 L25.7152933,13.8450889 C25.727913,13.3707702 25.5508025,12.9110127 25.2232278,12.5677457 C24.895653,12.2244787 24.4446796,12.0260646 23.9702897,12.0164922 L10.7103518,12.0164922 C9.72832546,12.0449495 8.95468009,12.8630035 8.98102179,13.8450889 L8.98102179,16.4573698 C8.95468009,17.4394551 9.72832546,18.2575091 10.7103518,18.2859664 L14.2526047,18.2859664 L14.2526047,37.6168452 C14.2526082,38.806497 13.2897335,39.7717087 12.1000852,39.7745892 C11.5439704,39.7807734 11.0075653,39.5688371 10.6058605,39.1842137 L5.52758642,33.505115 C4.41624671,32.3736206 2.61090212,32.3181449 1.43218632,33.3792691 C0.253470529,34.4403933 0.119601119,36.2416223 1.12850536,37.4653329 L13.2494888,50.9238042 C13.4311359,51.1501958 13.7230356,51.2576482 14.0081136,51.2030647 C14.2931916,51.1484813 14.5247536,50.9408024 14.6099253,50.6633234 C14.695097,50.3858443 14.6199277,50.0840148 14.4145661,49.8788918 L2.28835808,36.4204205 C1.773306,35.8433314 1.823597,34.957976 2.40068616,34.4429239 C2.97777533,33.9278718 3.86313074,33.9781628 4.37818281,34.555252 L9.46690604,40.2291261 C10.5281938,41.2927193 12.1251253,41.613419 13.5147552,41.0420251 C14.9043851,40.4706312 15.8138249,39.1193512 15.8199732,37.6168452 L15.8199732,17.3141979 C15.8199733,16.5437839 16.4445172,15.91924 17.2149312,15.91924 C17.9853452,15.91924 18.6098892,16.5437839 18.6098892,17.3141979 L18.6098892,28.771662 C18.6098892,28.8186831 18.6098892,28.8709287 18.6098892,28.9179497 L18.6098892,33.3170308 C18.6098892,33.7498477 18.9607566,34.1007151 19.3935735,34.1007151 L19.3935735,34.1007151 C19.8263904,34.1007151 20.1772578,33.7498477 20.1772578,33.3170308 L20.1772578,28.8448059 C20.1974559,28.0772773 20.8360346,27.4714462 21.6035632,27.4916444 C22.3710918,27.5118425 22.9769228,28.1504211 22.9567247,28.9179497 L22.9567247,35.318038 C22.9567247,35.7508549 23.3075921,36.1017223 23.740409,36.1017223 L23.740409,36.1017223 C23.9536313,36.110258 24.1611142,36.0314754 24.314935,35.8835707 C24.4687558,35.7356661 24.5556114,35.531431 24.5554406,35.318038 L24.5554406,31.2846762 C24.5554406,30.5142622 25.1799846,29.8897182 25.9503986,29.8897182 C26.7208127,29.8897182 27.3453566,30.5142622 27.3453566,31.2846762 L27.3453566,36.3629503 C27.3453566,36.7957672 27.696224,37.1466346 28.1290409,37.1466346 L28.1290409,37.1466346 C28.5618578,37.1466346 28.9127252,36.7957672 28.9127252,36.3629503 L28.9127252,34.1425116 C28.9127252,33.3720975 29.5372692,32.7475536 30.3076832,32.7475536 C31.0780972,32.7475536 31.7026412,33.3720975 31.7026412,34.1425116 L31.7026412,45.5059336 C31.7026412,45.9387504 32.0535086,46.2896178 32.4863255,46.2896178 C32.9191423,46.2896178 33.2700097,45.9387504 33.2700097,45.5059336 L33.2700097,34.1425116 C33.2671279,32.505619 31.9393537,31.1801825 30.3024586,31.180185 Z M17.241054,14.3518714 C15.6250371,14.3399789 14.2976882,15.6254849 14.2578292,17.241054 L10.7103518,17.241054 C10.3079098,17.2077211 10.0047887,16.8606358 10.0259342,16.4573698 L10.0259342,13.8450889 C10.0047887,13.4418228 10.3079098,13.0947376 10.7103518,13.0614046 L23.9702897,13.0614046 C24.3727317,13.0947376 24.6758528,13.4418228 24.6547073,13.8450889 L24.6547073,16.4573698 C24.6758528,16.8606358 24.3727317,17.2077211 23.9702897,17.241054 L20.1720332,17.241054 C20.1327152,15.6457433 18.8367649,14.3682736 17.241054,14.3518714 L17.241054,14.3518714 Z" id="Shape"></path>
                <path d="M17.241054,4.45655124 C17.5295986,4.45655124 17.7635102,4.22263964 17.7635102,3.93409506 L17.7635102,0.79935796 C17.7635102,0.510813378 17.5295986,0.276901777 17.241054,0.276901777 C16.9525095,0.276901777 16.7185979,0.510813378 16.7185979,0.79935796 L16.7185979,3.93409506 C16.7185979,4.22263964 16.9525095,4.45655124 17.241054,4.45655124 Z" id="Shape"></path>
                <path d="M21.9692825,5.38129869 C22.2361816,5.48891876 22.5398553,5.36044139 22.6484755,5.09394779 L23.8344511,2.19431597 C23.944098,1.92741223 23.8166162,1.62215759 23.5497125,1.51251065 C23.2828087,1.40286371 22.9775541,1.53034553 22.8679071,1.79724927 L21.6819316,4.70210565 C21.5743115,4.96900471 21.7027889,5.27267849 21.9692825,5.38129869 L21.9692825,5.38129869 Z" id="Shape"></path>
                <path d="M26.4519566,8.26525682 C26.590827,8.26605971 26.7243031,8.21154128 26.8229004,8.11374452 L29.0381147,5.89330575 C29.1697069,5.76078026 29.2206016,5.56811805 29.1716273,5.3878931 C29.1226529,5.20766815 28.9812499,5.06726092 28.8006834,5.01956147 C28.6201168,4.97186202 28.4278191,5.02411703 28.2962269,5.15664253 L26.0810127,7.37708131 C25.930305,7.52655103 25.885007,7.75234423 25.966401,7.94837748 C26.0477949,8.14441073 26.2397009,8.27171575 26.4519566,8.27048138 L26.4519566,8.26525682 Z" id="Shape"></path>
                <path d="M5.81493732,28.9336234 C5.95380773,28.9344263 6.08728389,28.8799079 6.18588121,28.7821111 L8.40109543,26.5616724 C8.53268764,26.4291469 8.58358236,26.2364847 8.53460803,26.0562597 C8.4856337,25.8760348 8.34423068,25.7356275 8.16366413,25.6879281 C7.98309758,25.6402286 7.79079985,25.6924836 7.65920765,25.8250091 L5.44399343,28.0454479 C5.29328574,28.1949176 5.2479878,28.4207108 5.32938172,28.6167441 C5.41077564,28.8127773 5.60268162,28.9400824 5.81493732,28.938848 L5.81493732,28.9336234 Z" id="Shape"></path>
                <path d="M28.9231743,12.4814782 C28.9723502,12.6110467 29.0709905,12.7157683 29.197389,12.7725986 C29.3237874,12.8294289 29.4675866,12.8337111 29.5971428,12.7845028 L32.5228974,11.661222 C32.6974204,11.594026 32.8228377,11.4388274 32.8519057,11.254088 C32.8809737,11.0693487 32.8092764,10.8831348 32.6638215,10.7655915 C32.5183665,10.6480482 32.321252,10.6170329 32.146729,10.6842289 L29.2209743,11.8075097 C28.9532191,11.9120045 28.8201538,12.2131523 28.9231743,12.4814782 Z" id="Shape"></path>
                <path d="M5.55893379,21.4468263 C5.50975788,21.3172579 5.41111754,21.2125362 5.28471909,21.1557059 C5.15832064,21.0988756 5.01452146,21.0945934 4.88496531,21.1438017 L1.95921069,22.2670825 C1.6894215,22.3709586 1.55492233,22.6738741 1.65879838,22.9436633 C1.76267443,23.2134525 2.06558995,23.3479516 2.33537914,23.2440756 L5.26113376,22.1207948 C5.52888897,22.0163 5.6619543,21.7151522 5.55893379,21.4468263 L5.55893379,21.4468263 Z" id="Shape"></path>
                <path d="M33.4110729,16.4416961 L30.2763358,16.4416961 C29.9877912,16.4416961 29.7538796,16.6756077 29.7538796,16.9641523 C29.7538796,17.2526968 29.9877912,17.4866085 30.2763358,17.4866085 L33.4110729,17.4866085 C33.6996175,17.4866085 33.9335291,17.2526968 33.9335291,16.9641523 C33.9335291,16.6756077 33.6996175,16.4416961 33.4110729,16.4416961 Z" id="Shape"></path>
                <path d="M1.07103518,17.491833 L4.20577227,17.491833 C4.49431686,17.491833 4.72822846,17.2579214 4.72822846,16.9693768 C4.72822846,16.6808322 4.49431686,16.4469206 4.20577227,16.4469206 L1.07103518,16.4469206 C0.782490593,16.4469206 0.548578992,16.6808322 0.548578992,16.9693768 C0.548578992,17.2579214 0.782490593,17.491833 1.07103518,17.491833 Z" id="Shape"></path>
                <path d="M28.8343567,21.6714825 C28.7267367,21.9383815 28.855214,22.2420553 29.1217076,22.3506755 L32.026564,23.5105282 C32.288328,23.5984033 32.5732761,23.467417 32.6770159,23.2115255 C32.7807557,22.955634 32.6674647,22.6631995 32.4184062,22.5439843 L29.5135498,21.3632333 C29.3826972,21.3126496 29.2369994,21.3168156 29.1092511,21.3747937 C28.9815027,21.4327718 28.8824386,21.5396901 28.8343567,21.6714825 L28.8343567,21.6714825 Z" id="Shape"></path>
                <path d="M2.06370192,11.3686465 L4.9685583,12.5389484 C5.2303223,12.6268234 5.51527034,12.4958372 5.61901014,12.2399457 C5.72274994,11.9840542 5.60945896,11.6916197 5.36040044,11.5724045 L2.45554406,10.4021026 C2.19378007,10.3142276 1.90883202,10.4452138 1.80509222,10.7011053 C1.70135242,10.9569968 1.81464341,11.2494314 2.06370192,11.3686465 Z" id="Shape"></path>
                <path d="M7.6383094,8.13986733 C7.76335082,8.30148068 7.97113383,8.37536373 8.17013676,8.32897339 C8.36913969,8.28258304 8.522833,8.12443485 8.56351978,7.92418796 C8.60420655,7.72394107 8.52441821,7.51835336 8.35929893,7.39797955 L6.13886015,5.1879899 C6.00633467,5.05639768 5.81367245,5.00550296 5.63344751,5.0544773 C5.45322256,5.10345163 5.31281534,5.24485465 5.26511589,5.42542119 C5.21741644,5.60598774 5.26967144,5.79828547 5.40219693,5.92987768 L7.6383094,8.13986733 Z" id="Shape"></path>
                <path d="M12.0582887,4.99468111 C12.1621648,5.2644703 12.4650803,5.39896947 12.7348695,5.29509342 C13.0046586,5.19121737 13.1391578,4.88830184 13.0352818,4.61851266 L11.9067764,1.69275803 C11.8395804,1.51823503 11.6843818,1.39281778 11.4996424,1.36374974 C11.3149031,1.3346817 11.1286892,1.406379 11.0111459,1.55183397 C10.8936026,1.69728893 10.8625873,1.89440348 10.9297834,2.06892649 L12.0582887,4.99468111 Z" id="Shape"></path>
            </g>
            <g id="social" transform="translate(650.921963, 113.000000)" fill-rule="nonzero" fill="#2D2926">
                <path d="M38.4736733,0.397066699 C36.3906522,0.393447513 34.527484,1.69219943 33.8101873,3.64782604 C33.0928905,5.60345265 33.6744377,7.79889228 35.2657924,9.14298321 L30.16662,16.3215312 C27.4125782,14.088203 23.4256613,14.2585266 20.8721245,16.7185979 L8.72501826,4.5714916 C8.91467573,4.25553561 9.01741481,3.89504762 9.02281828,3.52657924 C9.02281828,2.37240091 8.08717188,1.4367545 6.93299355,1.4367545 C5.77881522,1.4367545 4.84316882,2.37240091 4.84316882,3.52657924 C4.84316882,4.68075757 5.77881522,5.61640397 6.93299355,5.61640397 C7.30146193,5.6110005 7.66194992,5.50826142 7.97790592,5.31860394 L20.1720332,17.4970576 C18.6976429,19.394489 18.3029,21.9168961 19.1271209,24.1740476 L9.55572359,27.5125426 C8.39524423,25.6750969 6.17435262,24.8063006 4.0751218,25.3685719 C1.97589098,25.9308431 0.486583024,27.7934027 0.399884415,29.9649005 C0.313185806,32.1363982 1.64926186,34.1117633 3.696984,34.8396046 C5.74470615,35.567446 8.02779277,34.8784742 9.33106743,33.1393957 L32.0213395,44.0796282 C32.0213395,44.1423229 32.0213395,44.2050177 32.0213395,44.2677124 C32.0236122,45.8765497 33.2434445,47.2224715 34.8443068,47.3824793 C36.4451692,47.5424871 37.9072609,46.4646262 38.2279172,44.888066 C38.5485736,43.3115057 37.6236772,41.7481558 36.0874983,41.2701212 C34.5513193,40.7920867 32.9026557,41.5545856 32.2721184,43.0347158 L9.8691973,32.2355465 C10.4254765,31.0461592 10.4800768,29.683033 10.0207096,28.4529637 L19.5294121,25.1301424 C20.8109144,27.5473052 23.3754814,29.0044623 26.107934,28.867982 C28.8403866,28.7315017 31.2469876,27.0260451 32.281248,24.4932148 C33.3155085,21.9603844 32.790544,19.0578471 30.9346306,17.0477453 L36.1278451,9.73335869 C37.9499506,10.7116077 40.1876723,10.4575073 41.7440481,9.09562099 C43.3004238,7.73373472 43.8492269,5.54952302 43.1214264,3.6137167 C42.3936259,1.67791037 40.5417737,0.396267322 38.4736733,0.397066699 L38.4736733,0.397066699 Z M35.1456274,42.1935614 C36.2998058,42.1935614 37.2354522,43.1292078 37.2354522,44.2833861 C37.2354522,45.4375644 36.2998058,46.3732108 35.1456274,46.3732108 C33.9914491,46.3732108 33.0558027,45.4375644 33.0558027,44.2833861 C33.0530224,43.7273219 33.2719717,43.1930784 33.6641916,42.7988974 C34.0564115,42.4047164 34.5895563,42.1831053 35.1456274,42.1831122 L35.1456274,42.1935614 Z M5.365625,33.5730343 C3.49008522,33.5730343 1.96965981,32.0526089 1.96965981,30.1770691 C1.96965981,28.3015294 3.49008522,26.7811039 5.365625,26.7811039 C7.24116479,26.7811039 8.76159019,28.3015294 8.76159019,30.1770691 C8.75297354,32.047334 7.23590757,33.5597321 5.365625,33.5625852 L5.365625,33.5730343 Z M5.88808118,3.5318038 C5.88808118,2.95471463 6.35590439,2.48689143 6.93299355,2.48689143 C7.51008272,2.48689143 7.97790592,2.95471463 7.97790592,3.5318038 C7.97790592,4.10889296 7.51008272,4.57671616 6.93299355,4.57671616 C6.6540456,4.57673011 6.38667217,4.46520824 6.19040993,4.26698338 C5.99414769,4.06875852 5.8852917,3.80028868 5.88808118,3.52135467 L5.88808118,3.5318038 Z M25.7414161,27.3035601 C22.711698,27.3035601 20.2556262,24.8474883 20.2556262,21.8177702 C20.2556262,18.7880521 22.711698,16.3319803 25.7414161,16.3319803 C28.7711343,16.3319803 31.2272061,18.7880521 31.2272061,21.8177702 C31.2185743,24.8422131 28.76587,27.2902456 25.7414161,27.293111 L25.7414161,27.3035601 Z M38.4736733,8.75636563 C36.5981335,8.75636563 35.0777081,7.23594022 35.0777081,5.36040044 C35.0777081,3.48486065 36.5981335,1.96443525 38.4736733,1.96443525 C40.3492131,1.96443525 41.8696385,3.48486065 41.8696385,5.36040044 C41.8667615,7.23474725 40.3480201,8.75348865 38.4736733,8.75636563 L38.4736733,8.75636563 Z" id="Shape"></path>
            </g>
            <g id="employer" transform="translate(331.000000, 113.000000)" fill-rule="nonzero" fill="#2D2926">
                <path d="M27.2565391,24.7696476 C29.3743028,24.7908263 31.2953437,23.5314184 32.120494,21.580906 C32.9456442,19.6303935 32.5116411,17.3747012 31.0216253,15.8696348 C29.5316096,14.3645684 27.280393,13.9079175 25.3216862,14.7134234 C23.3629795,15.5189293 22.0843288,17.4272162 22.0842229,19.5450858 C22.0758869,20.9242209 22.6164781,22.250031 23.5867788,23.2301328 C24.5570796,24.2102346 25.8773898,24.7641229 27.2565391,24.7696476 Z M27.2565391,15.9244645 C28.7403062,15.9032656 30.0898024,16.7807458 30.6723648,18.1455298 C31.2549271,19.5103137 30.955061,21.0918294 29.9133479,22.1486398 C28.8716349,23.2054501 27.2945973,23.5280396 25.9215728,22.9651737 C24.5485484,22.4023079 23.6517428,21.0655762 23.6515914,19.5816577 C23.6432458,18.6182153 24.0186994,17.6910674 24.6950629,17.0049016 C25.3714263,16.3187358 26.2930763,15.9299815 27.2565391,15.9244645 Z" id="Shape"></path>
                <path d="M27.2565391,37.7108873 C26.1549835,37.713771 25.2640629,38.6085862 25.2659841,39.7101438 C25.2679052,40.8117015 26.1619416,41.7034037 27.2635006,41.7024449 C28.3650596,41.7014862 29.2575425,40.8082293 29.2575463,39.7066699 C29.2589464,39.1760208 29.0484082,38.6667782 28.6726911,38.2920421 C28.296974,37.917306 27.7871827,37.7080999 27.2565391,37.7108873 Z M27.2565391,40.6575402 C26.7320777,40.6546585 26.3089812,40.2276718 26.3108997,39.703206 C26.3128182,39.1787402 26.7390272,38.7548603 27.2634956,38.7558156 C27.787964,38.7567709 28.212626,39.1822006 28.2126339,39.7066699 C28.2154611,39.9610982 28.1156381,40.2059308 27.9357191,40.3858499 C27.7558,40.565769 27.5109674,40.665592 27.2565391,40.6627647 L27.2565391,40.6575402 Z" id="Shape"></path>
                <path d="M51.9425937,48.243604 L42.0733964,38.4266523 C47.4364302,30.7538823 46.0630317,20.2574978 38.9064527,14.2228555 C31.7498738,8.18821317 21.1723141,8.60719076 14.5154727,15.1889833 C7.85863122,21.7707758 7.31975744,32.3429054 13.2728742,39.5674422 C19.2259909,46.791979 29.7061298,48.284292 37.4392101,43.008593 L47.3658776,52.8516675 C47.6718462,53.1572556 48.167516,53.1572556 48.4734847,52.8516675 L51.963492,49.3616602 C52.2690801,49.0556915 52.2690801,48.5600218 51.963492,48.2540531 L51.9425937,48.243604 Z M27.2565391,11.5358325 C33.2836125,11.5322586 38.834012,14.8123031 41.7379042,20.093689 C44.6417964,25.3750749 44.4379745,31.8189933 41.2061192,36.9063048 L41.2061192,32.9826588 C41.2061192,32.5156982 41.0206198,32.067863 40.6904287,31.737672 C40.3602377,31.4074809 39.9124025,31.2219815 39.4454418,31.2219815 L36.8331609,31.2219815 L36.8331609,30.3703779 C36.8331609,28.3130551 35.1653712,26.6452653 33.1080483,26.6452653 L21.4207035,26.6452653 C19.367464,26.6539025 17.7083667,28.3223468 17.7112646,30.3756025 L17.7112646,31.2272061 L15.0989837,31.2272061 C14.1265885,31.2272061 13.3383064,32.0154882 13.3383064,32.9878834 L13.3383064,36.9115293 C10.1064511,31.8242179 9.90262916,25.3802995 12.8065213,20.0989136 C15.7104135,14.8175277 21.260813,11.5374831 27.2878864,11.5410571 L27.2565391,11.5358325 Z M35.2501187,31.2272061 L19.2629595,31.2272061 L19.2629595,30.3703779 C19.2629595,29.1786888 20.2290144,28.2126339 21.4207035,28.2126339 L33.123722,28.2126339 C34.3113259,28.2212572 35.2686993,29.1879709 35.2657924,30.3756025 L35.2501187,31.2272061 Z M14.8743275,38.9961295 L14.8743275,32.9826588 C14.8743275,32.9313902 14.8946939,32.8822213 14.9309464,32.8459689 C14.9671988,32.8097165 15.0163676,32.7893501 15.0676363,32.7893501 L39.4454418,32.7893501 C39.5522033,32.7893501 39.6387506,32.8758973 39.6387506,32.9826588 L39.6387506,38.9909049 C36.5073874,42.5492633 31.9965127,44.5884734 27.2565391,44.5884734 C22.5165655,44.5884734 18.0056907,42.5492633 14.8743275,38.9909049 L14.8743275,38.9961295 Z M41.1120771,39.6857717 L48.7190391,47.2509372 L46.3314143,49.6333374 L38.7087786,42.0577227 C39.5816785,41.3413691 40.3862266,40.5455661 41.1120771,39.6805471 L41.1120771,39.6857717 Z M47.9040074,51.1798077 L47.0785267,50.3595515 L49.4609269,47.9771513 L50.2864076,48.7974075 L47.9040074,51.1798077 Z" id="Shape"></path>
                <path d="M28.3850444,4.80659689 C28.673589,4.80659689 28.9075006,4.57268528 28.9075006,4.2841407 L28.9075006,0.736663218 C28.9075006,0.448118636 28.673589,0.214207035 28.3850444,0.214207035 C28.0964998,0.214207035 27.8625882,0.448118636 27.8625882,0.736663218 L27.8625882,4.2841407 C27.8625882,4.57268528 28.0964998,4.80659689 28.3850444,4.80659689 Z" id="Shape"></path>
                <path d="M4.66553372,28.5313322 C4.66553372,28.2427876 4.43162211,28.008876 4.14307753,28.008876 L0.590375487,28.008876 C0.301830905,28.008876 0.0679193038,28.2427876 0.0679193038,28.5313322 C0.0679193038,28.8198767 0.301830905,29.0537883 0.590375487,29.0537883 L4.13785297,29.0537883 C4.27731997,29.0551831 4.41155489,29.0007551 4.51066732,28.902624 C4.60977975,28.8044929 4.66554069,28.6708061 4.66553372,28.5313322 Z" id="Shape"></path>
                <path d="M6.12841103,18.9076893 L2.84216164,17.5702014 C2.58039764,17.4823264 2.29544959,17.6133127 2.1917098,17.8692042 C2.08797,18.1250957 2.20126098,18.4175302 2.4503195,18.5367454 L5.74701801,19.853335 C6.00878201,19.94121 6.29373006,19.8102237 6.39746986,19.5543322 C6.50120965,19.2984407 6.38791867,19.0060062 6.13886015,18.886791 L6.12841103,18.9076893 Z" id="Shape"></path>
                <path d="M11.2432571,11.9067764 C11.4555128,11.9080108 11.6474187,11.7807058 11.7288127,11.5846725 C11.8102066,11.3886393 11.7649086,11.1628461 11.614201,11.0133763 L9.10641127,8.50558666 C8.90154462,8.29927729 8.56822059,8.29810773 8.36191121,8.50297438 C8.15560184,8.70784103 8.15443228,9.04116507 8.35929893,9.24747444 L10.8670886,11.7552641 C10.9669629,11.8543574 11.1025819,11.9089817 11.2432571,11.9067764 Z" id="Shape"></path>
                <path d="M19.2368367,6.07094085 C19.33927,6.34073003 19.641016,6.47639876 19.9108051,6.37396543 C20.1805943,6.27153211 20.3162631,5.96978614 20.2138297,5.69999696 L18.9442612,2.38762476 C18.8418279,2.11783557 18.5400819,1.98216684 18.2702927,2.08460017 C18.0005035,2.1870335 17.8648348,2.48877946 17.9672681,2.75856865 L19.2368367,6.07094085 Z" id="Shape"></path>
                <path d="M5.55370923,36.7025469 L2.24133703,37.9721154 C2.06681401,38.0383781 1.94089884,38.1927143 1.91102255,38.3769871 C1.88114626,38.5612598 1.95184777,38.7474737 2.0964945,38.8654836 C2.24114124,38.9834936 2.43775791,39.0153712 2.61228092,38.9491085 L5.92465312,37.6795399 C6.09917612,37.6132772 6.22509127,37.458941 6.25496755,37.2746682 C6.28484383,37.0903955 6.21414233,36.9041817 6.06949561,36.7861717 C5.92484889,36.6681617 5.72823223,36.6362841 5.55370923,36.7025469 L5.55370923,36.7025469 Z" id="Shape"></path>
            </g>
            <g id="market-research" transform="translate(225.000000, 128.000000)" fill-rule="nonzero" fill="#2D2926">
                <path d="M38.1654242,3.50045643 C38.1666325,3.05541703 37.9897977,2.62837967 37.6743154,2.31448089 L36.3525012,0.992666748 C35.6963499,0.340465135 34.6367014,0.340465135 33.9805502,0.992666748 L31.9377465,3.03547042 L31.645171,2.74289496 C30.886827,1.98767635 29.66062,1.98767635 28.9022761,2.74289496 L12.7949519,18.8084226 C12.0403357,19.5649766 12.0403357,20.789539 12.7949519,21.546093 L12.9987098,21.7498509 L12.0687378,22.6798229 C11.7384486,22.9991587 11.5502149,23.4377431 11.5462816,23.8971458 C11.5320812,24.346692 11.7019048,24.7825726 12.0164922,25.1040196 L13.3383064,26.4258337 C13.6507104,26.7358934 14.0736876,26.9088441 14.5138328,26.9064934 C14.9729903,26.9013965 15.4111453,26.7133472 15.7311557,26.3840372 L16.7185979,25.4697389 L17.0999909,25.8459074 C17.8583349,26.601126 19.0845419,26.601126 19.8428858,25.8459074 L27.3976022,18.2859664 C28.2306209,18.8740589 29.2252959,19.1897998 30.2449884,19.1898156 L30.2449884,19.1898156 C31.0016077,20.7644851 31.3927352,22.4897323 31.3891675,24.2367423 C31.3726043,28.3571879 29.201727,32.1687247 25.6661842,34.2849202 C22.1306414,36.4011157 17.7456813,36.5135687 14.1063169,34.5813748 L14.1063169,33.2804589 C14.0778562,32.2897775 13.2527867,31.5091168 12.2620466,31.5354552 L2.33537914,31.5354552 C1.34463903,31.5091168 0.519569536,32.2897775 0.491108812,33.2804589 L0.491108812,35.0045643 C0.519569536,35.9952457 1.34463903,36.7759063 2.33537914,36.7495679 L7.42410236,36.7495679 L7.68010589,36.9951223 C8.22430839,37.5030363 8.80016522,37.9759369 9.4042113,38.4109786 L3.78258277,44.022158 L3.78258277,44.022158 C3.70871052,44.0952198 3.65010391,44.1822418 3.61017223,44.2781615 L3.61017223,44.2781615 C3.57299739,44.3694433 3.55349519,44.4669543 3.55270205,44.5655124 L3.55270205,44.5655124 L3.55270205,48.0659689 C3.55270205,48.4987857 3.90356945,48.8496531 4.33638632,48.8496531 L33.9074063,48.8496531 C34.3402232,48.8496531 34.6910906,48.4987857 34.6910906,48.0659689 L34.6910906,44.5602879 L34.6910906,44.5602879 C34.6902974,44.4617297 34.6707952,44.3642187 34.6336204,44.272937 L34.6336204,44.272937 C34.5936887,44.1770172 34.5350821,44.0899953 34.4612098,44.0169334 L34.4612098,44.0169334 L29.2575463,38.8341681 C36.912664,33.8253837 39.4020537,23.7561215 34.9627678,15.7572785 C35.45098,14.2744336 35.2067092,12.6479002 34.304473,11.3738711 L35.9240872,9.7594815 C36.6787034,9.00292749 36.6787034,7.77836511 35.9240872,7.0218111 L35.6315117,6.72923564 L37.6743154,4.70210565 C37.9942031,4.38473084 38.1714538,3.95103224 38.1654242,3.50045643 Z M15.0206153,25.6630477 C14.8989878,25.7855644 14.7334909,25.8544688 14.5608538,25.8544688 C14.3882167,25.8544688 14.2227199,25.7855644 14.1010924,25.6630477 L12.7792782,24.3412336 C12.664812,24.2260242 12.6008982,24.0699993 12.6016431,23.9075949 C12.6008523,23.7272668 12.67236,23.5541429 12.8001765,23.4269353 L13.7353731,22.4969632 L15.9505873,24.7121775 L15.0206153,25.6630477 Z M33.6461782,14.2212573 C33.6482921,15.5973836 32.8209604,16.8391834 31.5501916,17.3672695 C30.2794229,17.8953556 28.8156545,17.6056552 27.8418374,16.6333341 C26.8680204,15.6610129 26.5760701,14.1976915 27.1022021,12.9261125 C27.6283341,11.6545335 28.8688605,10.8252937 30.2449884,10.8252921 C32.1213752,10.8252899 33.6432959,12.3448727 33.6461782,14.2212573 Z M1.54124574,35.0045643 L1.54124574,33.2804589 C1.57460415,32.8693623 1.92869734,32.5592415 2.3406037,32.5803676 L12.2672712,32.5803676 C12.6771965,32.5621495 13.0280835,32.8714841 13.0614046,33.2804589 L13.0614046,35.0045643 C13.0334736,35.4183691 12.6759221,35.7315188 12.2620466,35.7046556 L2.33537914,35.7046556 C1.92348186,35.7285257 1.56920663,35.4162041 1.54124574,35.0045643 Z M5.1200706,47.2875091 L5.1200706,45.0879686 L33.123722,45.0879686 L33.123722,47.2875091 L5.1200706,47.2875091 Z M32.2877921,44.0430562 L5.96644961,44.0430562 L10.7416991,39.2782559 C15.9986153,42.3808922 22.4920113,42.5214504 27.8782619,39.6491997 L32.2877921,44.0430562 Z M35.6001643,24.1897213 C35.5971271,29.8240885 32.6169433,35.0374232 27.7633216,37.8989715 C27.6670765,37.9316898 27.5782843,37.9831893 27.5020935,38.0504838 C21.8840338,41.2301668 14.9026336,40.7061492 9.82217624,36.7234451 L12.2620466,36.7234451 C12.8022392,36.7246529 13.3165742,36.4922497 13.6726783,36.0860486 C18.6768483,38.5962021 24.71663,37.7086238 28.7870649,33.8649085 C32.8574999,30.0211932 34.0893865,24.0421285 31.8698272,18.9024647 C32.7198298,18.609026 33.4744977,18.0908689 34.053694,17.4030155 C35.0650105,19.5355128 35.5896701,21.8661436 35.5897152,24.2262932 L35.6001643,24.1897213 Z M34.81648,8.65187439 L33.2125396,10.2505903 C31.2412185,8.76602782 28.4777713,8.95916382 26.7321166,10.703504 C24.986462,12.4478441 24.7912444,15.211145 26.2743215,17.1835839 L18.7091559,24.7383003 C18.5634076,24.878964 18.332448,24.878964 18.1866997,24.7383003 L13.902559,20.4593841 C13.7591158,20.3147694 13.7591158,20.0815427 13.902559,19.9369279 L30.0151077,3.84527751 C30.160856,3.70461374 30.3918156,3.70461374 30.5375639,3.84527751 L34.81648,8.11896909 C34.9599233,8.26358379 34.9599233,8.49681057 34.81648,8.64142527 L34.81648,8.65187439 Z M36.9376521,3.94976874 L34.8948485,5.99257242 L32.6796343,3.7773582 L34.7224379,1.73977909 C34.9692447,1.49331769 35.3690313,1.49331769 35.615838,1.73977909 L36.9428767,3.06159323 C37.1893381,3.30839996 37.1893381,3.70818658 36.9428767,3.95499331 L36.9376521,3.94976874 Z" id="Shape"></path>
                <path d="M30.2449884,12.1314326 C29.0908101,12.1314326 28.1551637,13.067079 28.1551637,14.2212573 C28.1551637,15.3754356 29.0908101,16.311082 30.2449884,16.311082 C31.3991668,16.311082 32.3348132,15.3754356 32.3348132,14.2212573 C32.3348132,13.067079 31.3991668,12.1314326 30.2449884,12.1314326 Z M30.2449884,15.2661697 C29.6678993,15.2661697 29.2000761,14.7983465 29.2000761,14.2212573 C29.2000761,13.6441681 29.6678993,13.1763449 30.2449884,13.1763449 C30.8220776,13.1763449 31.2899008,13.6441681 31.2899008,14.2212573 C31.2870255,14.7963051 30.8200434,15.2609523 30.2449884,15.2609451 L30.2449884,15.2661697 Z" id="Shape"></path>
            </g>
            <g id="development" transform="translate(146.000000, 34.000000)" fill-rule="nonzero" fill="#2D2926">
                <path d="M37.2657233,0.242227201 L1.86328616,0.242227201 C0.966480478,0.24221256 0.238035374,0.96649512 0.232910771,1.86328616 L0.232910771,24.2227201 C0.232910771,25.1231516 0.962854698,25.8530955 1.86328616,25.8530955 L15.6050216,25.8530955 L15.6050216,27.9027103 C15.6050216,30.4321213 14.1190509,31.5640676 13.5600651,31.8994591 L11.179717,31.8994591 C10.7456955,31.899452 10.329585,32.0725015 10.0235611,32.3802742 C9.71753717,32.6880468 9.54686147,33.1051366 9.54934159,33.539151 L9.54934159,35.4024371 C9.54934159,36.3028686 10.2792855,37.0328125 11.179717,37.0328125 L27.9492925,37.0328125 C28.8497239,37.0328125 29.5796679,36.3028686 29.5796679,35.4024371 L29.5796679,33.539151 C29.5796679,32.6387195 28.8497239,31.9087756 27.9492925,31.9087756 L25.4804383,31.9087756 C24.9400853,31.5687258 23.5239878,30.4321213 23.5239878,27.9120267 L23.5239878,25.862412 L37.2657233,25.862412 C38.1661548,25.862412 38.8960987,25.132468 38.8960987,24.2320366 L38.8960987,1.86328616 C38.8909741,0.96649512 38.162529,0.24221256 37.2657233,0.242227201 Z M28.1822032,33.539151 L28.1822032,35.4024371 C28.179725,35.5300296 28.0768849,35.6328697 27.9492925,35.6353479 L11.179717,35.6353479 C11.0521245,35.6328697 10.9492844,35.5300296 10.9468062,35.4024371 L10.9468062,33.539151 C10.9492844,33.4115585 11.0521245,33.3087184 11.179717,33.3062402 L27.9492925,33.3062402 C28.0768849,33.3087184 28.179725,33.4115585 28.1822032,33.539151 Z M23.4354817,31.9087756 L15.6516038,31.9087756 C16.5664194,30.7815217 17.0458281,29.3631334 17.0024863,27.9120267 L17.0024863,25.862412 L22.1265232,25.862412 L22.1265232,27.9027103 C22.0830847,29.3468872 22.5461405,30.760773 23.4354817,31.8994591 L23.4354817,31.9087756 Z M37.4986341,24.2227201 C37.4961558,24.3503126 37.3933157,24.4531527 37.2657233,24.4556309 L1.86328616,24.4556309 C1.73569371,24.4531527 1.63285361,24.3503126 1.63037539,24.2227201 L1.63037539,1.86328616 C1.63285361,1.73569371 1.73569371,1.63285361 1.86328616,1.63037539 L37.2657233,1.63037539 C37.3933157,1.63285361 37.4961558,1.73569371 37.4986341,1.86328616 L37.4986341,24.2227201 Z" id="Shape"></path>
                <path d="M22.2243457,8.85060928 C22.1094597,8.80478213 21.9810644,8.80652815 21.8674671,8.85546241 C21.7538697,8.90439667 21.664398,8.99650101 21.6187777,9.11146934 L17.8922054,18.4279002 C17.8306293,18.5826726 17.8563007,18.7585388 17.9595495,18.8892515 C18.0627983,19.0199642 18.2279386,19.0856652 18.3927635,19.0616055 C18.5575885,19.0375458 18.6970573,18.9273806 18.7586335,18.7726081 L22.4852058,9.45617728 C22.5310329,9.34129125 22.5292869,9.21289601 22.4803527,9.09929862 C22.4314184,8.98570123 22.3393141,8.89622956 22.2243457,8.85060928 L22.2243457,8.85060928 Z" id="Shape"></path>
                <path d="M26.6775997,10.3458964 C26.5575374,10.2054254 26.365793,10.1492052 26.1888873,10.2026041 C26.0119816,10.256003 25.8833662,10.4089236 25.8610763,10.5923636 C25.8387864,10.7758036 25.9270368,10.9550756 26.0860063,11.049287 L29.3933392,13.9746462 L26.0860063,16.867398 C25.9061601,17.0401419 25.8942526,17.32388 26.058993,17.511085 C26.2237334,17.6982901 26.5066828,17.7225541 26.7008907,17.5661303 L30.4274631,14.3053795 C30.5277314,14.2169512 30.5851726,14.0897044 30.5851726,13.9560134 C30.5851726,13.8223223 30.5277314,13.6950755 30.4274631,13.6066472 L26.6775997,10.3458964 Z" id="Shape"></path>
                <path d="M13.3597618,10.3924786 C13.1898498,10.1997662 12.8959883,10.1810091 12.7029534,10.3505546 L8.9763811,13.6113054 C8.87611281,13.6997338 8.81867154,13.8269805 8.81867154,13.9606716 C8.81867154,14.0943626 8.87611281,14.2216094 8.9763811,14.3100377 L12.7029534,17.5707885 C12.8264734,17.6894306 13.0051362,17.7307218 13.1681888,17.6783102 C13.3312414,17.6258986 13.4523822,17.4882386 13.4836377,17.3198456 C13.5148932,17.1514525 13.4512216,16.9794895 13.3178379,16.8720562 L9.99187206,13.9746462 L13.3178379,11.0632616 C13.4146455,10.9812989 13.4738423,10.8634026 13.4817547,10.7368048 C13.4896671,10.610207 13.4456106,10.4858573 13.3597618,10.3924786 Z" id="Shape"></path>
            </g>
        </g>
    </g>
</svg>