<?xml version="1.0" encoding="UTF-8"?>
<svg width="1004px" height="247px" viewBox="0 0 1004 247" version="1.1" xmlns="http://www.w3.org/2000/svg" xmlns:xlink="http://www.w3.org/1999/xlink">
    <!-- Generator: Sketch 44.1 (41455) - http://www.bohemiancoding.com/sketch -->
    <title>footer</title>
    <desc>Created with Sketch.</desc>
    <defs>
        <rect id="path-1" x="0" y="0" width="1004" height="247"></rect>
    </defs>
    <g id="Empty-states-|-Platfrom" stroke="none" stroke-width="1" fill="none" fill-rule="evenodd">
        <g id="Freelancer-Dashboard---First-Time-User-Copy" transform="translate(-236.000000, -2104.000000)">
            <g id="footer" transform="translate(236.000000, 2104.000000)">
                <mask id="mask-2" fill="white">
                    <use xlink:href="#path-1"></use>
                </mask>
                <use id="Rectangle-3-Copy-6" fill="#244C5A" xlink:href="#path-1"></use>
                <g id="photography-duo" mask="url(#mask-2)" fill-rule="nonzero">
                    <g transform="translate(730.000000, 137.000000)" id="Shape">
                        <path d="M73.52,48 L67.52,48 L67.52,47 C67.52,44.790861 65.729139,43 63.52,43 L40.52,43 L40.52,38.65 L46.52,38.65 C48.729139,38.65 50.52,36.859139 50.52,34.65 L50.52,19.65 C50.52,17.440861 48.729139,15.65 46.52,15.65 L31.52,15.65 C29.310861,15.65 27.52,17.440861 27.52,19.65 L27.52,34.65 C27.52,36.859139 29.310861,38.65 31.52,38.65 L37.52,38.65 L37.52,43 L14.52,43 C12.310861,43 10.52,44.790861 10.52,47 L10.52,48 L4.52,48 C2.310861,48 0.52,49.790861 0.52,52 L0.52,77 C0.52,79.209139 2.310861,81 4.52,81 L10.52,81 L10.52,82 C10.52,84.209139 12.310861,86 14.52,86 L63.52,86 C65.729139,86 67.52,84.209139 67.52,82 L67.52,81 L73.52,81 C75.729139,81 77.52,79.209139 77.52,77 L77.52,52 C77.52,49.790861 75.729139,48 73.52,48 Z M30.52,34.67 L30.52,19.67 C30.52,19.1177153 30.9677153,18.67 31.52,18.67 L46.52,18.67 C47.0722847,18.67 47.52,19.1177153 47.52,19.67 L47.52,34.67 C47.52,35.2222847 47.0722847,35.67 46.52,35.67 L31.52,35.67 C31.2461179,35.6782776 30.9808367,35.5738089 30.7861416,35.381004 C30.5914465,35.1881992 30.4843948,34.9239498 30.49,34.65 L30.52,34.67 Z M14.48,46 L63.48,46 C64.0322847,46 64.48,46.4477153 64.48,47 L64.48,64.46 L54.48,64.46 C54.1802322,56.1161631 47.32922,49.5068662 38.98,49.5068662 C30.63078,49.5068662 23.7797678,56.1161631 23.48,64.46 L13.48,64.46 L13.48,47 C13.48,46.7347835 13.5853568,46.4804296 13.7728932,46.2928932 C13.9604296,46.1053568 14.2147835,46 14.48,46 Z M51.48,64.5 C51.484033,69.5634577 48.4353802,74.1300147 43.7573497,76.0677069 C39.0793192,78.0053992 33.6945572,76.9320566 30.1170186,73.3487846 C26.5394799,69.7655127 25.4747611,64.3790389 27.4199418,59.7041173 C29.3651224,55.0291956 33.9365552,51.987859 39,52 C45.8973834,51.9999802 51.4934595,57.5826364 51.51,64.48 L51.48,64.5 Z M4.48,78 C3.92771525,78 3.48,77.5522847 3.48,77 L3.48,52 C3.48,51.4477153 3.92771525,51 4.48,51 L10.48,51 L10.48,78 L4.48,78 Z M63.48,83 L14.48,83 C13.9277153,83 13.48,82.5522847 13.48,82 L13.48,66.46 L23.63,66.46 C24.6534563,74.1637441 31.2235693,79.918732 38.995,79.918732 C46.7664307,79.918732 53.3365437,74.1637441 54.36,66.46 L64.52,66.46 L64.52,81.95 C64.52,82.2152165 64.4146432,82.4695704 64.2271068,82.6571068 C64.0395704,82.8446432 63.7852165,82.95 63.52,82.95 L63.48,83 Z M74.48,77 C74.48,77.5522847 74.0322847,78 73.48,78 L67.48,78 L67.48,51 L73.48,51 C74.0322847,51 74.48,51.4477153 74.48,52 L74.48,77 Z" fill="#2D2926"></path>
                        <path d="M37.5,32.15 L40.5,32.15 C42.4329966,32.15 44,30.5829966 44,28.65 L44,25.65 C44,23.7170034 42.4329966,22.15 40.5,22.15 L37.5,22.15 C35.5670034,22.15 34,23.7170034 34,25.65 L34,28.65 C34,29.5782577 34.3687489,30.4684964 35.0251263,31.1248737 C35.6815036,31.7812511 36.5717423,32.15 37.5,32.15 Z M36,25.65 C36,24.8215729 36.6715729,24.15 37.5,24.15 L40.5,24.15 C41.3284271,24.15 42,24.8215729 42,25.65 L42,28.65 C42,29.4784271 41.3284271,30.15 40.5,30.15 L37.5,30.15 C36.6715729,30.15 36,29.4784271 36,28.65 L36,25.65 Z" fill="#47D7AC"></path>
                        <path d="M39,56.48 C34.581722,56.48 31,60.061722 31,64.48 C31,68.898278 34.581722,72.48 39,72.48 C43.418278,72.48 47,68.898278 47,64.48 C47,60.061722 43.418278,56.48 39,56.48 Z M39,70.48 C35.6862915,70.48 33,67.7937085 33,64.48 C33,61.1662915 35.6862915,58.48 39,58.48 C42.3137085,58.48 45,61.1662915 45,64.48 C44.9944837,67.7898026 42.3098072,70.4700046 39,70.47 L39,70.48 Z" fill="#47D7AC"></path>
                        <path d="M20,48.47 C17.790861,48.47 16,50.260861 16,52.47 C16,54.679139 17.790861,56.47 20,56.47 C22.209139,56.47 24,54.679139 24,52.47 C24,50.260861 22.209139,48.47 20,48.47 Z M20,54.47 C18.8954305,54.47 18,53.5745695 18,52.47 C18,51.3654305 18.8954305,50.47 20,50.47 C21.1045695,50.47 22,51.3654305 22,52.47 C22,53.5745695 21.1045695,54.47 20,54.47 Z" fill="#47D7AC"></path>
                        <path d="M39,8.55 C39.5522847,8.55 40,8.10228475 40,7.55 L40,1.55 C40,0.99771525 39.5522847,0.55 39,0.55 C38.4477153,0.55 38,0.99771525 38,1.55 L38,7.55 C38,8.10228475 38.4477153,8.55 39,8.55 Z" fill="#47D7AC"></path>
                        <path d="M51.08,2.92 C50.5691456,2.71401128 49.987903,2.95992161 49.78,3.47 L47.51,9 C47.3742391,9.33047067 47.4250948,9.70826576 47.6434103,9.99107352 C47.8617259,10.2738813 48.2143339,10.4187365 48.5684103,10.3710735 C48.9224868,10.3234106 49.2242391,10.0904707 49.36,9.76 L51.63,4.21 C51.8294086,3.70195928 51.5846397,3.12786507 51.08,2.92 L51.08,2.92 Z" fill="#47D7AC"></path>
                        <path d="M61.59,9.89 C61.1999625,9.50227641 60.5700375,9.50227641 60.18,9.89 L55.94,14.13 C55.6546238,14.3743899 55.5303181,14.7581184 55.6181899,15.123419 C55.7060617,15.4887195 55.9912805,15.7739383 56.356581,15.8618101 C56.7218816,15.9496819 57.1056101,15.8253762 57.35,15.54 L61.59,11.3 C61.9777236,10.9099625 61.9777236,10.2800375 61.59,9.89 Z" fill="#47D7AC"></path>
                        <path d="M68.85,21 C68.7558755,20.7520013 68.5670744,20.5515603 68.3251432,20.442785 C68.083212,20.3340098 67.8079752,20.3258135 67.56,20.42 L61.95,22.57 C61.6159567,22.6986156 61.3759035,22.9956713 61.3202662,23.3492691 C61.264629,23.702867 61.4018602,24.0592869 61.6802662,24.2842691 C61.9586723,24.5092513 62.3359567,24.5686156 62.67,24.44 L68.28,22.29 C68.7924931,22.0899933 69.047185,21.5135854 68.85,21 Z" fill="#47D7AC"></path>
                        <path d="M70,31.48 L64,31.48 C63.4477153,31.48 63,31.9277153 63,32.48 C63,33.0322847 63.4477153,33.48 64,33.48 L70,33.48 C70.5522847,33.48 71,33.0322847 71,32.48 C71,31.9277153 70.5522847,31.48 70,31.48 Z" fill="#47D7AC"></path>
                        <path d="M14,31.48 L8,31.48 C7.44771525,31.48 7,31.9277153 7,32.48 C7,33.0322847 7.44771525,33.48 8,33.48 L14,33.48 C14.5522847,33.48 15,33.0322847 15,32.48 C15,31.9277153 14.5522847,31.48 14,31.48 Z" fill="#47D7AC"></path>
                        <path d="M16.79,23.48 C16.9959887,22.9691456 16.7500784,22.387903 16.24,22.18 L10.68,19.93 C10.3445483,19.7694316 9.94769995,19.8082838 9.64975911,20.0308625 C9.35181828,20.2534413 9.20200748,20.6229746 9.2608418,20.9901919 C9.31967612,21.3574092 9.57743559,21.661643 9.93,21.78 L15.49,24 C16.0008544,24.2059887 16.582097,23.9600784 16.79,23.45 L16.79,23.48 Z" fill="#47D7AC"></path>
                        <path d="M20.6,15.6 C20.9991459,15.9371653 21.590578,15.9102154 21.9574061,15.5381468 C22.3242342,15.1660783 22.3427927,14.5743235 22,14.18 L17.75,9.95 C17.4963414,9.69812773 17.127579,9.6007134 16.7826219,9.69445204 C16.4376649,9.78819068 16.1689204,10.0588412 16.0776219,10.4044521 C15.9863234,10.750063 16.0863414,11.1181278 16.34,11.37 L20.6,15.6 Z" fill="#47D7AC"></path>
                        <path d="M30.94,8.86 L28.78,3.27 C28.5811775,2.75361376 28.0013862,2.49617749 27.485,2.695 C26.9686138,2.89382251 26.7111775,3.47361376 26.91,3.99 L29.07,9.58 C29.1986156,9.91404335 29.4956713,10.1540965 29.8492691,10.2097338 C30.202867,10.2653711 30.559287,10.1281399 30.7842692,9.84973381 C31.0092514,9.57132773 31.0686156,9.19404333 30.94,8.86 L30.94,8.86 Z" fill="#47D7AC"></path>
                    </g>
                </g>
                <g id="strategy-duo" mask="url(#mask-2)" fill-rule="nonzero">
                    <g transform="translate(192.000000, 11.000000)" id="Shape">
                        <path d="M48,67.15 L14,67.15 C13.4477153,67.15 13,67.5977153 13,68.15 C13,68.7022847 13.4477153,69.15 14,69.15 L48,69.15 C48.5522847,69.15 49,68.7022847 49,68.15 C49,67.5977153 48.5522847,67.15 48,67.15 Z" fill="#47D7AC"></path>
                        <path d="M32,57.16 L48,57.16 C48.5522847,57.16 49,56.7122847 49,56.16 C49,55.6077153 48.5522847,55.16 48,55.16 L32,55.16 C31.4477153,55.16 31,55.6077153 31,56.16 C31,56.7122847 31.4477153,57.16 32,57.16 Z" fill="#47D7AC"></path>
                        <path d="M48,61.15 L38,61.15 C37.4477153,61.15 37,61.5977153 37,62.15 C37,62.7022847 37.4477153,63.15 38,63.15 L48,63.15 C48.5522847,63.15 49,62.7022847 49,62.15 C49,61.5977153 48.5522847,61.15 48,61.15 Z" fill="#47D7AC"></path>
                        <path d="M57.53,79.65 C57.5805181,79.2764998 57.4876129,78.8977322 57.27,78.59 L50,68.39 L54.82,64.22 C55.1487041,63.9363416 55.3383748,63.5241726 55.34,63.09 L55.34,32.09 C55.5625043,20.4500627 49.0831888,9.71602255 38.68,4.49 C38.1067566,4.24538256 37.4419725,4.38072782 37.01,4.83 L34.26,7.68 C33.6402963,6.29207708 33.2324196,4.8190016 33.05,3.31 C32.9876542,2.71132804 32.5734856,2.20790309 31.9980518,2.03134957 C31.4226181,1.85479604 30.7973769,2.03931114 30.41,2.5 L27.73,5.66 C26.5707808,2.66156891 23.6946622,0.678038818 20.48,0.66 C19.9529557,0.664654836 19.4670256,0.945583174 19.2,1.4 C18.9398742,1.86260689 18.9398742,2.42739311 19.2,2.89 C19.27,3.02 20.89,6.12 17.83,9.71 C15.31,12.71 5.54,22.91 1.45,27.18 C0.119573616,28.5307408 0.119573616,30.6992592 1.45,32.05 L4.6,35.22 C5.87423413,36.5121949 7.92616694,36.6121832 9.32,35.45 C10.99,34.07 15.32,30.93 19.16,31.61 C22.2677929,32.1784069 25.4763746,31.696416 28.28,30.24 C25.28,36.37 16.74,44.76 13.04,48.04 C12.7176282,48.3232012 12.5319774,48.7309049 12.53,49.16 L12.53,67.67 L4.79,78.58 C4.57238713,78.8877322 4.47948186,79.2664998 4.53,79.64 C4.52672061,79.6966192 4.52672061,79.7533808 4.53,79.81 L4.53,85.81 C4.53,86.6384271 5.20157288,87.31 6.03,87.31 L56,87.31 C56.8284271,87.31 57.5,86.6384271 57.5,85.81 L57.5,79.81 C57.5129477,79.7572617 57.522963,79.7038465 57.53,79.65 Z M38.41,7.65 C41.67,9.39 52.41,16.28 52.41,32.03 L52.41,62.4 L49.56,64.87 L49.56,32.08 C49.56,16.23 38.04,10.61 36.36,9.88 L38.41,7.65 Z M15.55,49.88 C18.76,47 32.38,34.22 32.38,26.57 C32.3763402,25.9518939 31.9938976,25.3993224 31.4166963,25.1781725 C30.8394951,24.9570226 30.1857378,25.1125826 29.77,25.57 C27.1284384,28.1994401 23.3666973,29.3686804 19.7,28.7 C14.79,27.84 9.9,31.14 7.43,33.18 C7.23822342,33.3578586 6.94177658,33.3578586 6.75,33.18 L3.6,30 C3.41061111,29.8089871 3.41061111,29.5010129 3.6,29.31 C7.69,25 17.51,14.7 20.08,11.69 C21.9672732,9.67292293 22.8898172,6.93810889 22.61,4.19 C25.08,5.46 25.61,8.77 25.61,8.94 C25.6925068,9.52529464 26.1110456,10.0075668 26.678893,10.1716596 C27.2467405,10.3357524 27.858012,10.151068 28.24,9.7 L30.7,6.8 C31.36,9.05 32.64,11.8 35.06,12.61 C35.53,12.8 46.5,17.48 46.5,32.08 L46.5,68.15 L46.5,68.15 C46.5002379,68.278291 46.5170436,68.4060141 46.55,68.53 L46.55,68.62 C46.5835217,68.7175827 46.6270888,68.8114196 46.68,68.9 L46.68,68.98 L46.68,68.98 L53.39,78.42 L8.57,78.42 L15.27,69 L15.27,69 C15.3032601,68.9485672 15.3333171,68.8951325 15.36,68.84 L15.41,68.74 C15.41,68.74 15.41,68.65 15.41,68.6 C15.41,68.55 15.41,68.51 15.41,68.46 C15.41,68.41 15.41,68.39 15.41,68.35 C15.4136032,68.2900541 15.4136032,68.2299459 15.41,68.17 L15.41,49.88 L15.55,49.88 Z M7.55,84.31 L7.55,80.46 L54.55,80.46 L54.55,84.31 L7.55,84.31 Z" fill="#2D2926"></path>
                    </g>
                </g>
                <g id="studio-duo" mask="url(#mask-2)" fill-rule="nonzero">
                    <g transform="translate(138.000000, 129.000000)" id="Shape">
                        <path d="M28.31,24.09 L16.31,24.09 C15.4815729,24.09 14.81,24.7615729 14.81,25.59 L14.81,92.05 C14.81,92.8784271 15.4815729,93.55 16.31,93.55 C17.1384271,93.55 17.81,92.8784271 17.81,92.05 L17.81,32.59 L26.81,32.59 L26.81,95.85 C26.81,96.6784271 27.4815729,97.35 28.31,97.35 C29.1384271,97.35 29.81,96.6784271 29.81,95.85 L29.81,25.59 C29.81,24.7615729 29.1384271,24.09 28.31,24.09 L28.31,24.09 Z M17.8,30.59 L17.8,27.09 L26.8,27.09 L26.8,30.59 L17.8,30.59 Z" fill="#2D2926"></path>
                        <path d="M55.7,92.33 C55.2383734,92.3285406 54.8031301,92.1146075 54.52,91.75 C54.22,91.37 47.2,82.26 47.2,70.84 C47.2,66.18 48.03,55.35 55.7,55.35 C63.37,55.35 64.2,66.18 64.2,70.84 C64.2,82.26 57.2,91.37 56.88,91.75 C56.5968699,92.1146075 56.1616266,92.3285406 55.7,92.33 Z M55.7,58.33 C52.2,58.33 50.2,62.88 50.2,70.82 C50.2,78.47 53.78,85.14 55.7,88.16 C57.62,85.16 61.21,78.45 61.21,70.82 C61.2,62.91 59.2,58.36 55.7,58.36 L55.7,58.33 Z" fill="#47D7AC"></path>
                        <path d="M61.7,6.32 C60.8715729,6.32 60.2,6.99157288 60.2,7.82 L60.2,30.55 L51.2,30.55 L51.2,2.46 C51.2,1.63157288 50.5284271,0.96 49.7,0.96 C48.8715729,0.96 48.2,1.63157288 48.2,2.46 L48.2,37.29 C48.1877812,37.3996607 48.1877812,37.5103393 48.2,37.62 L51.2,51.19 C51.3540129,51.8729148 51.9599355,52.3584829 52.66,52.36 L58.66,52.36 C59.3600645,52.3584829 59.9659871,51.8729148 60.12,51.19 L63.12,37.62 C63.1319762,37.510326 63.1319762,37.399674 63.12,37.29 L63.12,7.82 C63.1211359,7.02183514 62.4970297,6.36256803 61.7,6.32 Z M60.2,32.55 L60.2,36.55 L51.2,36.55 L51.2,32.55 L60.2,32.55 Z M57.49,49.36 L53.91,49.36 L51.51,38.55 L59.89,38.55 L57.49,49.36 Z" fill="#2D2926"></path>
                        <path d="M22.31,18.14 C21.7577153,18.14 21.31,17.6922847 21.31,17.14 L21.31,11.67 C21.31,11.1177153 21.7577153,10.67 22.31,10.67 C22.8622847,10.67 23.31,11.1177153 23.31,11.67 L23.31,17.14 C23.31,17.6922847 22.8622847,18.14 22.31,18.14 Z" fill="#47D7AC"></path>
                        <path d="M28.16,19.28 C28.0299871,19.2815929 27.9009113,19.2578158 27.78,19.21 C27.2699216,19.002097 27.0240113,18.4208544 27.23,17.91 L29.29,12.84 C29.5181822,12.363293 30.0779124,12.14645 30.567698,12.3450117 C31.0574835,12.5435734 31.3081959,13.0889743 31.14,13.59 L29.08,18.66 C28.9265964,19.0334255 28.5637019,19.2779849 28.16,19.28 Z" fill="#47D7AC"></path>
                        <path d="M33.31,22.7 C32.9099248,22.6943799 32.5517116,22.4508257 32.399368,22.0808485 C32.2470245,21.7108712 32.3298803,21.2857003 32.61,21 L36.49,17.14 C36.7436586,16.8881278 37.112421,16.7907134 37.457378,16.8844521 C37.8023351,16.9781907 38.0710796,17.2488412 38.162378,17.5944521 C38.2536765,17.940063 38.1536586,18.3081278 37.9,18.56 L34,22.41 C33.8162113,22.5923408 33.5688682,22.6962966 33.31,22.7 Z" fill="#47D7AC"></path>
                        <path d="M7.43,48.47 C7.02373493,48.4723626 6.65641996,48.2286962 6.50062905,47.8534815 C6.34483814,47.4782668 6.43154005,47.0460905 6.72,46.76 L10.6,42.9 C10.9991459,42.5628347 11.590578,42.5897846 11.9574061,42.9618532 C12.3242342,43.3339217 12.3427927,43.9256765 12,44.32 L8.12,48.18 C7.93621127,48.3623408 7.68886818,48.4662966 7.43,48.47 Z" fill="#47D7AC"></path>
                        <path d="M36.82,28.1 C36.3412646,28.0964149 35.93223,27.7540254 35.8444438,27.2833939 C35.7566576,26.8127624 36.0147502,26.3459347 36.46,26.17 L41.57,24.17 C41.9040433,24.0413844 42.2813277,24.1007487 42.5597338,24.3257309 C42.8381398,24.5507131 42.975371,24.907133 42.9197338,25.2607309 C42.8640965,25.6143287 42.6240433,25.9113844 42.29,26.04 L37.18,28.04 C37.0646965,28.081914 36.9426646,28.1022527 36.82,28.1 Z" fill="#47D7AC"></path>
                        <path d="M2.69,41.17 C2.21126461,41.1664149 1.80223001,40.8240254 1.71444382,40.3533939 C1.62665764,39.8827624 1.88475018,39.4159347 2.33,39.24 L7.44,37.24 C7.77404333,37.1113844 8.1513277,37.1707487 8.42973375,37.3957309 C8.7081398,37.6207131 8.84537103,37.977133 8.78973375,38.3307309 C8.73409648,38.6843287 8.49404333,38.9813844 8.16,39.11 L3.05,41.11 C2.93469655,41.151914 2.81266457,41.1722527 2.69,41.17 Z" fill="#47D7AC"></path>
                        <path d="M43.32,33.71 L37.84,33.71 C37.2877153,33.71 36.84,33.2622847 36.84,32.71 C36.84,32.1577153 37.2877153,31.71 37.84,31.71 L43.32,31.71 C43.8722847,31.71 44.32,32.1577153 44.32,32.71 C44.32,33.2622847 43.8722847,33.71 43.32,33.71 L43.32,33.71 Z" fill="#47D7AC"></path>
                        <path d="M6.77,33.62 L1.29,33.62 C0.73771525,33.62 0.29,33.1722847 0.29,32.62 C0.29,32.0677153 0.73771525,31.62 1.29,31.62 L6.77,31.62 C7.32228475,31.62 7.77,32.0677153 7.77,32.62 C7.77,33.1722847 7.32228475,33.62 6.77,33.62 L6.77,33.62 Z" fill="#47D7AC"></path>
                        <path d="M41.76,41.6 C41.6299871,41.6015929 41.5009113,41.5778158 41.38,41.53 L36.31,39.46 C35.7991366,39.2501318 35.5551318,38.6658634 35.765,38.155 C35.9748682,37.6441366 36.5591366,37.4001318 37.07,37.61 L42.14,39.68 C42.5888256,39.8572744 42.847029,40.3297857 42.7538056,40.8032623 C42.6605823,41.2767388 42.2425282,41.616101 41.76,41.61 L41.76,41.6 Z" fill="#47D7AC"></path>
                        <path d="M7.93,27.78 C7.79998708,27.7815929 7.67091133,27.7578158 7.55,27.71 L2.48,25.64 C1.96913663,25.4301318 1.72513184,24.8458634 1.93500004,24.335 C2.14486824,23.8241366 2.72913661,23.5801318 3.24,23.79 L8.31,25.86 C8.75882563,26.0372744 9.01702901,26.5097857 8.92380564,26.9832623 C8.83058228,27.4567388 8.41252817,27.796101 7.93,27.79 L7.93,27.78 Z" fill="#47D7AC"></path>
                        <path d="M37.15,48.51 C36.884197,48.5115368 36.6287188,48.4071865 36.44,48.22 L32.57,44.35 C32.3163414,44.0945551 32.2182295,43.723189 32.312622,43.3757918 C32.4070144,43.0283946 32.6795709,42.7577442 33.027622,42.6657918 C33.375673,42.5738395 33.7463414,42.6745551 34,42.93 L37.87,46.8 C38.1584599,47.0860905 38.2451619,47.5182668 38.089371,47.8934815 C37.93358,48.2686962 37.5662651,48.5123626 37.16,48.51 L37.15,48.51 Z" fill="#47D7AC"></path>
                        <path d="M11.34,22.67 C11.074197,22.6715368 10.8187188,22.5671865 10.63,22.38 L6.76,18.5 C6.37063928,18.1078778 6.37287787,17.4743608 6.76500003,17.085 C7.15712219,16.6956393 7.79063925,16.6978779 8.18,17.09 L12,21 C12.2884599,21.2860905 12.3751619,21.7182668 12.219371,22.0934815 C12.06358,22.4686962 11.6962651,22.7123626 11.29,22.71 L11.34,22.67 Z" fill="#47D7AC"></path>
                        <path d="M16.73,19.18 C16.3177072,19.1787821 15.9484243,18.9246519 15.8,18.54 L13.8,13.44 C13.6011775,12.9236138 13.8586138,12.3438225 14.375,12.145 C14.8913862,11.9461775 15.4711775,12.2036138 15.67,12.72 L17.67,17.82 C17.788491,18.1270691 17.7482926,18.472782 17.5625055,18.7444707 C17.3767184,19.0161593 17.0691362,19.1790288 16.74,19.18 L16.73,19.18 Z" fill="#47D7AC"></path>
                    </g>
                </g>
                <g id="testing-duo" mask="url(#mask-2)">
                    <g transform="translate(803.000000, -9.000000)" id="Shape">
                        <path d="M54.13,55.16 L39.91,55.16 C38.9413314,55.0372272 37.9889207,55.4850814 37.4656177,56.3094272 C36.9423147,57.133773 36.9423147,58.186227 37.4656177,59.0105728 C37.9889207,59.8349186 38.9413314,60.2827728 39.91,60.16 L57.13,60.16 C58.3891732,60.0004076 59.3331404,58.9292466 59.3331404,57.66 C59.3331404,56.3907534 58.3891732,55.3195924 57.13,55.16 L54.13,55.16 Z" fill="none"></path>
                        <path d="M52.59,71.24 L45.37,71.24 C44.1108268,71.3995924 43.1668596,72.4707534 43.1668596,73.74 C43.1668596,75.0092466 44.1108268,76.0804076 45.37,76.24 L52.59,76.24 C53.5586686,76.3627728 54.5110793,75.9149186 55.0343823,75.0905728 C55.5576853,74.266227 55.5576853,73.213773 55.0343823,72.3894272 C54.5110793,71.5650814 53.5586686,71.1172272 52.59,71.24 L52.59,71.24 Z" fill="none"></path>
                        <path d="M38.39,49.64 C38.39,51.0317576 39.5182424,52.16 40.91,52.16 L54.13,52.16 C55.3891732,52.0004076 56.3331404,50.9292466 56.3331404,49.66 C56.3331404,48.3907534 55.3891732,47.3195924 54.13,47.16 L40.91,47.16 C39.5337149,47.1598266 38.4118458,48.2638883 38.39,49.64 Z" fill="none"></path>
                        <path d="M55.13,63.2 L37.91,63.2 C36.9413314,63.0772272 35.9889207,63.5250814 35.4656177,64.3494272 C34.9423147,65.173773 34.9423147,66.226227 35.4656177,67.0505728 C35.9889207,67.8749186 36.9413314,68.3227728 37.91,68.2 L55.13,68.2 C56.0986686,68.3227728 57.0510793,67.8749186 57.5743823,67.0505728 C58.0976853,66.226227 58.0976853,65.173773 57.5743823,64.3494272 C57.0510793,63.5250814 56.0986686,63.0772272 55.13,63.2 L55.13,63.2 Z" fill="none"></path>
                        <path d="M62.65,57.68 C62.6432147,55.3060259 61.1219815,53.201251 58.87,52.45 C59.8858878,50.7447414 59.9060689,48.6248732 58.9228302,46.900583 C57.9395915,45.1762929 56.1049182,44.1141147 54.12,44.12 L33.37,44.12 L33.37,29.71 C33.244042,26.7499872 30.8076915,24.4151064 27.845,24.4151064 C24.8823085,24.4151064 22.445958,26.7499872 22.32,29.71 L22.32,35.85 C22.3708359,39.5284288 20.916097,43.0678325 18.2931813,45.6473161 C15.6702656,48.2267998 12.1070674,49.6222429 8.43,49.51 L2.24,49.51 C1.41157288,49.51 0.74,50.1815729 0.74,51.01 C0.74,51.8384271 1.41157288,52.51 2.24,52.51 L8.43,52.51 C12.9059572,52.6359464 17.2392049,50.9284933 20.4261371,47.7830969 C23.6130694,44.6377005 25.3772195,40.3272243 25.31,35.85 L25.31,29.71 C25.3939238,28.3770891 26.4994496,27.3389811 27.835,27.3389811 C29.1705504,27.3389811 30.2760762,28.3770891 30.36,29.71 L30.36,45.61 C30.36,46.4384271 31.0315729,47.11 31.86,47.11 L36,47.11 C34.9745343,49.0888421 35.2471789,51.491276 36.69,53.19 C34.2370986,54.9396716 33.6485483,58.3372121 35.37,60.81 C33.113018,61.9807294 31.9476521,64.5416736 32.5475599,67.0124399 C33.1474676,69.4832062 35.3574528,71.2246073 37.9,71.23 L40.46,71.23 C39.6553535,72.7995483 39.6553535,74.6604517 40.46,76.23 L7.54,76.23 C6.71157288,76.23 6.04,76.9015729 6.04,77.73 C6.04,78.5584271 6.71157288,79.23 7.54,79.23 L52.59,79.23 C54.6036865,79.2346013 56.4595034,78.1403398 57.4301791,76.3760431 C58.4008548,74.6117463 58.3317707,72.4584483 57.25,70.76 C58.7910117,70.120973 59.9595309,68.8181821 60.4278359,67.2170066 C60.8961408,65.6158311 60.6138006,63.888699 59.66,62.52 C61.4753145,61.5840506 62.6254791,59.7222455 62.65,57.68 Z M40.91,47.11 L54.13,47.11 C55.3891732,47.2695924 56.3331404,48.3407534 56.3331404,49.61 C56.3331404,50.8792466 55.3891732,51.9504076 54.13,52.11 L40.91,52.11 C39.9413314,52.2327728 38.9889207,51.7849186 38.4656177,50.9605728 C37.9423147,50.136227 37.9423147,49.083773 38.4656177,48.2594272 C38.9889207,47.4350814 39.9413314,46.9872272 40.91,47.11 L40.91,47.11 Z M52.59,76.28 L45.37,76.28 C44.1108268,76.1204076 43.1668596,75.0492466 43.1668596,73.78 C43.1668596,72.5107534 44.1108268,71.4395924 45.37,71.28 L52.59,71.28 C53.5586686,71.1572272 54.5110793,71.6050814 55.0343823,72.4294272 C55.5576853,73.253773 55.5576853,74.306227 55.0343823,75.1305728 C54.5110793,75.9549186 53.5586686,76.4027728 52.59,76.28 L52.59,76.28 Z M55.13,68.28 L37.91,68.28 C36.9413314,68.4027728 35.9889207,67.9549186 35.4656177,67.1305728 C34.9423147,66.306227 34.9423147,65.253773 35.4656177,64.4294272 C35.9889207,63.6050814 36.9413314,63.1572272 37.91,63.28 L55.13,63.28 C56.0986686,63.1572272 57.0510793,63.6050814 57.5743823,64.4294272 C58.0976853,65.253773 58.0976853,66.306227 57.5743823,67.1305728 C57.0510793,67.9549186 56.0986686,68.4027728 55.13,68.28 L55.13,68.28 Z M57.13,60.28 L39.91,60.28 C38.9413314,60.4027728 37.9889207,59.9549186 37.4656177,59.1305728 C36.9423147,58.306227 36.9423147,57.253773 37.4656177,56.4294272 C37.9889207,55.6050814 38.9413314,55.1572272 39.91,55.28 L57.13,55.28 C58.3891732,55.4395924 59.3331404,56.5107534 59.3331404,57.78 C59.3331404,59.0492466 58.3891732,60.1204076 57.13,60.28 L57.13,60.28 Z" fill="#47D7AC" fill-rule="nonzero"></path>
                        <path d="M95.76,27.49 L89.46,27.49 C84.9823339,27.361274 80.6464553,29.0674961 77.4573194,32.2132038 C74.2681836,35.3589115 72.502676,39.6709898 72.57,44.15 L72.57,50.29 C72.4860762,51.6229109 71.3805504,52.6610189 70.045,52.6610189 C68.7094496,52.6610189 67.6039238,51.6229109 67.52,50.29 L67.52,34.39 C67.52,33.5615729 66.8484271,32.89 66.02,32.89 L61.88,32.89 C62.9054657,30.9111579 62.6328211,28.508724 61.19,26.81 C63.6429014,25.0603284 64.2314517,21.6627879 62.51,19.19 C64.7751037,18.026389 65.9502611,15.4642813 65.3544497,12.9884594 C64.7586383,10.5126375 62.5464981,8.76568959 60,8.76 L57.42,8.76 C58.2246465,7.19045172 58.2246465,5.32954828 57.42,3.76 L90.2,3.76 C91.0284271,3.76 91.7,3.08842712 91.7,2.26 C91.7,1.43157288 91.0284271,0.76 90.2,0.76 L45.3,0.76 C43.2863135,0.755398651 41.4304966,1.84966016 40.4598209,3.61395694 C39.4891452,5.37825372 39.5582293,7.53155171 40.64,9.23 C39.0989883,9.86902695 37.9304691,11.1718179 37.4621641,12.7729934 C36.9938592,14.3741689 37.2761994,16.101301 38.23,17.47 C36.282193,18.4921648 35.1289764,20.5749125 35.2963574,22.7682562 C35.4637384,24.9615999 36.9196425,26.8452372 39,27.56 C37.9841122,29.2652586 37.9639311,31.3851268 38.9471698,33.109417 C39.9304085,34.8337071 41.7650818,35.8958853 43.75,35.89 L64.52,35.89 L64.52,50.29 C64.645958,53.2500128 67.0823085,55.5848936 70.045,55.5848936 C73.0076915,55.5848936 75.444042,53.2500128 75.57,50.29 L75.57,44.15 C75.5192711,40.4733602 76.9726523,36.9355614 79.593363,34.3563893 C82.2140737,31.7772172 85.7746399,30.3805406 89.45,30.49 L95.75,30.49 C96.5784271,30.49 97.25,29.8184271 97.25,28.99 C97.25,28.1615729 96.5784271,27.49 95.75,27.49 L95.76,27.49 Z M45.3,3.71 L52.52,3.71 C53.4886686,3.58722722 54.4410793,4.03508137 54.9643823,4.85942717 C55.4876853,5.68377298 55.4876853,6.73622702 54.9643823,7.56057283 C54.4410793,8.38491863 53.4886686,8.83277278 52.52,8.71 L45.3,8.71 C44.0408268,8.55040755 43.0968596,7.47924663 43.0968596,6.21 C43.0968596,4.94075337 44.0408268,3.86959245 45.3,3.71 L45.3,3.71 Z M42.76,11.71 L60,11.71 C60.9686686,11.5872272 61.9210793,12.0350814 62.4443823,12.8594272 C62.9676853,13.683773 62.9676853,14.736227 62.4443823,15.5605728 C61.9210793,16.3849186 60.9686686,16.8327728 60,16.71 L42.76,16.71 C41.7913314,16.8327728 40.8389207,16.3849186 40.3156177,15.5605728 C39.7923147,14.736227 39.7923147,13.683773 40.3156177,12.8594272 C40.8389207,12.0350814 41.7913314,11.5872272 42.76,11.71 L42.76,11.71 Z M57,32.89 L43.76,32.89 C42.7913314,33.0127728 41.8389207,32.5649186 41.3156177,31.7405728 C40.7923147,30.916227 40.7923147,29.863773 41.3156177,29.0394272 C41.8389207,28.2150814 42.7913314,27.7672272 43.76,27.89 L57,27.89 C58.2591732,28.0495924 59.2031404,29.1207534 59.2031404,30.39 C59.2031404,31.6592466 58.2591732,32.7304076 57,32.89 L57,32.89 Z M58,24.89 L40.76,24.89 C39.7913314,25.0127728 38.8389207,24.5649186 38.3156177,23.7405728 C37.7923147,22.916227 37.7923147,21.863773 38.3156177,21.0394272 C38.8389207,20.2150814 39.7913314,19.7672272 40.76,19.89 L58,19.89 C58.9686686,19.7672272 59.9210793,20.2150814 60.4443823,21.0394272 C60.9676853,21.863773 60.9676853,22.916227 60.4443823,23.7405728 C59.9210793,24.5649186 58.9686686,25.0127728 58,24.89 Z" fill="#2D2926" fill-rule="nonzero"></path>
                    </g>
                </g>
                <g id="ux-duo" mask="url(#mask-2)" fill-rule="nonzero">
                    <g transform="translate(901.000000, 97.000000)" id="Shape">
                        <path d="M58,59.68 C57.0648875,59.6773 56.1438286,59.9075647 55.32,60.35 L55.32,59.87 C55.324989,57.8693921 54.2752964,56.0142263 52.5577956,54.9882402 C50.8402948,53.962254 48.7092209,53.9173204 46.95,54.87 C46.8024028,52.9667714 45.7053809,51.2661627 44.0323092,50.3469811 C42.3592374,49.4277995 40.3355443,49.413895 38.65,50.31 L38.65,35 L45.91,35 C47.7896338,34.9455317 49.270419,33.3797468 49.22,31.5 L49.22,26.5 C49.2441545,25.5921369 48.9051587,24.7121444 48.2781687,24.055119 C47.6511787,23.3980936 46.7879995,23.0183218 45.88,23 L20.5,23 C18.6203662,23.0544683 17.139581,24.6202532 17.19,26.5 L17.19,31.5 C17.139581,33.3797468 18.6203662,34.9455317 20.5,35 L27.28,35 L27.28,72 C27.2800067,74.2770365 25.4370298,76.1244866 23.16,76.13 C22.0955762,76.1418367 21.0688775,75.736183 20.3,75 L10.58,64.13 C9.57431686,63.0111718 8.16269143,62.3413699 6.66,62.27 C5.1579671,62.176698 3.68226739,62.6962597 2.57,63.71 C0.253128072,65.8070869 0.0654536016,69.3818387 2.15,71.71 L25.35,97.47 C25.9135,98.0328454 26.8186339,98.0571717 27.4115526,97.5254061 C28.0044712,96.9936405 28.0784288,96.0912052 27.58,95.47 L4.38,69.71 C3.39443026,68.6136234 3.48396219,66.9259465 4.58,65.94 C5.67834811,64.9600272 7.36150089,65.0493191 8.35,66.14 L18.12,77 C20.1513431,79.0357557 23.2079277,79.6495865 25.8677295,78.555918 C28.5275313,77.4622495 30.2682319,74.8758508 30.28,72 L30.28,33.14 C30.2800001,31.6653998 31.4753998,30.4700002 32.95,30.4700002 C34.4246002,30.4700002 35.6199999,31.6653998 35.62,33.14 L35.62,55.07 C35.62,55.16 35.62,55.26 35.62,55.35 L35.62,63.77 C35.62,64.5984271 36.2915729,65.27 37.12,65.27 L37.12,65.27 C37.9484271,65.27 38.62,64.5984271 38.62,63.77 L38.62,55.21 C38.6586599,53.7409226 39.8809226,52.5813401 41.35,52.62 C42.8190774,52.6586599 43.9786599,53.8809226 43.94,55.35 L43.94,67.6 C43.94,68.4284271 44.6115729,69.1 45.44,69.1 L45.44,69.1 C45.8481152,69.1163378 46.245245,68.9655449 46.5396636,68.6824501 C46.8340821,68.3993553 47.0003269,68.008442 47,67.6 L47,59.88 C47,58.4053997 48.1953997,57.21 49.67,57.21 C51.1446003,57.21 52.34,58.4053997 52.34,59.88 L52.34,69.6 C52.34,70.4284271 53.0115729,71.1 53.84,71.1 L53.84,71.1 C54.6684271,71.1 55.34,70.4284271 55.34,69.6 L55.34,65.35 C55.34,63.8753997 56.5353997,62.68 58.01,62.68 C59.4846003,62.68 60.68,63.8753997 60.68,65.35 L60.68,87.1 C60.68,87.9284271 61.3515729,88.6 62.18,88.6 C63.0084271,88.6 63.68,87.9284271 63.68,87.1 L63.68,65.35 C63.6800023,63.8444883 63.0812565,62.4007841 62.0157615,61.3371649 C60.9502664,60.2735457 59.5055094,59.6773448 58,59.68 L58,59.68 Z M33,27.47 C29.9068852,27.4472375 27.3662915,29.9077424 27.29,33 L20.5,33 C19.7297115,32.9361995 19.1495268,32.2718658 19.19,31.5 L19.19,26.5 C19.1495268,25.7281342 19.7297115,25.0638005 20.5,25 L45.88,25 C46.6502885,25.0638005 47.2304732,25.7281342 47.19,26.5 L47.19,31.5 C47.2304732,32.2718658 46.6502885,32.9361995 45.88,33 L38.61,33 C38.5347438,29.9465177 36.0542482,27.5013946 33,27.47 Z" fill="#2D2926"></path>
                        <path d="M33,0.53 C32.4477153,0.53 32,0.97771525 32,1.53 L32,7.53 C32,8.08228475 32.4477153,8.53 33,8.53 C33.5522847,8.53 34,8.08228475 34,7.53 L34,1.53 C34,0.97771525 33.5522847,0.53 33,0.53 Z" fill="#47D7AC"></path>
                        <path d="M45.07,2.89 C44.5591456,2.68401128 43.977903,2.92992161 43.77,3.44 L41.5,9 C41.3642391,9.33047067 41.4150948,9.70826576 41.6334103,9.99107352 C41.8517259,10.2738813 42.2043339,10.4187365 42.5584103,10.3710735 C42.9124868,10.3234106 43.2142391,10.0904707 43.35,9.76 L45.62,4.2 C45.722074,3.95346766 45.7213884,3.67636571 45.6180958,3.43034146 C45.5148032,3.18431722 45.317471,2.98977683 45.07,2.89 Z" fill="#47D7AC"></path>
                        <path d="M55.57,9.87 C55.1799625,9.48227641 54.5500375,9.48227641 54.16,9.87 L49.92,14.12 C49.5306393,14.5121222 49.5328779,15.1456392 49.925,15.535 C50.3171222,15.9243607 50.9506392,15.9221221 51.34,15.53 L55.58,11.28 C55.9649712,10.8872183 55.9605035,10.2572819 55.57,9.87 L55.57,9.87 Z" fill="#47D7AC"></path>
                        <path d="M14.66,49.42 L10.42,53.67 C10.0306393,54.0621222 10.0328778,54.6956393 10.425,55.085 C10.8171222,55.4743607 11.4506393,55.4721222 11.84,55.08 L16.08,50.83 C16.3318723,50.5763414 16.4292866,50.207579 16.3355479,49.8626219 C16.2418093,49.5176649 15.9711588,49.2489204 15.6255479,49.1576219 C15.279937,49.0663235 14.9118722,49.1663414 14.66,49.42 L14.66,49.42 Z" fill="#47D7AC"></path>
                        <path d="M55.36,23.89 C55.4541245,24.1379987 55.6429256,24.3384397 55.8848568,24.447215 C56.126788,24.5559902 56.4020248,24.5641865 56.65,24.47 L62.25,22.32 C62.5840433,22.1913844 62.8240965,21.8943287 62.8797338,21.5407309 C62.935371,21.187133 62.7981398,20.8307131 62.5197338,20.6057309 C62.2413277,20.3807487 61.8640433,20.3213844 61.53,20.45 L55.93,22.6 C55.4175069,22.8000067 55.162815,23.3764146 55.36,23.89 Z" fill="#47D7AC"></path>
                        <path d="M10.64,41.05 C10.5458755,40.8020013 10.3570744,40.6015603 10.1151432,40.492785 C9.87321197,40.3840098 9.59797515,40.3758135 9.35,40.47 L3.75,42.62 C3.23361376,42.8188225 2.97617749,43.3986138 3.175,43.915 C3.37382251,44.4313862 3.95361376,44.6888225 4.47,44.49 L10.07,42.34 C10.5824931,42.1399933 10.837185,41.5635854 10.64,41.05 L10.64,41.05 Z" fill="#47D7AC"></path>
                        <path d="M63.95,31.47 L57.95,31.47 C57.3977153,31.47 56.95,31.9177153 56.95,32.47 C56.95,33.0222847 57.3977153,33.47 57.95,33.47 L63.95,33.47 C64.5022847,33.47 64.95,33.0222847 64.95,32.47 C64.95,31.9177153 64.5022847,31.47 63.95,31.47 Z" fill="#47D7AC"></path>
                        <path d="M9.05,32.48 C9.05,31.9277153 8.60228475,31.48 8.05,31.48 L2.05,31.48 C1.49771525,31.48 1.05,31.9277153 1.05,32.48 C1.05,33.0322847 1.49771525,33.48 2.05,33.48 L8.05,33.48 C8.60228475,33.48 9.05,33.0322847 9.05,32.48 Z" fill="#47D7AC"></path>
                        <path d="M62.05,43.19 L56.49,40.93 C55.9889743,40.7618041 55.4435734,41.0125165 55.2450117,41.502302 C55.04645,41.9920876 55.263293,42.5518178 55.74,42.78 L61.3,45 C61.8010257,45.1681959 62.3464266,44.9174835 62.5449883,44.427698 C62.74355,43.9379124 62.526707,43.3781822 62.05,43.15 L62.05,43.19 Z" fill="#47D7AC"></path>
                        <path d="M3.95,21.76 L9.51,24 C9.84545167,24.1605684 10.2423,24.1217162 10.5402409,23.8991375 C10.8381817,23.6765587 10.9879925,23.3070254 10.9291582,22.9398081 C10.8703239,22.5725908 10.6125644,22.268357 10.26,22.15 L4.7,19.91 C4.19897426,19.7418041 3.65357341,19.9925165 3.45501169,20.482302 C3.25644997,20.9720876 3.473293,21.5318178 3.95,21.76 Z" fill="#47D7AC"></path>
                        <path d="M14.62,15.58 C15.0223548,15.8733211 15.5792062,15.8259444 15.9262253,15.4688668 C16.2732443,15.1117892 16.3046949,14.5538117 16,14.16 L11.75,9.93 C11.3578778,9.54063929 10.7243608,9.54287789 10.335,9.93500005 C9.94563932,10.3271222 9.94787787,10.9606392 10.34,11.35 L14.62,15.58 Z" fill="#47D7AC"></path>
                        <path d="M22.78,3.24 C22.5811775,2.72361376 22.0013862,2.46617749 21.485,2.665 C20.9686138,2.86382251 20.7111775,3.44361376 20.91,3.96 L23.07,9.56 C23.1986156,9.89404335 23.4956713,10.1340965 23.8492691,10.1897338 C24.202867,10.2453711 24.559287,10.1081399 24.7842692,9.82973381 C25.0092514,9.55132773 25.0686156,9.17404333 24.94,8.84 L22.78,3.24 Z" fill="#47D7AC"></path>
                    </g>
                </g>
                <g id="video-motion-duo" mask="url(#mask-2)" fill-rule="nonzero">
                    <g transform="translate(22.000000, 29.000000)" id="Shape">
                        <path d="M92.06,46.13 L88.93,46.13 L89.3,43.9 L89.3,43.65 C89.3,41.6010236 87.6389764,39.94 85.59,39.94 L75,39.94 L75,37.83 C80.6339509,37.0608166 84.8579254,32.2864081 84.9346825,26.6007108 C85.0114395,20.9150134 80.91789,16.0283182 75.3067565,15.107326 C69.695623,14.1863337 64.2547673,17.5080842 62.51,22.92 L53.8,22.92 C52.061089,17.4888236 46.6045716,14.1523819 40.9777072,15.0796818 C35.3508427,16.0069817 31.253478,20.9178908 31.3492928,26.6198473 C31.4451076,32.3218038 35.7051568,37.0922762 41.36,37.83 L41.36,39.94 L32.55,39.94 C30.5010236,39.94 28.84,41.6010236 28.84,43.65 L28.84,47.84 L17.69,47.84 L5.47,41.94 C4.38765402,41.4265892 3.11791471,41.5023993 2.1043467,42.1409471 C1.0907787,42.779495 0.474198772,43.892066 0.47,45.09 L0.47,69.56 C0.474198772,70.757934 1.0907787,71.870505 2.1043467,72.5090529 C3.11791471,73.1476007 4.38765402,73.2234108 5.47,72.71 L17.63,66.83 L28.84,66.83 L28.84,71.33 C28.8619241,73.3633384 30.5165434,75.0001182 32.55,75 L46.88,75 L46.88,97.4 C46.88,98.2284271 47.5515729,98.9 48.38,98.9 C49.2084271,98.9 49.88,98.2284271 49.88,97.4 L49.88,75 L54.41,75 L54.41,97.4 C54.41,98.2284271 55.0815729,98.9 55.91,98.9 C56.7384271,98.9 57.41,98.2284271 57.41,97.4 L57.41,75 L74.93,75 L74.93,67.4 C74.9303127,66.3927606 75.532706,65.4832648 76.46,65.09 L82.89,63.32 C84.8879138,62.7345142 86.3827456,61.069287 86.75,59.02 L87.07,57.09 L92.07,57.09 C95.1075661,57.09 97.57,54.6275661 97.57,51.59 C97.57,48.5524339 95.1075661,46.09 92.07,46.09 L92.06,46.13 Z M15.83,64.37 L4.16,70 C4.01095505,70.0837331 3.82904495,70.0837331 3.68,70 C3.53548819,69.9095454 3.44838039,69.750479 3.45,69.58 L3.45,45.08 C3.44838039,44.909521 3.53548819,44.7504546 3.68,44.66 C3.7604768,44.6080164 3.85419422,44.5802483 3.95,44.58 C4.0262242,44.5793276 4.10155409,44.596448 4.17,44.63 L15.84,50.27 L15.83,64.37 Z M28.83,63.83 L18.83,63.83 L18.83,50.83 L28.83,50.83 L28.83,63.83 Z M58.16,52.43 L84.83,52.43 L84.46,54.62 L58.16,54.62 L58.16,52.43 Z M73.46,17.93 C78.1544204,17.93 81.96,21.7355796 81.96,26.43 C81.96,31.1244204 78.1544204,34.93 73.46,34.93 C68.7655796,34.93 64.96,31.1244204 64.96,26.43 C64.971015,21.7417697 68.77176,17.9454962 73.46,17.94 L73.46,17.93 Z M62.07,24.93 C61.9190845,25.9410661 61.9190845,26.9689339 62.07,27.98 L54.24,27.98 C54.3909155,26.9689339 54.3909155,25.9410661 54.24,24.93 L62.07,24.93 Z M34.36,26.44 C34.36,21.7455796 38.1655796,17.94 42.86,17.94 C47.5544204,17.94 51.36,21.7455796 51.36,26.44 C51.36,31.1344204 47.5544204,34.94 42.86,34.94 C38.167864,34.9344896 34.3655104,31.132136 34.36,26.44 Z M44.36,37.83 C48.7499837,37.2511479 52.4196605,34.2073376 53.8,30 L62.52,30 C63.9065332,34.2191459 67.5948839,37.2655368 72,37.83 L72,39.94 L44.36,39.94 L44.36,37.83 Z M82.08,60.48 L75.6,62.27 L75.46,62.27 C73.3487276,63.0984407 71.957331,65.1320204 71.95,67.4 L71.95,72 L32.55,72 C32.1601273,71.9946217 31.8453783,71.6798727 31.84,71.29 L31.84,43.65 C31.8453783,43.2601273 32.1601273,42.9453783 32.55,42.94 L85.62,42.94 C85.9740491,42.9464124 86.2708765,43.2093168 86.32,43.56 L85.17,50.44 L40.34,50.44 C39.7877153,50.44 39.34,50.8877153 39.34,51.44 C39.34,51.9922847 39.7877153,52.44 40.34,52.44 L56.16,52.44 L56.16,55.63 C56.16,56.1822847 56.6077153,56.63 57.16,56.63 L84.16,56.63 L83.84,58.54 C83.6705417,59.4690136 82.9881777,60.2211648 82.08,60.48 L82.08,60.48 Z M92.08,54.13 L87.61,54.13 L88.45,49.13 L92.08,49.13 C93.4607119,49.13 94.58,50.2492881 94.58,51.63 C94.58,53.0107119 93.4607119,54.13 92.08,54.13 L92.08,54.13 Z" fill="#2D2926"></path>
                        <path d="M73.46,22.44 C71.250861,22.44 69.46,24.230861 69.46,26.44 C69.46,28.649139 71.250861,30.44 73.46,30.44 C75.669139,30.44 77.46,28.649139 77.46,26.44 C77.46,24.230861 75.669139,22.44 73.46,22.44 Z M73.46,28.44 C72.3554305,28.44 71.46,27.5445695 71.46,26.44 C71.46,25.3354305 72.3554305,24.44 73.46,24.44 C74.5645695,24.44 75.46,25.3354305 75.46,26.44 C75.46,27.5445695 74.5645695,28.44 73.46,28.44 Z" fill="#47D7AC"></path>
                        <path d="M42.86,22.44 C40.650861,22.44 38.86,24.230861 38.86,26.44 C38.86,28.649139 40.650861,30.44 42.86,30.44 C45.069139,30.44 46.86,28.649139 46.86,26.44 C46.86,24.230861 45.069139,22.44 42.86,22.44 Z M42.86,28.44 C41.7554305,28.44 40.86,27.5445695 40.86,26.44 C40.86,25.3354305 41.7554305,24.44 42.86,24.44 C43.9645695,24.44 44.86,25.3354305 44.86,26.44 C44.86,27.5445695 43.9645695,28.44 42.86,28.44 Z" fill="#47D7AC"></path>
                        <path d="M64.41,60.52 C62.200861,60.52 60.41,62.310861 60.41,64.52 C60.41,66.729139 62.200861,68.52 64.41,68.52 C66.619139,68.52 68.41,66.729139 68.41,64.52 C68.41,62.310861 66.619139,60.52 64.41,60.52 Z M64.41,66.52 C63.3054305,66.52 62.41,65.6245695 62.41,64.52 C62.41,63.4154305 63.3054305,62.52 64.41,62.52 C65.5145695,62.52 66.41,63.4154305 66.41,64.52 C66.41,65.6245695 65.5145695,66.52 64.41,66.52 Z" fill="#47D7AC"></path>
                        <path d="M52.42,60.52 C50.210861,60.52 48.42,62.310861 48.42,64.52 C48.42,66.729139 50.210861,68.52 52.42,68.52 C54.629139,68.52 56.42,66.729139 56.42,64.52 C56.42,62.310861 54.629139,60.52 52.42,60.52 Z M52.42,66.52 C51.3154305,66.52 50.42,65.6245695 50.42,64.52 C50.42,63.4154305 51.3154305,62.52 52.42,62.52 C53.5245695,62.52 54.42,63.4154305 54.42,64.52 C54.42,65.6245695 53.5245695,66.52 52.42,66.52 Z" fill="#47D7AC"></path>
                        <path d="M45.64,8 C46.1922847,8 46.64,7.55228475 46.64,7 L46.64,1 C46.64,0.44771525 46.1922847,0 45.64,0 C45.0877153,0 44.64,0.44771525 44.64,1 L44.64,7 C44.64,7.55228475 45.0877153,8 45.64,8 Z" fill="#47D7AC"></path>
                        <path d="M20.69,30.92 L14.69,30.92 C14.1377153,30.92 13.69,31.3677153 13.69,31.92 C13.69,32.4722847 14.1377153,32.92 14.69,32.92 L20.69,32.92 C21.2422847,32.92 21.69,32.4722847 21.69,31.92 C21.69,31.3677153 21.2422847,30.92 20.69,30.92 Z" fill="#47D7AC"></path>
                        <path d="M22.9,21.6 L17.34,19.34 C17.0045483,19.1794316 16.6077,19.2182838 16.3097591,19.4408625 C16.0118183,19.6634413 15.8620075,20.0329746 15.9208418,20.4001919 C15.9796761,20.7674092 16.2374356,21.071643 16.59,21.19 L22.15,23.45 C22.6510257,23.6181959 23.1964266,23.3674835 23.3949883,22.877698 C23.59355,22.3879124 23.376707,21.8281822 22.9,21.6 Z" fill="#47D7AC"></path>
                        <path d="M24.41,9.37 C24.0178778,8.98063928 23.3843608,8.98287787 22.995,9.37500003 C22.6056393,9.76712219 22.6078779,10.4006392 23,10.79 L27.25,15 C27.6421222,15.3893607 28.2756392,15.3871221 28.665,14.995 C29.0543607,14.6028778 29.0521221,13.9693608 28.66,13.58 L24.41,9.37 Z" fill="#47D7AC"></path>
                        <path d="M35.42,2.68 C35.2211775,2.16361376 34.6413862,1.90617749 34.125,2.105 C33.6086138,2.30382251 33.3511775,2.88361376 33.55,3.4 L35.72,9 C35.8486156,9.33404335 36.1456713,9.57409653 36.4992691,9.62973381 C36.852867,9.6853711 37.209287,9.54813987 37.4342692,9.2697338 C37.6592514,8.99132773 37.7186156,8.61404333 37.59,8.28 L35.42,2.68 Z" fill="#47D7AC"></path>
                    </g>
                </g>
                <path d="M334,69.336 L341.728,86.88 L341.896,86.88 L345.304,79.152 C345.592,78.48 345.904,77.76 346.168,77.088 C346.432,77.76 346.744,78.48 347.056,79.152 L350.44,86.88 L350.608,86.88 L358.36,69.336 L354.232,69.336 C353.224,71.976 351.04,77.592 350.416,79.128 C349.528,76.68 347.704,72.744 346.24,69.456 L346.096,69.456 L344.104,73.92 L343.144,76.104 C342.688,77.16 342.16,78.504 341.896,79.128 C341.536,78.024 341.032,76.656 340.456,75.216 L338.104,69.336 L334,69.336 Z M359.944,78.312 L359.944,75.096 C360.616,74.784 362.224,74.28 364.336,74.28 C368.032,74.28 369.88,76.056 369.88,79.056 L369.88,86.616 L366.64,86.616 L366.568,85.512 C366.544,85.008 366.616,84.672 366.616,84.672 L366.568,84.672 C366.256,85.392 365.056,86.952 362.848,86.952 C360.784,86.952 359.032,85.752 359.032,83.304 C359.032,80.376 362.008,78.936 366.328,79.536 L366.328,79.248 C366.328,77.808 365.344,77.28 363.76,77.28 C362.248,77.28 360.736,77.808 359.944,78.312 Z M363.784,84.216 C365.176,84.216 366.232,82.944 366.232,81.408 C363.544,80.976 362.416,81.816 362.416,82.944 C362.416,83.712 362.944,84.216 363.784,84.216 Z M372.856,74.616 L372.856,86.616 L376.456,86.616 L376.456,80.64 C376.456,78.84 377.584,77.544 379.264,77.544 C380.56,77.544 380.896,78.528 380.896,79.704 L380.896,86.616 L384.496,86.616 L384.496,79.104 C384.496,75.936 383.032,74.28 380.32,74.28 C378.28,74.28 376.696,75.72 376.192,76.824 L376.144,76.824 C376.168,76.704 376.264,76.416 376.24,75.984 L376.144,74.616 L372.856,74.616 Z M386.056,74.616 L386.056,77.424 L387.712,77.424 L387.712,82.32 C387.712,82.752 387.76,83.16 387.784,83.544 C388.048,86.064 389.896,86.952 391.792,86.952 C393.208,86.952 394.312,86.664 394.84,86.4 L394.84,83.448 C394.312,83.712 393.544,83.952 392.8,83.952 C392.008,83.952 391.264,83.52 391.264,82.248 L391.264,77.424 L394.456,77.424 L394.456,74.616 L391.264,74.616 L391.264,71.016 L387.784,71.016 L387.784,74.616 L386.056,74.616 Z M401.488,74.616 L401.488,77.424 L403.144,77.424 L403.144,82.32 C403.144,82.752 403.192,83.16 403.216,83.544 C403.48,86.064 405.328,86.952 407.224,86.952 C408.64,86.952 409.744,86.664 410.272,86.4 L410.272,83.448 C409.744,83.712 408.976,83.952 408.232,83.952 C407.44,83.952 406.696,83.52 406.696,82.248 L406.696,77.424 L409.888,77.424 L409.888,74.616 L406.696,74.616 L406.696,71.016 L403.216,71.016 L403.216,74.616 L401.488,74.616 Z M417.784,74.28 C421.48,74.28 424.192,76.968 424.192,80.616 C424.192,84.264 421.48,86.952 417.784,86.952 C414.088,86.952 411.4,84.264 411.4,80.616 C411.4,76.968 414.088,74.28 417.784,74.28 Z M417.784,83.928 C419.488,83.928 420.808,82.608 420.808,80.616 C420.808,78.624 419.488,77.304 417.784,77.304 C416.08,77.304 414.784,78.624 414.784,80.616 C414.784,82.608 416.08,83.928 417.784,83.928 Z M444.688,69.336 L444.688,86.616 L441.424,86.616 L441.352,85.512 C441.328,85.032 441.4,84.72 441.4,84.72 L441.352,84.72 C440.8,85.92 439.216,86.952 437.464,86.952 C434.368,86.952 431.872,84.552 431.872,80.616 C431.872,76.656 434.368,74.28 437.368,74.28 C439.12,74.28 440.488,75.096 441.136,76.032 L441.184,76.032 C441.184,76.032 441.112,75.72 441.112,75.048 L441.112,69.336 L444.688,69.336 Z M438.112,77.304 C436.456,77.304 435.256,78.624 435.256,80.616 C435.256,82.584 436.456,83.928 438.112,83.928 C439.552,83.928 440.992,82.824 440.992,80.616 C440.992,78.408 439.552,77.304 438.112,77.304 Z M448.072,74.616 L448.072,86.616 L451.672,86.616 L451.672,74.616 L448.072,74.616 Z M447.88,71.184 C447.88,72.336 448.648,73.104 449.872,73.104 C451.072,73.104 451.864,72.336 451.864,71.184 C451.864,69.984 451.072,69.24 449.872,69.24 C448.648,69.24 447.88,69.984 447.88,71.184 Z M460.144,83.16 C460.144,83.88 459.328,84.12 458.44,84.12 C457.264,84.12 455.536,83.616 454.408,83.016 L454.408,86.16 C455.272,86.544 456.664,86.952 458.488,86.952 C461.536,86.952 463.432,85.608 463.432,83.304 C463.432,81.144 462.136,80.184 459.4,79.416 C458.128,79.032 457.528,78.72 457.528,78.12 C457.528,77.592 458.032,77.352 458.536,77.256 C458.872,77.184 459.256,77.184 459.64,77.208 C460.696,77.304 461.896,77.688 462.688,78.096 L462.688,75.024 C461.968,74.712 460.528,74.28 458.8,74.28 C456.016,74.28 454.24,75.72 454.24,77.952 C454.24,80.28 455.824,81.216 458.056,81.84 C459.424,82.248 460.144,82.512 460.144,83.16 Z M468.568,80.616 C468.568,78.672 469.912,77.424 471.808,77.424 C473.056,77.424 474.256,77.928 474.928,78.408 L474.928,75.144 C474.448,74.904 473.248,74.28 471.328,74.28 C467.488,74.28 464.944,76.968 464.944,80.616 C464.944,84.264 467.488,86.952 471.328,86.952 C473.272,86.952 474.52,86.304 475,86.064 L475,82.824 C474.544,83.136 473.248,83.808 471.808,83.808 C469.864,83.808 468.568,82.56 468.568,80.616 Z M482.968,74.28 C486.664,74.28 489.376,76.968 489.376,80.616 C489.376,84.264 486.664,86.952 482.968,86.952 C479.272,86.952 476.584,84.264 476.584,80.616 C476.584,76.968 479.272,74.28 482.968,74.28 Z M482.968,83.928 C484.672,83.928 485.992,82.608 485.992,80.616 C485.992,78.624 484.672,77.304 482.968,77.304 C481.264,77.304 479.968,78.624 479.968,80.616 C479.968,82.608 481.264,83.928 482.968,83.928 Z M498.928,74.616 L497.416,78.408 C496.984,79.488 496.48,81.192 496.216,81.84 C495.64,79.848 494.488,77.064 493.528,74.616 L489.784,74.616 L495.112,86.76 L497.368,86.76 L502.672,74.616 L498.928,74.616 Z M509.176,74.28 C512.872,74.28 514.768,76.92 514.768,79.896 C514.768,80.544 514.696,81.12 514.672,81.36 L506.8,81.36 C506.944,82.992 508.192,83.928 510.136,83.928 C511.84,83.928 513.616,83.424 514.288,83.04 L514.288,86.088 C513.544,86.472 511.936,86.952 509.8,86.952 C505.672,86.952 503.08,84.288 503.08,80.616 C503.08,76.968 505.744,74.28 509.176,74.28 Z M511.336,79.512 C511.384,78.216 510.616,77.112 509.152,77.112 C507.712,77.112 506.896,78.216 506.8,79.512 L511.336,79.512 Z M517.12,86.616 L520.696,86.616 L520.696,81.504 C520.696,79.32 522.184,77.712 524.008,77.712 C524.464,77.712 524.752,77.832 524.8,77.856 L524.8,74.352 C524.752,74.328 524.416,74.28 524.032,74.28 C522.472,74.28 521.224,75.288 520.48,76.584 C520.456,76.44 520.456,76.152 520.456,75.792 L520.384,74.616 L517.12,74.616 L517.12,86.616 Z M533.032,74.616 L533.032,86.616 L536.632,86.616 L536.632,81.36 C536.632,79.392 537.208,77.544 539.224,77.544 C540.424,77.544 540.76,78.48 540.76,79.608 L540.76,86.616 L544.336,86.616 L544.336,81.36 C544.336,79.416 544.864,77.544 546.904,77.544 C548.056,77.544 548.464,78.456 548.464,79.632 L548.464,86.616 L552.064,86.616 L552.064,79.104 C552.064,75.912 550.576,74.28 547.912,74.28 C546.256,74.28 544.816,75.288 543.904,76.68 C543.424,75.312 542.32,74.568 540.952,74.376 C540.568,74.328 540.16,74.328 539.776,74.4 C538.216,74.568 536.872,75.576 536.368,76.824 L536.32,76.824 C536.344,76.704 536.44,76.416 536.416,75.984 L536.32,74.616 L533.032,74.616 Z M560.632,74.28 C564.328,74.28 567.04,76.968 567.04,80.616 C567.04,84.264 564.328,86.952 560.632,86.952 C556.936,86.952 554.248,84.264 554.248,80.616 C554.248,76.968 556.936,74.28 560.632,74.28 Z M560.632,83.928 C562.336,83.928 563.656,82.608 563.656,80.616 C563.656,78.624 562.336,77.304 560.632,77.304 C558.928,77.304 557.632,78.624 557.632,80.616 C557.632,82.608 558.928,83.928 560.632,83.928 Z M569.392,86.616 L572.968,86.616 L572.968,81.504 C572.968,79.32 574.456,77.712 576.28,77.712 C576.736,77.712 577.024,77.832 577.072,77.856 L577.072,74.352 C577.024,74.328 576.688,74.28 576.304,74.28 C574.744,74.28 573.496,75.288 572.752,76.584 C572.728,76.44 572.728,76.152 572.728,75.792 L572.656,74.616 L569.392,74.616 L569.392,86.616 Z M584.296,74.28 C587.992,74.28 589.888,76.92 589.888,79.896 C589.888,80.544 589.816,81.12 589.792,81.36 L581.92,81.36 C582.064,82.992 583.312,83.928 585.256,83.928 C586.96,83.928 588.736,83.424 589.408,83.04 L589.408,86.088 C588.664,86.472 587.056,86.952 584.92,86.952 C580.792,86.952 578.2,84.288 578.2,80.616 C578.2,76.968 580.864,74.28 584.296,74.28 Z M586.456,79.512 C586.504,78.216 585.736,77.112 584.272,77.112 C582.832,77.112 582.016,78.216 581.92,79.512 L586.456,79.512 Z M605.08,77.304 C603.616,77.304 602.176,78.408 602.176,80.616 C602.176,82.824 603.616,83.928 605.08,83.928 C606.736,83.928 607.936,82.584 607.936,80.616 C607.936,78.624 606.736,77.304 605.08,77.304 Z M598.48,86.616 L598.48,69.336 L602.08,69.336 L602.08,75.048 C602.08,75.72 602.008,76.032 602.008,76.032 L602.056,76.032 C602.68,75.096 604.048,74.28 605.8,74.28 C608.824,74.28 611.32,76.656 611.32,80.616 C611.32,84.552 608.824,86.952 605.728,86.952 C603.952,86.952 602.368,85.92 601.816,84.72 L601.768,84.72 C601.768,84.72 601.864,85.032 601.816,85.512 L601.744,86.616 L598.48,86.616 Z M613.696,86.616 L617.272,86.616 L617.272,81.504 C617.272,79.32 618.76,77.712 620.584,77.712 C621.04,77.712 621.328,77.832 621.376,77.856 L621.376,74.352 C621.328,74.328 620.992,74.28 620.608,74.28 C619.048,74.28 617.8,75.288 617.056,76.584 C617.032,76.44 617.032,76.152 617.032,75.792 L616.96,74.616 L613.696,74.616 L613.696,86.616 Z M623.44,74.616 L623.44,86.616 L627.04,86.616 L627.04,74.616 L623.44,74.616 Z M623.248,71.184 C623.248,72.336 624.016,73.104 625.24,73.104 C626.44,73.104 627.232,72.336 627.232,71.184 C627.232,69.984 626.44,69.24 625.24,69.24 C624.016,69.24 623.248,69.984 623.248,71.184 Z M635.56,74.28 C639.256,74.28 641.152,76.92 641.152,79.896 C641.152,80.544 641.08,81.12 641.056,81.36 L633.184,81.36 C633.328,82.992 634.576,83.928 636.52,83.928 C638.224,83.928 640,83.424 640.672,83.04 L640.672,86.088 C639.928,86.472 638.32,86.952 636.184,86.952 C632.056,86.952 629.464,84.288 629.464,80.616 C629.464,76.968 632.128,74.28 635.56,74.28 Z M637.72,79.512 C637.768,78.216 637,77.112 635.536,77.112 C634.096,77.112 633.28,78.216 633.184,79.512 L637.72,79.512 Z M642.376,74.616 L642.376,77.424 L643.96,77.424 L643.96,86.616 L647.536,86.616 L647.536,77.424 L650.2,77.424 L650.2,74.616 L647.392,74.616 L647.392,73.944 C647.392,72.696 648.184,72.024 649.408,72.024 C649.984,72.024 650.44,72.12 650.632,72.192 L650.632,69.144 C650.416,69.096 649.792,69 649.048,69 C645.832,69 644.08,70.8 644.08,73.536 L644.08,74.616 L642.376,74.616 Z M657.304,83.16 C657.304,83.88 656.488,84.12 655.6,84.12 C654.424,84.12 652.696,83.616 651.568,83.016 L651.568,86.16 C652.432,86.544 653.824,86.952 655.648,86.952 C658.696,86.952 660.592,85.608 660.592,83.304 C660.592,81.144 659.296,80.184 656.56,79.416 C655.288,79.032 654.688,78.72 654.688,78.12 C654.688,77.592 655.192,77.352 655.696,77.256 C656.032,77.184 656.416,77.184 656.8,77.208 C657.856,77.304 659.056,77.688 659.848,78.096 L659.848,75.024 C659.128,74.712 657.688,74.28 655.96,74.28 C653.176,74.28 651.4,75.72 651.4,77.952 C651.4,80.28 652.984,81.216 655.216,81.84 C656.584,82.248 657.304,82.512 657.304,83.16 Z M663.952,81.528 L667.048,81.528 L667.048,80.808 C667.048,78.144 671.296,77.712 671.296,73.56 C671.296,70.704 668.92,69 666.088,69 C664.408,69 662.968,69.576 662.056,70.128 L662.056,73.392 C663.688,72.36 664.864,72.168 665.8,72.168 C666.976,72.168 667.744,72.96 667.744,73.992 C667.744,76.32 663.952,76.728 663.952,80.352 L663.952,81.528 Z M663.52,85.032 C663.52,86.184 664.288,86.952 665.512,86.952 C666.712,86.952 667.504,86.184 667.504,85.032 C667.504,83.832 666.712,83.088 665.512,83.088 C664.288,83.088 663.52,83.832 663.52,85.032 Z" id="Want-to-discover-mor" fill="#FFFFFF" mask="url(#mask-2)"></path>
                <path d="M295,110.098 L303.802,110.098 L303.802,111.322 L300.112,111.322 L300.112,121.42 L298.69,121.42 L298.69,111.322 L295,111.322 L295,110.098 Z M308.698,120.466 C309.886006,120.466 310.563999,119.944005 310.732,118.9 L312.19,118.9 C312.057999,119.764004 311.677003,120.432998 311.047,120.907 C310.416997,121.381002 309.634005,121.618 308.698,121.618 C307.545994,121.618 306.610004,121.207004 305.89,120.385 C305.169996,119.562996 304.81,118.468007 304.81,117.1 C304.81,115.731993 305.172996,114.640004 305.899,113.824 C306.625004,113.007996 307.590994,112.6 308.797,112.6 C310.003006,112.6 310.902997,113.067995 311.497,114.004 C312.091003,114.940005 312.298001,116.079993 312.118,117.424 L306.232,117.424 C306.232,118.312004 306.447998,119.040997 306.88,119.611 C307.312002,120.181003 307.917996,120.466 308.698,120.466 Z M309.742,113.95 C309.465999,113.805999 309.130002,113.734 308.734,113.734 C308.001996,113.734 307.423002,113.982998 306.997,114.481 C306.570998,114.979002 306.322,115.599996 306.25,116.344 L310.84,116.344 C310.84,115.143994 310.474004,114.346002 309.742,113.95 Z M314.998,109.162 L316.42,109.162 L316.42,121.42 L314.998,121.42 L314.998,109.162 Z M320.038,109.162 L321.46,109.162 L321.46,121.42 L320.038,121.42 L320.038,109.162 Z M335.212,119.71 C334.623997,120.958006 333.670007,121.582 332.35,121.582 C331.377995,121.582 330.595003,121.312003 330.001,120.772 C329.406997,120.231997 329.11,119.398006 329.11,118.27 L329.11,112.798 L330.532,112.798 L330.532,118.162 C330.532,119.614007 331.203993,120.34 332.548,120.34 C333.328004,120.34 333.960998,120.040003 334.447,119.44 C334.933002,118.839997 335.188,118.072005 335.212,117.136 L335.212,112.798 L336.634,112.798 L336.634,121.42 L335.212,121.42 L335.212,119.71 Z M340.729,113.23 C341.335003,112.809998 342.153995,112.6 343.186,112.6 C344.218005,112.6 345.024997,112.815998 345.607,113.248 C346.189003,113.680002 346.492,114.225997 346.516,114.886 L345.13,114.886 C345.021999,114.105996 344.362006,113.716 343.15,113.716 C342.561997,113.716 342.109002,113.847999 341.791,114.112 C341.472998,114.376001 341.314,114.660998 341.314,114.967 C341.314,115.273002 341.433999,115.530999 341.674,115.741 C341.914001,115.951001 342.297997,116.133999 342.826,116.29 L344.554,116.866 C345.286004,117.094001 345.846998,117.384998 346.237,117.739 C346.627002,118.093002 346.822,118.578997 346.822,119.197 C346.822,119.815003 346.504003,120.372998 345.868,120.871 C345.231997,121.369002 344.344006,121.618 343.204,121.618 C342.063994,121.618 341.176003,121.363003 340.54,120.853 C339.903997,120.342997 339.568,119.686004 339.532,118.882 L340.9,118.882 C340.924,119.422003 341.142998,119.826999 341.557,120.097 C341.971002,120.367001 342.489997,120.502 343.114,120.502 C343.738003,120.502 344.253998,120.370001 344.662,120.106 C345.070002,119.841999 345.274,119.527002 345.274,119.161 C345.274,118.794998 345.154001,118.516001 344.914,118.324 C344.673999,118.131999 344.284003,117.964001 343.744,117.82 L342.07,117.262 C340.569993,116.817998 339.82,116.038006 339.82,114.922 C339.82,114.213996 340.122997,113.650002 340.729,113.23 Z M355.39,114.472 C355.954003,113.223994 356.919993,112.6 358.288,112.6 C359.032004,112.6 359.655997,112.782998 360.16,113.149 C360.664003,113.515002 361.029999,114.021997 361.258,114.67 C361.798003,113.289993 362.799993,112.6 364.264,112.6 C365.296005,112.6 366.093997,112.935997 366.658,113.608 C367.222003,114.280003 367.504,115.197994 367.504,116.362 L367.504,121.42 L366.1,121.42 L366.1,116.362 C366.1,115.533996 365.905002,114.910002 365.515,114.49 C365.124998,114.069998 364.564004,113.86 363.832,113.86 C363.099996,113.86 362.533002,114.159997 362.131,114.76 C361.728998,115.360003 361.528,116.187995 361.528,117.244 L361.528,121.42 L360.124,121.42 L360.124,116.362 C360.124,115.533996 359.929002,114.910002 359.539,114.49 C359.148998,114.069998 358.594004,113.86 357.874,113.86 C357.153996,113.86 356.572002,114.153997 356.128,114.742 C355.683998,115.330003 355.45,116.145995 355.426,117.19 L355.426,121.42 L354.004,121.42 L354.004,112.816 L355.228,112.816 L355.39,114.472 Z M373.948,112.6 C375.148006,112.6 376.116996,112.989996 376.855,113.77 C377.593004,114.550004 377.962,115.665993 377.962,117.118 C377.962,118.558007 377.593004,119.667996 376.855,120.448 C376.116996,121.228004 375.148006,121.618 373.948,121.618 C372.747994,121.618 371.779004,121.228004 371.041,120.448 C370.302996,119.667996 369.934,118.558007 369.934,117.118 C369.934,115.665993 370.302996,114.550004 371.041,113.77 C371.779004,112.989996 372.747994,112.6 373.948,112.6 Z M375.874,114.697 C375.441998,114.114997 374.809004,113.824 373.975,113.824 C373.140996,113.824 372.502002,114.114997 372.058,114.697 C371.613998,115.279003 371.392,116.082995 371.392,117.109 C371.392,118.135005 371.601998,118.938997 372.022,119.521 C372.442002,120.103003 373.068996,120.394 373.903,120.394 C374.737004,120.394 375.381998,120.103003 375.838,119.521 C376.294002,118.938997 376.522,118.135005 376.522,117.109 C376.522,116.082995 376.306002,115.279003 375.874,114.697 Z M384.19,114.022 C382.833993,114.022 382.132,115.089989 382.084,117.226 L382.084,121.42 L380.662,121.42 L380.662,112.798 L382.084,112.798 L382.084,114.454 C382.516002,113.253994 383.277995,112.654 384.37,112.654 C384.718002,112.654 385.047998,112.707999 385.36,112.816 L385.288,114.202 C384.927998,114.081999 384.562002,114.022 384.19,114.022 Z M390.508,120.466 C391.696006,120.466 392.373999,119.944005 392.542,118.9 L394,118.9 C393.867999,119.764004 393.487003,120.432998 392.857,120.907 C392.226997,121.381002 391.444005,121.618 390.508,121.618 C389.355994,121.618 388.420004,121.207004 387.7,120.385 C386.979996,119.562996 386.62,118.468007 386.62,117.1 C386.62,115.731993 386.982996,114.640004 387.709,113.824 C388.435004,113.007996 389.400994,112.6 390.607,112.6 C391.813006,112.6 392.712997,113.067995 393.307,114.004 C393.901003,114.940005 394.108001,116.079993 393.928,117.424 L388.042,117.424 C388.042,118.312004 388.257998,119.040997 388.69,119.611 C389.122002,120.181003 389.727996,120.466 390.508,120.466 Z M391.552,113.95 C391.275999,113.805999 390.940002,113.734 390.544,113.734 C389.811996,113.734 389.233002,113.982998 388.807,114.481 C388.380998,114.979002 388.132,115.599996 388.06,116.344 L392.65,116.344 C392.65,115.143994 392.284004,114.346002 391.552,113.95 Z M406.42,115.84 C406.42,115.059996 406.258002,114.502002 405.934,114.166 C405.609998,113.829998 405.139003,113.662 404.521,113.662 C403.902997,113.662 403.405002,113.784999 403.027,114.031 C402.648998,114.277001 402.46,114.663997 402.46,115.192 L400.894,115.192 C400.894,113.871993 401.601993,113.056002 403.018,112.744 C403.450002,112.648 403.917997,112.6 404.422,112.6 C405.490005,112.6 406.323997,112.869997 406.924,113.41 C407.524003,113.950003 407.824,114.771994 407.824,115.876 L407.824,121.42 L406.6,121.42 L406.456,119.98 C405.927997,121.072005 404.974007,121.618 403.594,121.618 C402.669995,121.618 401.929003,121.360003 401.371,120.844 C400.812997,120.327997 400.534,119.686004 400.534,118.918 C400.534,118.149996 400.842997,117.550002 401.461,117.118 C402.079003,116.685998 402.849995,116.47 403.774,116.47 C404.698005,116.47 405.579996,116.625998 406.42,116.938 L406.42,115.84 Z M406.42,117.838 C405.567996,117.597999 404.824003,117.478 404.188,117.478 C403.551997,117.478 403.036002,117.591999 402.64,117.82 C402.243998,118.048001 402.046,118.407998 402.046,118.9 C402.046,119.980005 402.657994,120.52 403.882,120.52 C404.578003,120.52 405.174998,120.271002 405.673,119.773 C406.171002,119.274998 406.42,118.630004 406.42,117.838 Z M412.594,114.094 C413.170003,113.097995 414.009994,112.6 415.114,112.6 C416.218006,112.6 417.135996,113.010996 417.868,113.833 C418.600004,114.655004 418.966,115.740993 418.966,117.091 C418.966,118.441007 418.594004,119.532996 417.85,120.367 C417.105996,121.201004 416.200005,121.618 415.132,121.618 C414.555997,121.618 414.037002,121.474001 413.575,121.186 C413.112998,120.897999 412.750001,120.472003 412.486,119.908 L412.162,121.42 L411.172,121.42 L411.172,109.162 L412.594,109.162 L412.594,114.094 Z M413.314,114.517 C412.857998,114.955002 412.618,115.563996 412.594,116.344 L412.594,117.748 C412.594,118.540004 412.830998,119.172998 413.305,119.647 C413.779002,120.121002 414.351997,120.358 415.024,120.358 C415.696003,120.358 416.277998,120.061003 416.77,119.467 C417.262002,118.872997 417.508,118.084005 417.508,117.1 C417.508,116.115995 417.265002,115.330003 416.779,114.742 C416.292998,114.153997 415.708003,113.86 415.024,113.86 C414.339997,113.86 413.770002,114.078998 413.314,114.517 Z M424.78,112.6 C425.980006,112.6 426.948996,112.989996 427.687,113.77 C428.425004,114.550004 428.794,115.665993 428.794,117.118 C428.794,118.558007 428.425004,119.667996 427.687,120.448 C426.948996,121.228004 425.980006,121.618 424.78,121.618 C423.579994,121.618 422.611004,121.228004 421.873,120.448 C421.134996,119.667996 420.766,118.558007 420.766,117.118 C420.766,115.665993 421.134996,114.550004 421.873,113.77 C422.611004,112.989996 423.579994,112.6 424.78,112.6 Z M426.706,114.697 C426.273998,114.114997 425.641004,113.824 424.807,113.824 C423.972996,113.824 423.334002,114.114997 422.89,114.697 C422.445998,115.279003 422.224,116.082995 422.224,117.109 C422.224,118.135005 422.433998,118.938997 422.854,119.521 C423.274002,120.103003 423.900996,120.394 424.735,120.394 C425.569004,120.394 426.213998,120.103003 426.67,119.521 C427.126002,118.938997 427.354,118.135005 427.354,117.109 C427.354,116.082995 427.138002,115.279003 426.706,114.697 Z M437.362,119.71 C436.773997,120.958006 435.820007,121.582 434.5,121.582 C433.527995,121.582 432.745003,121.312003 432.151,120.772 C431.556997,120.231997 431.26,119.398006 431.26,118.27 L431.26,112.798 L432.682,112.798 L432.682,118.162 C432.682,119.614007 433.353993,120.34 434.698,120.34 C435.478004,120.34 436.110998,120.040003 436.597,119.44 C437.083002,118.839997 437.338,118.072005 437.362,117.136 L437.362,112.798 L438.784,112.798 L438.784,121.42 L437.362,121.42 L437.362,119.71 Z M446.92,121.168 C445.887995,121.648002 444.946004,121.750001 444.094,121.474 C443.481997,121.281999 443.050001,120.880003 442.798,120.268 C442.665999,119.967999 442.6,119.608002 442.6,119.188 L442.6,113.896 L441.214,113.896 L441.214,112.816 L442.6,112.816 L442.6,110.422 L444.004,110.422 L444.004,112.816 L446.704,112.816 L446.704,113.896 L444.004,113.896 L444.004,119.17 C444.004,120.046004 444.411996,120.484 445.228,120.484 C445.672002,120.484 446.169997,120.376001 446.722,120.16 L446.92,121.168 Z M451.744,123.922 C452.332003,124.378002 452.949997,124.606 453.598,124.606 C454.078002,124.606 454.491998,124.366002 454.84,123.886 C455.092001,123.537998 455.319999,123.010004 455.524,122.302 L455.776,121.42 L452.248,112.816 L453.832,112.816 L456.442,119.674 L458.476,112.816 L459.916,112.816 L456.694,123.13 C456.417999,124.006004 456.055002,124.677998 455.605,125.146 C455.154998,125.614002 454.585003,125.848 453.895,125.848 C453.204997,125.848 452.488004,125.638002 451.744,125.218 L451.744,123.922 Z M465.28,112.6 C466.480006,112.6 467.448996,112.989996 468.187,113.77 C468.925004,114.550004 469.294,115.665993 469.294,117.118 C469.294,118.558007 468.925004,119.667996 468.187,120.448 C467.448996,121.228004 466.480006,121.618 465.28,121.618 C464.079994,121.618 463.111004,121.228004 462.373,120.448 C461.634996,119.667996 461.266,118.558007 461.266,117.118 C461.266,115.665993 461.634996,114.550004 462.373,113.77 C463.111004,112.989996 464.079994,112.6 465.28,112.6 Z M467.206,114.697 C466.773998,114.114997 466.141004,113.824 465.307,113.824 C464.472996,113.824 463.834002,114.114997 463.39,114.697 C462.945998,115.279003 462.724,116.082995 462.724,117.109 C462.724,118.135005 462.933998,118.938997 463.354,119.521 C463.774002,120.103003 464.400996,120.394 465.235,120.394 C466.069004,120.394 466.713998,120.103003 467.17,119.521 C467.626002,118.938997 467.854,118.135005 467.854,117.109 C467.854,116.082995 467.638002,115.279003 467.206,114.697 Z M477.862,119.71 C477.273997,120.958006 476.320007,121.582 475,121.582 C474.027995,121.582 473.245003,121.312003 472.651,120.772 C472.056997,120.231997 471.76,119.398006 471.76,118.27 L471.76,112.798 L473.182,112.798 L473.182,118.162 C473.182,119.614007 473.853993,120.34 475.198,120.34 C475.978004,120.34 476.610998,120.040003 477.097,119.44 C477.583002,118.839997 477.838,118.072005 477.862,117.136 L477.862,112.798 L479.284,112.798 L479.284,121.42 L477.862,121.42 L477.862,119.71 Z M486.43,114.022 C485.073993,114.022 484.372,115.089989 484.324,117.226 L484.324,121.42 L482.902,121.42 L482.902,112.798 L484.324,112.798 L484.324,114.454 C484.756002,113.253994 485.517995,112.654 486.61,112.654 C486.958002,112.654 487.287998,112.707999 487.6,112.816 L487.528,114.202 C487.167998,114.081999 486.802002,114.022 486.43,114.022 Z M494.521,113.23 C495.127003,112.809998 495.945995,112.6 496.978,112.6 C498.010005,112.6 498.816997,112.815998 499.399,113.248 C499.981003,113.680002 500.284,114.225997 500.308,114.886 L498.922,114.886 C498.813999,114.105996 498.154006,113.716 496.942,113.716 C496.353997,113.716 495.901002,113.847999 495.583,114.112 C495.264998,114.376001 495.106,114.660998 495.106,114.967 C495.106,115.273002 495.225999,115.530999 495.466,115.741 C495.706001,115.951001 496.089997,116.133999 496.618,116.29 L498.346,116.866 C499.078004,117.094001 499.638998,117.384998 500.029,117.739 C500.419002,118.093002 500.614,118.578997 500.614,119.197 C500.614,119.815003 500.296003,120.372998 499.66,120.871 C499.023997,121.369002 498.136006,121.618 496.996,121.618 C495.855994,121.618 494.968003,121.363003 494.332,120.853 C493.695997,120.342997 493.36,119.686004 493.324,118.882 L494.692,118.882 C494.716,119.422003 494.934998,119.826999 495.349,120.097 C495.763002,120.367001 496.281997,120.502 496.906,120.502 C497.530003,120.502 498.045998,120.370001 498.454,120.106 C498.862002,119.841999 499.066,119.527002 499.066,119.161 C499.066,118.794998 498.946001,118.516001 498.706,118.324 C498.465999,118.131999 498.076003,117.964001 497.536,117.82 L495.862,117.262 C494.361993,116.817998 493.612,116.038006 493.612,114.922 C493.612,114.213996 493.914997,113.650002 494.521,113.23 Z M506.104,116.866 L504.952,117.802 L504.952,121.42 L503.53,121.42 L503.53,109.162 L504.952,109.162 L504.952,116.29 L509.11,112.816 L511.09,112.816 L507.13,116.038 L511.288,121.42 L509.542,121.42 L506.104,116.866 Z M513.772,112.798 L515.194,112.798 L515.194,121.42 L513.772,121.42 L513.772,112.798 Z M513.799,110.539 C513.636999,110.376999 513.556,110.161001 513.556,109.891 C513.556,109.620999 513.636999,109.405001 513.799,109.243 C513.961001,109.080999 514.185999,109 514.474,109 C514.762001,109 514.992999,109.080999 515.167,109.243 C515.341001,109.405001 515.428,109.620999 515.428,109.891 C515.428,110.161001 515.341001,110.376999 515.167,110.539 C514.992999,110.701001 514.762001,110.782 514.474,110.782 C514.185999,110.782 513.961001,110.701001 513.799,110.539 Z M519.064,109.162 L520.486,109.162 L520.486,121.42 L519.064,121.42 L519.064,109.162 Z M524.104,109.162 L525.526,109.162 L525.526,121.42 L524.104,121.42 L524.104,109.162 Z M529.603,113.23 C530.209003,112.809998 531.027995,112.6 532.06,112.6 C533.092005,112.6 533.898997,112.815998 534.481,113.248 C535.063003,113.680002 535.366,114.225997 535.39,114.886 L534.004,114.886 C533.895999,114.105996 533.236006,113.716 532.024,113.716 C531.435997,113.716 530.983002,113.847999 530.665,114.112 C530.346998,114.376001 530.188,114.660998 530.188,114.967 C530.188,115.273002 530.307999,115.530999 530.548,115.741 C530.788001,115.951001 531.171997,116.133999 531.7,116.29 L533.428,116.866 C534.160004,117.094001 534.720998,117.384998 535.111,117.739 C535.501002,118.093002 535.696,118.578997 535.696,119.197 C535.696,119.815003 535.378003,120.372998 534.742,120.871 C534.105997,121.369002 533.218006,121.618 532.078,121.618 C530.937994,121.618 530.050003,121.363003 529.414,120.853 C528.777997,120.342997 528.442,119.686004 528.406,118.882 L529.774,118.882 C529.798,119.422003 530.016998,119.826999 530.431,120.097 C530.845002,120.367001 531.363997,120.502 531.988,120.502 C532.612003,120.502 533.127998,120.370001 533.536,120.106 C533.944002,119.841999 534.148,119.527002 534.148,119.161 C534.148,118.794998 534.028001,118.516001 533.788,118.324 C533.547999,118.131999 533.158003,117.964001 532.618,117.82 L530.944,117.262 C529.443992,116.817998 528.694,116.038006 528.694,114.922 C528.694,114.213996 528.996997,113.650002 529.603,113.23 Z M548.224,115.84 C548.224,115.059996 548.062002,114.502002 547.738,114.166 C547.413998,113.829998 546.943003,113.662 546.325,113.662 C545.706997,113.662 545.209002,113.784999 544.831,114.031 C544.452998,114.277001 544.264,114.663997 544.264,115.192 L542.698,115.192 C542.698,113.871993 543.405993,113.056002 544.822,112.744 C545.254002,112.648 545.721997,112.6 546.226,112.6 C547.294005,112.6 548.127997,112.869997 548.728,113.41 C549.328003,113.950003 549.628,114.771994 549.628,115.876 L549.628,121.42 L548.404,121.42 L548.26,119.98 C547.731997,121.072005 546.778007,121.618 545.398,121.618 C544.473995,121.618 543.733003,121.360003 543.175,120.844 C542.616997,120.327997 542.338,119.686004 542.338,118.918 C542.338,118.149996 542.646997,117.550002 543.265,117.118 C543.883003,116.685998 544.653995,116.47 545.578,116.47 C546.502005,116.47 547.383996,116.625998 548.224,116.938 L548.224,115.84 Z M548.224,117.838 C547.371996,117.597999 546.628003,117.478 545.992,117.478 C545.355997,117.478 544.840002,117.591999 544.444,117.82 C544.047998,118.048001 543.85,118.407998 543.85,118.9 C543.85,119.980005 544.461994,120.52 545.686,120.52 C546.382003,120.52 546.978998,120.271002 547.477,119.773 C547.975002,119.274998 548.224,118.630004 548.224,117.838 Z M554.344,114.472 C554.908003,113.223994 555.873993,112.6 557.242,112.6 C558.262005,112.6 559.056997,112.935997 559.627,113.608 C560.197003,114.280003 560.482,115.197994 560.482,116.362 L560.482,121.42 L559.078,121.42 L559.078,116.362 C559.078,115.533996 558.883002,114.910002 558.493,114.49 C558.102998,114.069998 557.548004,113.86 556.828,113.86 C556.107996,113.86 555.526002,114.153997 555.082,114.742 C554.637998,115.330003 554.404,116.145995 554.38,117.19 L554.38,121.42 L552.958,121.42 L552.958,112.816 L554.182,112.816 L554.344,114.472 Z M569.464,114.094 L569.464,109.162 L570.868,109.162 L570.868,121.42 L569.716,121.42 L569.536,119.98 C569.259999,120.520003 568.894002,120.927999 568.438,121.204 C567.981998,121.480001 567.484003,121.618 566.944,121.618 C565.851995,121.618 564.937004,121.198004 564.199,120.358 C563.460996,119.517996 563.092,118.423007 563.092,117.073 C563.092,115.722993 563.454996,114.640004 564.181,113.824 C564.907004,113.007996 565.824994,112.6 566.935,112.6 C568.045006,112.6 568.887997,113.097995 569.464,114.094 Z M565.261,114.742 C564.786998,115.330003 564.55,116.115995 564.55,117.1 C564.55,118.084005 564.789998,118.872997 565.27,119.467 C565.750002,120.061003 566.325997,120.358 566.998,120.358 C567.670003,120.358 568.242998,120.133002 568.717,119.683 C569.191002,119.232998 569.44,118.630004 569.464,117.874 L569.464,116.47 C569.464,115.665996 569.230002,115.030002 568.762,114.562 C568.293998,114.093998 567.712003,113.86 567.016,113.86 C566.319997,113.86 565.735002,114.153997 565.261,114.742 Z M578.788,112.816 L580.876,119.674 L582.928,113.23 L584.116,113.23 L586.15,119.746 L588.256,112.816 L589.66,112.816 L586.852,121.42 L585.466,121.42 L583.486,115.39 L581.542,121.42 L580.174,121.42 L577.312,112.816 L578.788,112.816 Z M594.952,112.6 C596.152006,112.6 597.120996,112.989996 597.859,113.77 C598.597004,114.550004 598.966,115.665993 598.966,117.118 C598.966,118.558007 598.597004,119.667996 597.859,120.448 C597.120996,121.228004 596.152006,121.618 594.952,121.618 C593.751994,121.618 592.783004,121.228004 592.045,120.448 C591.306996,119.667996 590.938,118.558007 590.938,117.118 C590.938,115.665993 591.306996,114.550004 592.045,113.77 C592.783004,112.989996 593.751994,112.6 594.952,112.6 Z M596.878,114.697 C596.445998,114.114997 595.813004,113.824 594.979,113.824 C594.144996,113.824 593.506002,114.114997 593.062,114.697 C592.617998,115.279003 592.396,116.082995 592.396,117.109 C592.396,118.135005 592.605998,118.938997 593.026,119.521 C593.446002,120.103003 594.072996,120.394 594.907,120.394 C595.741004,120.394 596.385998,120.103003 596.842,119.521 C597.298002,118.938997 597.526,118.135005 597.526,117.109 C597.526,116.082995 597.310002,115.279003 596.878,114.697 Z M605.194,114.022 C603.837993,114.022 603.136,115.089989 603.088,117.226 L603.088,121.42 L601.666,121.42 L601.666,112.798 L603.088,112.798 L603.088,114.454 C603.520002,113.253994 604.281995,112.654 605.374,112.654 C605.722002,112.654 606.051998,112.707999 606.364,112.816 L606.292,114.202 C605.931998,114.081999 605.566002,114.022 605.194,114.022 Z M611.116,116.866 L609.964,117.802 L609.964,121.42 L608.542,121.42 L608.542,109.162 L609.964,109.162 L609.964,116.29 L614.122,112.816 L616.102,112.816 L612.142,116.038 L616.3,121.42 L614.554,121.42 L611.116,116.866 Z M625.948,120.466 C627.136006,120.466 627.813999,119.944005 627.982,118.9 L629.44,118.9 C629.307999,119.764004 628.927003,120.432998 628.297,120.907 C627.666997,121.381002 626.884005,121.618 625.948,121.618 C624.795994,121.618 623.860004,121.207004 623.14,120.385 C622.419996,119.562996 622.06,118.468007 622.06,117.1 C622.06,115.731993 622.422996,114.640004 623.149,113.824 C623.875004,113.007996 624.840994,112.6 626.047,112.6 C627.253006,112.6 628.152997,113.067995 628.747,114.004 C629.341003,114.940005 629.548001,116.079993 629.368,117.424 L623.482,117.424 C623.482,118.312004 623.697998,119.040997 624.13,119.611 C624.562002,120.181003 625.167996,120.466 625.948,120.466 Z M626.992,113.95 C626.715999,113.805999 626.380002,113.734 625.984,113.734 C625.251996,113.734 624.673002,113.982998 624.247,114.481 C623.820998,114.979002 623.572,115.599996 623.5,116.344 L628.09,116.344 C628.09,115.143994 627.724004,114.346002 626.992,113.95 Z M639.16,121.42 L637.432,121.42 L634.966,118.162 L632.626,121.42 L630.898,121.42 L634.156,117.118 L630.898,112.798 L632.626,112.798 L635.092,116.038 L637.45,112.798 L639.178,112.798 L635.884,117.118 L639.16,121.42 Z M642.796,114.13 C643.360003,113.109995 644.202994,112.6 645.325,112.6 C646.447006,112.6 647.382996,113.013996 648.133,113.842 C648.883004,114.670004 649.258,115.761993 649.258,117.118 C649.258,118.474007 648.880004,119.562996 648.124,120.385 C647.367996,121.207004 646.438006,121.618 645.334,121.618 C644.229994,121.618 643.414003,121.204004 642.886,120.376 L642.886,125.65 L641.464,125.65 L641.464,112.816 L642.634,112.816 L642.796,114.13 Z M647.035,119.494 C647.545003,118.917997 647.8,118.129005 647.8,117.127 C647.8,116.124995 647.557002,115.330003 647.071,114.742 C646.584998,114.153997 645.994003,113.86 645.298,113.86 C644.601997,113.86 644.032002,114.078998 643.588,114.517 C643.143998,114.955002 642.91,115.545996 642.886,116.29 L642.886,117.928 C642.886,118.684004 643.113998,119.277998 643.57,119.71 C644.026002,120.142002 644.589997,120.358 645.262,120.358 C645.934003,120.358 646.524997,120.070003 647.035,119.494 Z M655.126,120.466 C656.314006,120.466 656.991999,119.944005 657.16,118.9 L658.618,118.9 C658.485999,119.764004 658.105003,120.432998 657.475,120.907 C656.844997,121.381002 656.062005,121.618 655.126,121.618 C653.973994,121.618 653.038004,121.207004 652.318,120.385 C651.597996,119.562996 651.238,118.468007 651.238,117.1 C651.238,115.731993 651.600996,114.640004 652.327,113.824 C653.053004,113.007996 654.018994,112.6 655.225,112.6 C656.431006,112.6 657.330997,113.067995 657.925,114.004 C658.519003,114.940005 658.726001,116.079993 658.546,117.424 L652.66,117.424 C652.66,118.312004 652.875998,119.040997 653.308,119.611 C653.740002,120.181003 654.345996,120.466 655.126,120.466 Z M656.17,113.95 C655.893999,113.805999 655.558002,113.734 655.162,113.734 C654.429996,113.734 653.851002,113.982998 653.425,114.481 C652.998998,114.979002 652.75,115.599996 652.678,116.344 L657.268,116.344 C657.268,115.143994 656.902004,114.346002 656.17,113.95 Z M664.936,114.022 C663.579993,114.022 662.878,115.089989 662.83,117.226 L662.83,121.42 L661.408,121.42 L661.408,112.798 L662.83,112.798 L662.83,114.454 C663.262002,113.253994 664.023995,112.654 665.116,112.654 C665.464002,112.654 665.793998,112.707999 666.106,112.816 L666.034,114.202 C665.673998,114.081999 665.308002,114.022 664.936,114.022 Z M668.374,112.798 L669.796,112.798 L669.796,121.42 L668.374,121.42 L668.374,112.798 Z M668.401,110.539 C668.238999,110.376999 668.158,110.161001 668.158,109.891 C668.158,109.620999 668.238999,109.405001 668.401,109.243 C668.563001,109.080999 668.787999,109 669.076,109 C669.364001,109 669.594999,109.080999 669.769,109.243 C669.943001,109.405001 670.03,109.620999 670.03,109.891 C670.03,110.161001 669.943001,110.376999 669.769,110.539 C669.594999,110.701001 669.364001,110.782 669.076,110.782 C668.787999,110.782 668.563001,110.701001 668.401,110.539 Z M676.636,120.466 C677.824006,120.466 678.501999,119.944005 678.67,118.9 L680.128,118.9 C679.995999,119.764004 679.615003,120.432998 678.985,120.907 C678.354997,121.381002 677.572005,121.618 676.636,121.618 C675.483994,121.618 674.548004,121.207004 673.828,120.385 C673.107996,119.562996 672.748,118.468007 672.748,117.1 C672.748,115.731993 673.110996,114.640004 673.837,113.824 C674.563004,113.007996 675.528994,112.6 676.735,112.6 C677.941006,112.6 678.840997,113.067995 679.435,114.004 C680.029003,114.940005 680.236001,116.079993 680.056,117.424 L674.17,117.424 C674.17,118.312004 674.385998,119.040997 674.818,119.611 C675.250002,120.181003 675.855996,120.466 676.636,120.466 Z M677.68,113.95 C677.403999,113.805999 677.068002,113.734 676.672,113.734 C675.939996,113.734 675.361002,113.982998 674.935,114.481 C674.508998,114.979002 674.26,115.599996 674.188,116.344 L678.778,116.344 C678.778,115.143994 678.412004,114.346002 677.68,113.95 Z M684.304,114.472 C684.868003,113.223994 685.833993,112.6 687.202,112.6 C688.222005,112.6 689.016997,112.935997 689.587,113.608 C690.157003,114.280003 690.442,115.197994 690.442,116.362 L690.442,121.42 L689.038,121.42 L689.038,116.362 C689.038,115.533996 688.843002,114.910002 688.453,114.49 C688.062998,114.069998 687.508004,113.86 686.788,113.86 C686.067996,113.86 685.486002,114.153997 685.042,114.742 C684.597998,115.330003 684.364,116.145995 684.34,117.19 L684.34,121.42 L682.918,121.42 L682.918,112.816 L684.142,112.816 L684.304,114.472 Z M699.082,113.383 C699.682003,113.905003 700.071999,114.555996 700.252,115.336 L698.812,115.462 C698.655999,114.957997 698.404002,114.565001 698.056,114.283 C697.707998,114.000999 697.324002,113.86 696.904,113.86 C696.135996,113.86 695.515002,114.147997 695.041,114.724 C694.566998,115.300003 694.33,116.082995 694.33,117.073 C694.33,118.063005 694.560998,118.857997 695.023,119.458 C695.485002,120.058003 696.060997,120.358 696.751,120.358 C697.441003,120.358 697.956998,120.199002 698.299,119.881 C698.641002,119.562998 698.812,119.110003 698.812,118.522 L700.27,118.522 C700.27,119.446005 699.949003,120.192997 699.307,120.763 C698.664997,121.333003 697.828005,121.618 696.796,121.618 C695.703995,121.618 694.777004,121.204004 694.015,120.376 C693.252996,119.547996 692.872,118.447007 692.872,117.073 C692.872,115.698993 693.249996,114.610004 694.006,113.806 C694.762004,113.001996 695.646995,112.6 696.661,112.6 C697.675005,112.6 698.481997,112.860997 699.082,113.383 Z M706.03,120.466 C707.218006,120.466 707.895999,119.944005 708.064,118.9 L709.522,118.9 C709.389999,119.764004 709.009003,120.432998 708.379,120.907 C707.748997,121.381002 706.966005,121.618 706.03,121.618 C704.877994,121.618 703.942004,121.207004 703.222,120.385 C702.501996,119.562996 702.142,118.468007 702.142,117.1 C702.142,115.731993 702.504996,114.640004 703.231,113.824 C703.957004,113.007996 704.922994,112.6 706.129,112.6 C707.335006,112.6 708.234997,113.067995 708.829,114.004 C709.423003,114.940005 709.630001,116.079993 709.45,117.424 L703.564,117.424 C703.564,118.312004 703.779998,119.040997 704.212,119.611 C704.644002,120.181003 705.249996,120.466 706.03,120.466 Z M707.074,113.95 C706.797999,113.805999 706.462002,113.734 706.066,113.734 C705.333996,113.734 704.755002,113.982998 704.329,114.481 C703.902998,114.979002 703.654,115.599996 703.582,116.344 L708.172,116.344 C708.172,115.143994 707.806004,114.346002 707.074,113.95 Z" id="Tell-us-more-about-y" fill="#FFFFFF" mask="url(#mask-2)"></path>
                <g id="button/primary/default" mask="url(#mask-2)">
                    <g transform="translate(405.000000, 145.000000)" id="Primary">
                        <g>
                            <rect id="Rectangle-43" fill="#47D7AC" x="0" y="0" width="196" height="40" rx="20"></rect>
                            <text id="Call-to-action" font-family="Karla-Bold, Karla" font-size="15" font-weight="bold" line-spacing="14" fill="#2D2926">
                                <tspan x="21" y="28">Complete your profile</tspan>
                            </text>
                        </g>
                    </g>
                </g>
            </g>
        </g>
    </g>
</svg>