<?xml version="1.0" encoding="UTF-8"?>
<svg width="1004px" height="247px" viewBox="0 0 1004 247" version="1.1" xmlns="http://www.w3.org/2000/svg" xmlns:xlink="http://www.w3.org/1999/xlink">
    <!-- Generator: Sketch 45.2 (43514) - http://www.bohemiancoding.com/sketch -->
    <title>footer</title>
    <desc>Created with Sketch.</desc>
    <defs>
        <rect id="path-1" x="0" y="0" width="1004" height="247"></rect>
    </defs>
    <g id="Empty-states-|-Platfrom" stroke="none" stroke-width="1" fill="none" fill-rule="evenodd">
        <g id="footer">
            <mask id="mask-2" fill="white">
                <use xlink:href="#path-1"></use>
            </mask>
            <use id="Rectangle-3-Copy-6" fill="#244C5A" xlink:href="#path-1"></use>
            <g id="photography-duo" mask="url(#mask-2)" fill-rule="nonzero">
                <g transform="translate(712.000000, 136.000000)" id="Shape">
                    <path d="M73.52,48 L67.52,48 L67.52,47 C67.52,44.790861 65.729139,43 63.52,43 L40.52,43 L40.52,38.65 L46.52,38.65 C48.729139,38.65 50.52,36.859139 50.52,34.65 L50.52,19.65 C50.52,17.440861 48.729139,15.65 46.52,15.65 L31.52,15.65 C29.310861,15.65 27.52,17.440861 27.52,19.65 L27.52,34.65 C27.52,36.859139 29.310861,38.65 31.52,38.65 L37.52,38.65 L37.52,43 L14.52,43 C12.310861,43 10.52,44.790861 10.52,47 L10.52,48 L4.52,48 C2.310861,48 0.52,49.790861 0.52,52 L0.52,77 C0.52,79.209139 2.310861,81 4.52,81 L10.52,81 L10.52,82 C10.52,84.209139 12.310861,86 14.52,86 L63.52,86 C65.729139,86 67.52,84.209139 67.52,82 L67.52,81 L73.52,81 C75.729139,81 77.52,79.209139 77.52,77 L77.52,52 C77.52,49.790861 75.729139,48 73.52,48 Z M30.52,34.67 L30.52,19.67 C30.52,19.1177153 30.9677153,18.67 31.52,18.67 L46.52,18.67 C47.0722847,18.67 47.52,19.1177153 47.52,19.67 L47.52,34.67 C47.52,35.2222847 47.0722847,35.67 46.52,35.67 L31.52,35.67 C31.2461179,35.6782776 30.9808367,35.5738089 30.7861416,35.381004 C30.5914465,35.1881992 30.4843948,34.9239498 30.49,34.65 L30.52,34.67 Z M14.48,46 L63.48,46 C64.0322847,46 64.48,46.4477153 64.48,47 L64.48,64.46 L54.48,64.46 C54.1802322,56.1161631 47.32922,49.5068662 38.98,49.5068662 C30.63078,49.5068662 23.7797678,56.1161631 23.48,64.46 L13.48,64.46 L13.48,47 C13.48,46.7347835 13.5853568,46.4804296 13.7728932,46.2928932 C13.9604296,46.1053568 14.2147835,46 14.48,46 Z M51.48,64.5 C51.484033,69.5634577 48.4353802,74.1300147 43.7573497,76.0677069 C39.0793192,78.0053992 33.6945572,76.9320566 30.1170186,73.3487846 C26.5394799,69.7655127 25.4747611,64.3790389 27.4199418,59.7041173 C29.3651224,55.0291956 33.9365552,51.987859 39,52 C45.8973834,51.9999802 51.4934595,57.5826364 51.51,64.48 L51.48,64.5 Z M4.48,78 C3.92771525,78 3.48,77.5522847 3.48,77 L3.48,52 C3.48,51.4477153 3.92771525,51 4.48,51 L10.48,51 L10.48,78 L4.48,78 Z M63.48,83 L14.48,83 C13.9277153,83 13.48,82.5522847 13.48,82 L13.48,66.46 L23.63,66.46 C24.6534563,74.1637441 31.2235693,79.918732 38.995,79.918732 C46.7664307,79.918732 53.3365437,74.1637441 54.36,66.46 L64.52,66.46 L64.52,81.95 C64.52,82.2152165 64.4146432,82.4695704 64.2271068,82.6571068 C64.0395704,82.8446432 63.7852165,82.95 63.52,82.95 L63.48,83 Z M74.48,77 C74.48,77.5522847 74.0322847,78 73.48,78 L67.48,78 L67.48,51 L73.48,51 C74.0322847,51 74.48,51.4477153 74.48,52 L74.48,77 Z" fill="#2D2926"></path>
                    <path d="M37.5,32.15 L40.5,32.15 C42.4329966,32.15 44,30.5829966 44,28.65 L44,25.65 C44,23.7170034 42.4329966,22.15 40.5,22.15 L37.5,22.15 C35.5670034,22.15 34,23.7170034 34,25.65 L34,28.65 C34,29.5782577 34.3687489,30.4684964 35.0251263,31.1248737 C35.6815036,31.7812511 36.5717423,32.15 37.5,32.15 Z M36,25.65 C36,24.8215729 36.6715729,24.15 37.5,24.15 L40.5,24.15 C41.3284271,24.15 42,24.8215729 42,25.65 L42,28.65 C42,29.4784271 41.3284271,30.15 40.5,30.15 L37.5,30.15 C36.6715729,30.15 36,29.4784271 36,28.65 L36,25.65 Z" fill="#47D7AC"></path>
                    <path d="M39,56.48 C34.581722,56.48 31,60.061722 31,64.48 C31,68.898278 34.581722,72.48 39,72.48 C43.418278,72.48 47,68.898278 47,64.48 C47,60.061722 43.418278,56.48 39,56.48 Z M39,70.48 C35.6862915,70.48 33,67.7937085 33,64.48 C33,61.1662915 35.6862915,58.48 39,58.48 C42.3137085,58.48 45,61.1662915 45,64.48 C44.9944837,67.7898026 42.3098072,70.4700046 39,70.47 L39,70.48 Z" fill="#47D7AC"></path>
                    <path d="M20,48.47 C17.790861,48.47 16,50.260861 16,52.47 C16,54.679139 17.790861,56.47 20,56.47 C22.209139,56.47 24,54.679139 24,52.47 C24,50.260861 22.209139,48.47 20,48.47 Z M20,54.47 C18.8954305,54.47 18,53.5745695 18,52.47 C18,51.3654305 18.8954305,50.47 20,50.47 C21.1045695,50.47 22,51.3654305 22,52.47 C22,53.5745695 21.1045695,54.47 20,54.47 Z" fill="#47D7AC"></path>
                    <path d="M39,8.55 C39.5522847,8.55 40,8.10228475 40,7.55 L40,1.55 C40,0.99771525 39.5522847,0.55 39,0.55 C38.4477153,0.55 38,0.99771525 38,1.55 L38,7.55 C38,8.10228475 38.4477153,8.55 39,8.55 Z" fill="#47D7AC"></path>
                    <path d="M51.08,2.92 C50.5691456,2.71401128 49.987903,2.95992161 49.78,3.47 L47.51,9 C47.3742391,9.33047067 47.4250948,9.70826576 47.6434103,9.99107352 C47.8617259,10.2738813 48.2143339,10.4187365 48.5684103,10.3710735 C48.9224868,10.3234106 49.2242391,10.0904707 49.36,9.76 L51.63,4.21 C51.8294086,3.70195928 51.5846397,3.12786507 51.08,2.92 L51.08,2.92 Z" fill="#47D7AC"></path>
                    <path d="M61.59,9.89 C61.1999625,9.50227641 60.5700375,9.50227641 60.18,9.89 L55.94,14.13 C55.6546238,14.3743899 55.5303181,14.7581184 55.6181899,15.123419 C55.7060617,15.4887195 55.9912805,15.7739383 56.356581,15.8618101 C56.7218816,15.9496819 57.1056101,15.8253762 57.35,15.54 L61.59,11.3 C61.9777236,10.9099625 61.9777236,10.2800375 61.59,9.89 Z" fill="#47D7AC"></path>
                    <path d="M68.85,21 C68.7558755,20.7520013 68.5670744,20.5515603 68.3251432,20.442785 C68.083212,20.3340098 67.8079752,20.3258135 67.56,20.42 L61.95,22.57 C61.6159567,22.6986156 61.3759035,22.9956713 61.3202662,23.3492691 C61.264629,23.702867 61.4018602,24.0592869 61.6802662,24.2842691 C61.9586723,24.5092513 62.3359567,24.5686156 62.67,24.44 L68.28,22.29 C68.7924931,22.0899933 69.047185,21.5135854 68.85,21 Z" fill="#47D7AC"></path>
                    <path d="M70,31.48 L64,31.48 C63.4477153,31.48 63,31.9277153 63,32.48 C63,33.0322847 63.4477153,33.48 64,33.48 L70,33.48 C70.5522847,33.48 71,33.0322847 71,32.48 C71,31.9277153 70.5522847,31.48 70,31.48 Z" fill="#47D7AC"></path>
                    <path d="M14,31.48 L8,31.48 C7.44771525,31.48 7,31.9277153 7,32.48 C7,33.0322847 7.44771525,33.48 8,33.48 L14,33.48 C14.5522847,33.48 15,33.0322847 15,32.48 C15,31.9277153 14.5522847,31.48 14,31.48 Z" fill="#47D7AC"></path>
                    <path d="M16.79,23.48 C16.9959887,22.9691456 16.7500784,22.387903 16.24,22.18 L10.68,19.93 C10.3445483,19.7694316 9.94769995,19.8082838 9.64975911,20.0308625 C9.35181828,20.2534413 9.20200748,20.6229746 9.2608418,20.9901919 C9.31967612,21.3574092 9.57743559,21.661643 9.93,21.78 L15.49,24 C16.0008544,24.2059887 16.582097,23.9600784 16.79,23.45 L16.79,23.48 Z" fill="#47D7AC"></path>
                    <path d="M20.6,15.6 C20.9991459,15.9371653 21.590578,15.9102154 21.9574061,15.5381468 C22.3242342,15.1660783 22.3427927,14.5743235 22,14.18 L17.75,9.95 C17.4963414,9.69812773 17.127579,9.6007134 16.7826219,9.69445204 C16.4376649,9.78819068 16.1689204,10.0588412 16.0776219,10.4044521 C15.9863234,10.750063 16.0863414,11.1181278 16.34,11.37 L20.6,15.6 Z" fill="#47D7AC"></path>
                    <path d="M30.94,8.86 L28.78,3.27 C28.5811775,2.75361376 28.0013862,2.49617749 27.485,2.695 C26.9686138,2.89382251 26.7111775,3.47361376 26.91,3.99 L29.07,9.58 C29.1986156,9.91404335 29.4956713,10.1540965 29.8492691,10.2097338 C30.202867,10.2653711 30.559287,10.1281399 30.7842692,9.84973381 C31.0092514,9.57132773 31.0686156,9.19404333 30.94,8.86 L30.94,8.86 Z" fill="#47D7AC"></path>
                </g>
            </g>
            <g id="strategy-duo" mask="url(#mask-2)" fill-rule="nonzero">
                <g transform="translate(206.000000, 11.000000)" id="Shape">
                    <path d="M48,67.15 L14,67.15 C13.4477153,67.15 13,67.5977153 13,68.15 C13,68.7022847 13.4477153,69.15 14,69.15 L48,69.15 C48.5522847,69.15 49,68.7022847 49,68.15 C49,67.5977153 48.5522847,67.15 48,67.15 Z" fill="#47D7AC"></path>
                    <path d="M32,57.16 L48,57.16 C48.5522847,57.16 49,56.7122847 49,56.16 C49,55.6077153 48.5522847,55.16 48,55.16 L32,55.16 C31.4477153,55.16 31,55.6077153 31,56.16 C31,56.7122847 31.4477153,57.16 32,57.16 Z" fill="#47D7AC"></path>
                    <path d="M48,61.15 L38,61.15 C37.4477153,61.15 37,61.5977153 37,62.15 C37,62.7022847 37.4477153,63.15 38,63.15 L48,63.15 C48.5522847,63.15 49,62.7022847 49,62.15 C49,61.5977153 48.5522847,61.15 48,61.15 Z" fill="#47D7AC"></path>
                    <path d="M57.53,79.65 C57.5805181,79.2764998 57.4876129,78.8977322 57.27,78.59 L50,68.39 L54.82,64.22 C55.1487041,63.9363416 55.3383748,63.5241726 55.34,63.09 L55.34,32.09 C55.5625043,20.4500627 49.0831888,9.71602255 38.68,4.49 C38.1067566,4.24538256 37.4419725,4.38072782 37.01,4.83 L34.26,7.68 C33.6402963,6.29207708 33.2324196,4.8190016 33.05,3.31 C32.9876542,2.71132804 32.5734856,2.20790309 31.9980518,2.03134957 C31.4226181,1.85479604 30.7973769,2.03931114 30.41,2.5 L27.73,5.66 C26.5707808,2.66156891 23.6946622,0.678038818 20.48,0.66 C19.9529557,0.664654836 19.4670256,0.945583174 19.2,1.4 C18.9398742,1.86260689 18.9398742,2.42739311 19.2,2.89 C19.27,3.02 20.89,6.12 17.83,9.71 C15.31,12.71 5.54,22.91 1.45,27.18 C0.119573616,28.5307408 0.119573616,30.6992592 1.45,32.05 L4.6,35.22 C5.87423413,36.5121949 7.92616694,36.6121832 9.32,35.45 C10.99,34.07 15.32,30.93 19.16,31.61 C22.2677929,32.1784069 25.4763746,31.696416 28.28,30.24 C25.28,36.37 16.74,44.76 13.04,48.04 C12.7176282,48.3232012 12.5319774,48.7309049 12.53,49.16 L12.53,67.67 L4.79,78.58 C4.57238713,78.8877322 4.47948186,79.2664998 4.53,79.64 C4.52672061,79.6966192 4.52672061,79.7533808 4.53,79.81 L4.53,85.81 C4.53,86.6384271 5.20157288,87.31 6.03,87.31 L56,87.31 C56.8284271,87.31 57.5,86.6384271 57.5,85.81 L57.5,79.81 C57.5129477,79.7572617 57.522963,79.7038465 57.53,79.65 Z M38.41,7.65 C41.67,9.39 52.41,16.28 52.41,32.03 L52.41,62.4 L49.56,64.87 L49.56,32.08 C49.56,16.23 38.04,10.61 36.36,9.88 L38.41,7.65 Z M15.55,49.88 C18.76,47 32.38,34.22 32.38,26.57 C32.3763402,25.9518939 31.9938976,25.3993224 31.4166963,25.1781725 C30.8394951,24.9570226 30.1857378,25.1125826 29.77,25.57 C27.1284384,28.1994401 23.3666973,29.3686804 19.7,28.7 C14.79,27.84 9.9,31.14 7.43,33.18 C7.23822342,33.3578586 6.94177658,33.3578586 6.75,33.18 L3.6,30 C3.41061111,29.8089871 3.41061111,29.5010129 3.6,29.31 C7.69,25 17.51,14.7 20.08,11.69 C21.9672732,9.67292293 22.8898172,6.93810889 22.61,4.19 C25.08,5.46 25.61,8.77 25.61,8.94 C25.6925068,9.52529464 26.1110456,10.0075668 26.678893,10.1716596 C27.2467405,10.3357524 27.858012,10.151068 28.24,9.7 L30.7,6.8 C31.36,9.05 32.64,11.8 35.06,12.61 C35.53,12.8 46.5,17.48 46.5,32.08 L46.5,68.15 L46.5,68.15 C46.5002379,68.278291 46.5170436,68.4060141 46.55,68.53 L46.55,68.62 C46.5835217,68.7175827 46.6270888,68.8114196 46.68,68.9 L46.68,68.98 L46.68,68.98 L53.39,78.42 L8.57,78.42 L15.27,69 L15.27,69 C15.3032601,68.9485672 15.3333171,68.8951325 15.36,68.84 L15.41,68.74 C15.41,68.74 15.41,68.65 15.41,68.6 C15.41,68.55 15.41,68.51 15.41,68.46 C15.41,68.41 15.41,68.39 15.41,68.35 C15.4136032,68.2900541 15.4136032,68.2299459 15.41,68.17 L15.41,49.88 L15.55,49.88 Z M7.55,84.31 L7.55,80.46 L54.55,80.46 L54.55,84.31 L7.55,84.31 Z" fill="#2D2926"></path>
                </g>
            </g>
            <g id="studio-duo" mask="url(#mask-2)" fill-rule="nonzero">
                <g transform="translate(141.000000, 136.000000)" id="Shape">
                    <path d="M28.31,24.09 L16.31,24.09 C15.4815729,24.09 14.81,24.7615729 14.81,25.59 L14.81,92.05 C14.81,92.8784271 15.4815729,93.55 16.31,93.55 C17.1384271,93.55 17.81,92.8784271 17.81,92.05 L17.81,32.59 L26.81,32.59 L26.81,95.85 C26.81,96.6784271 27.4815729,97.35 28.31,97.35 C29.1384271,97.35 29.81,96.6784271 29.81,95.85 L29.81,25.59 C29.81,24.7615729 29.1384271,24.09 28.31,24.09 L28.31,24.09 Z M17.8,30.59 L17.8,27.09 L26.8,27.09 L26.8,30.59 L17.8,30.59 Z" fill="#2D2926"></path>
                    <path d="M55.7,92.33 C55.2383734,92.3285406 54.8031301,92.1146075 54.52,91.75 C54.22,91.37 47.2,82.26 47.2,70.84 C47.2,66.18 48.03,55.35 55.7,55.35 C63.37,55.35 64.2,66.18 64.2,70.84 C64.2,82.26 57.2,91.37 56.88,91.75 C56.5968699,92.1146075 56.1616266,92.3285406 55.7,92.33 Z M55.7,58.33 C52.2,58.33 50.2,62.88 50.2,70.82 C50.2,78.47 53.78,85.14 55.7,88.16 C57.62,85.16 61.21,78.45 61.21,70.82 C61.2,62.91 59.2,58.36 55.7,58.36 L55.7,58.33 Z" fill="#47D7AC"></path>
                    <path d="M61.7,6.32 C60.8715729,6.32 60.2,6.99157288 60.2,7.82 L60.2,30.55 L51.2,30.55 L51.2,2.46 C51.2,1.63157288 50.5284271,0.96 49.7,0.96 C48.8715729,0.96 48.2,1.63157288 48.2,2.46 L48.2,37.29 C48.1877812,37.3996607 48.1877812,37.5103393 48.2,37.62 L51.2,51.19 C51.3540129,51.8729148 51.9599355,52.3584829 52.66,52.36 L58.66,52.36 C59.3600645,52.3584829 59.9659871,51.8729148 60.12,51.19 L63.12,37.62 C63.1319762,37.510326 63.1319762,37.399674 63.12,37.29 L63.12,7.82 C63.1211359,7.02183514 62.4970297,6.36256803 61.7,6.32 Z M60.2,32.55 L60.2,36.55 L51.2,36.55 L51.2,32.55 L60.2,32.55 Z M57.49,49.36 L53.91,49.36 L51.51,38.55 L59.89,38.55 L57.49,49.36 Z" fill="#2D2926"></path>
                    <path d="M22.31,18.14 C21.7577153,18.14 21.31,17.6922847 21.31,17.14 L21.31,11.67 C21.31,11.1177153 21.7577153,10.67 22.31,10.67 C22.8622847,10.67 23.31,11.1177153 23.31,11.67 L23.31,17.14 C23.31,17.6922847 22.8622847,18.14 22.31,18.14 Z" fill="#47D7AC"></path>
                    <path d="M28.16,19.28 C28.0299871,19.2815929 27.9009113,19.2578158 27.78,19.21 C27.2699216,19.002097 27.0240113,18.4208544 27.23,17.91 L29.29,12.84 C29.5181822,12.363293 30.0779124,12.14645 30.567698,12.3450117 C31.0574835,12.5435734 31.3081959,13.0889743 31.14,13.59 L29.08,18.66 C28.9265964,19.0334255 28.5637019,19.2779849 28.16,19.28 Z" fill="#47D7AC"></path>
                    <path d="M33.31,22.7 C32.9099248,22.6943799 32.5517116,22.4508257 32.399368,22.0808485 C32.2470245,21.7108712 32.3298803,21.2857003 32.61,21 L36.49,17.14 C36.7436586,16.8881278 37.112421,16.7907134 37.457378,16.8844521 C37.8023351,16.9781907 38.0710796,17.2488412 38.162378,17.5944521 C38.2536765,17.940063 38.1536586,18.3081278 37.9,18.56 L34,22.41 C33.8162113,22.5923408 33.5688682,22.6962966 33.31,22.7 Z" fill="#47D7AC"></path>
                    <path d="M7.43,48.47 C7.02373493,48.4723626 6.65641996,48.2286962 6.50062905,47.8534815 C6.34483814,47.4782668 6.43154005,47.0460905 6.72,46.76 L10.6,42.9 C10.9991459,42.5628347 11.590578,42.5897846 11.9574061,42.9618532 C12.3242342,43.3339217 12.3427927,43.9256765 12,44.32 L8.12,48.18 C7.93621127,48.3623408 7.68886818,48.4662966 7.43,48.47 Z" fill="#47D7AC"></path>
                    <path d="M36.82,28.1 C36.3412646,28.0964149 35.93223,27.7540254 35.8444438,27.2833939 C35.7566576,26.8127624 36.0147502,26.3459347 36.46,26.17 L41.57,24.17 C41.9040433,24.0413844 42.2813277,24.1007487 42.5597338,24.3257309 C42.8381398,24.5507131 42.975371,24.907133 42.9197338,25.2607309 C42.8640965,25.6143287 42.6240433,25.9113844 42.29,26.04 L37.18,28.04 C37.0646965,28.081914 36.9426646,28.1022527 36.82,28.1 Z" fill="#47D7AC"></path>
                    <path d="M2.69,41.17 C2.21126461,41.1664149 1.80223001,40.8240254 1.71444382,40.3533939 C1.62665764,39.8827624 1.88475018,39.4159347 2.33,39.24 L7.44,37.24 C7.77404333,37.1113844 8.1513277,37.1707487 8.42973375,37.3957309 C8.7081398,37.6207131 8.84537103,37.977133 8.78973375,38.3307309 C8.73409648,38.6843287 8.49404333,38.9813844 8.16,39.11 L3.05,41.11 C2.93469655,41.151914 2.81266457,41.1722527 2.69,41.17 Z" fill="#47D7AC"></path>
                    <path d="M43.32,33.71 L37.84,33.71 C37.2877153,33.71 36.84,33.2622847 36.84,32.71 C36.84,32.1577153 37.2877153,31.71 37.84,31.71 L43.32,31.71 C43.8722847,31.71 44.32,32.1577153 44.32,32.71 C44.32,33.2622847 43.8722847,33.71 43.32,33.71 L43.32,33.71 Z" fill="#47D7AC"></path>
                    <path d="M6.77,33.62 L1.29,33.62 C0.73771525,33.62 0.29,33.1722847 0.29,32.62 C0.29,32.0677153 0.73771525,31.62 1.29,31.62 L6.77,31.62 C7.32228475,31.62 7.77,32.0677153 7.77,32.62 C7.77,33.1722847 7.32228475,33.62 6.77,33.62 L6.77,33.62 Z" fill="#47D7AC"></path>
                    <path d="M41.76,41.6 C41.6299871,41.6015929 41.5009113,41.5778158 41.38,41.53 L36.31,39.46 C35.7991366,39.2501318 35.5551318,38.6658634 35.765,38.155 C35.9748682,37.6441366 36.5591366,37.4001318 37.07,37.61 L42.14,39.68 C42.5888256,39.8572744 42.847029,40.3297857 42.7538056,40.8032623 C42.6605823,41.2767388 42.2425282,41.616101 41.76,41.61 L41.76,41.6 Z" fill="#47D7AC"></path>
                    <path d="M7.93,27.78 C7.79998708,27.7815929 7.67091133,27.7578158 7.55,27.71 L2.48,25.64 C1.96913663,25.4301318 1.72513184,24.8458634 1.93500004,24.335 C2.14486824,23.8241366 2.72913661,23.5801318 3.24,23.79 L8.31,25.86 C8.75882563,26.0372744 9.01702901,26.5097857 8.92380564,26.9832623 C8.83058228,27.4567388 8.41252817,27.796101 7.93,27.79 L7.93,27.78 Z" fill="#47D7AC"></path>
                    <path d="M37.15,48.51 C36.884197,48.5115368 36.6287188,48.4071865 36.44,48.22 L32.57,44.35 C32.3163414,44.0945551 32.2182295,43.723189 32.312622,43.3757918 C32.4070144,43.0283946 32.6795709,42.7577442 33.027622,42.6657918 C33.375673,42.5738395 33.7463414,42.6745551 34,42.93 L37.87,46.8 C38.1584599,47.0860905 38.2451619,47.5182668 38.089371,47.8934815 C37.93358,48.2686962 37.5662651,48.5123626 37.16,48.51 L37.15,48.51 Z" fill="#47D7AC"></path>
                    <path d="M11.34,22.67 C11.074197,22.6715368 10.8187188,22.5671865 10.63,22.38 L6.76,18.5 C6.37063928,18.1078778 6.37287787,17.4743608 6.76500003,17.085 C7.15712219,16.6956393 7.79063925,16.6978779 8.18,17.09 L12,21 C12.2884599,21.2860905 12.3751619,21.7182668 12.219371,22.0934815 C12.06358,22.4686962 11.6962651,22.7123626 11.29,22.71 L11.34,22.67 Z" fill="#47D7AC"></path>
                    <path d="M16.73,19.18 C16.3177072,19.1787821 15.9484243,18.9246519 15.8,18.54 L13.8,13.44 C13.6011775,12.9236138 13.8586138,12.3438225 14.375,12.145 C14.8913862,11.9461775 15.4711775,12.2036138 15.67,12.72 L17.67,17.82 C17.788491,18.1270691 17.7482926,18.472782 17.5625055,18.7444707 C17.3767184,19.0161593 17.0691362,19.1790288 16.74,19.18 L16.73,19.18 Z" fill="#47D7AC"></path>
                </g>
            </g>
            <g id="testing-duo" mask="url(#mask-2)">
                <g transform="translate(803.000000, 17.000000)" id="Shape">
                    <path d="M54.13,55.16 L39.91,55.16 C38.9413314,55.0372272 37.9889207,55.4850814 37.4656177,56.3094272 C36.9423147,57.133773 36.9423147,58.186227 37.4656177,59.0105728 C37.9889207,59.8349186 38.9413314,60.2827728 39.91,60.16 L57.13,60.16 C58.3891732,60.0004076 59.3331404,58.9292466 59.3331404,57.66 C59.3331404,56.3907534 58.3891732,55.3195924 57.13,55.16 L54.13,55.16 Z" fill="none"></path>
                    <path d="M52.59,71.24 L45.37,71.24 C44.1108268,71.3995924 43.1668596,72.4707534 43.1668596,73.74 C43.1668596,75.0092466 44.1108268,76.0804076 45.37,76.24 L52.59,76.24 C53.5586686,76.3627728 54.5110793,75.9149186 55.0343823,75.0905728 C55.5576853,74.266227 55.5576853,73.213773 55.0343823,72.3894272 C54.5110793,71.5650814 53.5586686,71.1172272 52.59,71.24 L52.59,71.24 Z" fill="none"></path>
                    <path d="M38.39,49.64 C38.39,51.0317576 39.5182424,52.16 40.91,52.16 L54.13,52.16 C55.3891732,52.0004076 56.3331404,50.9292466 56.3331404,49.66 C56.3331404,48.3907534 55.3891732,47.3195924 54.13,47.16 L40.91,47.16 C39.5337149,47.1598266 38.4118458,48.2638883 38.39,49.64 Z" fill="none"></path>
                    <path d="M55.13,63.2 L37.91,63.2 C36.9413314,63.0772272 35.9889207,63.5250814 35.4656177,64.3494272 C34.9423147,65.173773 34.9423147,66.226227 35.4656177,67.0505728 C35.9889207,67.8749186 36.9413314,68.3227728 37.91,68.2 L55.13,68.2 C56.0986686,68.3227728 57.0510793,67.8749186 57.5743823,67.0505728 C58.0976853,66.226227 58.0976853,65.173773 57.5743823,64.3494272 C57.0510793,63.5250814 56.0986686,63.0772272 55.13,63.2 L55.13,63.2 Z" fill="none"></path>
                    <path d="M62.65,57.68 C62.6432147,55.3060259 61.1219815,53.201251 58.87,52.45 C59.8858878,50.7447414 59.9060689,48.6248732 58.9228302,46.900583 C57.9395915,45.1762929 56.1049182,44.1141147 54.12,44.12 L33.37,44.12 L33.37,29.71 C33.244042,26.7499872 30.8076915,24.4151064 27.845,24.4151064 C24.8823085,24.4151064 22.445958,26.7499872 22.32,29.71 L22.32,35.85 C22.3708359,39.5284288 20.916097,43.0678325 18.2931813,45.6473161 C15.6702656,48.2267998 12.1070674,49.6222429 8.43,49.51 L2.24,49.51 C1.41157288,49.51 0.74,50.1815729 0.74,51.01 C0.74,51.8384271 1.41157288,52.51 2.24,52.51 L8.43,52.51 C12.9059572,52.6359464 17.2392049,50.9284933 20.4261371,47.7830969 C23.6130694,44.6377005 25.3772195,40.3272243 25.31,35.85 L25.31,29.71 C25.3939238,28.3770891 26.4994496,27.3389811 27.835,27.3389811 C29.1705504,27.3389811 30.2760762,28.3770891 30.36,29.71 L30.36,45.61 C30.36,46.4384271 31.0315729,47.11 31.86,47.11 L36,47.11 C34.9745343,49.0888421 35.2471789,51.491276 36.69,53.19 C34.2370986,54.9396716 33.6485483,58.3372121 35.37,60.81 C33.113018,61.9807294 31.9476521,64.5416736 32.5475599,67.0124399 C33.1474676,69.4832062 35.3574528,71.2246073 37.9,71.23 L40.46,71.23 C39.6553535,72.7995483 39.6553535,74.6604517 40.46,76.23 L7.54,76.23 C6.71157288,76.23 6.04,76.9015729 6.04,77.73 C6.04,78.5584271 6.71157288,79.23 7.54,79.23 L52.59,79.23 C54.6036865,79.2346013 56.4595034,78.1403398 57.4301791,76.3760431 C58.4008548,74.6117463 58.3317707,72.4584483 57.25,70.76 C58.7910117,70.120973 59.9595309,68.8181821 60.4278359,67.2170066 C60.8961408,65.6158311 60.6138006,63.888699 59.66,62.52 C61.4753145,61.5840506 62.6254791,59.7222455 62.65,57.68 Z M40.91,47.11 L54.13,47.11 C55.3891732,47.2695924 56.3331404,48.3407534 56.3331404,49.61 C56.3331404,50.8792466 55.3891732,51.9504076 54.13,52.11 L40.91,52.11 C39.9413314,52.2327728 38.9889207,51.7849186 38.4656177,50.9605728 C37.9423147,50.136227 37.9423147,49.083773 38.4656177,48.2594272 C38.9889207,47.4350814 39.9413314,46.9872272 40.91,47.11 L40.91,47.11 Z M52.59,76.28 L45.37,76.28 C44.1108268,76.1204076 43.1668596,75.0492466 43.1668596,73.78 C43.1668596,72.5107534 44.1108268,71.4395924 45.37,71.28 L52.59,71.28 C53.5586686,71.1572272 54.5110793,71.6050814 55.0343823,72.4294272 C55.5576853,73.253773 55.5576853,74.306227 55.0343823,75.1305728 C54.5110793,75.9549186 53.5586686,76.4027728 52.59,76.28 L52.59,76.28 Z M55.13,68.28 L37.91,68.28 C36.9413314,68.4027728 35.9889207,67.9549186 35.4656177,67.1305728 C34.9423147,66.306227 34.9423147,65.253773 35.4656177,64.4294272 C35.9889207,63.6050814 36.9413314,63.1572272 37.91,63.28 L55.13,63.28 C56.0986686,63.1572272 57.0510793,63.6050814 57.5743823,64.4294272 C58.0976853,65.253773 58.0976853,66.306227 57.5743823,67.1305728 C57.0510793,67.9549186 56.0986686,68.4027728 55.13,68.28 L55.13,68.28 Z M57.13,60.28 L39.91,60.28 C38.9413314,60.4027728 37.9889207,59.9549186 37.4656177,59.1305728 C36.9423147,58.306227 36.9423147,57.253773 37.4656177,56.4294272 C37.9889207,55.6050814 38.9413314,55.1572272 39.91,55.28 L57.13,55.28 C58.3891732,55.4395924 59.3331404,56.5107534 59.3331404,57.78 C59.3331404,59.0492466 58.3891732,60.1204076 57.13,60.28 L57.13,60.28 Z" fill="#47D7AC" fill-rule="nonzero"></path>
                    <path d="M95.76,27.49 L89.46,27.49 C84.9823339,27.361274 80.6464553,29.0674961 77.4573194,32.2132038 C74.2681836,35.3589115 72.502676,39.6709898 72.57,44.15 L72.57,50.29 C72.4860762,51.6229109 71.3805504,52.6610189 70.045,52.6610189 C68.7094496,52.6610189 67.6039238,51.6229109 67.52,50.29 L67.52,34.39 C67.52,33.5615729 66.8484271,32.89 66.02,32.89 L61.88,32.89 C62.9054657,30.9111579 62.6328211,28.508724 61.19,26.81 C63.6429014,25.0603284 64.2314517,21.6627879 62.51,19.19 C64.7751037,18.026389 65.9502611,15.4642813 65.3544497,12.9884594 C64.7586383,10.5126375 62.5464981,8.76568959 60,8.76 L57.42,8.76 C58.2246465,7.19045172 58.2246465,5.32954828 57.42,3.76 L90.2,3.76 C91.0284271,3.76 91.7,3.08842712 91.7,2.26 C91.7,1.43157288 91.0284271,0.76 90.2,0.76 L45.3,0.76 C43.2863135,0.755398651 41.4304966,1.84966016 40.4598209,3.61395694 C39.4891452,5.37825372 39.5582293,7.53155171 40.64,9.23 C39.0989883,9.86902695 37.9304691,11.1718179 37.4621641,12.7729934 C36.9938592,14.3741689 37.2761994,16.101301 38.23,17.47 C36.282193,18.4921648 35.1289764,20.5749125 35.2963574,22.7682562 C35.4637384,24.9615999 36.9196425,26.8452372 39,27.56 C37.9841122,29.2652586 37.9639311,31.3851268 38.9471698,33.109417 C39.9304085,34.8337071 41.7650818,35.8958853 43.75,35.89 L64.52,35.89 L64.52,50.29 C64.645958,53.2500128 67.0823085,55.5848936 70.045,55.5848936 C73.0076915,55.5848936 75.444042,53.2500128 75.57,50.29 L75.57,44.15 C75.5192711,40.4733602 76.9726523,36.9355614 79.593363,34.3563893 C82.2140737,31.7772172 85.7746399,30.3805406 89.45,30.49 L95.75,30.49 C96.5784271,30.49 97.25,29.8184271 97.25,28.99 C97.25,28.1615729 96.5784271,27.49 95.75,27.49 L95.76,27.49 Z M45.3,3.71 L52.52,3.71 C53.4886686,3.58722722 54.4410793,4.03508137 54.9643823,4.85942717 C55.4876853,5.68377298 55.4876853,6.73622702 54.9643823,7.56057283 C54.4410793,8.38491863 53.4886686,8.83277278 52.52,8.71 L45.3,8.71 C44.0408268,8.55040755 43.0968596,7.47924663 43.0968596,6.21 C43.0968596,4.94075337 44.0408268,3.86959245 45.3,3.71 L45.3,3.71 Z M42.76,11.71 L60,11.71 C60.9686686,11.5872272 61.9210793,12.0350814 62.4443823,12.8594272 C62.9676853,13.683773 62.9676853,14.736227 62.4443823,15.5605728 C61.9210793,16.3849186 60.9686686,16.8327728 60,16.71 L42.76,16.71 C41.7913314,16.8327728 40.8389207,16.3849186 40.3156177,15.5605728 C39.7923147,14.736227 39.7923147,13.683773 40.3156177,12.8594272 C40.8389207,12.0350814 41.7913314,11.5872272 42.76,11.71 L42.76,11.71 Z M57,32.89 L43.76,32.89 C42.7913314,33.0127728 41.8389207,32.5649186 41.3156177,31.7405728 C40.7923147,30.916227 40.7923147,29.863773 41.3156177,29.0394272 C41.8389207,28.2150814 42.7913314,27.7672272 43.76,27.89 L57,27.89 C58.2591732,28.0495924 59.2031404,29.1207534 59.2031404,30.39 C59.2031404,31.6592466 58.2591732,32.7304076 57,32.89 L57,32.89 Z M58,24.89 L40.76,24.89 C39.7913314,25.0127728 38.8389207,24.5649186 38.3156177,23.7405728 C37.7923147,22.916227 37.7923147,21.863773 38.3156177,21.0394272 C38.8389207,20.2150814 39.7913314,19.7672272 40.76,19.89 L58,19.89 C58.9686686,19.7672272 59.9210793,20.2150814 60.4443823,21.0394272 C60.9676853,21.863773 60.9676853,22.916227 60.4443823,23.7405728 C59.9210793,24.5649186 58.9686686,25.0127728 58,24.89 Z" fill="#2D2926" fill-rule="nonzero"></path>
                </g>
            </g>
            <g id="ux-duo" mask="url(#mask-2)" fill-rule="nonzero">
                <g transform="translate(901.000000, 124.000000)" id="Shape">
                    <path d="M58,59.68 C57.0648875,59.6773 56.1438286,59.9075647 55.32,60.35 L55.32,59.87 C55.324989,57.8693921 54.2752964,56.0142263 52.5577956,54.9882402 C50.8402948,53.962254 48.7092209,53.9173204 46.95,54.87 C46.8024028,52.9667714 45.7053809,51.2661627 44.0323092,50.3469811 C42.3592374,49.4277995 40.3355443,49.413895 38.65,50.31 L38.65,35 L45.91,35 C47.7896338,34.9455317 49.270419,33.3797468 49.22,31.5 L49.22,26.5 C49.2441545,25.5921369 48.9051587,24.7121444 48.2781687,24.055119 C47.6511787,23.3980936 46.7879995,23.0183218 45.88,23 L20.5,23 C18.6203662,23.0544683 17.139581,24.6202532 17.19,26.5 L17.19,31.5 C17.139581,33.3797468 18.6203662,34.9455317 20.5,35 L27.28,35 L27.28,72 C27.2800067,74.2770365 25.4370298,76.1244866 23.16,76.13 C22.0955762,76.1418367 21.0688775,75.736183 20.3,75 L10.58,64.13 C9.57431686,63.0111718 8.16269143,62.3413699 6.66,62.27 C5.1579671,62.176698 3.68226739,62.6962597 2.57,63.71 C0.253128072,65.8070869 0.0654536016,69.3818387 2.15,71.71 L25.35,97.47 C25.9135,98.0328454 26.8186339,98.0571717 27.4115526,97.5254061 C28.0044712,96.9936405 28.0784288,96.0912052 27.58,95.47 L4.38,69.71 C3.39443026,68.6136234 3.48396219,66.9259465 4.58,65.94 C5.67834811,64.9600272 7.36150089,65.0493191 8.35,66.14 L18.12,77 C20.1513431,79.0357557 23.2079277,79.6495865 25.8677295,78.555918 C28.5275313,77.4622495 30.2682319,74.8758508 30.28,72 L30.28,33.14 C30.2800001,31.6653998 31.4753998,30.4700002 32.95,30.4700002 C34.4246002,30.4700002 35.6199999,31.6653998 35.62,33.14 L35.62,55.07 C35.62,55.16 35.62,55.26 35.62,55.35 L35.62,63.77 C35.62,64.5984271 36.2915729,65.27 37.12,65.27 L37.12,65.27 C37.9484271,65.27 38.62,64.5984271 38.62,63.77 L38.62,55.21 C38.6586599,53.7409226 39.8809226,52.5813401 41.35,52.62 C42.8190774,52.6586599 43.9786599,53.8809226 43.94,55.35 L43.94,67.6 C43.94,68.4284271 44.6115729,69.1 45.44,69.1 L45.44,69.1 C45.8481152,69.1163378 46.245245,68.9655449 46.5396636,68.6824501 C46.8340821,68.3993553 47.0003269,68.008442 47,67.6 L47,59.88 C47,58.4053997 48.1953997,57.21 49.67,57.21 C51.1446003,57.21 52.34,58.4053997 52.34,59.88 L52.34,69.6 C52.34,70.4284271 53.0115729,71.1 53.84,71.1 L53.84,71.1 C54.6684271,71.1 55.34,70.4284271 55.34,69.6 L55.34,65.35 C55.34,63.8753997 56.5353997,62.68 58.01,62.68 C59.4846003,62.68 60.68,63.8753997 60.68,65.35 L60.68,87.1 C60.68,87.9284271 61.3515729,88.6 62.18,88.6 C63.0084271,88.6 63.68,87.9284271 63.68,87.1 L63.68,65.35 C63.6800023,63.8444883 63.0812565,62.4007841 62.0157615,61.3371649 C60.9502664,60.2735457 59.5055094,59.6773448 58,59.68 L58,59.68 Z M33,27.47 C29.9068852,27.4472375 27.3662915,29.9077424 27.29,33 L20.5,33 C19.7297115,32.9361995 19.1495268,32.2718658 19.19,31.5 L19.19,26.5 C19.1495268,25.7281342 19.7297115,25.0638005 20.5,25 L45.88,25 C46.6502885,25.0638005 47.2304732,25.7281342 47.19,26.5 L47.19,31.5 C47.2304732,32.2718658 46.6502885,32.9361995 45.88,33 L38.61,33 C38.5347438,29.9465177 36.0542482,27.5013946 33,27.47 Z" fill="#2D2926"></path>
                    <path d="M33,0.53 C32.4477153,0.53 32,0.97771525 32,1.53 L32,7.53 C32,8.08228475 32.4477153,8.53 33,8.53 C33.5522847,8.53 34,8.08228475 34,7.53 L34,1.53 C34,0.97771525 33.5522847,0.53 33,0.53 Z" fill="#47D7AC"></path>
                    <path d="M45.07,2.89 C44.5591456,2.68401128 43.977903,2.92992161 43.77,3.44 L41.5,9 C41.3642391,9.33047067 41.4150948,9.70826576 41.6334103,9.99107352 C41.8517259,10.2738813 42.2043339,10.4187365 42.5584103,10.3710735 C42.9124868,10.3234106 43.2142391,10.0904707 43.35,9.76 L45.62,4.2 C45.722074,3.95346766 45.7213884,3.67636571 45.6180958,3.43034146 C45.5148032,3.18431722 45.317471,2.98977683 45.07,2.89 Z" fill="#47D7AC"></path>
                    <path d="M55.57,9.87 C55.1799625,9.48227641 54.5500375,9.48227641 54.16,9.87 L49.92,14.12 C49.5306393,14.5121222 49.5328779,15.1456392 49.925,15.535 C50.3171222,15.9243607 50.9506392,15.9221221 51.34,15.53 L55.58,11.28 C55.9649712,10.8872183 55.9605035,10.2572819 55.57,9.87 L55.57,9.87 Z" fill="#47D7AC"></path>
                    <path d="M14.66,49.42 L10.42,53.67 C10.0306393,54.0621222 10.0328778,54.6956393 10.425,55.085 C10.8171222,55.4743607 11.4506393,55.4721222 11.84,55.08 L16.08,50.83 C16.3318723,50.5763414 16.4292866,50.207579 16.3355479,49.8626219 C16.2418093,49.5176649 15.9711588,49.2489204 15.6255479,49.1576219 C15.279937,49.0663235 14.9118722,49.1663414 14.66,49.42 L14.66,49.42 Z" fill="#47D7AC"></path>
                    <path d="M55.36,23.89 C55.4541245,24.1379987 55.6429256,24.3384397 55.8848568,24.447215 C56.126788,24.5559902 56.4020248,24.5641865 56.65,24.47 L62.25,22.32 C62.5840433,22.1913844 62.8240965,21.8943287 62.8797338,21.5407309 C62.935371,21.187133 62.7981398,20.8307131 62.5197338,20.6057309 C62.2413277,20.3807487 61.8640433,20.3213844 61.53,20.45 L55.93,22.6 C55.4175069,22.8000067 55.162815,23.3764146 55.36,23.89 Z" fill="#47D7AC"></path>
                    <path d="M10.64,41.05 C10.5458755,40.8020013 10.3570744,40.6015603 10.1151432,40.492785 C9.87321197,40.3840098 9.59797515,40.3758135 9.35,40.47 L3.75,42.62 C3.23361376,42.8188225 2.97617749,43.3986138 3.175,43.915 C3.37382251,44.4313862 3.95361376,44.6888225 4.47,44.49 L10.07,42.34 C10.5824931,42.1399933 10.837185,41.5635854 10.64,41.05 L10.64,41.05 Z" fill="#47D7AC"></path>
                    <path d="M63.95,31.47 L57.95,31.47 C57.3977153,31.47 56.95,31.9177153 56.95,32.47 C56.95,33.0222847 57.3977153,33.47 57.95,33.47 L63.95,33.47 C64.5022847,33.47 64.95,33.0222847 64.95,32.47 C64.95,31.9177153 64.5022847,31.47 63.95,31.47 Z" fill="#47D7AC"></path>
                    <path d="M9.05,32.48 C9.05,31.9277153 8.60228475,31.48 8.05,31.48 L2.05,31.48 C1.49771525,31.48 1.05,31.9277153 1.05,32.48 C1.05,33.0322847 1.49771525,33.48 2.05,33.48 L8.05,33.48 C8.60228475,33.48 9.05,33.0322847 9.05,32.48 Z" fill="#47D7AC"></path>
                    <path d="M62.05,43.19 L56.49,40.93 C55.9889743,40.7618041 55.4435734,41.0125165 55.2450117,41.502302 C55.04645,41.9920876 55.263293,42.5518178 55.74,42.78 L61.3,45 C61.8010257,45.1681959 62.3464266,44.9174835 62.5449883,44.427698 C62.74355,43.9379124 62.526707,43.3781822 62.05,43.15 L62.05,43.19 Z" fill="#47D7AC"></path>
                    <path d="M3.95,21.76 L9.51,24 C9.84545167,24.1605684 10.2423,24.1217162 10.5402409,23.8991375 C10.8381817,23.6765587 10.9879925,23.3070254 10.9291582,22.9398081 C10.8703239,22.5725908 10.6125644,22.268357 10.26,22.15 L4.7,19.91 C4.19897426,19.7418041 3.65357341,19.9925165 3.45501169,20.482302 C3.25644997,20.9720876 3.473293,21.5318178 3.95,21.76 Z" fill="#47D7AC"></path>
                    <path d="M14.62,15.58 C15.0223548,15.8733211 15.5792062,15.8259444 15.9262253,15.4688668 C16.2732443,15.1117892 16.3046949,14.5538117 16,14.16 L11.75,9.93 C11.3578778,9.54063929 10.7243608,9.54287789 10.335,9.93500005 C9.94563932,10.3271222 9.94787787,10.9606392 10.34,11.35 L14.62,15.58 Z" fill="#47D7AC"></path>
                    <path d="M22.78,3.24 C22.5811775,2.72361376 22.0013862,2.46617749 21.485,2.665 C20.9686138,2.86382251 20.7111775,3.44361376 20.91,3.96 L23.07,9.56 C23.1986156,9.89404335 23.4956713,10.1340965 23.8492691,10.1897338 C24.202867,10.2453711 24.559287,10.1081399 24.7842692,9.82973381 C25.0092514,9.55132773 25.0686156,9.17404333 24.94,8.84 L22.78,3.24 Z" fill="#47D7AC"></path>
                </g>
            </g>
            <g id="video-motion-duo" mask="url(#mask-2)" fill-rule="nonzero">
                <g transform="translate(20.000000, 20.000000)" id="Shape">
                    <path d="M92.06,46.13 L88.93,46.13 L89.3,43.9 L89.3,43.65 C89.3,41.6010236 87.6389764,39.94 85.59,39.94 L75,39.94 L75,37.83 C80.6339509,37.0608166 84.8579254,32.2864081 84.9346825,26.6007108 C85.0114395,20.9150134 80.91789,16.0283182 75.3067565,15.107326 C69.695623,14.1863337 64.2547673,17.5080842 62.51,22.92 L53.8,22.92 C52.061089,17.4888236 46.6045716,14.1523819 40.9777072,15.0796818 C35.3508427,16.0069817 31.253478,20.9178908 31.3492928,26.6198473 C31.4451076,32.3218038 35.7051568,37.0922762 41.36,37.83 L41.36,39.94 L32.55,39.94 C30.5010236,39.94 28.84,41.6010236 28.84,43.65 L28.84,47.84 L17.69,47.84 L5.47,41.94 C4.38765402,41.4265892 3.11791471,41.5023993 2.1043467,42.1409471 C1.0907787,42.779495 0.474198772,43.892066 0.47,45.09 L0.47,69.56 C0.474198772,70.757934 1.0907787,71.870505 2.1043467,72.5090529 C3.11791471,73.1476007 4.38765402,73.2234108 5.47,72.71 L17.63,66.83 L28.84,66.83 L28.84,71.33 C28.8619241,73.3633384 30.5165434,75.0001182 32.55,75 L46.88,75 L46.88,97.4 C46.88,98.2284271 47.5515729,98.9 48.38,98.9 C49.2084271,98.9 49.88,98.2284271 49.88,97.4 L49.88,75 L54.41,75 L54.41,97.4 C54.41,98.2284271 55.0815729,98.9 55.91,98.9 C56.7384271,98.9 57.41,98.2284271 57.41,97.4 L57.41,75 L74.93,75 L74.93,67.4 C74.9303127,66.3927606 75.532706,65.4832648 76.46,65.09 L82.89,63.32 C84.8879138,62.7345142 86.3827456,61.069287 86.75,59.02 L87.07,57.09 L92.07,57.09 C95.1075661,57.09 97.57,54.6275661 97.57,51.59 C97.57,48.5524339 95.1075661,46.09 92.07,46.09 L92.06,46.13 Z M15.83,64.37 L4.16,70 C4.01095505,70.0837331 3.82904495,70.0837331 3.68,70 C3.53548819,69.9095454 3.44838039,69.750479 3.45,69.58 L3.45,45.08 C3.44838039,44.909521 3.53548819,44.7504546 3.68,44.66 C3.7604768,44.6080164 3.85419422,44.5802483 3.95,44.58 C4.0262242,44.5793276 4.10155409,44.596448 4.17,44.63 L15.84,50.27 L15.83,64.37 Z M28.83,63.83 L18.83,63.83 L18.83,50.83 L28.83,50.83 L28.83,63.83 Z M58.16,52.43 L84.83,52.43 L84.46,54.62 L58.16,54.62 L58.16,52.43 Z M73.46,17.93 C78.1544204,17.93 81.96,21.7355796 81.96,26.43 C81.96,31.1244204 78.1544204,34.93 73.46,34.93 C68.7655796,34.93 64.96,31.1244204 64.96,26.43 C64.971015,21.7417697 68.77176,17.9454962 73.46,17.94 L73.46,17.93 Z M62.07,24.93 C61.9190845,25.9410661 61.9190845,26.9689339 62.07,27.98 L54.24,27.98 C54.3909155,26.9689339 54.3909155,25.9410661 54.24,24.93 L62.07,24.93 Z M34.36,26.44 C34.36,21.7455796 38.1655796,17.94 42.86,17.94 C47.5544204,17.94 51.36,21.7455796 51.36,26.44 C51.36,31.1344204 47.5544204,34.94 42.86,34.94 C38.167864,34.9344896 34.3655104,31.132136 34.36,26.44 Z M44.36,37.83 C48.7499837,37.2511479 52.4196605,34.2073376 53.8,30 L62.52,30 C63.9065332,34.2191459 67.5948839,37.2655368 72,37.83 L72,39.94 L44.36,39.94 L44.36,37.83 Z M82.08,60.48 L75.6,62.27 L75.46,62.27 C73.3487276,63.0984407 71.957331,65.1320204 71.95,67.4 L71.95,72 L32.55,72 C32.1601273,71.9946217 31.8453783,71.6798727 31.84,71.29 L31.84,43.65 C31.8453783,43.2601273 32.1601273,42.9453783 32.55,42.94 L85.62,42.94 C85.9740491,42.9464124 86.2708765,43.2093168 86.32,43.56 L85.17,50.44 L40.34,50.44 C39.7877153,50.44 39.34,50.8877153 39.34,51.44 C39.34,51.9922847 39.7877153,52.44 40.34,52.44 L56.16,52.44 L56.16,55.63 C56.16,56.1822847 56.6077153,56.63 57.16,56.63 L84.16,56.63 L83.84,58.54 C83.6705417,59.4690136 82.9881777,60.2211648 82.08,60.48 L82.08,60.48 Z M92.08,54.13 L87.61,54.13 L88.45,49.13 L92.08,49.13 C93.4607119,49.13 94.58,50.2492881 94.58,51.63 C94.58,53.0107119 93.4607119,54.13 92.08,54.13 L92.08,54.13 Z" fill="#2D2926"></path>
                    <path d="M73.46,22.44 C71.250861,22.44 69.46,24.230861 69.46,26.44 C69.46,28.649139 71.250861,30.44 73.46,30.44 C75.669139,30.44 77.46,28.649139 77.46,26.44 C77.46,24.230861 75.669139,22.44 73.46,22.44 Z M73.46,28.44 C72.3554305,28.44 71.46,27.5445695 71.46,26.44 C71.46,25.3354305 72.3554305,24.44 73.46,24.44 C74.5645695,24.44 75.46,25.3354305 75.46,26.44 C75.46,27.5445695 74.5645695,28.44 73.46,28.44 Z" fill="#47D7AC"></path>
                    <path d="M42.86,22.44 C40.650861,22.44 38.86,24.230861 38.86,26.44 C38.86,28.649139 40.650861,30.44 42.86,30.44 C45.069139,30.44 46.86,28.649139 46.86,26.44 C46.86,24.230861 45.069139,22.44 42.86,22.44 Z M42.86,28.44 C41.7554305,28.44 40.86,27.5445695 40.86,26.44 C40.86,25.3354305 41.7554305,24.44 42.86,24.44 C43.9645695,24.44 44.86,25.3354305 44.86,26.44 C44.86,27.5445695 43.9645695,28.44 42.86,28.44 Z" fill="#47D7AC"></path>
                    <path d="M64.41,60.52 C62.200861,60.52 60.41,62.310861 60.41,64.52 C60.41,66.729139 62.200861,68.52 64.41,68.52 C66.619139,68.52 68.41,66.729139 68.41,64.52 C68.41,62.310861 66.619139,60.52 64.41,60.52 Z M64.41,66.52 C63.3054305,66.52 62.41,65.6245695 62.41,64.52 C62.41,63.4154305 63.3054305,62.52 64.41,62.52 C65.5145695,62.52 66.41,63.4154305 66.41,64.52 C66.41,65.6245695 65.5145695,66.52 64.41,66.52 Z" fill="#47D7AC"></path>
                    <path d="M52.42,60.52 C50.210861,60.52 48.42,62.310861 48.42,64.52 C48.42,66.729139 50.210861,68.52 52.42,68.52 C54.629139,68.52 56.42,66.729139 56.42,64.52 C56.42,62.310861 54.629139,60.52 52.42,60.52 Z M52.42,66.52 C51.3154305,66.52 50.42,65.6245695 50.42,64.52 C50.42,63.4154305 51.3154305,62.52 52.42,62.52 C53.5245695,62.52 54.42,63.4154305 54.42,64.52 C54.42,65.6245695 53.5245695,66.52 52.42,66.52 Z" fill="#47D7AC"></path>
                    <path d="M45.64,8 C46.1922847,8 46.64,7.55228475 46.64,7 L46.64,1 C46.64,0.44771525 46.1922847,0 45.64,0 C45.0877153,0 44.64,0.44771525 44.64,1 L44.64,7 C44.64,7.55228475 45.0877153,8 45.64,8 Z" fill="#47D7AC"></path>
                    <path d="M20.69,30.92 L14.69,30.92 C14.1377153,30.92 13.69,31.3677153 13.69,31.92 C13.69,32.4722847 14.1377153,32.92 14.69,32.92 L20.69,32.92 C21.2422847,32.92 21.69,32.4722847 21.69,31.92 C21.69,31.3677153 21.2422847,30.92 20.69,30.92 Z" fill="#47D7AC"></path>
                    <path d="M22.9,21.6 L17.34,19.34 C17.0045483,19.1794316 16.6077,19.2182838 16.3097591,19.4408625 C16.0118183,19.6634413 15.8620075,20.0329746 15.9208418,20.4001919 C15.9796761,20.7674092 16.2374356,21.071643 16.59,21.19 L22.15,23.45 C22.6510257,23.6181959 23.1964266,23.3674835 23.3949883,22.877698 C23.59355,22.3879124 23.376707,21.8281822 22.9,21.6 Z" fill="#47D7AC"></path>
                    <path d="M24.41,9.37 C24.0178778,8.98063928 23.3843608,8.98287787 22.995,9.37500003 C22.6056393,9.76712219 22.6078779,10.4006392 23,10.79 L27.25,15 C27.6421222,15.3893607 28.2756392,15.3871221 28.665,14.995 C29.0543607,14.6028778 29.0521221,13.9693608 28.66,13.58 L24.41,9.37 Z" fill="#47D7AC"></path>
                    <path d="M35.42,2.68 C35.2211775,2.16361376 34.6413862,1.90617749 34.125,2.105 C33.6086138,2.30382251 33.3511775,2.88361376 33.55,3.4 L35.72,9 C35.8486156,9.33404335 36.1456713,9.57409653 36.4992691,9.62973381 C36.852867,9.6853711 37.209287,9.54813987 37.4342692,9.2697338 C37.6592514,8.99132773 37.7186156,8.61404333 37.59,8.28 L35.42,2.68 Z" fill="#47D7AC"></path>
                </g>
            </g>
        </g>
    </g>
</svg>