<?xml version="1.0" encoding="UTF-8"?>
<svg width="20px" height="20px" viewBox="0 0 20 20" version="1.1" xmlns="http://www.w3.org/2000/svg" xmlns:xlink="http://www.w3.org/1999/xlink">
    <!-- Generator: Sketch 44.1 (41455) - http://www.bohemiancoding.com/sketch -->
    <title>ic_calendar</title>
    <desc>Created with Sketch.</desc>
    <defs></defs>
    <g id="Availability-feature" stroke="none" stroke-width="1" fill="none" fill-rule="evenodd" opacity="0.5">
        <g id="Artboard-7-Copy" transform="translate(-149.000000, -51.000000)">
            <g id="ic/calendar" transform="translate(147.000000, 49.000000)">
                <g>
                    <rect id="bounds" x="0" y="0" width="24" height="24"></rect>
                    <path d="M3.5415,4.9502 C3.2525,4.9502 2.9995,5.1782 2.9995,5.4372 L2.9995,20.4392 C2.9995,20.7072 3.2585,20.9502 3.5415,20.9502 L16.9995,20.9502 L16.9995,17.4502 C16.9995,17.1742 17.2235,16.9502 17.4995,16.9502 L20.9995,16.9502 L20.9995,5.4372 C20.9995,5.1552 20.8075,4.9502 20.5415,4.9502 L3.5415,4.9502 Z M15.4687,3.9502 L15.4687,2.5323 C15.4687,2.2563 15.6927,2.0323 15.9687,2.0323 C16.2447,2.0323 16.4687,2.2563 16.4687,2.5323 L16.4687,3.9502 L20.5415,3.9502 C21.3595,3.9502 21.9995,4.6032 21.9995,5.4372 L21.9995,17.4502 C21.9995,17.5540243 21.9679438,17.6504902 21.9138275,17.7304419 C21.8902641,17.778527 21.8585549,17.8236407 21.8187,17.8637 L17.9067,21.7827 C17.8505491,21.838278 17.7845493,21.8780979 17.7143439,21.9019716 C17.6493214,21.9328925 17.5764969,21.9502 17.4995,21.9502 L3.5415,21.9502 C2.7065,21.9502 1.9995,21.2592 1.9995,20.4392 L1.9995,5.4372 C1.9995,4.6312 2.7065,3.9502 3.5415,3.9502 L7.4897,3.9502 L7.4897,2.5001 C7.4897,2.2241 7.7137,2.0001 7.9897,2.0001 C8.2657,2.0001 8.4897,2.2241 8.4897,2.5001 L8.4897,3.9502 L15.4687,3.9502 Z M18.055,11.4871997 L18.055,8.4732 C18.055,8.1972 17.831,7.9732 17.555,7.9732 L13.868,7.9732 L10.182,7.9732 L6.495,7.9732 C6.218,7.9732 5.995,8.1972 5.995,8.4732 L5.995,11.4872 L5.995,14.5002 L5.995,17.5132 C5.995,17.7892 6.218,18.0122 6.495,18.0122 L10.182,18.0122 C10.458,18.0122 10.682,17.7892 10.682,17.5132 L10.682,15.0002 L13.868,15.0002 L17.555,15.0002 C17.831,15.0002 18.055,14.7762 18.055,14.5002 L18.055,11.4872 Z M20.3192126,17.9502 L17.9995,17.9502 L17.9995,20.2728767 L20.3192126,17.9502 Z M6.995,17.0132 L6.995,15.0002 L9.682,15.0002 L9.682,17.0132 L6.995,17.0132 Z M6.995,10.9872 L6.995,8.9732 L9.682,8.9732 L9.682,10.9872 L6.995,10.9872 Z M14.368,10.9872 L14.368,8.9732 L17.055,8.9732 L17.055,10.9872 L14.368,10.9872 Z M10.682,10.9872 L10.682,8.9732 L13.369,8.9732 L13.369,10.9872 L10.682,10.9872 Z M14.368,14.0002 L14.368,11.9872 L17.055,11.9872 L17.055,14.0002 L14.368,14.0002 Z M6.995,14.0002 L6.995,11.9872 L9.682,11.9872 L9.682,14.0002 L6.995,14.0002 Z M10.682,14.0002 L10.682,11.9872 L13.369,11.9872 L13.369,14.0002 L10.682,14.0002 Z" id="icn_calendar" fill="#2D2926"></path>
                </g>
            </g>
        </g>
    </g>
</svg>