<?xml version="1.0" encoding="UTF-8"?>
<svg width="50px" height="50px" viewBox="0 0 50 50" version="1.1" xmlns="http://www.w3.org/2000/svg" xmlns:xlink="http://www.w3.org/1999/xlink">
    <!-- Generator: Sketch 44.1 (41455) - http://www.bohemiancoding.com/sketch -->
    <title>icon-4</title>
    <desc>Created with Sketch.</desc>
    <defs>
        <radialGradient cx="48.3397178%" cy="49.4186213%" fx="48.3397178%" fy="49.4186213%" r="70.4380887%" gradientTransform="translate(0.483397,0.494186),scale(1.000000,0.541667),translate(-0.483397,-0.494186)" id="radialGradient-1">
            <stop stop-color="#000000" offset="0%"></stop>
            <stop stop-color="#000000" stop-opacity="0" offset="100%"></stop>
        </radialGradient>
    </defs>
    <g id="freelamncer-profile-cont." stroke="none" stroke-width="1" fill="none" fill-rule="evenodd">
        <g id="Job---4" transform="translate(-30.000000, -15.000000)">
            <g id="icon-4" transform="translate(30.000000, 15.000000)">
                <circle id="Oval-2" fill="#000000" cx="25" cy="25" r="25"></circle>
                <g id="logo" transform="translate(18.000000, 13.000000)">
                    <path d="M7.88939022,2.38746523e-13 L7.88125911,5.3074186 L7.87308505,10.614837 L7.4925138,9.38275771 C7.49238164,9.38233312 7.49191246,9.38076364 7.4917825,9.38033905 L7,21.1960586 C7.48351592,22.7627307 7.74257248,23.599076 7.74548227,23.6024141 C7.74928945,23.6067839 8.02483643,23.6258559 8.35781202,23.6448161 C9.3666532,23.702255 10.6168074,23.8253363 11.5651754,23.9605365 C11.7847588,23.9918376 11.9737346,24.0078673 11.9851114,23.996176 C11.9964884,23.9844845 12.0026836,18.5805532 11.9988784,11.9874504 L11.9919519,2.41619778e-13 L9.94067108,2.41619778e-13 L7.88939022,2.41619778e-13 L7.88939022,2.38746523e-13 Z" id="path4155" stroke="#000000" stroke-width="0.5" fill="#B1060F"></path>
                    <path d="M1.24344979e-14,-5.7598804e-15 L1.24344979e-14,11.9922841 C1.24344979e-14,18.588049 0.00664981485,23.99107 0.0147913618,23.9989732 C0.0229323883,24.0068739 0.44379967,23.9683105 0.950051698,23.9132833 C1.45630321,23.8582537 2.15597839,23.7898264 2.50487116,23.7612419 C3.03996291,23.717399 4.63758873,23.617704 4.82258876,23.6166003 C4.87640406,23.6162719 4.87985571,23.3468049 4.88765035,18.5371715 L4.89588454,13.4580882 L5.28244199,14.5195667 C5.3421818,14.6836284 5.36092057,14.7348605 5.41912207,14.894688 L6,3.08907649 C5.87692247,2.75134682 5.94144145,2.92863695 5.80039313,2.54158901 C5.32578367,1.23922192 4.92304411,0.134577291 4.90538978,0.0868244659 L4.87326549,-7.19563298e-15 L2.43665825,-7.19563298e-15 L1.24344979e-14,-5.7598804e-15 Z" id="path4157" stroke="#000000" stroke-width="0.5" fill="#B1060F"></path>
                    <path d="M1.24173084e-06,-5.75995021e-15 L1.24173084e-06,6.73128218 L4.66260314,19.3097596 C4.6630899,19.0215124 4.6636462,18.8657618 4.66415531,18.5362702 L4.67201298,13.4574339 L5.04089441,14.5188607 C7.09424736,20.4278478 8.19742425,23.5960785 8.2039123,23.6026756 C8.20820471,23.6070425 8.51887108,23.626102 8.89428551,23.6450497 C10.0317068,23.7024508 11.4411973,23.8254512 12.510438,23.9605624 C12.758008,23.991843 12.9710694,24.0078621 12.9838962,23.9961785 C12.9927125,23.9881479 12.9984677,21.3402211 13,17.6047285 L8.35922574,4.0356616 L8.3569931,5.31971326 L8.34777723,10.6236408 L7.91870091,9.3923719 C7.49944668,8.18928704 7.21951315,7.38470899 5.5351601,2.54146544 C5.08225299,1.23916167 4.69792939,0.134570747 4.68108233,0.0868202444 L4.65042698,-7.19563298e-15 L2.32523783,-7.19563298e-15 L1.46535561e-13,-7.19563298e-15 L1.24173084e-06,-5.75995021e-15 Z" id="path5623" fill="url(#radialGradient-1)"></path>
                    <path d="M3.51787532e-13,1.26284118e-06 L4.67788434,13.463566 L4.67788434,13.4574491 L5.04723713,14.518877 C7.10321382,20.4278702 8.20780034,23.5961042 8.21429667,23.6027012 C8.21859457,23.6070681 8.5296579,23.6261277 8.90555203,23.6450754 C10.0444268,23.7024766 11.4557183,23.825477 12.5263252,23.9605884 C12.7729412,23.9917086 12.9851821,24.0076939 13,23.9963523 L8.35834667,10.6211867 L8.35834667,10.6236518 L7.92872209,9.3923816 C7.50893214,8.1892955 7.22864092,7.38471662 5.54213562,2.54146806 C5.08864979,1.23916295 4.70383511,0.134570886 4.68696653,0.0868203341 L4.656272,-4.36040093e-14 L2.32811176,-4.36040093e-14 L3.5143416e-13,-4.36040093e-14 L3.51787532e-13,1.26284118e-06 Z" id="path4159" fill="#E50914"></path>
                    <path d="M7.88939022,2.38746523e-13 L7.88125911,5.3074186 L7.87308505,10.614837 L7.4925138,9.38275771 C7.49238164,9.38233312 7.49191246,9.38076364 7.4917825,9.38033905 L7,21.1960586 C7.48351592,22.7627307 7.74257248,23.599076 7.74548227,23.6024141 C7.74928945,23.6067839 8.02483643,23.6258559 8.35781202,23.6448161 C9.3666532,23.702255 10.6168074,23.8253363 11.5651754,23.9605365 C11.7847588,23.9918376 11.9737346,24.0078673 11.9851114,23.996176 C11.9964884,23.9844845 12.0026836,18.5805532 11.9988784,11.9874504 L11.9919519,2.41619778e-13 L9.94067108,2.41619778e-13 L7.88939022,2.41619778e-13 L7.88939022,2.38746523e-13 Z" id="path5715" stroke="#000000" stroke-width="0.5" fill="#B1060F"></path>
                    <path d="M1.24344979e-14,-5.7598804e-15 L1.24344979e-14,11.9922841 C1.24344979e-14,18.588049 0.00664981485,23.99107 0.0147913618,23.9989732 C0.0229323883,24.0068739 0.44379967,23.9683105 0.950051698,23.9132833 C1.45630321,23.8582537 2.15597839,23.7898264 2.50487116,23.7612419 C3.03996291,23.717399 4.63758873,23.617704 4.82258876,23.6166003 C4.87640406,23.6162719 4.87985571,23.3468049 4.88765035,18.5371715 L4.89588454,13.4580882 L5.28244199,14.5195667 C5.3421818,14.6836284 5.36092057,14.7348605 5.41912207,14.894688 L6,3.08907649 C5.87692247,2.75134682 5.94144145,2.92863695 5.80039313,2.54158901 C5.32578367,1.23922192 4.92304411,0.134577291 4.90538978,0.0868244659 L4.87326549,-7.19563298e-15 L2.43665825,-7.19563298e-15 L1.24344979e-14,-5.7598804e-15 Z" id="path5717" stroke="#000000" stroke-width="0.5" fill="#B1060F"></path>
                    <path d="M1.24173084e-06,-5.75995021e-15 L1.24173084e-06,6.73128218 L4.66260314,19.3097596 C4.6630899,19.0215124 4.6636462,18.8657618 4.66415531,18.5362702 L4.67201298,13.4574339 L5.04089441,14.5188607 C7.09424736,20.4278478 8.19742425,23.5960785 8.2039123,23.6026756 C8.20820471,23.6070425 8.51887108,23.626102 8.89428551,23.6450497 C10.0317068,23.7024508 11.4411973,23.8254512 12.510438,23.9605624 C12.758008,23.991843 12.9710694,24.0078621 12.9838962,23.9961785 C12.9927125,23.9881479 12.9984677,21.3402211 13,17.6047285 L8.35922574,4.0356616 L8.3569931,5.31971326 L8.34777723,10.6236408 L7.91870091,9.3923719 C7.49944668,8.18928704 7.21951315,7.38470899 5.5351601,2.54146544 C5.08225299,1.23916167 4.69792939,0.134570747 4.68108233,0.0868202444 L4.65042698,-7.19563298e-15 L2.32523783,-7.19563298e-15 L1.46535561e-13,-7.19563298e-15 L1.24173084e-06,-5.75995021e-15 Z" id="path5719" fill="url(#radialGradient-1)"></path>
                    <path d="M3.51787532e-13,1.26284118e-06 L4.67788434,13.463566 L4.67788434,13.4574491 L5.04723713,14.518877 C7.10321382,20.4278702 8.20780034,23.5961042 8.21429667,23.6027012 C8.21859457,23.6070681 8.5296579,23.6261277 8.90555203,23.6450754 C10.0444268,23.7024766 11.4557183,23.825477 12.5263252,23.9605884 C12.7729412,23.9917086 12.9851821,24.0076939 13,23.9963523 L8.35834667,10.6211867 L8.35834667,10.6236518 L7.92872209,9.3923816 C7.50893214,8.1892955 7.22864092,7.38471662 5.54213562,2.54146806 C5.08864979,1.23916295 4.70383511,0.134570886 4.68696653,0.0868203341 L4.656272,-4.36040093e-14 L2.32811176,-4.36040093e-14 L3.5143416e-13,-4.36040093e-14 L3.51787532e-13,1.26284118e-06 Z" id="path5721" fill="#E50914"></path>
                </g>
            </g>
        </g>
    </g>
</svg>