<?xml version="1.0" encoding="UTF-8"?>
<svg width="50px" height="50px" viewBox="0 0 50 50" version="1.1" xmlns="http://www.w3.org/2000/svg" xmlns:xlink="http://www.w3.org/1999/xlink">
    <!-- Generator: Sketch 44.1 (41455) - http://www.bohemiancoding.com/sketch -->
    <title>icon-3</title>
    <desc>Created with Sketch.</desc>
    <defs></defs>
    <g id="freelamncer-profile-cont." stroke="none" stroke-width="1" fill="none" fill-rule="evenodd">
        <g id="Job---3" transform="translate(-30.000000, -15.000000)">
            <g id="icon-3" transform="translate(30.000000, 15.000000)">
                <circle id="Oval-2" fill="#000000" cx="25" cy="25" r="25"></circle>
                <path d="M24.9999164,11 C17.2681402,11 11,17.2681227 11,25.0000836 C11,32.7323788 17.2681402,39 24.9999164,39 C32.7325285,39 39,32.7323788 39,25.0000836 C39,17.2686243 32.7325285,11.0006687 24.9997492,11.0006687 L24.9999164,11 Z M31.8685607,31.5622431 C31.6125765,31.9929615 31.0630636,32.1295308 30.6432495,31.8651467 C27.2878079,29.76233 23.0637265,29.2860884 18.0890993,30.45218 C17.6097261,30.5642368 17.1318889,30.2560805 17.0226689,29.7640809 C16.912937,29.2720813 17.2120973,28.7818326 17.692665,28.6697758 C23.1365967,27.3932032 27.8062614,27.9431572 31.5733256,30.3051053 C31.9931397,30.5694895 32.1262515,31.1315246 31.8685607,31.5622431 L31.8685607,31.5622431 Z M32.8386957,27.4422244 C32.5231454,27.9917912 31.8519749,28.1651505 31.3394144,27.827368 C27.5811936,25.3540492 21.8523697,24.6379145 17.4071175,26.082337 C16.8306121,26.2687429 16.2217169,25.920952 16.0467451,25.304901 C15.8731089,24.6877777 16.1981758,24.0372335 16.7736795,23.8495766 C21.8513679,22.20034 28.1638765,22.9992225 32.4797363,25.8382042 C32.9922969,26.1759867 33.154246,26.8944448 32.8386957,27.4424031 L32.8386957,27.4422244 Z M33.0147916,22.8229123 C28.4874373,20.2405823 21.0178897,20.0031452 16.6953483,21.2629795 C16.0012323,21.4651393 15.2671936,21.0888482 15.0568453,20.4222846 C14.8464969,19.7553988 15.2380065,19.0509805 15.9326258,18.8483374 C20.8945994,17.4018074 29.1433082,17.6812873 34.3557205,20.6527951 C34.9813978,21.0086286 35.186043,21.7829571 34.8153333,22.3817046 C34.4463011,22.9812574 33.6377851,23.1789069 33.0154626,22.8229123 L33.0147916,22.8229123 Z" id="Shape" fill="#1ED760" fill-rule="nonzero"></path>
            </g>
        </g>
    </g>
</svg>