<?xml version="1.0" encoding="UTF-8"?>
<svg width="50px" height="50px" viewBox="0 0 50 50" version="1.1" xmlns="http://www.w3.org/2000/svg" xmlns:xlink="http://www.w3.org/1999/xlink">
    <!-- Generator: Sketch 44.1 (41455) - http://www.bohemiancoding.com/sketch -->
    <title>icon-2</title>
    <desc>Created with Sketch.</desc>
    <defs></defs>
    <g id="freelamncer-profile-cont." stroke="none" stroke-width="1" fill="none" fill-rule="evenodd">
        <g id="Job---2" transform="translate(-30.000000, -15.000000)">
            <g id="icon-2" transform="translate(30.000000, 15.000000)">
                <circle id="Oval-2" fill="#008BE3" cx="25" cy="25" r="25"></circle>
                <g id="ic/twitter" transform="translate(14.727273, 16.727273)" fill="#FFFFFF">
                    <path d="M20.8181818,2.59996073 C20.1511818,2.59996073 19.4851818,3.25482036 18.1511818,3.25482036 C18.8181818,2.59996073 19.4851818,1.9451011 20.1511818,1.29122327 C19.4851818,1.29122327 18.8181818,1.29122327 17.4851818,1.9451011 C16.8181818,1.29122327 16.1511818,0.636363636 14.8181818,0.636363636 C12.1511818,0.636363636 10.8181818,2.59996073 10.8181818,4.56355782 L10.8181818,5.21841745 C7.48518182,5.21841745 4.15118182,3.90869819 2.15118182,1.29122327 C2.15118182,1.9451011 1.48518182,2.59996073 1.48518182,3.25482036 C1.48518182,4.56355782 2.15118182,5.87229528 3.48518182,6.52715491 C2.81818182,6.52715491 2.15118182,6.52715491 1.48518182,5.87229528 C1.48518182,7.83589237 2.81818182,9.14561163 4.81818182,9.79948946 L3.48518182,9.79948946 L2.81818182,9.79948946 C3.48518182,11.7630866 4.81818182,13.0728058 6.81818182,13.0728058 C5.48518182,14.3815433 3.48518182,15.0364029 1.48518182,15.0364029 L0.818181818,15.0364029 C2.81818182,16.3451404 4.81818182,17 6.81818182,17 C14.1511818,17 18.1511818,11.1092087 18.1511818,5.21841745 L18.1511818,4.56355782 C19.4851818,3.90869819 20.1511818,3.25482036 20.8181818,2.59996073" id="icn_twitter"></path>
                </g>
            </g>
        </g>
    </g>
</svg>