<?xml version="1.0" encoding="UTF-8"?>
<svg width="99px" height="102px" viewBox="0 0 99 102" version="1.1" xmlns="http://www.w3.org/2000/svg" xmlns:xlink="http://www.w3.org/1999/xlink">
    <!-- Generator: Sketch 44.1 (41455) - http://www.bohemiancoding.com/sketch -->
    <title>info-icon-2</title>
    <desc>Created with Sketch.</desc>
    <defs></defs>
    <g id="Dashboard:-Engage-Employers" stroke="none" stroke-width="1" fill="none" fill-rule="evenodd">
        <g id="Initial-employers-model-Copy-2" transform="translate(-558.000000, -230.000000)">
            <g id="getting-started" transform="translate(256.000000, 227.000000)">
                <g id="info-icon-2" transform="translate(298.000000, 0.000000)">
                    <rect id="Rectangle" x="0" y="0" width="108" height="108"></rect>
                    <path d="M55.9001818,49.9998035 C59.9536581,50.0403403 63.6305998,47.6297881 65.2099671,43.8964368 C66.7893345,40.1630855 65.9586368,35.845609 63.1066929,32.9648575 C60.254749,30.0841061 55.945839,29.2100598 52.1968036,30.7518272 C48.4477682,32.2935946 46.0003845,35.9461246 46.0001818,39.9998035 C45.9842265,42.6395179 47.0189375,45.1771663 48.8761282,47.0531166 C50.733319,48.9290668 53.2604404,49.9892289 55.9001818,49.9998035 Z M55.9002607,33.0007191 C58.7402445,32.9601438 61.323229,34.6396726 62.4382744,37.2519183 C63.5533198,39.8641641 62.9793652,42.8912423 60.9854888,44.9140154 C58.9916125,46.9367886 55.9731055,47.5542365 53.3450871,46.4768909 C50.7170688,45.3995453 49.0005506,42.8409927 49.0002607,40.0007191 C48.984287,38.1566555 49.7029187,36.382061 50.9975027,35.0687148 C52.2920868,33.7553687 54.0561581,33.011279 55.9002607,33.0007191 Z" id="Shape" fill="#47D7AC" fill-rule="nonzero"></path>
                    <path d="M55.9895219,75.0000551 C53.7817591,75.0058346 51.9961557,76.7992374 52.0000062,79.0069969 C52.0038567,81.2147563 53.7957048,83.0019199 56.0034744,82.9999985 C58.2112439,82.998077 59.9999785,81.2077972 59.9999861,79.0000344 C60.0027922,77.936499 59.5808268,76.9158668 58.8278061,76.1648148 C58.0747854,75.4137628 57.05305,74.9944685 55.9895219,75.0000551 Z M55.98895,80.9889187 C54.8858653,80.9828743 53.9959785,80.0872589 54.0000137,78.9871787 C54.0040488,77.8870985 54.9004819,76.9979996 56.0035814,77.0000034 C57.106681,77.0020071 57.9998604,77.8943568 57.999877,78.9944443 C58.0058235,79.5281141 57.7958686,80.0416567 57.4174499,80.4190415 C57.0390312,80.7964263 56.5240818,81.0058076 55.98895,80.9998774 L55.98895,80.9889187 Z" id="Shape" fill="#47D7AC" fill-rule="nonzero"></path>
                    <path d="M102.523648,95.689034 L83.7255364,76.7929224 C93.9406437,62.0240285 91.3246965,41.820114 77.6933779,30.2043622 C64.0620593,18.5886103 43.9147115,19.3950773 31.2352557,32.0640085 C18.5557999,44.7329397 17.5293933,65.0826519 28.8684466,78.9887663 C40.2075,92.8948807 60.1692881,95.7673522 74.8986834,85.6124487 L93.8062603,104.558843 C94.3890467,105.147052 95.3331615,105.147052 95.9159479,104.558843 L102.563454,97.8411191 C103.145515,97.2521767 103.145515,96.2980892 102.563454,95.7091469 L102.523648,95.689034 Z M55.4700938,25.0000056 C66.9700731,24.9931044 77.560533,31.3268089 83.101315,41.5250659 C88.6420969,51.723323 88.2531938,64.1664085 82.0866406,73.9899115 L82.0866406,66.4134248 C82.0866406,65.5117325 81.7326978,64.6469712 81.1026756,64.0093785 C80.4726533,63.3717858 79.6181598,63.0135899 78.7271738,63.0135899 L73.7428018,63.0135899 L73.7428018,61.3691594 C73.7428018,57.3965075 70.5605696,54.1760369 66.6350872,54.1760369 L44.3350066,54.1760369 C40.4173154,54.1927151 37.2516689,57.4144497 37.2571982,61.3792479 L37.2571982,63.0236784 L32.2728262,63.0236784 C30.4174439,63.0236784 28.9133594,64.5458364 28.9133594,66.4235133 L28.9133594,74 C22.7468062,64.176497 22.3579031,51.7334116 27.898685,41.5351545 C33.439467,31.3368974 44.0299269,25.0031929 55.5299062,25.0100942 L55.4700938,25.0000056 Z M69.9706047,63 L40,63 L40,61.2946274 C40,58.9227702 41.8110316,57 44.0450522,57 L65.9843184,57 C68.2106805,57.0171633 70.0054372,58.9412445 69.9999876,61.305026 L69.9706047,63 Z M32,78.0988588 L32,66.3768163 C32,66.2768784 32.0386531,66.1810337 32.107456,66.1103669 C32.1762589,66.0397002 32.2695756,66 32.3668776,66 L78.6331224,66 C78.8357433,66 79,66.1687064 79,66.3768163 L79,78.0886746 C73.0570362,85.0249732 64.4959196,89 55.5,89 C46.5040804,89 37.9429638,85.0249732 32,78.0886746 L32,78.0988588 Z M81.5615866,79.0099738 L96,93.4519685 L91.4681628,98 L77,83.5380577 C78.6568099,82.1705298 80.1838844,80.651332 81.5615866,79 L81.5615866,79.0099738 Z M94.5439739,101 L93,99.4632953 L97.4560261,95 L99,96.5367047 L94.5439739,101 Z" id="Shape" fill="#2D2926" fill-rule="nonzero"></path>
                    <path d="M58,12 C58.5522847,12 59,11.5415885 59,10.9761092 L59,4.02389078 C59,3.45841152 58.5522847,3 58,3 C57.4477153,3 57,3.45841152 57,4.02389078 L57,10.9761092 C57,11.5415885 57.4477153,12 58,12 Z" id="Shape" fill="#47D7AC" fill-rule="nonzero"></path>
                    <path d="M13,57.999975 C13,57.447704 12.5421094,57 11.9772727,57 L5.02272727,57 C4.4578906,57 4,57.447704 4,57.999975 C4,58.5522459 4.4578906,58.9999499 5.02272727,58.9999499 L11.9670455,58.9999499 C12.2400573,59.0026194 12.5028271,58.8984449 12.6968433,58.7106231 C12.8908596,58.5228013 13.0000137,58.2669265 13,57.999975 Z" id="Shape" fill="#47D7AC" fill-rule="nonzero"></path>
                    <path d="M15.4256835,39.3352394 L9.28678061,37.0466719 C8.79779041,36.8963095 8.26549107,37.1204393 8.07169916,37.5582937 C7.87790725,37.9961482 8.08954132,38.4965311 8.55479696,38.7005195 L14.7132194,40.9533281 C15.2022096,41.1036905 15.7345089,40.8795607 15.9283008,40.4417063 C16.1220928,40.0038518 15.9104587,39.5034689 15.445203,39.2994805 L15.4256835,39.3352394 Z" id="Shape" fill="#47D7AC" fill-rule="nonzero"></path>
                    <path d="M25.9673769,25.9998735 C26.3844575,26.0023028 26.7615511,25.7517556 26.9214895,25.3659452 C27.0814279,24.9801348 26.9924178,24.5357543 26.6962785,24.241585 L21.7684932,19.3060382 C21.365932,18.9000036 20.7109531,18.8977018 20.305557,19.3008971 C19.9001608,19.7040923 19.8978626,20.3601028 20.3004239,20.7661375 L25.2282091,25.7016842 C25.4244613,25.8967083 25.6909515,26.0042137 25.9673769,25.9998735 Z" id="Shape" fill="#47D7AC" fill-rule="nonzero"></path>
                    <path d="M40.2527765,14.3809744 C40.4297753,14.876262 40.9511745,15.1253269 41.4173542,14.9372766 C41.883534,14.7492262 42.1179615,14.1952714 41.9409628,13.6999838 L39.7472235,7.61902561 C39.5702247,7.12373805 39.0488255,6.87467308 38.5826458,7.06272344 C38.116466,7.2507738 37.8820385,7.80472863 38.0590372,8.3000162 L40.2527765,14.3809744 Z" id="Shape" fill="#47D7AC" fill-rule="nonzero"></path>
                    <path d="M14.7001455,73.0588114 L8.61882325,75.2528059 C8.29840916,75.3673173 8.06723625,75.6340322 8.01238512,75.9524817 C7.957534,76.2709311 8.08733785,76.592735 8.35290082,76.796673 C8.61846379,77.000611 8.97944054,77.0557001 9.2998546,76.9411886 L15.3811768,74.747194 C15.7015909,74.6326826 15.9327638,74.3659677 15.9876149,74.0475183 C16.042466,73.7290689 15.9126622,73.407265 15.6470992,73.203327 C15.3815363,72.999389 15.0205595,72.9443 14.7001455,73.0588114 L14.7001455,73.0588114 Z" id="Shape" fill="#47D7AC" fill-rule="nonzero"></path>
                </g>
            </g>
        </g>
    </g>
</svg>