<?xml version="1.0" encoding="UTF-8"?>
<svg width="108px" height="74px" viewBox="0 0 108 74" version="1.1" xmlns="http://www.w3.org/2000/svg" xmlns:xlink="http://www.w3.org/1999/xlink">
    <!-- Generator: Sketch 44.1 (41455) - http://www.bohemiancoding.com/sketch -->
    <title>info-icon-3</title>
    <desc>Created with Sketch.</desc>
    <defs></defs>
    <g id="Dashboard:-Engage-Employers" stroke="none" stroke-width="1" fill="none" fill-rule="evenodd">
        <g id="Initial-employers-model-Copy-2" transform="translate(-299.000000, -244.000000)">
            <g id="getting-started" transform="translate(256.000000, 227.000000)">
                <g id="info-icon-3" transform="translate(43.000000, 0.000000)">
                    <path d="M53.0099206,36.9999952 C48.9644699,37.0039497 45.3151612,34.5700725 43.7642933,30.8336981 C42.2134255,27.0973238 43.0665561,22.7946063 45.9257239,19.9326411 C48.7848918,17.070676 53.0867733,16.2133378 56.824663,17.7605506 C60.5625528,19.3077634 62.9999981,22.9546897 63,27.0001419 C62.9946231,32.516865 58.5266364,36.989223 53.0099206,36.9999952 Z M53,20 C49.1340068,20 46,23.1340068 46,27 C46,30.8659932 49.1340068,34 53,34 C56.8659932,34 60,30.8659932 60,27 C59.994667,23.1362179 56.8637821,20.005333 53,20 L53,20 Z" id="Shape" fill="#47D7AC" fill-rule="nonzero"></path>
                    <path d="M53.5,76 C51.0147186,76 49,73.9852814 49,71.5 C49,69.0147186 51.0147186,67 53.5,67 C55.9852814,67 58,69.0147186 58,71.5 C58,73.9852814 55.9852814,76 53.5,76 Z M53.5,69 C52.1192881,69 51,70.1192881 51,71.5 C51,72.8807119 52.1192881,74 53.5,74 C54.8807119,74 56,72.8807119 56,71.5 C55.9940153,70.1235348 54.8764782,69.0108566 53.5,69.0108696 L53.5,69 Z" id="Shape" fill="#47D7AC" fill-rule="nonzero"></path>
                    <path d="M11.0427264,78 C10.4668445,78 10,77.5549136 10,77.0058718 L10,60.543109 C10,51.1585389 16.2563583,48.1761544 16.5066127,48.0966241 C17.0277858,47.8605361 17.6510232,48.0719522 17.8986524,48.568835 C18.1462816,49.0657179 17.9245305,49.6599081 17.4033574,49.8959961 C17.1948121,49.9954089 12.0854528,52.4707881 12.0854528,60.543109 L12.0854528,77.0058718 C12.0854528,77.5549136 11.6186083,78 11.0427264,78 Z" id="Shape" fill="#47D7AC" fill-rule="nonzero"></path>
                    <path d="M10.9630943,70.9994695 C10.5432292,71.0007538 10.1669176,70.755718 10.0199662,70.3853505 C9.95976658,70.2436308 8.55510779,66.8895967 5.00332771,66.8895967 C4.44920512,66.8895967 4,66.4665961 4,65.9447983 C4,65.4230006 4.44920512,65 5.00332771,65 C10.0199662,65 11.856056,69.5255841 11.9363222,69.7239917 C12.0537264,70.0193467 12.0068933,70.3503895 11.8114722,70.6065014 C11.6160512,70.8626133 11.2978117,71.0100216 10.9630943,70.9994695 Z" id="Shape" fill="#47D7AC" fill-rule="nonzero"></path>
                    <path d="M10.9894515,62.9992975 C10.5213316,63.016698 10.1023723,62.7092266 9.97621342,62.2556891 L9.97621342,62.2556891 C9.97621342,62.2556891 8.96297537,58.4765287 5.87259933,58.0486992 C5.51060424,57.9941104 5.2050753,57.7495162 5.07110229,57.407053 C4.93712929,57.0645897 4.99506592,56.6762857 5.223088,56.3884113 C5.45111009,56.1005369 5.81457565,55.9568271 6.17657074,56.011416 C10.523362,56.6837194 11.9013657,61.4713351 11.96216,61.6750634 C12.0498282,61.9884953 11.9831798,62.3251743 11.7828263,62.5809802 C11.5824728,62.8367861 11.2725569,62.9808943 10.9489219,62.9687383 L10.9894515,62.9992975 Z" id="Shape" fill="#47D7AC" fill-rule="nonzero"></path>
                    <path d="M11.8934986,54.9992872 C11.4006947,55.0167105 10.9596437,54.7088345 10.8268325,54.2547001 L10.8268325,54.2547001 C10.3885097,52.9315222 9.56754523,51.753971 8.4588337,50.8581588 C8.13644131,50.6443719 7.96280159,50.2786086 8.00672257,49.9058096 C8.05064355,49.5330107 8.30503493,49.213358 8.66908931,49.0735201 C9.0331437,48.9336822 9.4480907,48.9962335 9.74949969,49.2363869 C11.257435,50.3898563 12.3745829,51.9443267 12.9601647,53.7039096 C13.0524556,54.0177541 12.9822929,54.3548762 12.7713748,54.6110188 C12.5604566,54.8671614 12.2341988,55.0114592 11.8934986,54.9992872 L11.8934986,54.9992872 Z" id="Shape" fill="#47D7AC" fill-rule="nonzero"></path>
                    <path d="M10.9464428,76 C10.4244817,76 10.0013486,75.5260228 10.0013486,74.9413423 C9.93734852,71.7672077 12.1591287,69.1229091 14.9914459,69.0022726 C15.513407,68.9642684 15.9640437,69.4074371 15.9979712,69.9921176 C16.0318986,70.576798 15.6362692,71.0815837 15.1143082,71.119588 C13.2864871,71.1886766 11.8490494,72.8932759 11.891537,74.9413423 C11.891537,75.5260228 11.4684039,76 10.9464428,76 Z" id="Shape" fill="#47D7AC" fill-rule="nonzero"></path>
                    <path d="M10.9440797,67.9999414 C10.4226789,67.9999414 10,67.5508482 10,66.9968637 C10,61.9814751 14.5221419,60.1458429 14.7203987,60.0655967 C15.2079085,59.8689321 15.7531642,60.1294062 15.9382615,60.6473817 C16.1233588,61.1653573 15.8782051,61.7446875 15.3906953,61.941352 C15.2302017,62.0015366 11.8976003,63.4158762 11.8976003,66.9567406 C11.9079641,67.2314052 11.8117846,67.498554 11.6315402,67.6957507 C11.4512959,67.8929473 11.202782,68.0029109 10.9440797,67.9999414 Z" id="Shape" fill="#47D7AC" fill-rule="nonzero"></path>
                    <path d="M107.001664,78.0025995 L101.470882,78.0025995 L101.470882,74.4633073 C101.470882,72.8067844 100.129971,71.4639072 98.4758735,71.4639072 L95.9301165,71.4639072 C94.2991319,71.4635805 92.9677278,72.7702698 92.9351082,74.4033193 C91.299254,74.5428923 90.0395125,75.9085297 90.0299501,77.5526895 C90.0192058,77.7024665 90.0192058,77.8528225 90.0299501,78.0025995 L84.7687188,78.0025995 L84.7687188,54.7472505 C84.7687188,52.8146404 83.2043228,51.2479504 81.2745424,51.2479504 L74.8851913,51.2479504 L74.8851913,49.0983803 C74.8796907,44.6280522 71.2624515,41.0055087 66.7986689,41 L40.4725458,41 C36.0087632,41.0055087 32.391524,44.6280522 32.3860233,49.0983803 L32.3860233,51.2579484 L26.046589,51.2579484 C24.1168087,51.2579484 22.5524126,52.8246384 22.5524126,54.7572486 L22.5524126,78.0025995 L14.6755408,78.0025995 C14.6430306,76.8847209 13.7256845,75.9970965 12.608985,76.0029994 L8.45590682,76.0029994 C7.34132303,76.002361 6.42704214,76.8870195 6.38935108,78.0025995 L0.998336106,78.0025995 C0.4469703,78.0025995 7.32868627e-14,78.4502252 7.32868627e-14,79.0023995 C7.32868627e-14,79.5545738 0.4469703,80.0021996 0.998336106,80.0021996 L6.51913478,80.0021996 L7.27787022,89.0903819 C7.37557052,90.1675521 8.27440415,90.9941336 9.35440932,91 L11.7004992,91 C12.7805043,90.9941336 13.679338,90.1675521 13.7770383,89.0903819 L14.5357737,80.0021996 L22.5224626,80.0021996 L22.5224626,86.8208358 C22.5224626,88.7534459 24.0868586,90.320136 26.0166389,90.320136 L81.2745424,90.320136 C83.2043228,90.320136 84.7687188,88.7534459 84.7687188,86.8208358 L84.7687188,80.0021996 L91.0282862,80.0021996 C91.0781233,80.0061945 91.1281995,80.0061945 91.1780366,80.0021996 C91.7055741,80.448508 92.3651389,80.7085047 93.0549085,80.7420516 C93.4165648,82.0336844 94.5906338,82.9277752 95.9301165,82.9316137 L98.4658902,82.9316137 C100.085525,82.9323437 101.41231,81.6434753 101.460899,80.0221956 L107.001664,80.0221956 C107.55303,80.0221956 108,79.5745698 108,79.0223955 C108,78.4702212 107.55303,78.0225955 107.001664,78.0225955 L107.001664,78.0025995 Z M8,78 L12,78 L12,80 L8.03846154,80 L8,78 Z M12.2513369,88.9338467 L9.73796791,88.9338467 C9.7110149,88.945658 9.67935943,88.945658 9.65240642,88.9338467 L9,82 L13,82 L12.3475936,88.9338467 C12.337423,88.9733186 12.2971542,89.0009826 12.2513369,88.9999733 L12.2513369,88.9338467 Z M35,48.9173554 C35,46.201575 37.3095645,44 40.1585566,44 L66.8414434,44 C69.6904355,44 72,46.201575 72,48.9173554 L72,51 L35,51 L35,48.9173554 Z M82,86.5012092 C81.9947101,86.7744552 81.7751931,86.9946928 81.5028409,87 L26.4971591,87 C26.2248069,86.9946928 26.0052899,86.7744552 26,86.5012092 L26,54.4987908 C26.0052899,54.2255448 26.2248069,54.0053072 26.4971591,54 L81.5028409,54 C81.7751931,54.0053072 81.9947101,54.2255448 82,54.4987908 L82,86.5012092 Z M92,77.0044444 C92.004983,76.5226879 92.3815478,76.1070412 92.91,76 L92.91,78 C92.3851344,77.8937435 92.0095641,77.4828632 92,77.0044444 L92,77.0044444 Z M100,79.0629183 C100,79.5804543 99.5069215,80 98.8986784,80 L96.1013216,80 C95.4930785,80 95,79.5804543 95,79.0629183 L95,73.9370817 C95,73.4195457 95.4930785,73 96.1013216,73 L98.8986784,73 C99.5069215,73 100,73.4195457 100,73.9370817 L100,79.0629183 Z" id="Shape" fill="#2D2926" fill-rule="nonzero"></path>
                    <path d="M96,68.9748369 C96,69.5410188 96.4474694,70 96.9994508,70 C97.5514322,70 97.9989016,69.5410188 97.9989016,68.9748369 C98.0117004,68.3724344 98.2821845,67.8063013 98.7384952,67.4268406 C99.5419882,66.676923 100,65.6142813 100,64.5 C100,63.3857187 99.5419882,62.323077 98.7384952,61.5731594 C98.2821845,61.1936987 98.0117004,60.6275656 97.9989016,60.0251631 C97.9989016,59.4589812 97.5514322,59 96.9994508,59 C96.4474694,59 96,59.4589812 96,60.0251631 C96.0041741,61.1395514 96.4604443,62.2018562 97.259308,62.9571295 C97.7185146,63.3284232 97.9864956,63.8951083 97.9864956,64.4948742 C97.9864956,65.09464 97.7185146,65.6613252 97.259308,66.0326188 C96.4578973,66.7903138 96.0013934,67.856879 96,68.9748369 Z" id="Shape" fill="#2D2926" fill-rule="nonzero"></path>
                    <rect id="Rectangle" x="3.58921226e-13" y="0" width="108" height="108"></rect>
                </g>
            </g>
        </g>
    </g>
</svg>