<?xml version="1.0" encoding="UTF-8"?>
<svg width="32px" height="32px" viewBox="0 0 32 32" version="1.1" xmlns="http://www.w3.org/2000/svg" xmlns:xlink="http://www.w3.org/1999/xlink">
    <!-- Generator: Sketch 44.1 (41455) - http://www.bohemiancoding.com/sketch -->
    <title>Logo/Green/YJ-Logomark/small</title>
    <desc>Created with Sketch.</desc>
    <defs></defs>
    <g id="Symbols" stroke="none" stroke-width="1" fill="none" fill-rule="evenodd">
        <g id="header/large" transform="translate(-24.000000, -12.000000)" fill="#47D7AC">
            <g id="Logo/Green/YJ-Logomark/small" transform="translate(24.000000, 12.000000)">
                <path d="M31.3308945,11.9656234 L24.0273918,16.0001506 L20.0138971,18.2171224 L20.0138971,22.6513673 L20.0138971,30.7201205 C20.0138971,31.4267803 19.4147693,32 18.6761704,32 L13.3246342,32 C12.5857204,32 11.9869075,31.4267803 11.9869075,30.7201205 L11.9869075,22.6513673 L4.68309004,26.6855933 C4.0433488,27.0389231 3.22541192,26.8292747 2.85579763,26.2171977 L0.180344342,21.7829529 C-0.18926994,21.1705747 0.0298540292,20.3877065 0.669595273,20.0343766 L7.97246825,16.0004518 L0.668965606,11.9662258 C0.0292243627,11.6128959 -0.189899607,10.8300278 0.179399842,10.2176496 L2.85516797,5.78370593 C3.22478225,5.17132772 4.04271913,4.9616793 4.68246038,5.3153104 L11.9869075,9.34923519 L11.9869075,1.28018073 C11.9869075,0.573520968 12.5857204,0 13.3246342,0 L18.6761704,0 C19.4144545,0 20.0138971,0.573520968 20.0138971,1.28018073 L20.0138971,9.34863275 L27.3173997,5.31470796 C27.957141,4.96107686 28.7753927,5.17072528 29.145007,5.7831035 L31.8204602,10.2170471 C32.1900745,10.8297265 31.9706357,11.6122935 31.3308945,11.9656234 Z M31.3308945,20.0344067 C31.9706357,20.3877366 32.1900745,21.1703036 31.8204602,21.782983 L29.145007,26.2169266 C28.7753927,26.8293048 27.957141,27.0389533 27.3173997,26.6856234 L22.0206445,23.7595821 L22.0206445,19.3253372 L26.0341392,17.1083654 L31.3308945,20.0344067 Z"></path>
            </g>
        </g>
    </g>
</svg>