<?xml version="1.0" encoding="UTF-8"?>
<svg width="240px" height="144px" viewBox="0 0 240 144" version="1.1" xmlns="http://www.w3.org/2000/svg" xmlns:xlink="http://www.w3.org/1999/xlink">
    <!-- Generator: Sketch 45.2 (43514) - http://www.bohemiancoding.com/sketch -->
    <title>logo-white</title>
    <desc>Created with Sketch.</desc>
    <defs></defs>
    <g id="Enganging-users---Platform" stroke="none" stroke-width="1" fill="none" fill-rule="evenodd">
        <g id="logo-white">
            <rect id="Rectangle-5" fill="#47D7AC" x="0" y="0" width="240" height="144"></rect>
            <g id="Logo/white/YJ-Logomark/Regular" transform="translate(90.000000, 40.000000)" fill="#FFFFFF">
                <g>
                    <path d="M9.17744391,52.5240666 L22.2940672,44.8936801 L22.2940672,35.8479898 L14.5184609,31.3239193 L1.40305369,38.9543058 C0.21251278,39.6466405 -0.194873537,41.1808053 0.492210848,42.3792184 L5.77972042,51.6062636 C6.4668048,52.805902 7.986903,53.2164014 9.17744391,52.5240666" id="Fill-4" opacity="0.7"></path>
                    <path d="M24.7815559,0 L35.355359,0 C36.7295278,0 37.8434557,1.12244003 37.8434557,2.5071095 L37.8434557,17.7678826 L31.3118978,21.5677587 C30.5421201,22.0150192 29.5947949,22.0150192 28.8250171,21.5677587 L22.2934592,17.7678826 L22.2934592,2.5071095 C22.2934592,1.12244003 23.4073872,0 24.7815559,0" id="Fill-6" opacity="0.7"></path>
                    <polygon id="Fill-8" opacity="0.4" points="37.8436989 35.8470095 45.6193052 31.3241643 49.9728665 33.8557813 42.1984762 38.3798518 42.1984762 47.4255421 37.8436989 44.8926998"></polygon>
                    <path d="M42.1979898,47.4257872 L42.1979898,38.3800969 L49.9735961,33.8560263 L58.7354421,38.9535706 C59.924767,39.6459053 60.3321533,41.1788447 59.6450689,42.3784831 L54.3587754,51.6055284 C53.671691,52.8051668 52.1503767,53.2156661 50.9598358,52.5233314 L42.1979898,47.4257872 Z" id="Fill-10" opacity="0.6"></path>
                    <path d="M37.8436989,60.1545757 L37.8436989,35.8481123 L58.7347125,23.6936553 C59.9240373,23.0013205 60.3326397,21.4683811 59.6455553,20.2699681 L54.3580458,11.0416975 C53.6709614,9.84328442 52.1496471,9.4315597 50.9603223,10.1238944 L31.312141,21.5541571 C30.5435793,22.002643 29.593822,22.002643 28.8240443,21.5541571 L9.17707909,10.1238944 C7.98775426,9.4315597 6.46643998,9.84328442 5.77935559,11.0416975 L0.491846025,20.2699681 C-0.195238361,21.4683811 0.213364035,23.0013205 1.40268886,23.6936553 L22.2937024,35.8481123 L22.2937024,60.1545757 C22.2937024,61.5392452 23.4076304,62.6616852 24.7817991,62.6616852 L35.3556022,62.6616852 C36.729771,62.6616852 37.8436989,61.5392452 37.8436989,60.1545757" id="Fill-1"></path>
                </g>
            </g>
        </g>
    </g>
</svg>