<?xml version="1.0" encoding="UTF-8"?>
<svg width="358px" height="17px" viewBox="0 0 358 17" version="1.1" xmlns="http://www.w3.org/2000/svg" xmlns:xlink="http://www.w3.org/1999/xlink">
    <!-- Generator: Sketch 45.2 (43514) - http://www.bohemiancoding.com/sketch -->
    <title>options</title>
    <desc>Created with Sketch.</desc>
    <defs></defs>
    <g id="Mockup" stroke="none" stroke-width="1" fill="none" fill-rule="evenodd" opacity="0.600000024">
        <g id="tasks--|-desktop" transform="translate(-624.000000, -94.000000)" fill="#2D2926">
            <g id="options" transform="translate(624.000000, 88.000000)">
                <g id="Group-8">
                    <path d="M7.92858088,16.8571391 L8.9642964,15.8214236 L7.60715193,14.4642791 L6.57143641,15.4999946 L6.57143641,15.9999952 L7.42858028,15.9999952 L7.42858028,16.8571391 L7.92858088,16.8571391 Z M11.857157,10.42856 C11.7767998,10.3482028 11.642871,10.3571314 11.5625138,10.4374886 L8.43751006,13.5624923 C8.35715282,13.6428496 8.34822424,13.7767783 8.42858148,13.8571355 C8.50893871,13.9374928 8.64286745,13.9285642 8.72322468,13.848207 L11.8482284,10.7232032 C11.9285856,10.642846 11.9375142,10.5089173 11.857157,10.42856 Z M12.5714436,15.7321378 L12.5714436,17.4285684 C12.5714436,18.8482129 11.4196565,20 10.0000119,20 L2.57143164,20 C1.15178709,20 0,18.8482129 0,17.4285684 L0,9.99998808 C0,8.58034353 1.15178709,7.42855644 2.57143164,7.42855644 L10.0000119,7.42855644 C10.3571552,7.42855644 10.7142985,7.4999851 11.044656,7.65177099 C11.1250133,7.68748532 11.1875133,7.76784256 11.2053705,7.85712838 C11.2232277,7.95534278 11.1964419,8.04462861 11.1250133,8.11605726 L10.6875127,8.55355778 C10.6071555,8.63391502 10.5000125,8.66070077 10.4017981,8.62498644 C10.2678694,8.58927211 10.1339407,8.57141495 10.0000119,8.57141495 L2.57143164,8.57141495 C1.78571641,8.57141495 1.14285851,9.21427286 1.14285851,9.99998808 L1.14285851,17.4285684 C1.14285851,18.2142836 1.78571641,18.8571415 2.57143164,18.8571415 L10.0000119,18.8571415 C10.7857271,18.8571415 11.4285851,18.2142836 11.4285851,17.4285684 L11.4285851,16.303567 C11.4285851,16.2321384 11.4553708,16.1607097 11.5089423,16.1071382 L12.0803715,15.535709 C12.1696574,15.4464231 12.2857289,15.428566 12.3928719,15.4732089 C12.5000149,15.5178518 12.5714436,15.6160662 12.5714436,15.7321378 Z M11.7142997,9.1428442 L14.2857313,11.7142758 L8.28572416,17.714283 L5.71429253,17.714283 L5.71429253,15.1428514 L11.7142997,9.1428442 Z M15.6785901,10.321417 L14.8571606,11.1428466 L12.2857289,8.57141495 L13.1071585,7.7499854 C13.437516,7.41962786 13.9910881,7.41962786 14.3214456,7.7499854 L15.6785901,9.10712987 C16.0089477,9.43748741 16.0089477,9.9910595 15.6785901,10.321417 Z" id=""></path>
                    <path d="M33.176,18 L33.176,16.947 L28.483,16.947 L28.483,13.788 L32.279,13.788 L32.279,12.735 L28.483,12.735 L28.483,9.693 L32.981,9.693 L32.981,8.64 L27.235,8.64 L27.235,18 L33.176,18 Z M40.781,8.64 L40.781,18 L39.663,18 L39.637,17.233 C39.637,16.947 39.676,16.752 39.676,16.752 L39.65,16.752 C39.312,17.48 38.402,18.156 37.349,18.156 C35.633,18.156 34.333,16.765 34.333,14.75 C34.333,12.709 35.633,11.344 37.323,11.344 C38.376,11.344 39.234,11.916 39.585,12.527 L39.611,12.527 C39.611,12.527 39.572,12.332 39.572,11.994 L39.572,8.64 L40.781,8.64 Z M37.518,12.397 C36.309,12.397 35.503,13.372 35.503,14.75 C35.503,16.102 36.309,17.103 37.518,17.103 C38.493,17.103 39.559,16.375 39.559,14.75 C39.559,13.125 38.493,12.397 37.518,12.397 Z M43.16,11.5 L43.16,18 L44.369,18 L44.369,11.5 L43.16,11.5 Z M43.004,9.615 C43.004,10.044 43.303,10.343 43.758,10.343 C44.2,10.343 44.512,10.044 44.512,9.615 C44.512,9.173 44.2,8.874 43.758,8.874 C43.303,8.874 43.004,9.173 43.004,9.615 Z M45.786,11.5 L45.786,12.488 L46.852,12.488 L46.852,16.219 C46.852,17.675 47.84,18.156 48.776,18.156 C49.413,18.156 49.946,18.013 50.232,17.857 L50.232,16.804 C49.868,16.973 49.413,17.09 49.01,17.09 C48.464,17.09 48.048,16.778 48.048,15.855 L48.048,12.488 L50.011,12.488 L50.011,11.5 L48.048,11.5 L48.048,9.55 L46.865,9.55 L46.865,11.5 L45.786,11.5 Z M55.003,18 L55.003,8.64 L56.212,8.64 L56.212,11.994 C56.212,12.332 56.173,12.527 56.173,12.527 L56.199,12.527 C56.55,11.916 57.408,11.344 58.461,11.344 C60.151,11.344 61.451,12.709 61.451,14.75 C61.451,16.765 60.151,18.156 58.435,18.156 C57.382,18.156 56.472,17.48 56.134,16.752 L56.108,16.752 C56.108,16.752 56.147,16.947 56.147,17.233 L56.121,18 L55.003,18 Z M58.266,12.397 C57.291,12.397 56.225,13.125 56.225,14.75 C56.225,16.375 57.291,17.103 58.266,17.103 C59.475,17.103 60.281,16.102 60.281,14.75 C60.281,13.372 59.475,12.397 58.266,12.397 Z M63.18,18 L64.389,18 L64.389,15.166 C64.389,13.905 65.117,12.514 66.378,12.514 C66.547,12.514 66.664,12.54 66.716,12.553 L66.716,11.383 C66.664,11.37 66.508,11.344 66.326,11.344 C65.39,11.344 64.701,11.968 64.324,12.891 L64.311,12.891 C64.298,12.852 64.337,12.657 64.324,12.41 L64.311,11.5 L63.18,11.5 L63.18,18 Z M68.211,11.5 L68.211,18 L69.42,18 L69.42,11.5 L68.211,11.5 Z M68.055,9.615 C68.055,10.044 68.354,10.343 68.809,10.343 C69.251,10.343 69.563,10.044 69.563,9.615 C69.563,9.173 69.251,8.874 68.809,8.874 C68.354,8.874 68.055,9.173 68.055,9.615 Z M74.425,11.344 C76.336,11.344 77.363,12.774 77.363,14.373 C77.363,14.633 77.337,14.88 77.337,15.01 L72.501,15.01 C72.54,16.297 73.398,17.103 74.763,17.103 C75.647,17.103 76.57,16.843 77.116,16.492 L77.116,17.597 C76.609,17.883 75.738,18.156 74.685,18.156 C72.631,18.156 71.24,16.765 71.24,14.75 C71.24,12.787 72.631,11.344 74.425,11.344 Z M76.167,14.152 C76.18,13.216 75.569,12.358 74.412,12.358 C73.294,12.358 72.618,13.216 72.514,14.152 L76.167,14.152 Z M78.364,11.5 L78.364,12.488 L79.326,12.488 L79.326,18 L80.535,18 L80.535,12.488 L82.225,12.488 L82.225,11.5 L80.496,11.5 L80.496,10.876 C80.496,10.005 81.003,9.537 81.835,9.537 C82.147,9.537 82.407,9.589 82.511,9.615 L82.511,8.562 C82.407,8.536 82.095,8.484 81.718,8.484 C80.249,8.484 79.365,9.394 79.365,10.772 L79.365,11.5 L78.364,11.5 Z" id="Edit-brief"></path>
                </g>
                <g id="Group-7" transform="translate(134.000000, 0.000000)">
                    <path d="M15.1428752,9.71427345 C15.61609,9.71427345 16.0000191,10.0982025 16.0000191,10.5714173 L16.0000191,21.4285731 C16.0000191,21.901788 15.61609,22.285717 15.1428752,22.285717 L6.57143641,22.285717 C6.09822156,22.285717 5.71429253,21.901788 5.71429253,21.4285731 L5.71429253,18.8571415 L0.857143879,18.8571415 C0.383929029,18.8571415 0,18.4732125 0,17.9999976 L0,11.9999905 C0,11.5267756 0.276786044,10.8660605 0.607143581,10.535703 L4.25000507,6.89284152 C4.5803626,6.56248398 5.24107768,6.28569794 5.71429253,6.28569794 L9.42858267,6.28569794 C9.90179752,6.28569794 10.2857265,6.66962697 10.2857265,7.14284182 L10.2857265,10.0714167 C10.6339412,9.86605935 11.0803704,9.71427345 11.4285851,9.71427345 L15.1428752,9.71427345 Z M10.2857265,11.6160614 L7.61608051,14.2857075 L10.2857265,14.2857075 L10.2857265,11.6160614 Z M4.57143402,8.18748592 L1.90178798,10.857132 L4.57143402,10.857132 L4.57143402,8.18748592 Z M6.32143611,13.9642785 L9.14286804,11.1428466 L9.14286804,7.42855644 L5.71429253,7.42855644 L5.71429253,11.1428466 C5.71429253,11.6160614 5.3303635,11.9999905 4.85714865,11.9999905 L1.14285851,11.9999905 L1.14285851,17.714283 L5.71429253,17.714283 L5.71429253,15.428566 C5.71429253,14.9553511 5.99107857,14.2946361 6.32143611,13.9642785 Z M14.8571606,21.1428585 L14.8571606,10.857132 L11.4285851,10.857132 L11.4285851,14.5714221 C11.4285851,15.0446369 11.044656,15.428566 10.5714412,15.428566 L6.85715103,15.428566 L6.85715103,21.1428585 L14.8571606,21.1428585 Z" id=""></path>
                    <path d="M34.229,9.16 C33.917,8.978 32.864,8.484 31.447,8.484 C28.613,8.484 26.52,10.538 26.52,13.32 C26.52,16.102 28.613,18.156 31.447,18.156 C32.929,18.156 33.982,17.675 34.294,17.493 L34.294,16.31 C33.683,16.622 32.708,16.999 31.447,16.999 C29.315,16.999 27.781,15.439 27.781,13.32 C27.781,11.201 29.315,9.641 31.447,9.641 C32.643,9.641 33.618,10.031 34.229,10.343 L34.229,9.16 Z M38.662,11.344 C40.599,11.344 42.016,12.787 42.016,14.75 C42.016,16.713 40.599,18.156 38.662,18.156 C36.738,18.156 35.321,16.713 35.321,14.75 C35.321,12.787 36.738,11.344 38.662,11.344 Z M38.662,17.103 C39.923,17.103 40.846,16.128 40.846,14.75 C40.846,13.372 39.923,12.397 38.662,12.397 C37.414,12.397 36.491,13.372 36.491,14.75 C36.491,16.128 37.414,17.103 38.662,17.103 Z M43.849,20.86 L43.849,11.5 L44.967,11.5 L44.993,12.176 C44.993,12.462 44.954,12.657 44.954,12.657 L44.98,12.657 C45.318,11.981 46.228,11.344 47.281,11.344 C48.997,11.344 50.297,12.735 50.297,14.75 C50.297,16.791 48.997,18.156 47.307,18.156 C46.254,18.156 45.396,17.545 45.045,16.882 L45.019,16.882 C45.019,16.882 45.058,17.077 45.058,17.415 L45.058,20.86 L43.849,20.86 Z M47.112,17.103 C48.321,17.103 49.127,16.128 49.127,14.75 C49.127,13.398 48.321,12.397 47.112,12.397 C46.137,12.397 45.071,13.125 45.071,14.75 C45.071,16.375 46.137,17.103 47.112,17.103 Z M50.921,20.899 C51.064,20.964 51.415,21.016 51.753,21.016 C53.469,21.016 54.197,19.833 55.081,17.701 L57.642,11.5 L56.303,11.5 L55.406,13.853 C55.094,14.659 54.626,15.959 54.301,16.7 C53.963,15.751 53.573,14.802 53.209,13.853 L52.299,11.5 L50.96,11.5 L53.677,17.922 C53.183,19.105 52.663,19.976 51.623,19.976 C51.298,19.976 51.064,19.937 50.921,19.898 L50.921,20.899 Z M62.283,18 L62.283,8.64 L63.492,8.64 L63.492,11.994 C63.492,12.332 63.453,12.527 63.453,12.527 L63.479,12.527 C63.83,11.916 64.688,11.344 65.741,11.344 C67.431,11.344 68.731,12.709 68.731,14.75 C68.731,16.765 67.431,18.156 65.715,18.156 C64.662,18.156 63.752,17.48 63.414,16.752 L63.388,16.752 C63.388,16.752 63.427,16.947 63.427,17.233 L63.401,18 L62.283,18 Z M65.546,12.397 C64.571,12.397 63.505,13.125 63.505,14.75 C63.505,16.375 64.571,17.103 65.546,17.103 C66.755,17.103 67.561,16.102 67.561,14.75 C67.561,13.372 66.755,12.397 65.546,12.397 Z M70.46,18 L71.669,18 L71.669,15.166 C71.669,13.905 72.397,12.514 73.658,12.514 C73.827,12.514 73.944,12.54 73.996,12.553 L73.996,11.383 C73.944,11.37 73.788,11.344 73.606,11.344 C72.67,11.344 71.981,11.968 71.604,12.891 L71.591,12.891 C71.578,12.852 71.617,12.657 71.604,12.41 L71.591,11.5 L70.46,11.5 L70.46,18 Z M75.491,11.5 L75.491,18 L76.7,18 L76.7,11.5 L75.491,11.5 Z M75.335,9.615 C75.335,10.044 75.634,10.343 76.089,10.343 C76.531,10.343 76.843,10.044 76.843,9.615 C76.843,9.173 76.531,8.874 76.089,8.874 C75.634,8.874 75.335,9.173 75.335,9.615 Z M81.705,11.344 C83.616,11.344 84.643,12.774 84.643,14.373 C84.643,14.633 84.617,14.88 84.617,15.01 L79.781,15.01 C79.82,16.297 80.678,17.103 82.043,17.103 C82.927,17.103 83.85,16.843 84.396,16.492 L84.396,17.597 C83.889,17.883 83.018,18.156 81.965,18.156 C79.911,18.156 78.52,16.765 78.52,14.75 C78.52,12.787 79.911,11.344 81.705,11.344 Z M83.447,14.152 C83.46,13.216 82.849,12.358 81.692,12.358 C80.574,12.358 79.898,13.216 79.794,14.152 L83.447,14.152 Z M85.644,11.5 L85.644,12.488 L86.606,12.488 L86.606,18 L87.815,18 L87.815,12.488 L89.505,12.488 L89.505,11.5 L87.776,11.5 L87.776,10.876 C87.776,10.005 88.283,9.537 89.115,9.537 C89.427,9.537 89.687,9.589 89.791,9.615 L89.791,8.562 C89.687,8.536 89.375,8.484 88.998,8.484 C87.529,8.484 86.645,9.394 86.645,10.772 L86.645,11.5 L85.644,11.5 Z" id="Copy-brief"></path>
                </g>
                <g id="Group-6" transform="translate(268.000000, 0.000000)">
                    <path d="M4.78571974,12.8571343 L4.78571974,17.9999976 C4.78571974,18.1607121 4.66071959,18.2857122 4.50000511,18.2857122 L3.92857586,18.2857122 C3.76786138,18.2857122 3.64286123,18.1607121 3.64286123,17.9999976 L3.64286123,12.8571343 C3.64286123,12.6964199 3.76786138,12.5714197 3.92857586,12.5714197 L4.50000511,12.5714197 C4.66071959,12.5714197 4.78571974,12.6964199 4.78571974,12.8571343 Z M7.07143675,12.8571343 L7.07143675,17.9999976 C7.07143675,18.1607121 6.9464366,18.2857122 6.78572212,18.2857122 L6.21429287,18.2857122 C6.05357839,18.2857122 5.92857824,18.1607121 5.92857824,17.9999976 L5.92857824,12.8571343 C5.92857824,12.6964199 6.05357839,12.5714197 6.21429287,12.5714197 L6.78572212,12.5714197 C6.9464366,12.5714197 7.07143675,12.6964199 7.07143675,12.8571343 Z M9.35715376,12.8571343 L9.35715376,17.9999976 C9.35715376,18.1607121 9.23215361,18.2857122 9.07143913,18.2857122 L8.50000988,18.2857122 C8.3392954,18.2857122 8.21429525,18.1607121 8.21429525,17.9999976 L8.21429525,12.8571343 C8.21429525,12.6964199 8.3392954,12.5714197 8.50000988,12.5714197 L9.07143913,12.5714197 C9.23215361,12.5714197 9.35715376,12.6964199 9.35715376,12.8571343 Z M10.5000123,19.3214278 L10.5000123,10.857132 L2.50000272,10.857132 L2.50000272,19.3214278 C2.50000272,19.7499997 2.74107444,20 2.78571735,20 L10.2142976,20 C10.2589405,20 10.5000123,19.7499997 10.5000123,19.3214278 Z M4.50000511,9.71427345 L8.50000988,9.71427345 L8.07143794,8.66962935 C8.04465219,8.63391502 7.96429495,8.58034353 7.91965204,8.57141495 L5.08929153,8.57141495 C5.03572003,8.58034353 4.96429138,8.63391502 4.93750563,8.66962935 L4.50000511,9.71427345 Z M12.7857293,9.99998808 L12.7857293,10.5714173 C12.7857293,10.7321318 12.6607291,10.857132 12.5000146,10.857132 L11.6428708,10.857132 L11.6428708,19.3214278 C11.6428708,20.3035718 11.0000129,21.1428585 10.2142976,21.1428585 L2.78571735,21.1428585 C2.00000213,21.1428585 1.35714422,20.3392861 1.35714422,19.3571421 L1.35714422,10.857132 L0.500000341,10.857132 C0.339285863,10.857132 0.214285714,10.7321318 0.214285714,10.5714173 L0.214285714,9.99998808 C0.214285714,9.8392736 0.339285863,9.71427345 0.500000341,9.71427345 L3.2589322,9.71427345 L3.88393295,8.22320025 C4.06250459,7.78569973 4.59821951,7.42855644 5.07143436,7.42855644 L7.92858062,7.42855644 C8.40179547,7.42855644 8.9375104,7.78569973 9.11608204,8.22320025 L9.74108279,9.71427345 L12.5000146,9.71427345 C12.6607291,9.71427345 12.7857293,9.8392736 12.7857293,9.99998808 Z" id=""></path>
                    <path d="M32.229,9.16 C31.917,8.978 30.864,8.484 29.447,8.484 C26.613,8.484 24.52,10.538 24.52,13.32 C24.52,16.102 26.613,18.156 29.447,18.156 C30.929,18.156 31.982,17.675 32.294,17.493 L32.294,16.31 C31.683,16.622 30.708,16.999 29.447,16.999 C27.315,16.999 25.781,15.439 25.781,13.32 C25.781,11.201 27.315,9.641 29.447,9.641 C30.643,9.641 31.618,10.031 32.229,10.343 L32.229,9.16 Z M33.867,16.336 C33.867,17.649 34.569,18.156 35.531,18.156 C35.999,18.156 36.324,18.065 36.402,18.039 L36.402,16.999 C36.324,17.025 36.09,17.077 35.83,17.077 C35.297,17.077 35.076,16.791 35.076,16.089 L35.076,8.64 L33.867,8.64 L33.867,16.336 Z M40.692,11.344 C42.629,11.344 44.046,12.787 44.046,14.75 C44.046,16.713 42.629,18.156 40.692,18.156 C38.768,18.156 37.351,16.713 37.351,14.75 C37.351,12.787 38.768,11.344 40.692,11.344 Z M40.692,17.103 C41.953,17.103 42.876,16.128 42.876,14.75 C42.876,13.372 41.953,12.397 40.692,12.397 C39.444,12.397 38.521,13.372 38.521,14.75 C38.521,16.128 39.444,17.103 40.692,17.103 Z M48.726,16.31 C48.726,16.921 48.115,17.155 47.439,17.155 C46.828,17.155 45.996,16.934 45.359,16.622 L45.359,17.727 C45.879,17.974 46.633,18.156 47.478,18.156 C48.882,18.156 49.844,17.506 49.844,16.323 C49.844,15.231 49.168,14.724 47.79,14.269 C46.906,13.983 46.451,13.736 46.451,13.216 C46.451,12.631 47.036,12.371 47.777,12.371 C48.362,12.371 49.012,12.579 49.48,12.826 L49.48,11.734 C49.038,11.526 48.349,11.344 47.647,11.344 C46.295,11.344 45.32,12.098 45.32,13.177 C45.32,14.347 46.126,14.841 47.283,15.218 C48.245,15.53 48.726,15.751 48.726,16.31 Z M54.225,11.344 C56.136,11.344 57.163,12.774 57.163,14.373 C57.163,14.633 57.137,14.88 57.137,15.01 L52.301,15.01 C52.34,16.297 53.198,17.103 54.563,17.103 C55.447,17.103 56.37,16.843 56.916,16.492 L56.916,17.597 C56.409,17.883 55.538,18.156 54.485,18.156 C52.431,18.156 51.04,16.765 51.04,14.75 C51.04,12.787 52.431,11.344 54.225,11.344 Z M55.967,14.152 C55.98,13.216 55.369,12.358 54.212,12.358 C53.094,12.358 52.418,13.216 52.314,14.152 L55.967,14.152 Z M62.376,18 L62.376,8.64 L63.585,8.64 L63.585,11.994 C63.585,12.332 63.546,12.527 63.546,12.527 L63.572,12.527 C63.923,11.916 64.781,11.344 65.834,11.344 C67.524,11.344 68.824,12.709 68.824,14.75 C68.824,16.765 67.524,18.156 65.808,18.156 C64.755,18.156 63.845,17.48 63.507,16.752 L63.481,16.752 C63.481,16.752 63.52,16.947 63.52,17.233 L63.494,18 L62.376,18 Z M65.639,12.397 C64.664,12.397 63.598,13.125 63.598,14.75 C63.598,16.375 64.664,17.103 65.639,17.103 C66.848,17.103 67.654,16.102 67.654,14.75 C67.654,13.372 66.848,12.397 65.639,12.397 Z M70.553,18 L71.762,18 L71.762,15.166 C71.762,13.905 72.49,12.514 73.751,12.514 C73.92,12.514 74.037,12.54 74.089,12.553 L74.089,11.383 C74.037,11.37 73.881,11.344 73.699,11.344 C72.763,11.344 72.074,11.968 71.697,12.891 L71.684,12.891 C71.671,12.852 71.71,12.657 71.697,12.41 L71.684,11.5 L70.553,11.5 L70.553,18 Z M75.584,11.5 L75.584,18 L76.793,18 L76.793,11.5 L75.584,11.5 Z M75.428,9.615 C75.428,10.044 75.727,10.343 76.182,10.343 C76.624,10.343 76.936,10.044 76.936,9.615 C76.936,9.173 76.624,8.874 76.182,8.874 C75.727,8.874 75.428,9.173 75.428,9.615 Z M81.798,11.344 C83.709,11.344 84.736,12.774 84.736,14.373 C84.736,14.633 84.71,14.88 84.71,15.01 L79.874,15.01 C79.913,16.297 80.771,17.103 82.136,17.103 C83.02,17.103 83.943,16.843 84.489,16.492 L84.489,17.597 C83.982,17.883 83.111,18.156 82.058,18.156 C80.004,18.156 78.613,16.765 78.613,14.75 C78.613,12.787 80.004,11.344 81.798,11.344 Z M83.54,14.152 C83.553,13.216 82.942,12.358 81.785,12.358 C80.667,12.358 79.991,13.216 79.887,14.152 L83.54,14.152 Z M85.737,11.5 L85.737,12.488 L86.699,12.488 L86.699,18 L87.908,18 L87.908,12.488 L89.598,12.488 L89.598,11.5 L87.869,11.5 L87.869,10.876 C87.869,10.005 88.376,9.537 89.208,9.537 C89.52,9.537 89.78,9.589 89.884,9.615 L89.884,8.562 C89.78,8.536 89.468,8.484 89.091,8.484 C87.622,8.484 86.738,9.394 86.738,10.772 L86.738,11.5 L85.737,11.5 Z" id="Close-brief"></path>
                </g>
            </g>
        </g>
    </g>
</svg>