<?xml version="1.0" encoding="UTF-8"?>
<svg width="234px" height="120px" viewBox="0 0 234 120" version="1.1" xmlns="http://www.w3.org/2000/svg" xmlns:xlink="http://www.w3.org/1999/xlink">
    <!-- Generator: Sketch 44.1 (41455) - http://www.bohemiancoding.com/sketch -->
    <title>slack</title>
    <desc>Created with Sketch.</desc>
    <defs></defs>
    <g id="Dashboard:-Engage-Freelancers" stroke="none" stroke-width="1" fill="none" fill-rule="evenodd">
        <g id="Freelancer-Dashboard---First-Time-User" transform="translate(-236.000000, -1021.000000)">
            <g id="Group-7-Copy-3" transform="translate(236.000000, 1021.000000)">
                <g id="Group-4">
                    <g id="slack" transform="translate(0.000000, -18.000000)">
                        <rect id="Rectangle" fill="#FFFFFF" x="0" y="0" width="234" height="150"></rect>
                        <path d="M87.7928958,72.0218133 C87.7928958,66.48976 91.7983868,62.62688 99.0775251,62.62688 C103.519008,62.62688 107.153387,64.05488 109.122395,65.45376 C109.404158,65.6534933 109.906884,66.13808 109.605471,67.0393067 C109.219158,68.0099733 108.510671,69.4697067 108.002385,70.4179733 C107.706533,70.9705067 106.950962,70.8977067 106.563908,70.7002133 C105.161393,69.9845333 102.860942,68.7738133 100.747715,68.55056 C100.212599,68.4918928 99.6742508,68.4684474 99.1361022,68.4803733 C97.27498,68.5221867 95.7200902,69.1729067 95.172505,70.6027733 C95.0651978,70.8733175 95.005361,71.1605716 94.9956613,71.4517333 C94.944499,73.3359467 97.5485872,74.01728 100.703226,74.5630933 C106.567986,75.5748267 111.00502,77.3063467 111.00502,83.38496 C111.00502,88.54704 106.930942,93.2122133 98.948507,93.0692267 C93.6862024,92.96208 89.9528357,91.1715733 87.9523146,89.43408 C87.8840982,89.3750933 87.1225952,88.59408 87.5307816,87.6547733 C87.9979158,86.4455467 88.786483,85.0597333 89.4052505,84.3238933 C89.7492986,83.8512533 90.6572445,83.7762133 91.1291984,84.0707733 C92.7782565,85.1026667 95.4920842,86.75728 98.6204008,86.86704 C98.8673146,86.8756267 99.112004,86.87712 99.3522445,86.8707733 C102.166172,86.80208 103.868617,85.7276267 103.833026,83.9177067 C103.802625,82.3232 101.571503,81.3917333 98.0186874,80.7174933 C92.3522745,79.6426667 87.7936373,77.7618133 87.7936373,72.0218133 L87.7928958,72.0218133 Z M139.271463,79.8987733 C135.275611,79.9514133 131.611944,81.0512533 131.506283,84.19584 C131.50517,86.6912 133.515331,87.9168533 136.336673,87.75632 C139.043086,87.4938667 141.107004,86.3118933 142.016433,84.74352 C142.352695,84.16224 142.403858,81.9872 142.383467,81.0576 C142.378277,80.8597333 141.989739,80.48528 141.819569,80.4132267 C140.970571,80.05296 140.342164,79.9417067 139.271092,79.8980267 L139.271463,79.8987733 Z M125.975561,67.22784 C127.844098,65.5441067 131.548918,62.9233067 137.453347,63.06144 C145.24522,63.2245867 149.361563,66.90304 149.74491,75.7025067 C149.902846,79.3313067 149.641102,89.45312 149.578818,91.9749867 C149.569549,92.3367467 149.447946,92.58688 148.963758,92.5962133 C147.680621,92.6481067 144.716172,92.6275733 143.354068,92.6096533 C142.666713,92.5760533 142.587004,92.2325867 142.578106,91.8730667 C142.572174,91.6378667 142.552154,90.94048 142.537695,90.3718933 C142.52991,90.07024 142.248517,90.0788267 142.176593,90.1561067 C140.348838,92.1213333 137.355471,93.0703467 134.172285,93.0703467 C129.334108,93.0703467 124.510762,90.2042667 124.525591,84.52848 C124.540421,78.71568 128.633407,75.84848 133.12976,75.1723733 C136.008938,74.7408 139.254409,75.1245867 141.712054,76.1079467 C141.869248,76.1714133 142.190311,76.0795733 142.192906,75.8552 C142.202916,75.1145067 142.167325,73.7029333 142.026072,73.03392 C141.665341,71.32928 140.253186,69.9576533 137.286513,69.5880533 C136.675531,69.5122667 136.060471,69.4872533 135.444669,69.5365333 C133.086383,69.7232 130.248357,71.5749333 129.073106,72.2682133 C128.796533,72.4309867 128.363507,72.3118933 128.223367,72.13008 C127.537495,71.2378133 125.813547,68.6282133 125.677856,68.2112 C125.542164,67.7953067 125.733467,67.44512 125.97482,67.2263467 L125.975561,67.22784 L125.975561,67.22784 Z M152.314148,78.0485333 C152.267806,69.9416 157.877124,63.1025067 166.985501,63.0424 C172.668968,63.0050667 176.797916,65.5997333 177.526052,66.82352 C177.673978,67.1109867 177.597976,67.35104 177.495651,67.6403733 C177.014429,68.6633067 175.799138,70.6397333 174.933086,71.7597333 C174.564198,72.2368533 174.163798,71.8280533 173.698517,71.51632 C172.407224,70.6501867 169.953657,69.59104 167.539018,69.59104 C163.158337,69.5917867 159.896182,72.6165333 159.932515,78.18144 C159.966623,83.5216 163.091232,86.4563733 167.554218,86.5627733 C169.887295,86.62176 172.147705,85.2714133 173.363737,84.1652267 C173.745601,83.8296 174.140812,83.9976 174.577174,84.3410667 C175.433587,85.2225067 176.661854,86.5833067 177.342906,87.52 C177.788908,88.0404267 177.45524,88.5496533 177.294709,88.75424 C175.446934,91.1088533 171.878176,93.0905067 167.155301,93.1173867 C157.266142,93.1872 152.360491,86.1853333 152.31489,78.0496533 L152.314148,78.0485333 Z M199.519549,92.7518933 C199.983717,92.7168 204.937194,92.0283733 206.457605,91.6778133 C206.83502,91.5912 206.969228,91.2716267 206.758277,90.95504 C205.909279,89.6730133 203.677044,86.0322667 201.339148,82.7730667 C199.188848,79.77632 196.922505,77.1405867 196.189549,76.1266133 C196.010852,75.8802133 196.020491,75.6375467 196.21513,75.4464 C197.609489,74.0725333 203.441994,68.3138667 205.63493,65.9357333 C206.483928,65.0106133 205.974158,64.61264 205.253066,64.39648 C203.86019,63.9783467 201.607194,63.4571733 200.325912,63.1850133 C199.785741,63.0700267 199.13509,63.1103467 198.662766,63.5994133 C196.4702,65.6583467 189.778687,72.42128 187.781132,74.44288 C187.421513,74.8076267 187.212044,74.7266133 187.21019,74.20544 C187.193878,70.30784 187.117505,53.6205867 186.979218,50.87584 C186.969579,50.51296 186.536182,50.23744 186.291864,50.2243733 C185.035792,50.1582933 181.862615,50.1392533 180.612104,50.2131733 C180.261754,50.25312 179.926974,50.61264 179.896573,50.9165333 C179.608136,55.30544 180.018918,87.52336 180.1902,92.03024 C180.202435,92.35616 180.443417,92.6089067 180.750762,92.6272 C181.998307,92.7 185.083988,92.6951467 186.524689,92.6678933 C187.233547,92.6678933 187.320301,92.1661333 187.320301,92.1661333 L187.427074,83.5208533 C187.427074,83.5208533 187.50011,83.13632 187.618377,83.0093867 C188.126293,82.45872 189.531403,80.94224 190.130521,80.3561067 C190.274369,80.21536 190.501263,80.22544 190.648076,80.4244267 C191.3599,81.39136 193.389709,84.5348267 195.271222,87.3422933 C196.99999,89.92128 198.613828,92.2101867 198.726533,92.37184 C198.986794,92.7451733 199.290802,92.7601067 199.51992,92.7530133 L199.51992,92.7518933 L199.519549,92.7518933 Z M115.27485,92.7220267 C115.710471,92.7365867 119.015631,92.7328533 120.48006,92.7309867 C120.973146,92.7406933 121.229329,92.3647467 121.245641,92.0328533 C121.556693,85.7138133 121.423597,55.6283733 121.227104,50.8777067 C121.210792,50.46704 121.036172,50.3128533 120.757745,50.27552 C119.500932,50.1060267 115.929208,50.1456 114.784359,50.4472533 C114.560431,50.5058667 114.428447,50.6772267 114.421403,50.8974933 C114.141122,63.1428267 114.3302,91.3742933 114.389519,91.9089067 C114.448467,92.4442667 114.726523,92.70336 115.275591,92.7220267 L115.27485,92.7220267 L115.27485,92.7220267 Z" id="Shape" fill="#443642" fill-rule="nonzero"></path>
                        <path d="M26.8185271,80.1578667 C24.7816733,80.1735467 23.0562425,78.9512533 22.4200501,77.04352 C22.396449,76.9714718 22.3744462,76.8989027 22.3540581,76.8258667 C21.6607715,74.3827733 23.0050802,71.8269333 25.4145291,71.0085867 L64.0606212,57.9706667 C64.5194915,57.8369895 64.9943647,57.7671509 65.4720341,57.7630933 C67.563016,57.7466667 69.3359018,58.99584 69.9876653,60.9438933 L70.045501,61.1320533 C70.7684469,63.6766933 68.9722044,65.9480533 66.8200501,66.6760533 C66.8185671,66.6771733 66.4270641,66.8104533 28.3882465,79.8886933 C27.8826394,80.0622572 27.3526844,80.1531331 26.8185271,80.1578667 Z" id="Shape" fill="#70CADB" fill-rule="nonzero"></path>
                        <path d="M33.2601603,99.2968 C31.2073647,99.3117333 29.476002,98.1066133 28.8472244,96.2261333 C28.8233565,96.1545984 28.8011063,96.0825265 28.780491,96.0099733 C28.0775651,93.53776 29.4203908,90.95504 31.837996,90.1355733 L70.4855711,76.9781867 C70.9849599,76.8101867 71.5006613,76.72432 72.0193287,76.7194667 C74.0776854,76.7037867 75.8861623,77.9701333 76.5242084,79.8718933 L76.5835271,80.06976 C76.9568637,81.3842667 76.7362725,82.8615467 75.9940481,84.0274667 C75.4409018,84.8943467 73.6961924,85.65744 73.6961924,85.65744 L34.9018036,99.0149333 C34.3727071,99.1953033 33.8187117,99.2906751 33.2601603,99.2975467 L33.2601603,99.2968 Z" id="Shape" fill="#E01765" fill-rule="nonzero"></path>
                        <path d="M65.4316232,99.3800533 C63.3765878,99.3999259 61.5424638,98.085286 60.8881864,96.1234667 L47.9900902,57.5432 L47.9255812,57.3266667 C47.2267335,54.8664 48.5706713,52.3001067 50.9793788,51.4825067 C51.4613427,51.31936 51.9596192,51.23424 52.4612325,51.22976 C53.2064228,51.22416 53.927515,51.39328 54.6067134,51.7311467 C55.7367137,52.2938738 56.5972332,53.2871177 56.9976253,54.4908267 L69.8946092,93.0677333 L69.9320541,93.19168 C70.656483,95.7460267 69.315511,98.3138133 66.9068036,99.1314133 C66.4310175,99.291478 65.9332376,99.3753782 65.4316232,99.3800533 L65.4316232,99.3800533 Z" id="Shape" fill="#E8A723" fill-rule="nonzero"></path>
                        <path d="M46.2594689,105.878293 C44.2032481,105.898017 42.3682573,104.582237 41.7141784,102.619093 L28.8194188,64.04032 C28.4158937,62.8382783 28.5038011,61.5239657 29.063752,60.38727 C29.6237029,59.2505742 30.609696,58.3848776 31.8042585,57.98112 C32.2807501,57.8207207 32.7792759,57.7365692 33.2816633,57.7317333 C35.3370444,57.7112999 37.1716768,59.0260897 37.8258417,60.98832 L50.7209719,99.5685867 C51.1246904,100.771209 51.0364943,102.086185 50.4758538,103.22322 C49.9152132,104.360255 48.9282319,105.225846 47.7327956,105.628907 C47.2572299,105.789391 46.7595252,105.873426 46.257986,105.87792 L46.2594689,105.87792 L46.2594689,105.878293 Z" id="Shape" fill="#3EB890" fill-rule="nonzero"></path>
                        <polygon id="Shape" fill="#CC2027" fill-rule="nonzero" points="59.0730361 90.69184 68.066483 87.5954133 65.126503 78.8034133 56.1226754 81.86736 59.0730361 90.69184"></polygon>
                        <polygon id="Shape" fill="#361238" fill-rule="nonzero" points="39.9305411 97.2826667 48.9232465 94.1866133 45.961022 85.3274133 36.9594188 88.39248 39.9305411 97.2826667"></polygon>
                        <polygon id="Shape" fill="#65863A" fill-rule="nonzero" points="52.6703307 71.5413333 61.664519 68.4490133 58.759018 59.75968 49.7481463 62.7997333"></polygon>
                        <polygon id="Shape" fill="#1A937D" fill-rule="nonzero" points="33.5256112 78.1232 42.5197996 75.03088 39.5787074 66.2306667 30.5678357 69.2703467 33.5256112 78.1232"></polygon>
                    </g>
                </g>
            </g>
        </g>
    </g>
</svg>