<?xml version="1.0" encoding="UTF-8"?>
<svg width="64px" height="64px" viewBox="0 0 64 64" version="1.1" xmlns="http://www.w3.org/2000/svg" xmlns:xlink="http://www.w3.org/1999/xlink">
    <!-- Generator: Sketch 44.1 (41455) - http://www.bohemiancoding.com/sketch -->
    <title>small-icon-3</title>
    <desc>Created with Sketch.</desc>
    <defs></defs>
    <g id="Dashboard:-Engage-Employers" stroke="none" stroke-width="1" fill="none" fill-rule="evenodd">
        <g id="Employers-post-verification-/-developed-dashboard---info--Copy" transform="translate(-488.000000, -190.000000)">
            <g id="Group-2" transform="translate(251.000000, 190.000000)">
                <g id="small-icon-3" transform="translate(237.000000, 0.000000)">
                    <rect id="Rectangle" fill="#F0F0F0" x="0" y="0" width="64" height="64"></rect>
                    <path d="M33.1260337,29.6295132 C35.5280937,29.653535 37.7070221,28.2250596 38.6429435,26.0127033 C39.5788649,23.800347 39.0865996,21.2418424 37.3965588,19.5347304 C35.7065179,17.8276184 33.1530898,17.3096651 30.9314392,18.223305 C28.7097886,19.136945 27.2594871,21.3014071 27.259367,23.7035873 C27.249912,25.2678625 27.8630741,26.7716541 28.9636315,27.8833283 C30.064189,28.9950026 31.5617424,29.6232468 33.1260337,29.6295132 Z M33.1260804,19.5559817 C34.8090338,19.5319371 36.3396913,20.5272134 37.0004589,22.0752109 C37.6612265,23.6232084 37.3211053,25.4170325 36.1395489,26.6157128 C34.9579926,27.8143932 33.1692477,28.1802883 31.6119035,27.5418613 C30.0545593,26.9034343 29.0373633,25.387255 29.0371915,23.7041299 C29.0277256,22.6113514 29.4535814,21.5597398 30.2207424,20.7814606 C30.9879033,20.0031815 32.0332789,19.5622394 33.1260804,19.5559817 Z" id="Shape" fill="#47D7AC" fill-rule="nonzero"></path>
                    <path d="M33.178976,44.4444771 C31.8706721,44.447902 30.8125367,45.5106592 30.8148185,46.8189611 C30.8171003,48.127263 31.8789362,49.1863229 33.1872441,49.1851843 C34.4955519,49.1840456 35.5555428,48.1231391 35.5555473,46.8148352 C35.5572102,46.184592 35.3071566,45.5797729 34.8609221,45.1347051 C34.4146876,44.6896372 33.8092148,44.4411665 33.178976,44.4444771 Z M33.178637,47.9934333 C32.5249572,47.9898514 31.9976169,47.4591164 32.0000081,46.807217 C32.0023993,46.1553176 32.5336189,45.6284442 33.1873075,45.6296316 C33.8409961,45.630819 34.3702876,46.1596188 34.3702975,46.8115226 C34.3738213,47.1277713 34.2494036,47.4320929 34.0251555,47.6557283 C33.8009074,47.8793638 33.4957522,48.0034415 33.178637,47.9999273 L33.178637,47.9934333 Z" id="Shape" fill="#47D7AC" fill-rule="nonzero"></path>
                    <path d="M60.7547546,56.7046127 L49.6151327,45.506917 C55.6685296,36.7549799 54.1183387,24.7822898 46.0405202,17.8988813 C37.9627018,11.0154728 26.0235327,11.4933791 18.5097812,19.0008939 C10.9960296,26.5084087 10.3877886,38.5674974 17.1072276,46.8081578 C23.8266667,55.0488182 35.6558744,56.7510235 44.384405,50.7333029 L55.588895,61.9607956 C55.9342499,62.3093644 56.4937253,62.3093644 56.8390802,61.9607956 L60.778343,57.9799224 C61.1232684,57.6309196 61.1232684,57.0655344 60.778343,56.7165315 L60.7547546,56.7046127 Z M32.8711667,14.8148182 C39.6859692,14.8107285 45.9617973,18.5640349 49.2452237,24.6074465 C52.52865,30.6508581 52.2981889,38.0245383 48.6439352,43.8458735 L48.6439352,39.3561036 C48.6439352,38.8217674 48.4341913,38.3093163 48.0608448,37.9314835 C47.6874983,37.5536508 47.1811317,37.3413866 46.6531401,37.3413866 L43.6994381,37.3413866 L43.6994381,36.3669093 C43.6994381,34.0127452 41.8136709,32.1043181 39.4874591,32.1043181 L26.2725965,32.1043181 C23.9510017,32.1142016 22.075063,34.0233776 22.0783397,36.3728876 L22.0783397,37.347365 L19.1246377,37.347365 C18.0251519,37.347365 17.1338426,38.2493845 17.1338426,39.362082 L17.1338426,43.8518519 C13.4795888,38.0305167 13.2491277,30.6568365 16.5325541,24.6134249 C19.8159804,18.5700133 26.0918086,14.8167069 32.9066111,14.8207965 L32.8711667,14.8148182 Z M41.464062,37.3333333 L23.7037037,37.3333333 L23.7037037,36.3227422 C23.7037037,34.9171971 24.7769076,33.7777778 26.1007717,33.7777778 L39.1018183,33.7777778 C40.421144,33.7879486 41.4847035,34.9281449 41.4814741,36.3289043 L41.464062,37.3333333 Z M18.962963,46.2808052 L18.962963,39.3344097 C18.962963,39.2751872 18.9858685,39.2183903 19.0266406,39.1765137 C19.0674127,39.1346371 19.1227115,39.1111111 19.1803719,39.1111111 L46.5974058,39.1111111 C46.7174775,39.1111111 46.8148148,39.2110853 46.8148148,39.3344097 L46.8148148,46.2747701 C43.2930585,50.3851693 38.2198042,52.7407407 32.8888889,52.7407407 C27.5579736,52.7407407 22.4847193,50.3851693 18.962963,46.2747701 L18.962963,46.2808052 Z M48.3327921,46.8207252 L56.8888889,55.3789443 L54.2033558,58.0740741 L45.6296296,49.5040342 C46.6114429,48.6936473 47.5163759,47.7933819 48.3327921,46.8148148 L48.3327921,46.8207252 Z M56.0260586,59.8518519 L55.1111111,58.941212 L57.7517191,56.2962963 L58.6666667,57.2069361 L56.0260586,59.8518519 Z" id="Shape" fill="#2D2926" fill-rule="nonzero"></path>
                    <path d="M34.3703704,7.11111111 C34.6976502,7.11111111 34.962963,6.83945984 34.962963,6.50436102 L34.962963,2.38452787 C34.962963,2.04942905 34.6976502,1.77777778 34.3703704,1.77777778 C34.0430905,1.77777778 33.7777778,2.04942905 33.7777778,2.38452787 L33.7777778,6.50436102 C33.7777778,6.83945984 34.0430905,7.11111111 34.3703704,7.11111111 Z" id="Shape" fill="#47D7AC" fill-rule="nonzero"></path>
                    <path d="M7.7037037,34.3703555 C7.7037037,34.0430839 7.43236113,33.7777778 7.0976431,33.7777778 L2.97643098,33.7777778 C2.64171295,33.7777778 2.37037037,34.0430839 2.37037037,34.3703555 C2.37037037,34.6976272 2.64171295,34.9629333 2.97643098,34.9629333 L7.09158249,34.9629333 C7.25336727,34.9645152 7.40908271,34.9027822 7.5240553,34.7914804 C7.63902789,34.6801786 7.70371179,34.528549 7.7037037,34.3703555 Z" id="Shape" fill="#47D7AC" fill-rule="nonzero"></path>
                    <path d="M9.14114576,23.3097715 L5.5032774,21.9535834 C5.21350543,21.8644797 4.89806878,21.9972974 4.78322913,22.2567667 C4.66838948,22.5162359 4.79380227,22.8127592 5.06950931,22.9336412 L8.71894482,24.2686389 C9.00871679,24.3577425 9.32415344,24.2249249 9.43899309,23.9654556 C9.55383274,23.7059863 9.42841996,23.4094631 9.15271291,23.288581 L9.14114576,23.3097715 Z" id="Shape" fill="#47D7AC" fill-rule="nonzero"></path>
                    <path d="M15.3880752,15.4073324 C15.6352341,15.4087721 15.858697,15.2602996 15.9534753,15.0316712 C16.0482536,14.8030429 15.9955068,14.5397063 15.8200169,14.3653837 L12.8998478,11.4406153 C12.661293,11.2000021 12.2731574,11.1986381 12.0329227,11.4375686 C11.7926879,11.6764992 11.791326,12.0652461 12.0298808,12.3058593 L14.9500499,15.2306277 C15.0663474,15.3461975 15.2242676,15.4099044 15.3880752,15.4073324 Z" id="Shape" fill="#47D7AC" fill-rule="nonzero"></path>
                    <path d="M23.8534972,8.5220589 C23.9583854,8.81556264 24.2673626,8.96315669 24.5436173,8.85171944 C24.819872,8.74028219 24.958792,8.41201266 24.8539039,8.11850892 L23.5539102,4.51497814 C23.4490221,4.2214744 23.1400448,4.07388034 22.8637901,4.18531759 C22.5875354,4.29675484 22.4486154,4.62502438 22.5535035,4.91852812 L23.8534972,8.5220589 Z" id="Shape" fill="#47D7AC" fill-rule="nonzero"></path>
                    <path d="M8.71119733,43.2941104 L5.10745081,44.5942554 C4.9175758,44.662114 4.78058444,44.8201672 4.74808007,45.008878 C4.7155757,45.1975888 4.7924965,45.3882874 4.94986715,45.5091396 C5.1072378,45.6299917 5.32114995,45.6626371 5.51102495,45.5947784 L9.11477146,44.2946335 C9.30464646,44.2267749 9.44163779,44.0687216 9.47414215,43.8800108 C9.50664652,43.6913001 9.42972572,43.5006015 9.27235509,43.3797493 C9.11498445,43.2588972 8.90107232,43.2262518 8.71119733,43.2941104 L8.71119733,43.2941104 Z" id="Shape" fill="#47D7AC" fill-rule="nonzero"></path>
                </g>
            </g>
        </g>
    </g>
</svg>