<?xml version="1.0" encoding="UTF-8"?>
<svg width="64px" height="64px" viewBox="0 0 64 64" version="1.1" xmlns="http://www.w3.org/2000/svg" xmlns:xlink="http://www.w3.org/1999/xlink">
    <!-- Generator: Sketch 44.1 (41455) - http://www.bohemiancoding.com/sketch -->
    <title>small-icon-2</title>
    <desc>Created with Sketch.</desc>
    <defs></defs>
    <g id="Dashboard:-Engage-Employers" stroke="none" stroke-width="1" fill="none" fill-rule="evenodd">
        <g id="Employers-post-verification-/-developed-dashboard---info--Copy" transform="translate(-251.000000, -190.000000)">
            <g id="Group-2" transform="translate(251.000000, 190.000000)">
                <g id="small-icon-2">
                    <rect id="Rectangle" fill="#F0F0F0" x="3.58921226e-13" y="0" width="64" height="64"></rect>
                    <path d="M31.4132863,21.9259231 C29.0159822,21.9282665 26.8534288,20.4859689 25.934396,18.2718211 C25.0153632,16.0576734 25.5209221,13.5079148 27.2152438,11.8119355 C28.9095655,10.1159561 31.4588286,9.60790389 33.6738744,10.5247707 C35.8889201,11.4416376 37.3333322,13.6027791 37.3333333,16.0000841 C37.330147,19.2692533 34.6824512,21.9195395 31.4132863,21.9259231 Z M31.4074074,11.8518519 C29.1164484,11.8518519 27.2592593,13.709041 27.2592593,16 C27.2592593,18.290959 29.1164484,20.1481481 31.4074074,20.1481481 C33.6983664,20.1481481 35.5555556,18.290959 35.5555556,16 C35.5523952,13.7103514 33.697056,11.8550122 31.4074074,11.8518519 L31.4074074,11.8518519 Z" id="Shape" fill="#47D7AC" fill-rule="nonzero"></path>
                    <path d="M31.7037037,45.037037 C30.2309444,45.037037 29.037037,43.8431297 29.037037,42.3703704 C29.037037,40.897611 30.2309444,39.7037037 31.7037037,39.7037037 C33.176463,39.7037037 34.3703704,40.897611 34.3703704,42.3703704 C34.3703704,43.8431297 33.176463,45.037037 31.7037037,45.037037 Z M31.7037037,40.8888889 C30.8855041,40.8888889 30.2222222,41.5521707 30.2222222,42.3703704 C30.2222222,43.18857 30.8855041,43.8518519 31.7037037,43.8518519 C32.5219033,43.8518519 33.1851852,43.18857 33.1851852,42.3703704 C33.1816387,41.5546873 32.5193945,40.8953224 31.7037037,40.8953301 L31.7037037,40.8888889 Z" id="Shape" fill="#47D7AC" fill-rule="nonzero"></path>
                    <path d="M6.54383786,46.2222222 C6.20257452,46.2222222 5.92592593,45.9584673 5.92592593,45.6331092 L5.92592593,35.8773979 C5.92592593,30.3161712 9.63339754,28.5488322 9.78169641,28.5017032 C10.0905397,28.3617992 10.4598656,28.4870828 10.6066088,28.7815319 C10.7533521,29.075981 10.621944,29.4280937 10.3131007,29.5679977 C10.1895183,29.626909 7.1617498,31.0938004 7.1617498,35.8773979 L7.1617498,45.6331092 C7.1617498,45.9584673 6.8851012,46.2222222 6.54383786,46.2222222 Z" id="Shape" fill="#47D7AC" fill-rule="nonzero"></path>
                    <path d="M6.49664847,42.0737597 C6.24783953,42.0745208 6.02484005,41.9293144 5.93775778,41.7098374 C5.9020839,41.6258553 5.06969351,39.6382795 2.96493494,39.6382795 C2.63656599,39.6382795 2.37037037,39.3876125 2.37037037,39.078399 C2.37037037,38.7691856 2.63656599,38.5185185 2.96493494,38.5185185 C5.93775778,38.5185185 7.02581093,41.2003461 7.0733761,41.317921 C7.14294898,41.4929462 7.11519602,41.6891197 6.99939095,41.8408897 C6.88358589,41.9926597 6.6949995,42.0800128 6.49664847,42.0737597 Z" id="Shape" fill="#47D7AC" fill-rule="nonzero"></path>
                    <path d="M6.51226753,37.3329171 C6.23486317,37.3432284 5.98659098,37.1610232 5.91183017,36.8922602 L5.91183017,36.8922602 C5.91183017,36.8922602 5.31139281,34.6527577 3.48005886,34.3992292 C3.26554325,34.3668802 3.08448907,34.2219355 3.00509766,34.0189944 C2.92570625,33.8160532 2.96003906,33.5859471 3.09516326,33.4153549 C3.23028746,33.2447626 3.44567446,33.1596013 3.66019007,33.1919502 C6.23606635,33.5903523 7.05266116,36.4274578 7.0886874,36.5481857 C7.14063893,36.7339232 7.1011436,36.9334366 6.98241561,37.0850253 C6.86368761,37.236614 6.68003371,37.3220114 6.48825004,37.3148079 L6.51226753,37.3329171 Z" id="Shape" fill="#47D7AC" fill-rule="nonzero"></path>
                    <path d="M7.04799915,32.5921702 C6.75596725,32.6024951 6.49460366,32.4200501 6.41590072,32.1509334 L6.41590072,32.1509334 C6.15615391,31.366828 5.66965643,30.6690199 5.01264219,30.1381682 C4.82159485,30.0114797 4.71869724,29.794731 4.74472448,29.5738131 C4.77075173,29.3528952 4.92150218,29.1634714 5.13723811,29.0806045 C5.35297404,28.9977376 5.59886856,29.034805 5.7774813,29.1771182 C6.67107258,29.8606556 7.33308616,30.7818232 7.68009759,31.824539 C7.73478852,32.0105209 7.69321061,32.210297 7.56822208,32.3620852 C7.44323356,32.5138734 7.24989559,32.5993832 7.04799915,32.5921702 L7.04799915,32.5921702 Z" id="Shape" fill="#47D7AC" fill-rule="nonzero"></path>
                    <path d="M6.48678091,45.037037 C6.17747062,45.037037 5.92672509,44.7561617 5.92672509,44.4096843 C5.88879913,42.5287157 7.20540962,40.9617239 8.88381981,40.8902356 C9.19313008,40.8677146 9.46017404,41.1303331 9.48027921,41.4768104 C9.50038438,41.8232877 9.26593733,42.12242 8.95662707,42.144941 C7.87347384,42.1858824 7.02165889,43.1960154 7.04683673,44.4096843 C7.04683673,44.7561617 6.7960912,45.037037 6.48678091,45.037037 Z" id="Shape" fill="#47D7AC" fill-rule="nonzero"></path>
                    <path d="M6.48538058,40.2962616 C6.17640231,40.2962616 5.92592593,40.0301323 5.92592593,39.7018451 C5.92592593,36.729763 8.60571374,35.641981 8.72319922,35.5944276 C9.01209391,35.4778857 9.33520844,35.6322407 9.44489573,35.9391892 C9.55458302,36.2461376 9.40930671,36.5894444 9.12041203,36.7059864 C9.02530473,36.7416513 7.05042979,37.5797785 7.05042979,39.6780685 C7.0565713,39.8408327 6.99957604,39.9991431 6.89276457,40.1160004 C6.78595311,40.2328577 6.63868565,40.2980213 6.48538058,40.2962616 Z" id="Shape" fill="#47D7AC" fill-rule="nonzero"></path>
                    <path d="M63.4083934,46.2237627 L60.130893,46.2237627 L60.130893,44.1264043 C60.130893,43.1447611 59.3362791,42.3489821 58.3560732,42.3489821 L56.8474764,42.3489821 C55.8809671,42.3487885 55.0919869,43.1231229 55.0726567,44.0908559 C54.1032616,44.1735658 53.3567481,44.9828324 53.3510815,45.9571493 C53.3447145,46.0459061 53.3447145,46.1350059 53.3510815,46.2237627 L50.2333148,46.2237627 L50.2333148,32.4428151 C50.2333148,31.2975647 49.3062653,30.3691558 48.1626918,30.3691558 L44.3764097,30.3691558 L44.3764097,29.0953365 C44.37315,26.4462531 42.2296009,24.2995607 39.5843964,24.2962963 L23.9837308,24.2962963 C21.3385263,24.2995607 19.1949772,26.4462531 19.1917175,29.0953365 L19.1917175,30.3750805 L15.4350157,30.3750805 C14.2914422,30.3750805 13.3643927,31.3034895 13.3643927,32.4487399 L13.3643927,46.2237627 L8.69661675,46.2237627 C8.67735149,45.5613161 8.13373899,45.0353164 7.47199113,45.0388145 L5.01090775,45.0388145 C4.35041365,45.0384361 3.80861757,45.5626782 3.78628212,46.2237627 L0.591606582,46.2237627 C0.264871289,46.2237627 7.32868627e-14,46.4890223 7.32868627e-14,46.8162368 C7.32868627e-14,47.1434512 0.264871289,47.4087109 0.591606582,47.4087109 L3.86319098,47.4087109 L4.31281198,52.7943004 C4.37070846,53.4326234 4.90335061,53.9224496 5.54335367,53.9259259 L6.93362914,53.9259259 C7.5736322,53.9224496 8.10627435,53.4326234 8.16417083,52.7943004 L8.61379183,47.4087109 L13.3466445,47.4087109 L13.3466445,51.4493842 C13.3466445,52.5946346 14.273694,53.5230435 15.4172675,53.5230435 L48.1626918,53.5230435 C49.3062653,53.5230435 50.2333148,52.5946346 50.2333148,51.4493842 L50.2333148,47.4087109 L53.9426881,47.4087109 C53.9722212,47.4110782 54.001896,47.4110782 54.0314291,47.4087109 C54.3440439,47.6731899 54.7348971,47.827262 55.1436495,47.8471417 C55.3579643,48.6125537 56.0537089,49.1423853 56.8474764,49.14466 L58.3501571,49.14466 C59.3099407,49.1450926 60.0961835,48.3813187 60.1249769,47.4205603 L63.4083934,47.4205603 C63.7351287,47.4205603 64,47.1553006 64,46.8280862 C64,46.5008718 63.7351287,46.2356121 63.4083934,46.2356121 L63.4083934,46.2237627 Z M4.74074074,46.2222222 L7.11111111,46.2222222 L7.11111111,47.4074074 L4.76353276,47.4074074 L4.74074074,46.2222222 Z M7.2600515,52.7015388 L5.77064765,52.7015388 C5.7546755,52.7085381 5.7359167,52.7085381 5.71994454,52.7015388 L5.33333333,48.5925926 L7.7037037,48.5925926 L7.31709249,52.7015388 C7.31106551,52.7249295 7.28720247,52.741323 7.2600515,52.7407249 L7.2600515,52.7015388 Z M20.7407407,28.9880624 C20.7407407,27.3787111 22.1093715,26.0740741 23.7976632,26.0740741 L39.6097442,26.0740741 C41.2980359,26.0740741 42.6666667,27.3787111 42.6666667,28.9880624 L42.6666667,30.2222222 L20.7407407,30.2222222 L20.7407407,28.9880624 Z M48.5925926,51.2599758 C48.5894579,51.4218994 48.4593737,51.5524105 48.2979798,51.5555556 L15.7020202,51.5555556 C15.5406263,51.5524105 15.4105421,51.4218994 15.4074074,51.2599758 L15.4074074,32.2955797 C15.4105421,32.1336562 15.5406263,32.003145 15.7020202,32 L48.2979798,32 C48.4593737,32.003145 48.5894579,32.1336562 48.5925926,32.2955797 L48.5925926,51.2599758 Z M54.5185185,45.6322634 C54.5214714,45.346778 54.7446209,45.1004688 55.0577778,45.037037 L55.0577778,46.2222222 C54.7467463,46.1592554 54.5241861,45.9157708 54.5185185,45.6322634 L54.5185185,45.6322634 Z M59.2592593,46.8520998 C59.2592593,47.1587877 58.9670646,47.4074074 58.6066242,47.4074074 L56.9489313,47.4074074 C56.5884909,47.4074074 56.2962963,47.1587877 56.2962963,46.8520998 L56.2962963,43.8145669 C56.2962963,43.507879 56.5884909,43.2592593 56.9489313,43.2592593 L58.6066242,43.2592593 C58.9670646,43.2592593 59.2592593,43.507879 59.2592593,43.8145669 L59.2592593,46.8520998 Z" id="Shape" fill="#2D2926" fill-rule="nonzero"></path>
                    <path d="M56.8888889,40.8739774 C56.8888889,41.2094927 57.1540559,41.4814815 57.481156,41.4814815 C57.8082561,41.4814815 58.0734232,41.2094927 58.0734232,40.8739774 C58.0810076,40.5169981 58.2412945,40.1815119 58.5117008,39.9566463 C58.9878449,39.5122506 59.2592593,38.8825371 59.2592593,38.2222222 C59.2592593,37.5619074 58.9878449,36.9321938 58.5117008,36.4877981 C58.2412945,36.2629326 58.0810076,35.9274463 58.0734232,35.570467 C58.0734232,35.2349518 57.8082561,34.962963 57.481156,34.962963 C57.1540559,34.962963 56.8888889,35.2349518 56.8888889,35.570467 C56.8913625,36.2308453 57.1617448,36.8603592 57.6351455,37.3079286 C57.9072679,37.5279545 58.0660715,37.8637679 58.0660715,38.2191847 C58.0660715,38.5746015 57.9072679,38.9104149 57.6351455,39.1304408 C57.1602354,39.5794452 56.8897146,40.2114839 56.8888889,40.8739774 Z" id="Shape" fill="#2D2926" fill-rule="nonzero"></path>
                </g>
            </g>
        </g>
    </g>
</svg>