<?xml version="1.0" encoding="UTF-8"?>
<svg width="64px" height="64px" viewBox="0 0 64 64" version="1.1" xmlns="http://www.w3.org/2000/svg" xmlns:xlink="http://www.w3.org/1999/xlink">
    <!-- Generator: Sketch 44.1 (41455) - http://www.bohemiancoding.com/sketch -->
    <title>small-icon-1</title>
    <desc>Created with Sketch.</desc>
    <defs></defs>
    <g id="Dashboard:-Engage-Employers" stroke="none" stroke-width="1" fill="none" fill-rule="evenodd">
        <g id="Employers-post-verification-/-developed-dashboard---info--Copy" transform="translate(-736.000000, -190.000000)">
            <g id="Group-2" transform="translate(251.000000, 190.000000)">
                <g id="small-icon-1" transform="translate(485.000000, 0.000000)">
                    <rect id="Rectangle" fill="#F0F0F0" x="0" y="0" width="64" height="64"></rect>
                    <g id="events-duo" transform="translate(9.481481, 10.666667)">
                        <path d="M30.8148148,14.2222222 L6.51851852,14.2222222 L6.51851852,36.7407407 L23.1111111,36.7407407 L23.1111111,29.6296296 L38.5185185,29.6296296 L38.5185185,14.2222222 L30.8148148,14.2222222 Z M23.1111111,15.4074074 L29.6296296,15.4074074 L29.6296296,21.3333333 L23.1111111,21.3333333 L23.1111111,15.4074074 Z M15.4074074,15.4074074 L21.9259259,15.4074074 L21.9259259,21.3333333 L15.4074074,21.3333333 L15.4074074,15.4074074 Z M21.9259259,28.4444444 L15.4074074,28.4444444 L15.4074074,22.5185185 L21.9259259,22.5185185 L21.9259259,28.4444444 Z M7.7037037,15.4074074 L14.2222222,15.4074074 L14.2222222,21.3333333 L7.7037037,21.3333333 L7.7037037,15.4074074 Z M7.7037037,22.5185185 L14.2222222,22.5185185 L14.2222222,28.4444444 L7.7037037,28.4444444 L7.7037037,22.5185185 Z M14.2222222,35.5555556 L7.7037037,35.5555556 L7.7037037,29.6296296 L14.2222222,29.6296296 L14.2222222,35.5555556 Z M21.9259259,35.5555556 L15.4074074,35.5555556 L15.4074074,29.6296296 L21.9259259,29.6296296 L21.9259259,35.5555556 Z M29.6296296,28.4444444 L23.1111111,28.4444444 L23.1111111,22.5185185 L29.6296296,22.5185185 L29.6296296,28.4444444 Z M37.3333333,28.4444444 L30.8148148,28.4444444 L30.8148148,22.5185185 L37.3333333,22.5185185 L37.3333333,28.4444444 Z M30.8148148,21.3333333 L30.8148148,15.4074074 L37.3333333,15.4074074 L37.3333333,21.3333333 L30.8148148,21.3333333 Z" id="Shape" fill="#47D7AC" fill-rule="nonzero"></path>
                        <path d="M1.77777778,41.2070073 C1.78085642,41.2829187 1.8138197,41.354482 1.86940083,41.4059211 C1.92498197,41.4573602 1.99861738,41.4844515 2.07407407,41.4812227 L34.3348148,41.4812227 L34.3348148,34.0416405 C34.3348148,33.5477983 34.7327839,33.14746 35.2237037,33.14746 L42.6666667,33.14746 L42.6666667,9.48148148 L1.77777778,9.48148148 L1.77777778,41.2070073 Z" id="Shape"></path>
                        <polygon id="Shape" points="36.1481481 39.7037037 41.4814815 34.3703704 36.1481481 34.3823151"></polygon>
                        <path d="M42.3703704,3.55581378 L36.1422222,3.55581378 L36.1422222,4.66934128 C36.1422222,5.13057947 35.7442531,5.5044869 35.2533333,5.5044869 C34.7624136,5.5044869 34.3644444,5.13057947 34.3644444,4.66934128 L34.3644444,3.55581378 L27.4548148,3.55581378 L27.4548148,4.66934128 C27.4548148,5.13057947 27.0568457,5.5044869 26.5659259,5.5044869 C26.0750061,5.5044869 25.677037,5.13057947 25.677037,4.66934128 L25.677037,3.55581378 L18.7674074,3.55581378 L18.7674074,4.66934128 C18.7674074,5.13057947 18.3694383,5.5044869 17.8785185,5.5044869 C17.3875987,5.5044869 16.9896296,5.13057947 16.9896296,4.66934128 L16.9896296,3.55581378 L10.08,3.55581378 L10.08,4.66934128 C10.08,5.13057947 9.68203089,5.5044869 9.19111111,5.5044869 C8.70019133,5.5044869 8.30222222,5.13057947 8.30222222,4.66934128 L8.30222222,3.55581378 L2.07407407,3.55581378 C1.91912421,3.54946584 1.78732411,3.66091402 1.77777778,3.80635747 L1.77777778,7.7037037 L42.6666667,7.7037037 L42.6666667,3.80635747 C42.6571203,3.66091402 42.5253202,3.54946584 42.3703704,3.55581378 L42.3703704,3.55581378 Z" id="Shape"></path>
                        <path d="M42.3703704,2.08320428 L36.1422222,2.08320428 L36.1422222,0.892801833 C36.1422222,0.399720996 35.7442531,0 35.2533333,0 C34.7624136,0 34.3644444,0.399720996 34.3644444,0.892801833 L34.3644444,2.08320428 L27.4548148,2.08320428 L27.4548148,0.892801833 C27.4548148,0.399720996 27.0568457,0 26.5659259,0 C26.0750061,0 25.677037,0.399720996 25.677037,0.892801833 L25.677037,2.08320428 L18.7674074,2.08320428 L18.7674074,0.892801833 C18.7674074,0.399720996 18.3694383,0 17.8785185,0 C17.3875987,0 16.9896296,0.399720996 16.9896296,0.892801833 L16.9896296,2.08320428 L10.08,2.08320428 L10.08,0.892801833 C10.08,0.399720996 9.68203089,0 9.19111111,0 C8.70019133,0 8.30222222,0.399720996 8.30222222,0.892801833 L8.30222222,2.08320428 L2.07407407,2.08320428 C0.937429538,2.07660071 0.00977980928,2.99502354 0,4.13664849 L0,41.1998286 C0.00313428992,41.7491744 0.223415202,42.2747688 0.612381512,42.6609825 C1.00134782,43.0471962 1.52713602,43.262391 2.07407407,43.2592248 L35.2592593,43.2592248 C35.4949278,43.2590164 35.7208683,43.164817 35.8874074,42.9973363 L44.1837037,34.6645192 C44.3504504,34.497247 44.444237,34.2703119 44.4444444,34.0336059 L44.4444444,4.13664849 C44.4346646,2.99502354 43.5070149,2.07660071 42.3703704,2.08320428 Z M36.1481481,40.2962963 L36.1481481,34.962963 L41.4814815,34.962963 L36.1481481,40.2962963 Z M42.6607407,33.1339825 L35.2177778,33.1339825 C34.726858,33.1339825 34.3288889,33.5343954 34.3288889,34.0283297 L34.3288889,41.4812227 L2.07407407,41.4812227 C1.99861738,41.484452 1.92498197,41.4573557 1.86940083,41.405907 C1.8138197,41.3544584 1.78085642,41.2828817 1.77777778,41.2069562 L1.77777778,9.48148148 L42.6666667,9.48148148 L42.6607407,33.1339825 Z M42.6607416,8.2962963 L1.77777778,8.2962963 L1.77777778,4.39895006 C1.78732273,4.25350661 1.91910373,4.14205843 2.07403114,4.14840638 L8.30720185,4.14840638 L8.30720185,5.26193387 C8.30720185,5.72317206 8.7051133,6.09707949 9.19596194,6.09707949 C9.68681058,6.09707949 10.084722,5.72317206 10.084722,5.26193387 L10.084722,4.14840638 L16.9933504,4.14840638 L16.9933504,5.26193387 C16.9933504,5.72317206 17.3912618,6.09707949 17.8821105,6.09707949 C18.3729591,6.09707949 18.7708706,5.72317206 18.7708706,5.26193387 L18.7708706,4.14840638 L25.6794989,4.14840638 L25.6794989,5.26193387 C25.6794989,5.72317206 26.0774104,6.09707949 26.568259,6.09707949 C27.0591077,6.09707949 27.4570191,5.72317206 27.4570191,5.26193387 L27.4570191,4.14840638 L34.3656475,4.14840638 L34.3656475,5.26193387 C34.3656475,5.72317206 34.7635589,6.09707949 35.2544076,6.09707949 C35.7452562,6.09707949 36.1431677,5.72317206 36.1431677,5.26193387 L36.1431677,4.14840638 L42.3704133,4.14840638 C42.5253407,4.14205843 42.6571217,4.25350661 42.6666667,4.39895006 L42.6607416,8.2962963 Z" id="Shape" fill="#2D2926" fill-rule="nonzero"></path>
                    </g>
                </g>
            </g>
        </g>
    </g>
</svg>