<?xml version="1.0" encoding="UTF-8"?>
<svg width="32px" height="32px" viewBox="0 0 32 32" version="1.1" xmlns="http://www.w3.org/2000/svg" xmlns:xlink="http://www.w3.org/1999/xlink">
    <!-- Generator: Sketch 44.1 (41455) - http://www.bohemiancoding.com/sketch -->
    <title>social-3</title>
    <desc>Created with Sketch.</desc>
    <defs></defs>
    <g id="Symbols" stroke="none" stroke-width="1" fill="none" fill-rule="evenodd">
        <g id="soical-links-+-touch-target-s9ze" transform="translate(-160.000000, 0.000000)">
            <g id="social-3" transform="translate(160.000000, 0.000000)">
                <rect id="touch-target---mini---32pxx32px-copy" fill-opacity="0.12" fill="#FFFFFF" x="0" y="0" width="32" height="32"></rect>
                <path d="M16,7 C13.827,7 13.555,7.01 12.702,7.048 C11.85,7.088 11.27,7.222 10.76,7.42 C10.234,7.624 9.787,7.898 9.343,8.343 C8.898,8.787 8.623,9.233 8.42,9.76 C8.222,10.27 8.087,10.85 8.048,11.702 C8.008,12.555 8,12.827 8,15 C8,17.173 8.01,17.445 8.048,18.298 C8.088,19.15 8.222,19.731 8.42,20.24 C8.624,20.766 8.898,21.213 9.343,21.657 C9.787,22.102 10.233,22.377 10.76,22.58 C11.27,22.778 11.85,22.913 12.702,22.952 C13.555,22.992 13.827,23 16,23 C18.173,23 18.445,22.99 19.298,22.952 C20.15,22.912 20.731,22.778 21.24,22.58 C21.766,22.376 22.213,22.102 22.657,21.657 C23.102,21.213 23.377,20.767 23.58,20.24 C23.778,19.73 23.913,19.15 23.952,18.298 C23.992,17.445 24,17.173 24,15 C24,12.827 23.99,12.555 23.952,11.702 C23.912,10.85 23.778,10.269 23.58,9.76 C23.376,9.234 23.102,8.787 22.657,8.343 C22.213,7.898 21.767,7.623 21.24,7.42 C20.73,7.222 20.15,7.087 19.298,7.048 C18.445,7.008 18.173,7 16,7 Z M16,8.44 C18.136,8.44 18.39,8.45 19.233,8.488 C20.013,8.524 20.436,8.654 20.718,8.764 C21.092,8.909 21.358,9.082 21.638,9.362 C21.918,9.642 22.091,9.908 22.236,10.282 C22.346,10.564 22.476,10.987 22.512,11.767 C22.55,12.611 22.559,12.864 22.559,15 C22.559,17.136 22.549,17.39 22.509,18.233 C22.469,19.013 22.339,19.436 22.229,19.718 C22.079,20.092 21.909,20.358 21.629,20.638 C21.349,20.918 21.079,21.091 20.709,21.236 C20.429,21.346 19.999,21.476 19.219,21.512 C18.369,21.55 18.119,21.559 15.979,21.559 C13.839,21.559 13.589,21.549 12.739,21.509 C11.959,21.469 11.529,21.339 11.249,21.229 C10.869,21.079 10.609,20.909 10.329,20.629 C10.049,20.349 9.869,20.079 9.729,19.709 C9.619,19.429 9.489,18.999 9.449,18.219 C9.419,17.379 9.409,17.119 9.409,14.989 C9.409,12.859 9.419,12.599 9.449,11.749 C9.489,10.969 9.619,10.539 9.729,10.259 C9.869,9.879 10.049,9.619 10.329,9.339 C10.609,9.059 10.869,8.879 11.249,8.739 C11.529,8.629 11.949,8.499 12.729,8.459 C13.579,8.429 13.829,8.419 15.969,8.419 L16,8.44 Z M16,10.892 C13.73,10.892 11.892,12.732 11.892,15 C11.892,17.27 13.732,19.108 16,19.108 C18.27,19.108 20.108,17.268 20.108,15 C20.108,12.73 18.268,10.892 16,10.892 Z M16,17.667 C14.527,17.667 13.333,16.473 13.333,15 C13.333,13.527 14.527,12.333 16,12.333 C17.473,12.333 18.667,13.527 18.667,15 C18.667,16.473 17.473,17.667 16,17.667 Z M21.23,10.73 C21.23,11.26 20.8,11.69 20.27,11.69 C19.74,11.69 19.31,11.26 19.31,10.73 C19.31,10.2 19.74,9.77 20.27,9.77 C20.8,9.77 21.23,10.2 21.23,10.73 Z" id="Shape" fill-opacity="0.32" fill="#000000"></path>
            </g>
        </g>
    </g>
</svg>