<?xml version="1.0" encoding="UTF-8"?>
<svg width="32px" height="32px" viewBox="0 0 32 32" version="1.1" xmlns="http://www.w3.org/2000/svg" xmlns:xlink="http://www.w3.org/1999/xlink">
    <!-- Generator: Sketch 44.1 (41455) - http://www.bohemiancoding.com/sketch -->
    <title>social-7</title>
    <desc>Created with Sketch.</desc>
    <defs></defs>
    <g id="Symbols" stroke="none" stroke-width="1" fill="none" fill-rule="evenodd">
        <g id="soical-links-+-touch-target-s9ze">
            <g id="social-7">
                <rect id="touch-target---mini---32pxx32px-copy" fill-opacity="0.12" fill="#FFFFFF" x="0" y="0" width="32" height="32"></rect>
                <path d="M21.632,21.635 L19.262,21.635 L19.262,17.922 C19.262,17.036 19.244,15.897 18.028,15.897 C16.793,15.897 16.604,16.861 16.604,17.857 L16.604,21.635 L14.234,21.635 L14.234,14 L16.51,14 L16.51,15.04 L16.54,15.04 C16.858,14.44 17.632,13.807 18.787,13.807 C21.187,13.807 21.632,15.387 21.632,17.444 L21.632,21.632 L21.632,21.635 Z M11.558,12.955 C10.796,12.955 10.182,12.338 10.182,11.578 C10.182,10.82 10.796,10.203 11.558,10.203 C12.318,10.203 12.934,10.82 12.934,11.578 C12.934,12.338 12.317,12.955 11.558,12.955 Z M12.746,21.635 L10.37,21.635 L10.37,14 L12.746,14 L12.746,21.635 L12.746,21.635 Z M22.816,8 L9.18,8 C8.528,8 8,8.516 8,9.153 L8,22.847 C8,23.484 8.528,24 9.18,24 L22.815,24 C23.467,24 24,23.484 24,22.847 L24,9.153 C24,8.516 23.467,8 22.815,8 L22.816,8 Z" id="Shape" fill-opacity="0.32" fill="#000000"></path>
            </g>
        </g>
    </g>
</svg>