<?xml version="1.0" encoding="UTF-8"?>
<svg width="32px" height="32px" viewBox="0 0 32 32" version="1.1" xmlns="http://www.w3.org/2000/svg" xmlns:xlink="http://www.w3.org/1999/xlink">
    <!-- Generator: Sketch 44.1 (41455) - http://www.bohemiancoding.com/sketch -->
    <title>social-5</title>
    <desc>Created with Sketch.</desc>
    <defs></defs>
    <g id="Symbols" stroke="none" stroke-width="1" fill="none" fill-rule="evenodd">
        <g id="soical-links-+-touch-target-s9ze" transform="translate(-80.000000, 0.000000)">
            <g id="social-5" transform="translate(80.000000, 0.000000)">
                <rect id="touch-target---mini---32pxx32px-copy" fill-opacity="0.12" fill="#FFFFFF" x="0" y="0" width="32" height="32"></rect>
                <g id="medium" opacity="0.33" transform="translate(8.000000, 9.000000)" fill="#000000">
                    <path d="M11.824,11.628 L11.548,12.078 L12.346,12.476 L15.09,13.848 C15.24,13.924 15.384,13.958 15.508,13.958 C15.786,13.958 15.975,13.781 15.975,13.466 L15.975,4.883 L11.825,11.628 L11.824,11.628 Z M15.92,2.958 C15.916,2.955 15.92,2.948 15.917,2.946 L11.092,0.534 C11.032,0.504 10.969,0.496 10.905,0.49 C10.889,0.49 10.875,0.48 10.858,0.48 C10.674,0.48 10.49,0.572 10.391,0.734 L10.151,1.124 L9.651,1.938 L7.761,5.018 L9.651,8.094 L10.151,8.907 L10.651,9.719 L11.241,10.669 L15.951,3.029 C15.971,2.999 15.961,2.969 15.931,2.949 L15.92,2.958 Z M9.65,10.003 L7.17,5.97 L6.875,5.493 L6.581,5.016 L6.331,4.6 L6.331,9.467 L9.651,11.13 L10.151,11.38 L10.651,11.63 L10.151,10.817 L9.651,10.004 L9.65,10.003 Z M0.737,0.68 L0.59,0.608 C0.505,0.566 0.424,0.546 0.35,0.546 C0.144,0.546 0,0.706 0,0.973 L0,11.135 C0,11.407 0.2,11.729 0.442,11.851 L4.587,13.931 C4.694,13.991 4.795,14.011 4.887,14.011 C5.144,14.011 5.325,13.811 5.325,13.481 L5.325,3.01 C5.325,2.99 5.313,2.97 5.295,2.963 L0.738,0.68 L0.737,0.68 Z" id="Shape"></path>
                </g>
            </g>
        </g>
    </g>
</svg>