<?xml version="1.0" encoding="UTF-8"?>
<svg width="32px" height="32px" viewBox="0 0 32 32" version="1.1" xmlns="http://www.w3.org/2000/svg" xmlns:xlink="http://www.w3.org/1999/xlink">
    <!-- Generator: Sketch 44.1 (41455) - http://www.bohemiancoding.com/sketch -->
    <title>social-6</title>
    <desc>Created with Sketch.</desc>
    <defs></defs>
    <g id="Symbols" stroke="none" stroke-width="1" fill="none" fill-rule="evenodd">
        <g id="soical-links-+-touch-target-s9ze" transform="translate(-40.000000, 0.000000)">
            <g id="social-6" transform="translate(40.000000, 0.000000)">
                <rect id="touch-target---mini---32pxx32px-copy" fill-opacity="0.12" fill="#FFFFFF" x="0" y="0" width="32" height="32"></rect>
                <g id="twitter" opacity="0.32" transform="translate(8.000000, 9.000000)" fill="#000000">
                    <path d="M14,2 C14.7617739,1.65747003 15.2824485,1.01506302 16,0 C14.8936914,0.61942822 14.1911305,0.889179219 13,1 C12.8459713,0.39963111 11.9945034,0 11,0 C9.23822611,0 7.76914428,1.46864433 8,3 C7.76914428,3.53673532 7.79912555,3.78650476 8,4 C5.12779513,3.89640332 2.71030606,2.58761144 1,1 C0.808494691,1.08999385 0.648594628,1.64947741 1,2 C0.648594628,3.39786351 1.22823235,4.39993852 2,5 C1.57001874,4.97141101 1.06333542,4.82354749 1,5 C0.621611493,6.20727021 1.75090568,7.5340455 3,8 C2.97713929,7.90969874 2.68732042,7.94966185 2,8 C2.19862586,9.19451276 3.40787008,10.1426376 5,10 C3.72767021,11.0488011 2.30855715,11.5723179 1,12 C0.519675203,11.5723179 0.259837601,11.5573317 0,12 C1.45908807,12.4565017 3.17801374,13 5,13 C11.0730793,13 14.3710181,8.00461113 14,4 C14.3710181,3.53873348 14.3710181,3.39886259 14,3 C15.0006246,2.79941592 15.5602748,2.21995081 16,2 C15.3793879,1.80733169 14.7497814,1.98416846 14,2 Z" id="Shape"></path>
                </g>
            </g>
        </g>
    </g>
</svg>