<?xml version="1.0" encoding="UTF-8"?>
<svg width="596px" height="1230px" viewBox="0 0 596 1230" version="1.1" xmlns="http://www.w3.org/2000/svg" xmlns:xlink="http://www.w3.org/1999/xlink">
    <!-- Generator: Sketch 44.1 (41455) - http://www.bohemiancoding.com/sketch -->
    <title>starting-out</title>
    <desc>Created with Sketch.</desc>
    <defs>
        <rect id="path-1" x="0" y="26" width="556" height="40"></rect>
        <rect id="path-2" x="0" y="0" width="556" height="84.2105263"></rect>
        <rect id="path-3" x="0" y="26" width="260" height="40"></rect>
        <rect id="path-4" x="0" y="26" width="260" height="40"></rect>
        <circle id="path-5" cx="166.917772" cy="9" r="9"></circle>
        <filter x="-8.3%" y="-8.3%" width="116.7%" height="116.7%" filterUnits="objectBoundingBox" id="filter-6">
            <feOffset dx="0" dy="0" in="SourceAlpha" result="shadowOffsetOuter1"></feOffset>
            <feGaussianBlur stdDeviation="0.5" in="shadowOffsetOuter1" result="shadowBlurOuter1"></feGaussianBlur>
            <feColorMatrix values="0 0 0 0 0   0 0 0 0 0   0 0 0 0 0  0 0 0 0.12 0" type="matrix" in="shadowBlurOuter1"></feColorMatrix>
        </filter>
        <rect id="path-7" x="0" y="26" width="260" height="40"></rect>
        <circle id="path-8" cx="10" cy="10" r="9"></circle>
    </defs>
    <g id="Dashboard:-Engage-Employers" stroke="none" stroke-width="1" fill="none" fill-rule="evenodd">
        <g id="starting-out">
            <rect id="Rectangle-11-Copy" fill="#FFFFFF" x="0" y="0" width="596" height="1230"></rect>
            <text id="Additional-details" font-family="Karla-Regular, Karla" font-size="18" font-weight="normal" line-spacing="24" fill="#2D2926">
                <tspan x="20" y="803">Additional details</tspan>
            </text>
            <g id="button/primary/default" transform="translate(411.000000, 1150.000000)">
                <g id="Primary">
                    <rect id="Rectangle-43" fill="#47D7AC" x="0" y="0" width="165" height="40" rx="20"></rect>
                    <text id="Call-to-action" font-family="Karla-Bold, Karla" font-size="15" font-weight="bold" line-spacing="14" fill="#2D2926">
                        <tspan x="21.1275" y="24.3050842">Find a freelancer</tspan>
                    </text>
                </g>
            </g>
            <g id="divider" transform="translate(20.000000, 1128.000000)" fill="#F2F2F2">
                <rect x="0" y="0" width="556" height="2"></rect>
            </g>
            <g id="input/default" transform="translate(20.000000, 21.000000)">
                <g>
                    <text id="Label" font-family="Karla-Regular, Karla" font-size="15" font-weight="normal" line-spacing="21" fill="#2D2926">
                        <tspan x="0" y="14">What do you need a freelancer for?</tspan>
                    </text>
                    <g id="Rectangle">
                        <use fill="#FFFFFF" fill-rule="evenodd" xlink:href="#path-1"></use>
                        <rect stroke="#DEDEDE" stroke-width="1" x="0.5" y="26.5" width="555" height="39"></rect>
                    </g>
                    <text id="Placeholder" font-family="Karla-Regular, Karla" font-size="13" font-weight="normal" line-spacing="21" fill="#888888">
                        <tspan x="10" y="47">e.g.  Design of a beautiful marketing website</tspan>
                    </text>
                </g>
            </g>
            <g id="disc" transform="translate(20.000000, 107.000000)">
                <text id="Label" font-family="Karla-Regular, Karla" font-size="15" font-weight="normal" line-spacing="20" fill="#2D2926">
                    <tspan x="0" y="14">Project description</tspan>
                </text>
                <g id="input/text-area" transform="translate(0.000000, 25.000000)">
                    <g id="Rectangle">
                        <use fill="#FFFFFF" fill-rule="evenodd" xlink:href="#path-2"></use>
                        <rect stroke="#DEDEDE" stroke-width="1" x="0.5" y="0.5" width="555" height="83.2105263"></rect>
                    </g>
                    <path d="M553.933333,78.2 L554.466667,78.7333333 L550.733333,82.4666667 L550.2,81.9333333 L553.933333,78.2 L553.933333,78.2 Z M554.466667,80.8666667 L555,81.4 L553.4,83 L552.866667,82.4666667 L554.466667,80.8666667 L554.466667,80.8666667 Z M553.933333,75 L554.466667,75.5333333 L547.533333,82.4666667 L547,81.9333333 L553.933333,75 L553.933333,75 Z" id="Resize-TextArea-Marker" fill="#DEDEDE"></path>
                    <text id="Placeholder" font-family="Karla-Regular, Karla" font-size="13" font-weight="normal" line-spacing="21" fill="#888888">
                        <tspan x="10" y="22">The more detailed you can be, the more likely you have of finding the right freelancers for </tspan>
                        <tspan x="10" y="43">the job.</tspan>
                    </text>
                </g>
            </g>
            <g id="Group-3" transform="translate(20.000000, 236.000000)">
                <text id="Which-disciplines-wi" font-family="Karla-Regular, Karla" font-size="15" font-weight="normal" fill="#2D2926">
                    <tspan x="0" y="14">Which disciplines will this involved?</tspan>
                </text>
                <g id="Group-2-Copy" transform="translate(0.000000, 38.000000)">
                    <g id="talent-list">
                        <rect id="Rectangle-10" fill="#FAFAFA" fill-rule="evenodd" x="0" y="0" width="104" height="37" rx="2"></rect>
                        <text id="Type-something" font-family="Karla-Regular, Karla" font-size="12" font-weight="normal" fill-opacity="0.54" fill="#000000">
                            <tspan x="11.302" y="24.1555556">Client Services</tspan>
                        </text>
                    </g>
                    <g id="talent-list" transform="translate(226.000000, 0.000000)">
                        <rect id="Rectangle-10" fill="#FAFAFA" fill-rule="evenodd" x="0" y="0" width="104" height="37" rx="2"></rect>
                        <text id="Type-something" font-family="Karla-Regular, Karla" font-size="12" font-weight="normal" fill-opacity="0.54" fill="#000000">
                            <tspan x="39.058" y="24.1555556">Data</tspan>
                        </text>
                    </g>
                    <g id="talent-list" transform="translate(113.000000, 0.000000)">
                        <rect id="Rectangle-10" fill="#FAFAFA" fill-rule="evenodd" x="0" y="0" width="104" height="37" rx="2"></rect>
                        <text id="Type-something" font-family="Karla-Regular, Karla" font-size="12" font-weight="normal" fill-opacity="0.54" fill="#000000">
                            <tspan x="29.428" y="24.1555556">Creative</tspan>
                        </text>
                    </g>
                    <g id="talent-list" transform="translate(340.000000, 0.000000)">
                        <rect id="Rectangle-10" fill="#FAFAFA" fill-rule="evenodd" x="0" y="0" width="104" height="37" rx="2"></rect>
                        <text id="Type-something" font-family="Karla-Regular, Karla" font-size="12" font-weight="normal" fill-opacity="0.54" fill="#000000">
                            <tspan x="27.61" y="24.1555556">Designer</tspan>
                        </text>
                    </g>
                    <g id="talent-list" transform="translate(453.000000, 0.000000)">
                        <rect id="Rectangle-10" fill="#FAFAFA" fill-rule="evenodd" x="0" y="0" width="104" height="37" rx="2"></rect>
                        <text id="Type-something" font-family="Karla-Regular, Karla" font-size="12" font-weight="normal" fill-opacity="0.54" fill="#000000">
                            <tspan x="24.94" y="24.1555556">Developer</tspan>
                        </text>
                    </g>
                </g>
                <g id="Group-3-Copy" transform="translate(0.000000, 83.000000)">
                    <g id="talent-list-copy-8" transform="translate(113.000000, 0.000000)">
                        <rect id="Rectangle-10" fill="#FAFAFA" x="0" y="0" width="104" height="37" rx="2"></rect>
                        <text id="Type-something" font-family="Karla-Regular, Karla" font-size="12" font-weight="normal" fill-opacity="0.54" fill="#000000">
                            <tspan x="32.794" y="14.1555556">Project </tspan>
                            <tspan x="15.52" y="28.1555556">Management</tspan>
                        </text>
                    </g>
                    <g id="talent-list">
                        <rect id="Rectangle-10" fill="#FAFAFA" fill-rule="evenodd" x="0" y="0" width="104" height="37" rx="2"></rect>
                        <text id="Type-something" font-family="Karla-Regular, Karla" font-size="12" font-weight="normal" fill-opacity="0.54" fill="#000000">
                            <tspan x="7.636" y="24.1555556">Public Relations</tspan>
                        </text>
                    </g>
                    <g id="talent-list" transform="translate(226.000000, 0.000000)">
                        <rect id="Rectangle-10" fill="#FAFAFA" fill-rule="evenodd" x="0" y="0" width="104" height="37" rx="2"></rect>
                        <text id="Type-something" font-family="Karla-Regular, Karla" font-size="12" font-weight="normal" fill-opacity="0.54" fill="#000000">
                            <tspan x="21.736" y="24.1555556">QA/Testing</tspan>
                        </text>
                    </g>
                    <g id="talent-list" transform="translate(340.000000, 0.000000)">
                        <rect id="Rectangle-10" fill="#FAFAFA" fill-rule="evenodd" x="0" y="0" width="104" height="37" rx="2"></rect>
                        <text id="Type-something" font-family="Karla-Regular, Karla" font-size="12" font-weight="normal" fill-opacity="0.54" fill="#000000">
                            <tspan x="35.17" y="24.1555556">Social</tspan>
                        </text>
                    </g>
                    <g id="talent-list" transform="translate(453.000000, 0.000000)">
                        <rect id="Rectangle-10" fill="#FAFAFA" fill-rule="evenodd" x="0" y="0" width="104" height="37" rx="2"></rect>
                        <text id="Type-something" font-family="Karla-Regular, Karla" font-size="12" font-weight="normal" fill-opacity="0.54" fill="#000000">
                            <tspan x="8.194" y="24.1555556">Project Strategy</tspan>
                        </text>
                    </g>
                </g>
                <g id="Group-5-Copy" transform="translate(0.000000, 128.000000)">
                    <g id="talent-list" transform="translate(225.000000, 0.000000)">
                        <rect id="Rectangle-10" fill="#FAFAFA" fill-rule="evenodd" x="0" y="0" width="104" height="37" rx="2"></rect>
                        <text id="Type-something" font-family="Karla-Regular, Karla" font-size="12" font-weight="normal" fill-opacity="0.54" fill="#000000">
                            <tspan x="12.112" y="24.1555556">Film &amp; Motion</tspan>
                        </text>
                    </g>
                    <g id="talent-list" transform="translate(338.000000, 0.000000)">
                        <rect id="Rectangle-10" fill="#FAFAFA" fill-rule="evenodd" x="0" y="0" width="104" height="37" rx="2"></rect>
                        <text id="Type-something" font-family="Karla-Regular, Karla" font-size="12" font-weight="normal" fill-opacity="0.54" fill="#000000">
                            <tspan x="5.734" y="24.1555556">Market Research</tspan>
                        </text>
                    </g>
                    <g id="talent-list" transform="translate(452.000000, 0.000000)">
                        <rect id="Rectangle-10" fill="#FAFAFA" fill-rule="evenodd" x="0" y="0" width="104" height="37" rx="2"></rect>
                        <text id="Type-something" font-family="Karla-Regular, Karla" font-size="12" font-weight="normal" fill-opacity="0.54" fill="#000000">
                            <tspan x="36.868" y="24.1555556">Other</tspan>
                        </text>
                    </g>
                    <g id="talent-list">
                        <rect id="Rectangle-10" fill="#FAFAFA" fill-rule="evenodd" x="0" y="0" width="104" height="37" rx="2"></rect>
                        <text id="Type-something" font-family="Karla-Regular, Karla" font-size="12" font-weight="normal" fill-opacity="0.54" fill="#000000">
                            <tspan x="33.844" y="24.1555556">Studio</tspan>
                        </text>
                    </g>
                    <g id="talent-list" transform="translate(113.000000, 0.000000)">
                        <rect id="Rectangle-10" fill="#FAFAFA" fill-rule="evenodd" x="0" y="0" width="104" height="37" rx="2"></rect>
                        <text id="Type-something" font-family="Karla-Regular, Karla" font-size="12" font-weight="normal" fill-opacity="0.54" fill="#000000">
                            <tspan x="44.224" y="24.1555556">UX</tspan>
                        </text>
                    </g>
                </g>
            </g>
            <text id="Select-as-many-or-a" font-family="Karla-Regular, Karla" font-size="12" font-weight="normal" line-spacing="20" fill="#2D2926">
                <tspan x="20" y="432">Select as many or a few as apply</tspan>
            </text>
            <text id="Can't-find-what-you'" font-family="Karla-Regular, Karla" font-size="12" font-weight="normal" line-spacing="20">
                <tspan x="20" y="452" fill="#000000" fill-opacity="0.54">Can't find what you' need? </tspan>
                <tspan x="164.96" y="452" fill="#1CA683">We here help.</tspan>
            </text>
            <g id="button/flat" transform="translate(20.000000, 1150.000000)">
                <g id="Button-/-Flat">
                    <rect id="Rectangle-43" fill="#FFFFFF" x="0" y="0" width="124" height="40"></rect>
                    <text id="Action" font-family="Karla-Bold, Karla" font-size="15" font-weight="bold" line-spacing="14" fill="#2D2926">
                        <tspan x="9.56896552" y="28">Save as a draft</tspan>
                    </text>
                </g>
            </g>
            <g id="Start-date" transform="translate(21.000000, 487.000000)">
                <g id="input/default">
                    <g>
                        <text id="Label" font-family="Karla-Regular, Karla" font-size="15" font-weight="normal" line-spacing="21" fill="#2D2926">
                            <tspan x="0" y="14">Start date</tspan>
                        </text>
                        <g id="Rectangle">
                            <use fill="#FFFFFF" fill-rule="evenodd" xlink:href="#path-3"></use>
                            <rect stroke="#DEDEDE" stroke-width="1" x="0.5" y="26.5" width="259" height="39"></rect>
                        </g>
                        <text id="Placeholder" font-family="Karla-Regular, Karla" font-size="13" font-weight="normal" line-spacing="21" fill="#888888">
                            <tspan x="10" y="47">16/07/3017</tspan>
                        </text>
                    </g>
                </g>
                <g id="ic/calendar" opacity="0.4" transform="translate(229.840000, 34.000000)">
                    <g>
                        <rect id="bounds" x="0" y="0" width="22" height="22"></rect>
                        <path d="M3.246375,4.53768333 C2.98145833,4.53768333 2.74954167,4.74668333 2.74954167,4.9841 L2.74954167,18.7359333 C2.74954167,18.9816 2.98695833,19.20435 3.246375,19.20435 L15.582875,19.20435 L15.582875,15.9960167 C15.582875,15.7430167 15.7882083,15.5376833 16.0412083,15.5376833 L19.2495417,15.5376833 L19.2495417,4.9841 C19.2495417,4.7256 19.0735417,4.53768333 18.8297083,4.53768333 L3.246375,4.53768333 Z M14.1796417,3.62101667 L14.1796417,2.321275 C14.1796417,2.068275 14.384975,1.86294167 14.637975,1.86294167 C14.890975,1.86294167 15.0963083,2.068275 15.0963083,2.321275 L15.0963083,3.62101667 L18.8297083,3.62101667 C19.5795417,3.62101667 20.1662083,4.2196 20.1662083,4.9841 L20.1662083,15.9960167 C20.1662083,16.0911889 20.1372818,16.179616 20.0876753,16.252905 C20.0660754,16.296983 20.0370086,16.3383373 20.000475,16.3750583 L16.414475,19.967475 C16.3630033,20.0184215 16.3025036,20.054923 16.2381486,20.0768073 C16.1785446,20.1051515 16.1117888,20.1210167 16.0412083,20.1210167 L3.246375,20.1210167 C2.48095833,20.1210167 1.832875,19.4876 1.832875,18.7359333 L1.832875,4.9841 C1.832875,4.24526667 2.48095833,3.62101667 3.246375,3.62101667 L6.86555833,3.62101667 L6.86555833,2.29175833 C6.86555833,2.03875833 7.07089167,1.833425 7.32389167,1.833425 C7.57689167,1.833425 7.782225,2.03875833 7.782225,2.29175833 L7.782225,3.62101667 L14.1796417,3.62101667 Z M16.5504167,10.5299333 L16.5504167,7.7671 C16.5504167,7.5141 16.3450833,7.30876667 16.0920833,7.30876667 L12.7123333,7.30876667 L9.3335,7.30876667 L5.95375,7.30876667 C5.69983333,7.30876667 5.49541667,7.5141 5.49541667,7.7671 L5.49541667,10.5299333 L5.49541667,13.29185 L5.49541667,16.0537667 C5.49541667,16.3067667 5.69983333,16.5111833 5.95375,16.5111833 L9.3335,16.5111833 C9.5865,16.5111833 9.79183333,16.3067667 9.79183333,16.0537667 L9.79183333,13.7501833 L12.7123333,13.7501833 L16.0920833,13.7501833 C16.3450833,13.7501833 16.5504167,13.54485 16.5504167,13.29185 L16.5504167,10.5299333 Z M18.6259449,16.45435 L16.4995417,16.45435 L16.4995417,18.5834703 L18.6259449,16.45435 Z M6.41208333,15.5954333 L6.41208333,13.7501833 L8.87516667,13.7501833 L8.87516667,15.5954333 L6.41208333,15.5954333 Z M6.41208333,10.0716 L6.41208333,8.22543333 L8.87516667,8.22543333 L8.87516667,10.0716 L6.41208333,10.0716 Z M13.1706667,10.0716 L13.1706667,8.22543333 L15.63375,8.22543333 L15.63375,10.0716 L13.1706667,10.0716 Z M9.79183333,10.0716 L9.79183333,8.22543333 L12.2549167,8.22543333 L12.2549167,10.0716 L9.79183333,10.0716 Z M13.1706667,12.8335167 L13.1706667,10.9882667 L15.63375,10.9882667 L15.63375,12.8335167 L13.1706667,12.8335167 Z M6.41208333,12.8335167 L6.41208333,10.9882667 L8.87516667,10.9882667 L8.87516667,12.8335167 L6.41208333,12.8335167 Z M9.79183333,12.8335167 L9.79183333,10.9882667 L12.2549167,10.9882667 L12.2549167,12.8335167 L9.79183333,12.8335167 Z" id="icn_calendar" fill="#2D2926"></path>
                    </g>
                </g>
                <text id="I’m-flexible-on-the" font-family="Karla-Regular, Karla" font-size="15" font-weight="normal" line-spacing="20" fill="#2D2926">
                    <tspan x="31.2" y="95">I’m flexible on the date</tspan>
                </text>
                <g id="selectors/checkbox-activ" transform="translate(0.000000, 81.000000)">
                    <rect id="bounds" x="0" y="0" width="21" height="20"></rect>
                    <rect id="checkbox" fill="#47D7AC" fill-rule="evenodd" x="1" y="1" width="18" height="18" rx="4"></rect>
                    <path d="M8.00648,14 C7.93455276,14 7.8652506,13.9714991 7.81642409,13.9224976 L5.32259654,11.4224199 C5.22231842,11.3224167 5.22651855,11.1639118 5.33152182,11.0689089 C5.43600007,10.9739059 5.60348028,10.977406 5.70270836,11.0774091 L8.00648,13.3869809 L15.2979067,6.07725365 C15.3976598,5.97725054 15.564615,5.97425044 15.6690933,6.06875338 C15.7740965,6.16375634 15.7782967,6.32226126 15.6780185,6.42226437 L8.19653591,13.9224976 C8.14770939,13.9714991 8.07840723,14 8.00648,14" id="Fill-1" stroke="#FFFFFF" stroke-width="2" fill="#FFFFFF" fill-rule="evenodd"></path>
                </g>
            </g>
            <g id="input/default" transform="translate(316.000000, 487.000000)">
                <g>
                    <text id="Label" font-family="Karla-Regular, Karla" font-size="15" font-weight="normal" line-spacing="21" fill="#2D2926">
                        <tspan x="0" y="14">Estimated duration</tspan>
                    </text>
                    <g id="Rectangle">
                        <use fill="#FFFFFF" fill-rule="evenodd" xlink:href="#path-4"></use>
                        <rect stroke="#DEDEDE" stroke-width="1" x="0.5" y="26.5" width="259" height="39"></rect>
                    </g>
                    <text id="Placeholder" font-family="Karla-Regular, Karla" font-size="13" font-weight="normal" line-spacing="21" fill="#888888">
                        <tspan x="10" y="47">2 weeks</tspan>
                    </text>
                </g>
            </g>
            <g id="selectors/slider" transform="translate(21.000000, 696.000000)">
                <rect id="Rectangle-3" fill="#DEDEDE" fill-rule="evenodd" x="0" y="7" width="333" height="3"></rect>
                <g id="Oval">
                    <use fill="black" fill-opacity="1" filter="url(#filter-6)" xlink:href="#path-5"></use>
                    <use fill="#47D7AC" fill-rule="evenodd" xlink:href="#path-5"></use>
                </g>
            </g>
            <path d="M25.65,678 L22.17,678 L22.17,667.2 L25.62,667.2 C29.295,667.2 31.62,669.435 31.62,672.6 C31.62,675.765 29.31,678 25.65,678 Z M25.59,669.135 L24.48,669.135 L24.48,676.065 L25.62,676.065 C27.93,676.065 29.295,674.565 29.295,672.6 C29.295,670.65 27.93,669.135 25.59,669.135 Z M33.12,672.81 L33.12,670.8 C33.54,670.605 34.545,670.29 35.865,670.29 C38.175,670.29 39.33,671.4 39.33,673.275 L39.33,678 L37.305,678 L37.26,677.31 C37.245,676.995 37.29,676.785 37.29,676.785 L37.26,676.785 C37.065,677.235 36.315,678.21 34.935,678.21 C33.645,678.21 32.55,677.46 32.55,675.93 C32.55,674.1 34.41,673.2 37.11,673.575 L37.11,673.395 C37.11,672.495 36.495,672.165 35.505,672.165 C34.56,672.165 33.615,672.495 33.12,672.81 Z M35.52,676.5 C36.39,676.5 37.05,675.705 37.05,674.745 C35.37,674.475 34.665,675 34.665,675.705 C34.665,676.185 34.995,676.5 35.52,676.5 Z M41.19,670.5 L41.19,678 L43.44,678 L43.44,670.5 L41.19,670.5 Z M41.07,668.355 C41.07,669.075 41.55,669.555 42.315,669.555 C43.065,669.555 43.56,669.075 43.56,668.355 C43.56,667.605 43.065,667.14 42.315,667.14 C41.55,667.14 41.07,667.605 41.07,668.355 Z M45.51,675.855 C45.51,677.565 46.545,678.21 47.82,678.21 C48.525,678.21 49.05,678.075 49.245,677.985 L49.245,676.14 C49.11,676.2 48.795,676.29 48.495,676.29 C48.045,676.29 47.745,676.05 47.745,675.36 L47.745,667.2 L45.51,667.2 L45.51,675.855 Z M49.695,681.33 C49.815,681.39 50.1,681.435 50.4,681.465 C50.685,681.495 51,681.495 51.345,681.45 C52.92,681.27 54.045,680.16 54.9,677.94 L57.81,670.5 L55.38,670.5 L54.51,673.11 C54.3,673.665 53.805,675.48 53.61,675.9 C53.355,674.955 53.04,674.025 52.725,673.11 L51.855,670.5 L49.395,670.5 L52.485,678 C52.08,678.855 51.57,679.515 50.58,679.515 C50.16,679.515 49.83,679.425 49.695,679.365 L49.695,681.33 Z M62.61,678 L64.845,678 L64.845,674.805 C64.845,673.44 65.775,672.435 66.915,672.435 C67.2,672.435 67.38,672.51 67.41,672.525 L67.41,670.335 C67.38,670.32 67.17,670.29 66.93,670.29 C65.955,670.29 65.175,670.92 64.71,671.73 C64.695,671.64 64.695,671.46 64.695,671.235 L64.65,670.5 L62.61,670.5 L62.61,678 Z M68.655,672.81 L68.655,670.8 C69.075,670.605 70.08,670.29 71.4,670.29 C73.71,670.29 74.865,671.4 74.865,673.275 L74.865,678 L72.84,678 L72.795,677.31 C72.78,676.995 72.825,676.785 72.825,676.785 L72.795,676.785 C72.6,677.235 71.85,678.21 70.47,678.21 C69.18,678.21 68.085,677.46 68.085,675.93 C68.085,674.1 69.945,673.2 72.645,673.575 L72.645,673.395 C72.645,672.495 72.03,672.165 71.04,672.165 C70.095,672.165 69.15,672.495 68.655,672.81 Z M71.055,676.5 C71.925,676.5 72.585,675.705 72.585,674.745 C70.905,674.475 70.2,675 70.2,675.705 C70.2,676.185 70.53,676.5 71.055,676.5 Z M75.75,670.5 L75.75,672.255 L76.785,672.255 L76.785,675.315 C76.785,675.585 76.815,675.84 76.83,676.08 C76.995,677.655 78.15,678.21 79.335,678.21 C80.22,678.21 80.91,678.03 81.24,677.865 L81.24,676.02 C80.91,676.185 80.43,676.335 79.965,676.335 C79.47,676.335 79.005,676.065 79.005,675.27 L79.005,672.255 L81,672.255 L81,670.5 L79.005,670.5 L79.005,668.25 L76.83,668.25 L76.83,670.5 L75.75,670.5 Z M85.74,670.29 C88.05,670.29 89.235,671.94 89.235,673.8 C89.235,674.205 89.19,674.565 89.175,674.715 L84.255,674.715 C84.345,675.735 85.125,676.32 86.34,676.32 C87.405,676.32 88.515,676.005 88.935,675.765 L88.935,677.67 C88.47,677.91 87.465,678.21 86.13,678.21 C83.55,678.21 81.93,676.545 81.93,674.25 C81.93,671.97 83.595,670.29 85.74,670.29 Z M87.09,673.56 C87.12,672.75 86.64,672.06 85.725,672.06 C84.825,672.06 84.315,672.75 84.255,673.56 L87.09,673.56 Z M90.3,671.505 C90.3,672.24 90.78,672.705 91.545,672.705 C92.295,672.705 92.79,672.24 92.79,671.505 C92.79,670.77 92.295,670.29 91.545,670.29 C90.78,670.29 90.3,670.77 90.3,671.505 Z M90.3,677.01 C90.3,677.73 90.78,678.21 91.545,678.21 C92.295,678.21 92.79,677.73 92.79,677.01 C92.79,676.26 92.295,675.795 91.545,675.795 C90.78,675.795 90.3,676.26 90.3,677.01 Z M99.3,670.425 L99.3,671.82 L98.145,671.82 L98.145,673.32 L99.3,673.32 L99.3,674.49 C99.3,676.005 98.745,677.19 98.115,678 L105.405,678 L105.405,676.14 L101.07,676.14 C101.325,675.825 101.505,675.315 101.505,674.61 L101.505,673.32 L104.325,673.32 L104.325,671.82 L101.505,671.82 L101.505,670.65 C101.505,669.54 102.165,668.925 103.275,668.925 C103.995,668.925 104.76,669.105 105.21,669.315 L105.21,667.335 C104.82,667.185 103.89,666.99 102.99,666.99 C100.74,666.99 99.3,668.16 99.3,670.425 Z M110.895,670.29 C110.895,671.115 109.98,671.625 108.825,671.625 L108.33,671.625 L108.33,673.335 L108.72,673.335 C110.235,673.335 111.075,673.905 111.075,674.835 C111.075,675.66 110.37,676.185 109.305,676.185 C108.045,676.185 107.25,675.84 106.755,675.63 L106.755,677.625 C107.355,677.925 108.18,678.21 109.5,678.21 C111.765,678.21 113.46,677.04 113.46,675.105 C113.46,673.71 112.53,672.81 111.495,672.48 C112.44,672.09 113.28,671.205 113.28,669.99 C113.28,668.25 111.855,666.99 109.5,666.99 C108.405,666.99 107.43,667.26 106.935,667.5 L106.935,669.495 C107.385,669.27 108.18,669.015 109.095,669.015 C110.175,669.015 110.895,669.48 110.895,670.29 Z M114.525,677.58 C115.02,677.865 115.905,678.21 117.18,678.21 C119.565,678.21 121.23,676.905 121.23,674.7 C121.23,672.51 119.715,671.1 117.72,671.1 C117.285,671.1 117.03,671.16 116.865,671.205 L116.94,669.15 L120.645,669.15 L120.645,667.2 L114.945,667.2 L114.705,673.11 C114.99,672.99 115.695,672.735 116.715,672.735 C117.945,672.735 118.845,673.41 118.845,674.445 C118.845,675.525 118.005,676.185 116.88,676.185 C115.89,676.185 114.99,675.885 114.525,675.57 L114.525,677.58 Z M122.16,672.6 C122.16,669.465 123.855,666.99 126.555,666.99 C129.24,666.99 130.935,669.465 130.935,672.6 C130.935,675.735 129.24,678.21 126.555,678.21 C123.855,678.21 122.16,675.735 122.16,672.6 Z M124.485,672.6 C124.485,674.67 125.25,676.095 126.555,676.095 C127.86,676.095 128.61,674.67 128.61,672.6 C128.61,670.53 127.86,669.105 126.555,669.105 C125.25,669.105 124.485,670.53 124.485,672.6 Z" id="Daily-rate:-£350" fill="#2D2926"></path>
            <text id="Project-cost" font-family="Karla-Regular, Karla" font-size="18" font-weight="normal" line-spacing="24" fill="#2D2926">
                <tspan x="21" y="645">Project cost</tspan>
            </text>
            <text id="This-doesn't-have-to" font-family="Karla-Regular, Karla" font-size="15" font-weight="normal" fill="#2D2926">
                <tspan x="20" y="738">This doesn't have to be exact and can be changed later. </tspan>
                <tspan x="20" y="756" font-family="Karla-Italic, Karla" font-style="italic" fill-opacity="0.4">The price is in GBP and excludes tax.</tspan>
            </text>
            <g id="input/default" transform="translate(20.000000, 830.000000)">
                <g>
                    <text id="Label" font-family="Karla-Regular, Karla" font-size="15" font-weight="normal" line-spacing="21" fill="#2D2926">
                        <tspan x="0" y="14">Where can the freelancer work from?</tspan>
                    </text>
                    <g id="Rectangle">
                        <use fill="#FFFFFF" fill-rule="evenodd" xlink:href="#path-7"></use>
                        <rect stroke="#DEDEDE" stroke-width="1" x="0.5" y="26.5" width="259" height="39"></rect>
                    </g>
                    <g id="ic/chevron/---FontAwesome" transform="translate(237.120000, 36.000000)" font-weight="normal" font-family="FontAwesome" line-spacing="21" fill="#DEDEDE" font-size="12">
                        <text id="chevron-down---FontAwesome" transform="translate(6.000000, 10.500000) scale(-1, -1) rotate(180.000000) translate(-6.000000, -10.500000) ">
                            <tspan x="0" y="10"></tspan>
                        </text>
                    </g>
                    <text id="Placeholder" font-family="Karla-Regular, Karla" font-size="13" font-weight="normal" line-spacing="21" fill="#888888">
                        <tspan x="10" y="47">On-site or remotely</tspan>
                    </text>
                </g>
            </g>
            <g id="Group-2" transform="translate(20.000000, 931.000000)">
                <g id="Checkbox" transform="translate(0.000000, 39.000000)">
                    <g id="selectors/radio-active" transform="translate(0.000000, 2.000000)">
                        <rect id="bounds" x="0" y="0" width="20" height="20"></rect>
                        <g id="Oval">
                            <use fill="#47D7AC" fill-rule="evenodd" xlink:href="#path-8"></use>
                            <circle stroke="#FFFFFF" stroke-width="4" cx="10" cy="10" r="7"></circle>
                            <circle stroke="#DEDEDE" stroke-width="2" cx="10" cy="10" r="8"></circle>
                        </g>
                    </g>
                    <g id="selectors/radio" transform="translate(0.000000, 35.000000)">
                        <rect id="bounds" x="0" y="0" width="20" height="20"></rect>
                        <circle id="Oval" stroke="#DEDEDE" stroke-width="2" cx="10" cy="10" r="8"></circle>
                    </g>
                    <text id="Public-(All-freelanc" font-family="Karla-Regular, Karla" font-size="15" font-weight="normal" line-spacing="20" fill="#2D2926">
                        <tspan x="35" y="14">Public  </tspan>
                        <tspan x="84.71" y="14" font-family="Karla-Italic, Karla" font-style="italic" fill-opacity="0.4">(All freelancer can view &amp; express interest) </tspan>
                    </text>
                    <text id="Private-(Only-select" font-family="Karla-Regular, Karla" font-size="15" font-weight="normal" line-spacing="20" fill="#2D2926">
                        <tspan x="35" y="47">Private </tspan>
                        <tspan x="86.39" y="47" font-family="Karla-Italic, Karla" font-style="italic" fill-opacity="0.4">(Only selected freelancers will be shown the brief)</tspan>
                    </text>
                </g>
                <text id="Brief-visibility" font-family="Karla-Regular, Karla" font-size="15" font-weight="normal" fill="#2D2926">
                    <tspan x="0" y="14">Brief visibility</tspan>
                </text>
            </g>
            <g id="Checkbox" transform="translate(21.000000, 1066.000000)">
                <g id="selectors/checkbox/default">
                    <rect id="bounds" x="0" y="0" width="20" height="20"></rect>
                    <rect id="checkbox" stroke="#DEDEDE" stroke-width="2" x="2" y="2" width="16" height="16" rx="4"></rect>
                </g>
                <text id="I’d-like-help-shortl" font-family="Karla-Regular, Karla" font-size="15" font-weight="normal" line-spacing="20" fill="#2D2926">
                    <tspan x="35" y="14">I’d like help shortlisting and selecting candidates.</tspan>
                </text>
            </g>
        </g>
    </g>
</svg>