<?xml version="1.0" encoding="UTF-8"?>
<svg width="130px" height="131px" viewBox="0 0 130 131" version="1.1" xmlns="http://www.w3.org/2000/svg" xmlns:xlink="http://www.w3.org/1999/xlink">
    <!-- Generator: Sketch 45.2 (43514) - http://www.bohemiancoding.com/sketch -->
    <title>yj-direct-icon</title>
    <desc>Created with Sketch.</desc>
    <defs></defs>
    <g id="Enganging-users---Platform" stroke="none" stroke-width="1" fill="none" fill-rule="evenodd">
        <g id="yj-direct-icon">
            <polygon id="Rectangle-5" fill="#2D2926" points="0 0.126804069 130 0.126804069 130 130.126804 0 130.126804"></polygon>
            <g id="Logo/white/YJ-Logomark/Regular" transform="translate(38.000000, 36.126804)" fill="#FFFFFF">
                <g>
                    <path d="M8.25969952,47.5999354 L20.0646605,40.6848976 L20.0646605,32.4872407 L13.0666148,28.3873018 L1.26274832,35.3023396 C0.191261502,35.929768 -0.175386183,37.3201048 0.442989763,38.4061666 L5.20174838,46.7681764 C5.82012432,47.8553487 7.1882127,48.2273637 8.25969952,47.5999354" id="Fill-4" opacity="0.7"></path>
                    <path d="M22.3034003,0 L31.8198231,0 C33.056575,0 34.0591101,1.01721128 34.0591101,2.27206799 L34.0591101,16.1021436 L28.180708,19.5457814 C27.4879081,19.9511112 26.6353154,19.9511112 25.9425154,19.5457814 L20.0641133,16.1021436 L20.0641133,2.27206799 C20.0641133,1.01721128 21.0666484,0 22.3034003,0" id="Fill-6" opacity="0.7"></path>
                    <polygon id="Fill-8" opacity="0.4" points="34.059329 32.4863523 41.0573747 28.3875239 44.9755798 30.6818018 37.9786286 34.7817407 37.9786286 42.9793975 34.059329 40.6840092"></polygon>
                    <path d="M37.9781908,42.9796196 L37.9781908,34.7819628 L44.9762365,30.6820239 L52.8618979,35.3016733 C53.9322903,35.9291017 54.2989379,37.318328 53.680562,38.4055003 L48.9228979,46.7675101 C48.3045219,47.8546824 46.9353391,48.2266974 45.8638522,47.5992691 L37.9781908,42.9796196 Z" id="Fill-10" opacity="0.6"></path>
                    <path d="M34.059329,54.5150842 L34.059329,32.4873518 L52.8612412,21.4723751 C53.9316336,20.8449467 54.2993757,19.4557204 53.6809998,18.3696586 L48.9222412,10.0065383 C48.3038652,8.92047651 46.9346824,8.54735097 45.86429,9.17477933 L28.1809269,19.5334549 C27.4892214,19.9398952 26.6344398,19.9398952 25.9416398,19.5334549 L8.25937118,9.17477933 C7.18897883,8.54735097 5.81979598,8.92047651 5.20142004,10.0065383 L0.442661422,18.3696586 C-0.175714524,19.4557204 0.192027631,20.8449467 1.26241998,21.4723751 L20.0643322,32.4873518 L20.0643322,54.5150842 C20.0643322,55.769941 21.0668673,56.7871522 22.3036192,56.7871522 L31.820042,56.7871522 C33.0567939,56.7871522 34.059329,55.769941 34.059329,54.5150842" id="Fill-1"></path>
                </g>
            </g>
        </g>
    </g>
</svg>