<?xml version="1.0" encoding="UTF-8"?>
<svg width="60px" height="69px" viewBox="0 0 60 69" version="1.1" xmlns="http://www.w3.org/2000/svg" xmlns:xlink="http://www.w3.org/1999/xlink">
    <!-- Generator: Sketch 45.2 (43514) - http://www.bohemiancoding.com/sketch -->
    <title>yj-direct</title>
    <desc>Created with Sketch.</desc>
    <defs></defs>
    <g id="Enganging-users---Platform" stroke="none" stroke-width="1" fill="none" fill-rule="evenodd">
        <g id="yj-direct" fill-rule="nonzero" fill="#47D7AC">
            <g id="client-services">
                <path d="M59.332,17.815 C59.2545591,17.6425249 59.1106442,17.5087093 58.933,17.444 L51.233,14.644 L51.233,7.203 C51.233,6.81640068 50.9195993,6.503 50.533,6.503 L30.037,6.503 L27.405,0.791 C27.2433245,0.442463123 26.8309382,0.289380344 26.481,0.448 L4.27,10.5 C4.10076521,10.577647 3.96943919,10.7195192 3.90506976,10.8942362 C3.84070033,11.0689533 3.84859228,11.2621163 3.927,11.431 L7.035,18.2 L1.61,19.495 C1.23912428,19.5850301 1.00871612,19.9555513 1.092,20.328 L2.835,28.028 C1.51064561,28.0837799 0.461719414,29.1665424 0.448,30.492 L0.448,66.08 C0.444229316,66.7507104 0.709481505,67.3949408 1.18441022,67.8685539 C1.65933893,68.342167 2.30430263,68.6056312 2.975,68.6 L54.6,68.6 C55.9786156,68.6077877 57.1046182,67.5005518 57.12,66.122 L57.12,30.499 C57.1218265,29.8333633 56.851188,29.1959717 56.371,28.735 C56.129735,28.5011279 55.8441345,28.3178676 55.531,28.196 L59.325,18.354 C59.3991909,18.1824713 59.4017113,17.9883975 59.332,17.815 Z M49.805,28 L45.605,28 L45.605,15.484 C45.605,15.0974007 45.2915993,14.784 44.905,14.784 L26.005,14.784 L26.005,7.903 L49.805,7.903 L49.805,28 Z M44.205,16.163 L44.205,28 L20.405,28 L20.405,16.184 L44.205,16.163 Z M26.425,2.009 L28.525,6.503 L25.305,6.503 C24.9184007,6.503 24.605,6.81640068 24.605,7.203 L24.605,14.784 L19.705,14.784 C19.3184007,14.784 19.005,15.0974007 19.005,15.484 L19.005,28 L18.396,28 C18.0984979,27.6926808 17.8225118,27.3652396 17.57,27.02 C16.8,26.026 16.191,25.2 15.26,25.2 L11.76,25.2 L5.46,11.543 L26.425,2.009 Z M7.525,19.509 C7.55397464,19.4970406 7.58204767,19.4830041 7.609,19.467 L10.241,25.2 L9.352,25.2 C8.421,25.2 7.777,26.054 7.035,27.048 C6.78368814,27.383365 6.51006862,27.7014184 6.216,28 L4.27,28 L2.611,20.706 L7.525,19.509 Z M55.041,66.066 C55.0260282,66.2847351 54.8400983,66.452072 54.621,66.444 L2.975,66.444 C2.75323808,66.4559938 2.56299218,66.2875794 2.548,66.066 L2.548,30.499 C2.56299218,30.2774206 2.75323808,30.1090062 2.975,30.121 L6.398,30.121 C7.329,30.121 7.973,29.267 8.715,28.273 C8.96785436,27.930235 9.24383023,27.6051448 9.541,27.3 L15.071,27.3 C15.365948,27.60768 15.6395822,27.9351055 15.89,28.28 C16.632,29.267 17.269,30.1 18.2,30.1 L54.6,30.1 C54.714203,30.0982851 54.8246171,30.1409451 54.908,30.219 C54.9782468,30.2841329 55.0187265,30.3752123 55.02,30.471 L55.041,66.066 Z M54.124,28 L51.205,28 L51.205,16.1 L57.792,18.48 L54.124,28 Z" id="Shape"></path>
                <path d="M30.905,35.378 L8.505,35.378 C8.11840068,35.378 7.805,35.6914007 7.805,36.078 C7.805,36.4645993 8.11840068,36.778 8.505,36.778 L30.905,36.778 C31.2915993,36.778 31.605,36.4645993 31.605,36.078 C31.605,35.6914007 31.2915993,35.378 30.905,35.378 Z" id="Shape"></path>
                <path d="M22.505,39.578 L8.505,39.578 C8.11840068,39.578 7.805,39.8914007 7.805,40.278 C7.805,40.6645993 8.11840068,40.978 8.505,40.978 L22.505,40.978 C22.8915993,40.978 23.205,40.6645993 23.205,40.278 C23.205,39.8914007 22.8915993,39.578 22.505,39.578 Z" id="Shape"></path>
                <path d="M16.905,43.778 L8.505,43.778 C8.11840068,43.778 7.805,44.0914007 7.805,44.478 C7.805,44.8645993 8.11840068,45.178 8.505,45.178 L16.905,45.178 C17.2915993,45.178 17.605,44.8645993 17.605,44.478 C17.605,44.0914007 17.2915993,43.778 16.905,43.778 Z" id="Shape"></path>
                <path d="M42.798,50.302 C41.2516027,50.302 39.998,51.5556027 39.998,53.102 C39.998,54.6483973 41.2516027,55.902 42.798,55.902 C44.3443973,55.902 45.598,54.6483973 45.598,53.102 C45.598,51.5556027 44.3443973,50.302 42.798,50.302 Z M42.798,54.502 C42.0248014,54.502 41.398,53.8751986 41.398,53.102 C41.398,52.3288014 42.0248014,51.702 42.798,51.702 C43.5711986,51.702 44.198,52.3288014 44.198,53.102 C44.198,53.8751986 43.5711986,54.502 42.798,54.502 Z" id="Shape"></path>
                <path d="M47.705,47.229 L37.905,47.229 C36.745202,47.229 35.805,48.169202 35.805,49.329 L35.805,59.129 C35.805,60.288798 36.745202,61.229 37.905,61.229 L47.705,61.229 C48.864798,61.229 49.805,60.288798 49.805,59.129 L49.805,49.329 C49.805,48.169202 48.864798,47.229 47.705,47.229 Z M45.605,59.829 L40.005,59.829 L40.005,58.8 C40.005,58.220101 40.475101,57.75 41.055,57.75 L44.555,57.75 C45.134899,57.75 45.605,58.220101 45.605,58.8 L45.605,59.829 Z M48.405,59.129 C48.405,59.5155993 48.0915993,59.829 47.705,59.829 L47.005,59.829 L47.005,58.8 C47.005,57.4469024 45.9080976,56.35 44.555,56.35 L41.055,56.35 C39.7019024,56.35 38.605,57.4469024 38.605,58.8 L38.605,59.85 L37.905,59.85 C37.5184007,59.85 37.205,59.5365993 37.205,59.15 L37.205,49.35 C37.205,48.9634007 37.5184007,48.65 37.905,48.65 L47.705,48.65 C48.0915993,48.65 48.405,48.9634007 48.405,49.35 L48.405,59.129 Z" id="Shape"></path>
            </g>
        </g>
    </g>
</svg>