<?xml version="1.0" encoding="UTF-8"?>
<svg width="13px" height="11px" viewBox="0 0 13 11" version="1.1" xmlns="http://www.w3.org/2000/svg" xmlns:xlink="http://www.w3.org/1999/xlink">
    <!-- Generator: Sketch 44.1 (41455) - http://www.bohemiancoding.com/sketch -->
    <title>ic/soical/email</title>
    <desc>Created with Sketch.</desc>
    <defs></defs>
    <g id="Symbols" stroke="none" stroke-width="1" fill="none" fill-rule="evenodd" opacity="0.4">
        <g id="Footer" transform="translate(-5.000000, -2.000000)">
            <g id="ic/soical/email">
                <g transform="translate(4.000000, 0.000000)">
                    <g id="ic/email">
                        <rect id="bounds" x="0" y="0" width="15" height="15"></rect>
                        <path d="M13.75,5.6666875 L13.75,11.2048125 C13.75,11.5116875 13.64125,11.7741875 13.4225,11.9929375 C13.20375,12.2116875 12.94125,12.3216875 12.634375,12.3216875 L2.365625,12.3216875 C2.05875,12.3216875 1.79625,12.2116875 1.5775,11.9929375 C1.35875,11.7741875 1.25,11.5116875 1.25,11.2048125 L1.25,5.6666875 C1.454375,5.8948125 1.689375,6.0966875 1.955,6.2729375 C3.6375,7.4173125 4.793125,8.2198125 5.421875,8.6798125 C5.68625,8.8748125 5.901875,9.0279375 6.066875,9.1373125 C6.23125,9.2466875 6.45125,9.3573125 6.725625,9.4710625 C7.000625,9.5854375 7.255625,9.6423125 7.493125,9.6423125 L7.5,9.6423125 L7.506875,9.6423125 C7.744375,9.6423125 7.999375,9.5854375 8.274375,9.4710625 C8.54875,9.3573125 8.76875,9.2466875 8.933125,9.1373125 C9.098125,9.0279375 9.31375,8.8748125 9.578125,8.6798125 C10.369375,8.1079375 11.5275,7.3066875 13.051875,6.2729375 C13.3175,6.0916875 13.549375,5.8904375 13.75,5.6666875 M13.75,3.6160625 C13.75,3.9829375 13.63625,4.3341875 13.408125,4.6698125 C13.180625,5.0035625 12.89625,5.2904375 12.556875,5.5273125 C10.809375,6.7410625 9.720625,7.4966875 9.2925,7.7948125 C9.246875,7.8273125 9.146875,7.8973125 8.99625,8.0060625 C8.845,8.1160625 8.719375,8.2048125 8.62,8.2716875 C8.519375,8.3398125 8.398125,8.4154375 8.256875,8.4985625 C8.114375,8.5823125 7.98125,8.6454375 7.85625,8.6866875 C7.73,8.7285625 7.61375,8.7498125 7.506875,8.7498125 L7.5,8.7498125 L7.493125,8.7498125 C7.38625,8.7498125 7.27,8.7285625 7.14375,8.6866875 C7.01875,8.6454375 6.884375,8.5823125 6.743125,8.4985625 C6.600625,8.4154375 6.480625,8.3398125 6.38,8.2716875 C6.280625,8.2048125 6.155,8.1160625 6.00375,8.0060625 C5.853125,7.8973125 5.753125,7.8273125 5.7075,7.7948125 C5.284375,7.4966875 4.675,7.0723125 3.879375,6.5210625 C3.084375,5.9698125 2.608125,5.6379375 2.449375,5.5273125 C2.16125,5.3323125 1.88875,5.0635625 1.63375,4.7216875 C1.378125,4.3798125 1.25,4.0623125 1.25,3.7698125 C1.25,3.4060625 1.346875,3.1041875 1.54,2.8629375 C1.731875,2.6210625 2.008125,2.4998125 2.365625,2.4998125 L12.634375,2.4998125 C12.93625,2.4998125 13.1975,2.6085625 13.418125,2.8273125 C13.639375,3.0460625 13.75,3.3085625 13.75,3.6160625" id="icn_email" fill="#2D2926"></path>
                    </g>
                </g>
            </g>
        </g>
    </g>
</svg>