<?xml version="1.0" encoding="UTF-8"?>
<svg width="13px" height="13px" viewBox="0 0 13 13" version="1.1" xmlns="http://www.w3.org/2000/svg" xmlns:xlink="http://www.w3.org/1999/xlink">
    <!-- Generator: Sketch 44.1 (41455) - http://www.bohemiancoding.com/sketch -->
    <title>ic/soical/linkedin</title>
    <desc>Created with Sketch.</desc>
    <defs></defs>
    <g id="Symbols" stroke="none" stroke-width="1" fill="none" fill-rule="evenodd" opacity="0.4">
        <g id="Footer" transform="translate(-71.000000, -1.000000)">
            <g id="ic/soical/linkedin">
                <g transform="translate(70.000000, 0.000000)">
                    <g id="ic/linkedin">
                        <rect id="bounds" x="0" y="0" width="15" height="15"></rect>
                        <path d="M1.640625,13.59375 L4.375,13.59375 L4.375,5.78125 L1.640625,5.78125 L1.640625,13.59375 Z M2.8125,4.609375 C3.59375,4.609375 4.375,3.828125 4.375,3.046875 C4.375,2.65625 3.59375,1.875 2.8125,1.875 C2.03125,1.875 1.25,2.65625 1.25,3.4375 C1.25,4.21875 2.03125,4.609375 2.8125,4.609375 L2.8125,4.609375 Z M13.75,13.59375 L13.75,8.90625 C13.75,6.5625 12.578125,5.390625 10.625,5.390625 C9.0625,5.390625 8.671875,6.171875 8.28125,6.5625 L8.28125,5.78125 L5.546875,5.78125 L5.546875,13.59375 L8.28125,13.59375 L8.28125,9.296875 L8.28125,8.515625 C8.28125,8.125 9.0625,7.734375 9.453125,7.734375 C10.234375,7.734375 10.625,8.515625 10.625,9.6875 L10.625,13.59375 L13.75,13.59375 Z" id="icn_linkedin" fill="#2D2926"></path>
                    </g>
                </g>
            </g>
        </g>
    </g>
</svg>