<?xml version="1.0" encoding="UTF-8"?>
<svg width="17px" height="17px" viewBox="0 0 17 17" version="1.1" xmlns="http://www.w3.org/2000/svg" xmlns:xlink="http://www.w3.org/1999/xlink">
    <!-- Generator: Sketch 44.1 (41455) - http://www.bohemiancoding.com/sketch -->
    <title>ic/soical/link</title>
    <desc>Created with Sketch.</desc>
    <defs></defs>
    <g id="Dashboard:-Engage-Freelancers" stroke="none" stroke-width="1" fill="none" fill-rule="evenodd" opacity="0.4">
        <g id="Freelancer-Dashboard---First-Time-User---development" transform="translate(-348.000000, -1095.000000)">
            <g id="ic/soical/link" transform="translate(347.000000, 1094.000000)">
                <g id="ic/link">
                    <rect id="bounds" x="0" y="0" width="19" height="19"></rect>
                    <path d="M15.5533208,13.2259792 C15.5533208,12.9671042 15.4630708,12.7478125 15.2817792,12.5665208 L13.2638208,10.5477708 C13.0833208,10.3664792 12.8624458,10.2762292 12.6035708,10.2762292 C12.3320292,10.2762292 12.1000708,10.3791458 11.9061125,10.5857708 C11.9243208,10.6055625 11.9868625,10.6649375 12.0897792,10.7670625 C12.1934875,10.8660208 12.2623625,10.9364792 12.2979875,10.9752708 C12.3328208,11.0132708 12.3826958,11.0758125 12.4436542,11.1589375 C12.5054042,11.2420625 12.5465708,11.3259792 12.5695292,11.4067292 C12.5924875,11.4874792 12.6035708,11.5761458 12.6035708,11.6727292 C12.6035708,11.9331875 12.5125292,12.1524792 12.3320292,12.3329792 C12.1507375,12.5142708 11.9314458,12.6045208 11.6725708,12.6045208 C11.5759875,12.6045208 11.4873208,12.5934375 11.4065708,12.5712708 C11.3242375,12.5483125 11.2426958,12.5055625 11.1587792,12.4446042 C11.0740708,12.3828542 11.0131125,12.3345625 10.9735292,12.2989375 C10.9355292,12.2641042 10.8658625,12.1928542 10.7653208,12.0915208 C10.6647792,11.9862292 10.6054042,11.9260625 10.5856125,11.9062708 C10.3718625,12.1065625 10.2657792,12.3432708 10.2657792,12.6148125 C10.2657792,12.8721042 10.3568208,13.0929792 10.5381125,13.2742708 L12.5354875,15.2835208 C12.7112375,15.4568958 12.9305292,15.5431875 13.1965292,15.5431875 C13.4538208,15.5431875 13.6746958,15.4600625 13.8551958,15.2914375 L15.2817792,13.8751458 C15.4630708,13.6946458 15.5533208,13.4777292 15.5533208,13.2259792 M8.73232083,6.38677083 C8.73232083,6.1263125 8.64207083,5.90702083 8.46077917,5.72572917 L6.46340417,3.7180625 C6.2821125,3.5375625 6.0612375,3.44652083 5.80394583,3.44652083 C5.5506125,3.44652083 5.33132083,3.53439583 5.14290417,3.7085625 L3.7171125,5.12485417 C3.53582083,5.30614583 3.44557083,5.52227083 3.44557083,5.77560417 C3.44557083,6.03289583 3.53582083,6.25377083 3.7171125,6.4350625 L5.7358625,8.45222917 C5.91002917,8.62797917 6.12932083,8.71427083 6.39532083,8.71427083 C6.6668625,8.71427083 6.89882083,8.61372917 7.0943625,8.41264583 C7.07457083,8.3944375 7.01202917,8.33347917 6.9091125,8.23452083 C6.80540417,8.13397917 6.7357375,8.0643125 6.70090417,8.02472917 C6.66527917,7.98672917 6.61619583,7.92577083 6.5552375,7.8410625 C6.49269583,7.75635417 6.45152917,7.67402083 6.4293625,7.59327083 C6.40640417,7.51252083 6.39532083,7.42385417 6.39532083,7.32647917 C6.39532083,7.06839583 6.48557083,6.8483125 6.6668625,6.66702083 C6.84815417,6.48572917 7.06744583,6.39547917 7.32632083,6.39547917 C7.42369583,6.39547917 7.51157083,6.4065625 7.5931125,6.42952083 C7.6738625,6.4516875 7.75619583,6.4944375 7.84090417,6.5561875 C7.92482083,6.61714583 7.98577917,6.6654375 8.0253625,6.7010625 C8.0633625,6.73747917 8.1322375,6.8055625 8.23277917,6.9100625 C8.33332083,7.01377083 8.39269583,7.0739375 8.4124875,7.09372917 C8.6262375,6.8934375 8.73232083,6.6583125 8.73232083,6.38677083 M17.4169042,13.2259792 C17.4169042,14.0010208 17.1406125,14.6581042 16.5919875,15.1956458 L15.1654042,16.6119375 C14.6278625,17.1478958 13.9715708,17.4170625 13.1965292,17.4170625 C12.4135708,17.4170625 11.7533208,17.1423542 11.2165708,16.5921458 L9.2176125,14.5844792 C8.68165417,14.0469375 8.4124875,13.3898542 8.4124875,12.6148125 C8.4124875,11.8199792 8.69669583,11.1431042 9.2674875,10.5857708 L8.4124875,9.73314583 C7.8567375,10.3031458 7.1846125,10.5857708 6.39532083,10.5857708 C5.61869583,10.5857708 4.9592375,10.3142292 4.41615417,9.77114583 L2.39819583,7.7531875 C1.8551125,7.21010417 1.58357083,6.55064583 1.58357083,5.77560417 C1.58357083,4.99897917 1.8574875,4.34189583 2.4084875,3.8059375 L3.83427917,2.3880625 C4.3702375,1.85210417 5.02732083,1.58372917 5.80394583,1.58372917 C6.5861125,1.58372917 7.24557083,1.85922917 7.78152917,2.40785417 L9.7804875,4.41710417 C10.3172375,4.95385417 10.5856125,5.61014583 10.5856125,6.38677083 C10.5856125,7.18160417 10.3014042,7.85847917 9.7329875,8.41264583 L10.5856125,9.26764583 C11.1421542,8.6984375 11.8150708,8.41264583 12.6035708,8.41264583 C13.3801958,8.41264583 14.0396542,8.6841875 14.5827375,9.2280625 L16.6014875,11.2468125 C17.1453625,11.7898958 17.4169042,12.4493542 17.4169042,13.2259792" id="icn_link" fill="#2D2926"></path>
                </g>
            </g>
        </g>
    </g>
</svg>