<?xml version="1.0" encoding="UTF-8"?>
<svg width="17px" height="16px" viewBox="0 0 17 16" version="1.1" xmlns="http://www.w3.org/2000/svg" xmlns:xlink="http://www.w3.org/1999/xlink">
    <!-- Generator: Sketch 44.1 (41455) - http://www.bohemiancoding.com/sketch -->
    <title>ic/soical/linkedin</title>
    <desc>Created with Sketch.</desc>
    <defs></defs>
    <g id="Dashboard:-Engage-Freelancers" stroke="none" stroke-width="1" fill="none" fill-rule="evenodd" opacity="0.4">
        <g id="Freelancer-Dashboard---First-Time-User---development" transform="translate(-406.000000, -1096.000000)">
            <g id="ic/soical/linkedin" transform="translate(405.000000, 1094.000000)">
                <g id="ic/linkedin">
                    <rect id="bounds" x="0" y="0" width="19" height="19"></rect>
                    <path d="M2.078125,17.21875 L5.54166667,17.21875 L5.54166667,7.32291667 L2.078125,7.32291667 L2.078125,17.21875 Z M3.5625,5.83854167 C4.55208333,5.83854167 5.54166667,4.84895833 5.54166667,3.859375 C5.54166667,3.36458333 4.55208333,2.375 3.5625,2.375 C2.57291667,2.375 1.58333333,3.36458333 1.58333333,4.35416667 C1.58333333,5.34375 2.57291667,5.83854167 3.5625,5.83854167 L3.5625,5.83854167 Z M17.4166667,17.21875 L17.4166667,11.28125 C17.4166667,8.3125 15.9322917,6.828125 13.4583333,6.828125 C11.4791667,6.828125 10.984375,7.81770833 10.4895833,8.3125 L10.4895833,7.32291667 L7.02604167,7.32291667 L7.02604167,17.21875 L10.4895833,17.21875 L10.4895833,11.7760417 L10.4895833,10.7864583 C10.4895833,10.2916667 11.4791667,9.796875 11.9739583,9.796875 C12.9635417,9.796875 13.4583333,10.7864583 13.4583333,12.2708333 L13.4583333,17.21875 L17.4166667,17.21875 Z" id="icn_linkedin" fill="#2D2926"></path>
                </g>
            </g>
        </g>
    </g>
</svg>