<?xml version="1.0" encoding="UTF-8"?>
<svg width="17px" height="14px" viewBox="0 0 17 14" version="1.1" xmlns="http://www.w3.org/2000/svg" xmlns:xlink="http://www.w3.org/1999/xlink">
    <!-- Generator: Sketch 44.1 (41455) - http://www.bohemiancoding.com/sketch -->
    <title>ic/soical/twitter</title>
    <desc>Created with Sketch.</desc>
    <defs></defs>
    <g id="Dashboard:-Engage-Freelancers" stroke="none" stroke-width="1" fill="none" fill-rule="evenodd" opacity="0.4">
        <g id="Freelancer-Dashboard---First-Time-User---development" transform="translate(-377.000000, -1097.000000)">
            <g id="ic/soical/twitter" transform="translate(376.000000, 1094.000000)">
                <g id="ic/twitter">
                    <rect id="bounds" x="0" y="0" width="19" height="19"></rect>
                    <path d="M17.4166667,4.75 C16.888625,4.75 16.361375,5.27804167 15.3052917,5.27804167 C15.8333333,4.75 16.361375,4.22195833 16.888625,3.69470833 C16.361375,3.69470833 15.8333333,3.69470833 14.7780417,4.22195833 C14.25,3.69470833 13.7219583,3.16666667 12.6666667,3.16666667 C10.5552917,3.16666667 9.5,4.75 9.5,6.33333333 L9.5,6.861375 C6.861375,6.861375 4.22195833,5.80529167 2.638625,3.69470833 C2.638625,4.22195833 2.111375,4.75 2.111375,5.27804167 C2.111375,6.33333333 2.638625,7.388625 3.69470833,7.91666667 C3.16666667,7.91666667 2.638625,7.91666667 2.111375,7.388625 C2.111375,8.97195833 3.16666667,10.0280417 4.75,10.5552917 L3.69470833,10.5552917 L3.16666667,10.5552917 C3.69470833,12.138625 4.75,13.1947083 6.33333333,13.1947083 C5.27804167,14.25 3.69470833,14.7780417 2.111375,14.7780417 L1.58333333,14.7780417 C3.16666667,15.8333333 4.75,16.361375 6.33333333,16.361375 C12.138625,16.361375 15.3052917,11.611375 15.3052917,6.861375 L15.3052917,6.33333333 C16.361375,5.80529167 16.888625,5.27804167 17.4166667,4.75" id="icn_twitter" fill="#2D2926"></path>
                </g>
            </g>
        </g>
    </g>
</svg>