<?xml version="1.0" encoding="UTF-8"?>
<svg width="13px" height="11px" viewBox="0 0 13 11" version="1.1" xmlns="http://www.w3.org/2000/svg" xmlns:xlink="http://www.w3.org/1999/xlink">
    <!-- Generator: Sketch 44.1 (41455) - http://www.bohemiancoding.com/sketch -->
    <title>ic/soical/twitter</title>
    <desc>Created with Sketch.</desc>
    <defs></defs>
    <g id="Symbols" stroke="none" stroke-width="1" fill="none" fill-rule="evenodd" opacity="0.4">
        <g id="Footer" transform="translate(-38.000000, -2.000000)">
            <g id="ic/soical/twitter">
                <g transform="translate(37.000000, 0.000000)">
                    <g id="ic/twitter">
                        <rect id="bounds" x="0" y="0" width="15" height="15"></rect>
                        <path d="M13.75,3.75 C13.333125,3.75 12.916875,4.166875 12.083125,4.166875 C12.5,3.75 12.916875,3.333125 13.333125,2.916875 C12.916875,2.916875 12.5,2.916875 11.666875,3.333125 C11.25,2.916875 10.833125,2.5 10,2.5 C8.333125,2.5 7.5,3.75 7.5,5 L7.5,5.416875 C5.416875,5.416875 3.333125,4.583125 2.083125,2.916875 C2.083125,3.333125 1.666875,3.75 1.666875,4.166875 C1.666875,5 2.083125,5.833125 2.916875,6.25 C2.5,6.25 2.083125,6.25 1.666875,5.833125 C1.666875,7.083125 2.5,7.916875 3.75,8.333125 L2.916875,8.333125 L2.5,8.333125 C2.916875,9.583125 3.75,10.416875 5,10.416875 C4.166875,11.25 2.916875,11.666875 1.666875,11.666875 L1.25,11.666875 C2.5,12.5 3.75,12.916875 5,12.916875 C9.583125,12.916875 12.083125,9.166875 12.083125,5.416875 L12.083125,5 C12.916875,4.583125 13.333125,4.166875 13.75,3.75" id="icn_twitter" fill="#2D2926"></path>
                    </g>
                </g>
            </g>
        </g>
    </g>
</svg>